G04 #@! TF.GenerationSoftware,KiCad,Pcbnew,7.0.10*
G04 #@! TF.CreationDate,2024-03-12T12:36:54-06:00*
G04 #@! TF.ProjectId,ARXCarrierBoard,41525843-6172-4726-9965-72426f617264,rev?*
G04 #@! TF.SameCoordinates,Original*
G04 #@! TF.FileFunction,Soldermask,Top*
G04 #@! TF.FilePolarity,Negative*
%FSLAX46Y46*%
G04 Gerber Fmt 4.6, Leading zero omitted, Abs format (unit mm)*
G04 Created by KiCad (PCBNEW 7.0.10) date 2024-03-12 12:36:54*
%MOMM*%
%LPD*%
G01*
G04 APERTURE LIST*
G04 Aperture macros list*
%AMRoundRect*
0 Rectangle with rounded corners*
0 $1 Rounding radius*
0 $2 $3 $4 $5 $6 $7 $8 $9 X,Y pos of 4 corners*
0 Add a 4 corners polygon primitive as box body*
4,1,4,$2,$3,$4,$5,$6,$7,$8,$9,$2,$3,0*
0 Add four circle primitives for the rounded corners*
1,1,$1+$1,$2,$3*
1,1,$1+$1,$4,$5*
1,1,$1+$1,$6,$7*
1,1,$1+$1,$8,$9*
0 Add four rect primitives between the rounded corners*
20,1,$1+$1,$2,$3,$4,$5,0*
20,1,$1+$1,$4,$5,$6,$7,0*
20,1,$1+$1,$6,$7,$8,$9,0*
20,1,$1+$1,$8,$9,$2,$3,0*%
G04 Aperture macros list end*
%ADD10RoundRect,0.250000X0.650000X-0.412500X0.650000X0.412500X-0.650000X0.412500X-0.650000X-0.412500X0*%
%ADD11R,1.700000X1.700000*%
%ADD12O,1.700000X1.700000*%
%ADD13RoundRect,0.250000X-0.625000X0.400000X-0.625000X-0.400000X0.625000X-0.400000X0.625000X0.400000X0*%
%ADD14RoundRect,0.250000X0.400000X0.625000X-0.400000X0.625000X-0.400000X-0.625000X0.400000X-0.625000X0*%
%ADD15RoundRect,0.250000X-0.400000X-0.625000X0.400000X-0.625000X0.400000X0.625000X-0.400000X0.625000X0*%
%ADD16C,1.700000*%
%ADD17C,3.500000*%
%ADD18R,1.000000X1.700000*%
%ADD19RoundRect,0.250000X0.625000X-0.400000X0.625000X0.400000X-0.625000X0.400000X-0.625000X-0.400000X0*%
%ADD20RoundRect,0.250001X-0.462499X-0.624999X0.462499X-0.624999X0.462499X0.624999X-0.462499X0.624999X0*%
%ADD21RoundRect,0.250000X0.412500X0.650000X-0.412500X0.650000X-0.412500X-0.650000X0.412500X-0.650000X0*%
%ADD22RoundRect,0.150000X0.725000X0.150000X-0.725000X0.150000X-0.725000X-0.150000X0.725000X-0.150000X0*%
%ADD23O,2.748280X1.998980*%
%ADD24O,1.016000X2.032000*%
%ADD25C,1.143000*%
%ADD26RoundRect,0.250000X-0.412500X-0.650000X0.412500X-0.650000X0.412500X0.650000X-0.412500X0.650000X0*%
%ADD27RoundRect,0.150000X0.587500X0.150000X-0.587500X0.150000X-0.587500X-0.150000X0.587500X-0.150000X0*%
G04 APERTURE END LIST*
D10*
X198883270Y-93622990D03*
X198883270Y-90497990D03*
D11*
X210566000Y-76200000D03*
D12*
X213106000Y-76200000D03*
X210566000Y-78740000D03*
X213106000Y-78740000D03*
X210566000Y-81280000D03*
X213106000Y-81280000D03*
X210566000Y-83820000D03*
X213106000Y-83820000D03*
D13*
X178780770Y-66380490D03*
X178780770Y-69480490D03*
D14*
X184140770Y-71740490D03*
X181040770Y-71740490D03*
D15*
X198603270Y-88250490D03*
X201703270Y-88250490D03*
D11*
X197125590Y-97478310D03*
D16*
X194625590Y-97478310D03*
X194625590Y-99478310D03*
X197125590Y-99478310D03*
D17*
X201895590Y-102188310D03*
X189855590Y-102188310D03*
D13*
X183860770Y-74000490D03*
X183860770Y-77100490D03*
D18*
X208158000Y-96876000D03*
X208158000Y-90576000D03*
X211958000Y-96876000D03*
X211958000Y-90576000D03*
D19*
X184150000Y-96038000D03*
X184150000Y-92938000D03*
D20*
X181103270Y-66660490D03*
X184078270Y-66660490D03*
D11*
X178563270Y-81900490D03*
D12*
X178563270Y-79360490D03*
X178563270Y-76820490D03*
D21*
X210823270Y-71740490D03*
X207698270Y-71740490D03*
D20*
X181103270Y-69200490D03*
X184078270Y-69200490D03*
D21*
X210823270Y-66660490D03*
X207698270Y-66660490D03*
D22*
X194091000Y-92075000D03*
X194091000Y-90805000D03*
X194091000Y-89535000D03*
X194091000Y-88265000D03*
X188941000Y-88265000D03*
X188941000Y-89535000D03*
X188941000Y-90805000D03*
X188941000Y-92075000D03*
D19*
X183860770Y-82180490D03*
X183860770Y-79080490D03*
X184150000Y-87402000D03*
X184150000Y-84302000D03*
D21*
X191808500Y-93980000D03*
X188683500Y-93980000D03*
D23*
X187798710Y-66660490D03*
X187798710Y-69200490D03*
X187798710Y-71740490D03*
X187798710Y-74280490D03*
X187798710Y-76820490D03*
X187798710Y-79360490D03*
X187798710Y-81900490D03*
X203963270Y-81900490D03*
X203963270Y-79360490D03*
X203963270Y-76820490D03*
X203963270Y-74280490D03*
X203963270Y-71740490D03*
X203963270Y-69200490D03*
X203963270Y-66660490D03*
D24*
X194665590Y-82978310D03*
X197215590Y-82978310D03*
D25*
X194664393Y-65974123D03*
X197204393Y-65974123D03*
X194664393Y-68514123D03*
X197204393Y-68514123D03*
D15*
X204313270Y-88250490D03*
X207413270Y-88250490D03*
D26*
X207698270Y-69200490D03*
X210823270Y-69200490D03*
D11*
X178563270Y-93980000D03*
D12*
X178563270Y-91440000D03*
X178563270Y-88900000D03*
X178563270Y-86360000D03*
D19*
X186436000Y-91720000D03*
X186436000Y-88620000D03*
D27*
X183309500Y-91120000D03*
X183309500Y-89220000D03*
X181434500Y-90170000D03*
M02*
