%TF.GenerationSoftware,KiCad,Pcbnew,7.0.10*%
%TF.CreationDate,2024-03-12T12:38:01-06:00*%
%TF.ProjectId,ARXCarrierBoard,41525843-6172-4726-9965-72426f617264,rev?*%
%TF.SameCoordinates,Original*%
%TF.FileFunction,Drillmap*%
%TF.FilePolarity,Positive*%
%FSLAX45Y45*%
G04 Gerber Fmt 4.5, Leading zero omitted, Abs format (unit mm)*
G04 Created by KiCad (PCBNEW 7.0.10) date 2024-03-12 12:38:01*
%MOMM*%
%LPD*%
G01*
G04 APERTURE LIST*
%ADD10C,0.100000*%
%ADD11C,0.200000*%
%ADD12C,0.160000*%
%ADD13C,0.233000*%
G04 APERTURE END LIST*
D10*
X16789400Y-6350000D02*
X22377400Y-6350000D01*
X22377400Y-10515600D01*
X16789400Y-10515600D01*
X16789400Y-6350000D01*
D11*
D10*
X17699200Y-7767800D02*
X17759200Y-7827800D01*
X17759200Y-7767800D02*
X17699200Y-7827800D01*
X17953200Y-8987000D02*
X18013200Y-9047000D01*
X18013200Y-8987000D02*
X17953200Y-9047000D01*
X18004000Y-8606000D02*
X18064000Y-8666000D01*
X18064000Y-8606000D02*
X18004000Y-8666000D01*
X18004000Y-9368000D02*
X18064000Y-9428000D01*
X18064000Y-9368000D02*
X18004000Y-9428000D01*
X18029400Y-7564600D02*
X18089400Y-7624600D01*
X18089400Y-7564600D02*
X18029400Y-7624600D01*
X18029400Y-7996400D02*
X18089400Y-8056400D01*
X18089400Y-7996400D02*
X18029400Y-8056400D01*
X18181800Y-7361400D02*
X18241800Y-7421400D01*
X18241800Y-7361400D02*
X18181800Y-7421400D01*
X18181800Y-8199600D02*
X18241800Y-8259600D01*
X18241800Y-8199600D02*
X18181800Y-8259600D01*
X18181800Y-8783800D02*
X18241800Y-8843800D01*
X18241800Y-8783800D02*
X18181800Y-8843800D01*
X18181800Y-9190200D02*
X18241800Y-9250200D01*
X18241800Y-9190200D02*
X18181800Y-9250200D01*
X18207200Y-8402800D02*
X18267200Y-8462800D01*
X18267200Y-8402800D02*
X18207200Y-8462800D01*
X18461200Y-8987000D02*
X18521200Y-9047000D01*
X18521200Y-8987000D02*
X18461200Y-9047000D01*
X18537400Y-7513800D02*
X18597400Y-7573800D01*
X18597400Y-7513800D02*
X18537400Y-7573800D01*
X18537400Y-8047200D02*
X18597400Y-8107200D01*
X18597400Y-8047200D02*
X18537400Y-8107200D01*
X18562800Y-7780500D02*
X18622800Y-7840500D01*
X18622800Y-7780500D02*
X18562800Y-7840500D01*
X18639000Y-8682200D02*
X18699000Y-8742200D01*
X18699000Y-8682200D02*
X18639000Y-8742200D01*
X18689673Y-9368000D02*
X18749673Y-9428000D01*
X18749673Y-9368000D02*
X18689673Y-9428000D01*
X18689673Y-9545800D02*
X18749673Y-9605800D01*
X18749673Y-9545800D02*
X18689673Y-9605800D01*
X18842073Y-9545800D02*
X18902073Y-9605800D01*
X18902073Y-9545800D02*
X18842073Y-9605800D01*
X18943800Y-7780500D02*
X19003800Y-7840500D01*
X19003800Y-7780500D02*
X18943800Y-7840500D01*
X18943800Y-8047200D02*
X19003800Y-8107200D01*
X19003800Y-8047200D02*
X18943800Y-8107200D01*
X19045400Y-7386800D02*
X19105400Y-7446800D01*
X19105400Y-7386800D02*
X19045400Y-7446800D01*
X19045400Y-8910800D02*
X19105400Y-8970800D01*
X19105400Y-8910800D02*
X19045400Y-8970800D01*
X19045400Y-9063200D02*
X19105400Y-9123200D01*
X19105400Y-9063200D02*
X19045400Y-9123200D01*
X19248600Y-8047200D02*
X19308600Y-8107200D01*
X19308600Y-8047200D02*
X19248600Y-8107200D01*
X19248600Y-8250400D02*
X19308600Y-8310400D01*
X19308600Y-8250400D02*
X19248600Y-8310400D01*
X19426400Y-8047200D02*
X19486400Y-8107200D01*
X19486400Y-8047200D02*
X19426400Y-8107200D01*
X19426400Y-8656800D02*
X19486400Y-8716800D01*
X19486400Y-8656800D02*
X19426400Y-8716800D01*
X19426400Y-9317200D02*
X19486400Y-9377200D01*
X19486400Y-9317200D02*
X19426400Y-9377200D01*
X19451800Y-7056600D02*
X19511800Y-7116600D01*
X19511800Y-7056600D02*
X19451800Y-7116600D01*
X19578800Y-6701000D02*
X19638800Y-6761000D01*
X19638800Y-6701000D02*
X19578800Y-6761000D01*
X19578800Y-6929600D02*
X19638800Y-6989600D01*
X19638800Y-6929600D02*
X19578800Y-6989600D01*
X19705800Y-8047200D02*
X19765800Y-8107200D01*
X19765800Y-8047200D02*
X19705800Y-8107200D01*
X19807400Y-6701000D02*
X19867400Y-6761000D01*
X19867400Y-6701000D02*
X19807400Y-6761000D01*
X19807400Y-6929600D02*
X19867400Y-6989600D01*
X19867400Y-6929600D02*
X19807400Y-6989600D01*
X19858200Y-8199600D02*
X19918200Y-8259600D01*
X19918200Y-8199600D02*
X19858200Y-8259600D01*
X19936559Y-9558500D02*
X19996559Y-9618500D01*
X19996559Y-9558500D02*
X19936559Y-9618500D01*
X19936559Y-9717831D02*
X19996559Y-9777831D01*
X19996559Y-9717831D02*
X19936559Y-9777831D01*
X19936559Y-9876000D02*
X19996559Y-9936000D01*
X19996559Y-9876000D02*
X19936559Y-9936000D01*
X20105892Y-9717831D02*
X20165892Y-9777831D01*
X20165892Y-9717831D02*
X20105892Y-9777831D01*
X20105892Y-9876000D02*
X20165892Y-9936000D01*
X20165892Y-9876000D02*
X20105892Y-9936000D01*
X20137600Y-6726400D02*
X20197600Y-6786400D01*
X20197600Y-6726400D02*
X20137600Y-6786400D01*
X20137600Y-6878800D02*
X20197600Y-6938800D01*
X20197600Y-6878800D02*
X20137600Y-6938800D01*
X20137600Y-7031200D02*
X20197600Y-7091200D01*
X20197600Y-7031200D02*
X20137600Y-7091200D01*
X20137600Y-8402800D02*
X20197600Y-8462800D01*
X20197600Y-8402800D02*
X20137600Y-8462800D01*
X20163000Y-8047200D02*
X20223000Y-8107200D01*
X20223000Y-8047200D02*
X20163000Y-8107200D01*
X20290000Y-9495000D02*
X20350000Y-9555000D01*
X20350000Y-9495000D02*
X20290000Y-9555000D01*
X20290000Y-9717831D02*
X20350000Y-9777831D01*
X20350000Y-9717831D02*
X20290000Y-9777831D01*
X20290000Y-9876000D02*
X20350000Y-9936000D01*
X20350000Y-9876000D02*
X20290000Y-9936000D01*
X20493200Y-9545800D02*
X20553200Y-9605800D01*
X20553200Y-9545800D02*
X20493200Y-9605800D01*
X20493200Y-9723600D02*
X20553200Y-9783600D01*
X20553200Y-9723600D02*
X20493200Y-9783600D01*
X20493200Y-9876000D02*
X20553200Y-9936000D01*
X20553200Y-9876000D02*
X20493200Y-9936000D01*
X20588737Y-6445549D02*
X20648737Y-6505549D01*
X20648737Y-6445549D02*
X20588737Y-6505549D01*
X20741137Y-6445549D02*
X20801137Y-6505549D01*
X20801137Y-6445549D02*
X20741137Y-6505549D01*
X20743677Y-7336000D02*
X20803677Y-7396000D01*
X20803677Y-7336000D02*
X20743677Y-7396000D01*
X20893537Y-6445549D02*
X20953537Y-6505549D01*
X20953537Y-6445549D02*
X20893537Y-6505549D01*
X20896077Y-6636049D02*
X20956077Y-6696049D01*
X20956077Y-6636049D02*
X20896077Y-6696049D01*
X20896077Y-6890049D02*
X20956077Y-6950049D01*
X20956077Y-6890049D02*
X20896077Y-6950049D01*
X20896077Y-7144049D02*
X20956077Y-7204049D01*
X20956077Y-7144049D02*
X20896077Y-7204049D01*
X20896077Y-7336000D02*
X20956077Y-7396000D01*
X20956077Y-7336000D02*
X20896077Y-7396000D01*
X21052000Y-7336000D02*
X21112000Y-7396000D01*
X21112000Y-7336000D02*
X21052000Y-7396000D01*
X21077400Y-6447000D02*
X21137400Y-6507000D01*
X21137400Y-6447000D02*
X21077400Y-6507000D01*
X21204400Y-6624800D02*
X21264400Y-6684800D01*
X21264400Y-6624800D02*
X21204400Y-6684800D01*
X21204400Y-6878800D02*
X21264400Y-6938800D01*
X21264400Y-6878800D02*
X21204400Y-6938800D01*
X21458400Y-7717000D02*
X21518400Y-7777000D01*
X21518400Y-7717000D02*
X21458400Y-7777000D01*
X21458400Y-7971000D02*
X21518400Y-8031000D01*
X21518400Y-7971000D02*
X21458400Y-8031000D01*
X21458400Y-8225000D02*
X21518400Y-8285000D01*
X21518400Y-8225000D02*
X21458400Y-8285000D01*
X21458400Y-8504400D02*
X21518400Y-8564400D01*
X21518400Y-8504400D02*
X21458400Y-8564400D01*
X21534600Y-8809200D02*
X21594600Y-8869200D01*
X21594600Y-8809200D02*
X21534600Y-8869200D01*
X19508559Y-9747831D02*
G75*
G03*
X19416559Y-9747831I-46000J0D01*
G01*
X19416559Y-9747831D02*
G75*
G03*
X19508559Y-9747831I46000J0D01*
G01*
X19508559Y-9947831D02*
G75*
G03*
X19416559Y-9947831I-46000J0D01*
G01*
X19416559Y-9947831D02*
G75*
G03*
X19508559Y-9947831I46000J0D01*
G01*
X19758559Y-9747831D02*
G75*
G03*
X19666559Y-9747831I-46000J0D01*
G01*
X19666559Y-9747831D02*
G75*
G03*
X19758559Y-9747831I46000J0D01*
G01*
X19758559Y-9947831D02*
G75*
G03*
X19666559Y-9947831I-46000J0D01*
G01*
X19666559Y-9947831D02*
G75*
G03*
X19758559Y-9947831I46000J0D01*
G01*
X17856327Y-7632049D02*
X17856327Y-7732049D01*
X17806327Y-7682049D02*
X17906327Y-7682049D01*
X17856327Y-7886049D02*
X17856327Y-7986049D01*
X17806327Y-7936049D02*
X17906327Y-7936049D01*
X17856327Y-8140049D02*
X17856327Y-8240049D01*
X17806327Y-8190049D02*
X17906327Y-8190049D01*
X17856327Y-8586000D02*
X17856327Y-8686000D01*
X17806327Y-8636000D02*
X17906327Y-8636000D01*
X17856327Y-8840000D02*
X17856327Y-8940000D01*
X17806327Y-8890000D02*
X17906327Y-8890000D01*
X17856327Y-9094000D02*
X17856327Y-9194000D01*
X17806327Y-9144000D02*
X17906327Y-9144000D01*
X17856327Y-9348000D02*
X17856327Y-9448000D01*
X17806327Y-9398000D02*
X17906327Y-9398000D01*
X21056600Y-7570000D02*
X21056600Y-7670000D01*
X21006600Y-7620000D02*
X21106600Y-7620000D01*
X21056600Y-7824000D02*
X21056600Y-7924000D01*
X21006600Y-7874000D02*
X21106600Y-7874000D01*
X21056600Y-8078000D02*
X21056600Y-8178000D01*
X21006600Y-8128000D02*
X21106600Y-8128000D01*
X21056600Y-8332000D02*
X21056600Y-8432000D01*
X21006600Y-8382000D02*
X21106600Y-8382000D01*
X21310600Y-7570000D02*
X21310600Y-7670000D01*
X21260600Y-7620000D02*
X21360600Y-7620000D01*
X21310600Y-7824000D02*
X21310600Y-7924000D01*
X21260600Y-7874000D02*
X21360600Y-7874000D01*
X21310600Y-8078000D02*
X21310600Y-8178000D01*
X21260600Y-8128000D02*
X21360600Y-8128000D01*
X21310600Y-8332000D02*
X21310600Y-8432000D01*
X21260600Y-8382000D02*
X21360600Y-8382000D01*
D12*
X17125369Y-6685969D02*
X17125369Y-6572831D01*
X17012231Y-6572831D01*
X17012231Y-6685969D01*
X17125369Y-6685969D01*
X17125369Y-10292769D02*
X17125369Y-10179631D01*
X17012231Y-10179631D01*
X17012231Y-10292769D01*
X17125369Y-10292769D01*
X22154569Y-6685969D02*
X22154569Y-6572831D01*
X22041431Y-6572831D01*
X22041431Y-6685969D01*
X22154569Y-6685969D01*
X22154569Y-10292769D02*
X22154569Y-10179631D01*
X22041431Y-10179631D01*
X22041431Y-10292769D01*
X22154569Y-10292769D01*
D13*
X18985559Y-10335331D02*
X19102059Y-10218831D01*
X18985559Y-10102331D01*
X18869059Y-10218831D01*
X18985559Y-10335331D01*
X20189559Y-10335331D02*
X20306059Y-10218831D01*
X20189559Y-10102331D01*
X20073059Y-10218831D01*
X20189559Y-10335331D01*
D11*
X17045177Y-10832084D02*
X17045177Y-10632084D01*
X17045177Y-10632084D02*
X17092796Y-10632084D01*
X17092796Y-10632084D02*
X17121367Y-10641608D01*
X17121367Y-10641608D02*
X17140415Y-10660655D01*
X17140415Y-10660655D02*
X17149939Y-10679703D01*
X17149939Y-10679703D02*
X17159463Y-10717798D01*
X17159463Y-10717798D02*
X17159463Y-10746370D01*
X17159463Y-10746370D02*
X17149939Y-10784465D01*
X17149939Y-10784465D02*
X17140415Y-10803512D01*
X17140415Y-10803512D02*
X17121367Y-10822560D01*
X17121367Y-10822560D02*
X17092796Y-10832084D01*
X17092796Y-10832084D02*
X17045177Y-10832084D01*
X17245177Y-10832084D02*
X17245177Y-10698750D01*
X17245177Y-10736846D02*
X17254701Y-10717798D01*
X17254701Y-10717798D02*
X17264224Y-10708274D01*
X17264224Y-10708274D02*
X17283272Y-10698750D01*
X17283272Y-10698750D02*
X17302320Y-10698750D01*
X17368986Y-10832084D02*
X17368986Y-10698750D01*
X17368986Y-10632084D02*
X17359463Y-10641608D01*
X17359463Y-10641608D02*
X17368986Y-10651131D01*
X17368986Y-10651131D02*
X17378510Y-10641608D01*
X17378510Y-10641608D02*
X17368986Y-10632084D01*
X17368986Y-10632084D02*
X17368986Y-10651131D01*
X17492796Y-10832084D02*
X17473748Y-10822560D01*
X17473748Y-10822560D02*
X17464224Y-10803512D01*
X17464224Y-10803512D02*
X17464224Y-10632084D01*
X17597558Y-10832084D02*
X17578510Y-10822560D01*
X17578510Y-10822560D02*
X17568986Y-10803512D01*
X17568986Y-10803512D02*
X17568986Y-10632084D01*
X17826129Y-10832084D02*
X17826129Y-10632084D01*
X17826129Y-10632084D02*
X17892796Y-10774941D01*
X17892796Y-10774941D02*
X17959463Y-10632084D01*
X17959463Y-10632084D02*
X17959463Y-10832084D01*
X18140415Y-10832084D02*
X18140415Y-10727322D01*
X18140415Y-10727322D02*
X18130891Y-10708274D01*
X18130891Y-10708274D02*
X18111844Y-10698750D01*
X18111844Y-10698750D02*
X18073748Y-10698750D01*
X18073748Y-10698750D02*
X18054701Y-10708274D01*
X18140415Y-10822560D02*
X18121367Y-10832084D01*
X18121367Y-10832084D02*
X18073748Y-10832084D01*
X18073748Y-10832084D02*
X18054701Y-10822560D01*
X18054701Y-10822560D02*
X18045177Y-10803512D01*
X18045177Y-10803512D02*
X18045177Y-10784465D01*
X18045177Y-10784465D02*
X18054701Y-10765417D01*
X18054701Y-10765417D02*
X18073748Y-10755893D01*
X18073748Y-10755893D02*
X18121367Y-10755893D01*
X18121367Y-10755893D02*
X18140415Y-10746370D01*
X18235653Y-10698750D02*
X18235653Y-10898750D01*
X18235653Y-10708274D02*
X18254701Y-10698750D01*
X18254701Y-10698750D02*
X18292796Y-10698750D01*
X18292796Y-10698750D02*
X18311844Y-10708274D01*
X18311844Y-10708274D02*
X18321367Y-10717798D01*
X18321367Y-10717798D02*
X18330891Y-10736846D01*
X18330891Y-10736846D02*
X18330891Y-10793989D01*
X18330891Y-10793989D02*
X18321367Y-10813036D01*
X18321367Y-10813036D02*
X18311844Y-10822560D01*
X18311844Y-10822560D02*
X18292796Y-10832084D01*
X18292796Y-10832084D02*
X18254701Y-10832084D01*
X18254701Y-10832084D02*
X18235653Y-10822560D01*
X18416605Y-10813036D02*
X18426129Y-10822560D01*
X18426129Y-10822560D02*
X18416605Y-10832084D01*
X18416605Y-10832084D02*
X18407082Y-10822560D01*
X18407082Y-10822560D02*
X18416605Y-10813036D01*
X18416605Y-10813036D02*
X18416605Y-10832084D01*
X18416605Y-10708274D02*
X18426129Y-10717798D01*
X18426129Y-10717798D02*
X18416605Y-10727322D01*
X18416605Y-10727322D02*
X18407082Y-10717798D01*
X18407082Y-10717798D02*
X18416605Y-10708274D01*
X18416605Y-10708274D02*
X18416605Y-10727322D01*
D10*
X16724400Y-11130600D02*
X16784400Y-11190600D01*
X16784400Y-11130600D02*
X16724400Y-11190600D01*
D11*
X17083272Y-11052084D02*
X17102320Y-11052084D01*
X17102320Y-11052084D02*
X17121367Y-11061608D01*
X17121367Y-11061608D02*
X17130891Y-11071131D01*
X17130891Y-11071131D02*
X17140415Y-11090179D01*
X17140415Y-11090179D02*
X17149939Y-11128274D01*
X17149939Y-11128274D02*
X17149939Y-11175893D01*
X17149939Y-11175893D02*
X17140415Y-11213988D01*
X17140415Y-11213988D02*
X17130891Y-11233036D01*
X17130891Y-11233036D02*
X17121367Y-11242560D01*
X17121367Y-11242560D02*
X17102320Y-11252084D01*
X17102320Y-11252084D02*
X17083272Y-11252084D01*
X17083272Y-11252084D02*
X17064224Y-11242560D01*
X17064224Y-11242560D02*
X17054701Y-11233036D01*
X17054701Y-11233036D02*
X17045177Y-11213988D01*
X17045177Y-11213988D02*
X17035653Y-11175893D01*
X17035653Y-11175893D02*
X17035653Y-11128274D01*
X17035653Y-11128274D02*
X17045177Y-11090179D01*
X17045177Y-11090179D02*
X17054701Y-11071131D01*
X17054701Y-11071131D02*
X17064224Y-11061608D01*
X17064224Y-11061608D02*
X17083272Y-11052084D01*
X17235653Y-11233036D02*
X17245177Y-11242560D01*
X17245177Y-11242560D02*
X17235653Y-11252084D01*
X17235653Y-11252084D02*
X17226129Y-11242560D01*
X17226129Y-11242560D02*
X17235653Y-11233036D01*
X17235653Y-11233036D02*
X17235653Y-11252084D01*
X17416605Y-11052084D02*
X17378510Y-11052084D01*
X17378510Y-11052084D02*
X17359463Y-11061608D01*
X17359463Y-11061608D02*
X17349939Y-11071131D01*
X17349939Y-11071131D02*
X17330891Y-11099703D01*
X17330891Y-11099703D02*
X17321367Y-11137798D01*
X17321367Y-11137798D02*
X17321367Y-11213988D01*
X17321367Y-11213988D02*
X17330891Y-11233036D01*
X17330891Y-11233036D02*
X17340415Y-11242560D01*
X17340415Y-11242560D02*
X17359463Y-11252084D01*
X17359463Y-11252084D02*
X17397558Y-11252084D01*
X17397558Y-11252084D02*
X17416605Y-11242560D01*
X17416605Y-11242560D02*
X17426129Y-11233036D01*
X17426129Y-11233036D02*
X17435653Y-11213988D01*
X17435653Y-11213988D02*
X17435653Y-11166370D01*
X17435653Y-11166370D02*
X17426129Y-11147322D01*
X17426129Y-11147322D02*
X17416605Y-11137798D01*
X17416605Y-11137798D02*
X17397558Y-11128274D01*
X17397558Y-11128274D02*
X17359463Y-11128274D01*
X17359463Y-11128274D02*
X17340415Y-11137798D01*
X17340415Y-11137798D02*
X17330891Y-11147322D01*
X17330891Y-11147322D02*
X17321367Y-11166370D01*
X17559463Y-11052084D02*
X17578510Y-11052084D01*
X17578510Y-11052084D02*
X17597558Y-11061608D01*
X17597558Y-11061608D02*
X17607082Y-11071131D01*
X17607082Y-11071131D02*
X17616605Y-11090179D01*
X17616605Y-11090179D02*
X17626129Y-11128274D01*
X17626129Y-11128274D02*
X17626129Y-11175893D01*
X17626129Y-11175893D02*
X17616605Y-11213988D01*
X17616605Y-11213988D02*
X17607082Y-11233036D01*
X17607082Y-11233036D02*
X17597558Y-11242560D01*
X17597558Y-11242560D02*
X17578510Y-11252084D01*
X17578510Y-11252084D02*
X17559463Y-11252084D01*
X17559463Y-11252084D02*
X17540415Y-11242560D01*
X17540415Y-11242560D02*
X17530891Y-11233036D01*
X17530891Y-11233036D02*
X17521367Y-11213988D01*
X17521367Y-11213988D02*
X17511844Y-11175893D01*
X17511844Y-11175893D02*
X17511844Y-11128274D01*
X17511844Y-11128274D02*
X17521367Y-11090179D01*
X17521367Y-11090179D02*
X17530891Y-11071131D01*
X17530891Y-11071131D02*
X17540415Y-11061608D01*
X17540415Y-11061608D02*
X17559463Y-11052084D01*
X17749939Y-11052084D02*
X17768986Y-11052084D01*
X17768986Y-11052084D02*
X17788034Y-11061608D01*
X17788034Y-11061608D02*
X17797558Y-11071131D01*
X17797558Y-11071131D02*
X17807082Y-11090179D01*
X17807082Y-11090179D02*
X17816605Y-11128274D01*
X17816605Y-11128274D02*
X17816605Y-11175893D01*
X17816605Y-11175893D02*
X17807082Y-11213988D01*
X17807082Y-11213988D02*
X17797558Y-11233036D01*
X17797558Y-11233036D02*
X17788034Y-11242560D01*
X17788034Y-11242560D02*
X17768986Y-11252084D01*
X17768986Y-11252084D02*
X17749939Y-11252084D01*
X17749939Y-11252084D02*
X17730891Y-11242560D01*
X17730891Y-11242560D02*
X17721367Y-11233036D01*
X17721367Y-11233036D02*
X17711844Y-11213988D01*
X17711844Y-11213988D02*
X17702320Y-11175893D01*
X17702320Y-11175893D02*
X17702320Y-11128274D01*
X17702320Y-11128274D02*
X17711844Y-11090179D01*
X17711844Y-11090179D02*
X17721367Y-11071131D01*
X17721367Y-11071131D02*
X17730891Y-11061608D01*
X17730891Y-11061608D02*
X17749939Y-11052084D01*
X17902320Y-11252084D02*
X17902320Y-11118750D01*
X17902320Y-11137798D02*
X17911844Y-11128274D01*
X17911844Y-11128274D02*
X17930891Y-11118750D01*
X17930891Y-11118750D02*
X17959463Y-11118750D01*
X17959463Y-11118750D02*
X17978510Y-11128274D01*
X17978510Y-11128274D02*
X17988034Y-11147322D01*
X17988034Y-11147322D02*
X17988034Y-11252084D01*
X17988034Y-11147322D02*
X17997558Y-11128274D01*
X17997558Y-11128274D02*
X18016605Y-11118750D01*
X18016605Y-11118750D02*
X18045177Y-11118750D01*
X18045177Y-11118750D02*
X18064225Y-11128274D01*
X18064225Y-11128274D02*
X18073748Y-11147322D01*
X18073748Y-11147322D02*
X18073748Y-11252084D01*
X18168986Y-11252084D02*
X18168986Y-11118750D01*
X18168986Y-11137798D02*
X18178510Y-11128274D01*
X18178510Y-11128274D02*
X18197558Y-11118750D01*
X18197558Y-11118750D02*
X18226129Y-11118750D01*
X18226129Y-11118750D02*
X18245177Y-11128274D01*
X18245177Y-11128274D02*
X18254701Y-11147322D01*
X18254701Y-11147322D02*
X18254701Y-11252084D01*
X18254701Y-11147322D02*
X18264225Y-11128274D01*
X18264225Y-11128274D02*
X18283272Y-11118750D01*
X18283272Y-11118750D02*
X18311844Y-11118750D01*
X18311844Y-11118750D02*
X18330891Y-11128274D01*
X18330891Y-11128274D02*
X18340415Y-11147322D01*
X18340415Y-11147322D02*
X18340415Y-11252084D01*
X18730891Y-11042560D02*
X18559463Y-11299703D01*
X18988034Y-11052084D02*
X19007082Y-11052084D01*
X19007082Y-11052084D02*
X19026129Y-11061608D01*
X19026129Y-11061608D02*
X19035653Y-11071131D01*
X19035653Y-11071131D02*
X19045177Y-11090179D01*
X19045177Y-11090179D02*
X19054701Y-11128274D01*
X19054701Y-11128274D02*
X19054701Y-11175893D01*
X19054701Y-11175893D02*
X19045177Y-11213988D01*
X19045177Y-11213988D02*
X19035653Y-11233036D01*
X19035653Y-11233036D02*
X19026129Y-11242560D01*
X19026129Y-11242560D02*
X19007082Y-11252084D01*
X19007082Y-11252084D02*
X18988034Y-11252084D01*
X18988034Y-11252084D02*
X18968987Y-11242560D01*
X18968987Y-11242560D02*
X18959463Y-11233036D01*
X18959463Y-11233036D02*
X18949939Y-11213988D01*
X18949939Y-11213988D02*
X18940415Y-11175893D01*
X18940415Y-11175893D02*
X18940415Y-11128274D01*
X18940415Y-11128274D02*
X18949939Y-11090179D01*
X18949939Y-11090179D02*
X18959463Y-11071131D01*
X18959463Y-11071131D02*
X18968987Y-11061608D01*
X18968987Y-11061608D02*
X18988034Y-11052084D01*
X19140415Y-11233036D02*
X19149939Y-11242560D01*
X19149939Y-11242560D02*
X19140415Y-11252084D01*
X19140415Y-11252084D02*
X19130891Y-11242560D01*
X19130891Y-11242560D02*
X19140415Y-11233036D01*
X19140415Y-11233036D02*
X19140415Y-11252084D01*
X19273748Y-11052084D02*
X19292796Y-11052084D01*
X19292796Y-11052084D02*
X19311844Y-11061608D01*
X19311844Y-11061608D02*
X19321368Y-11071131D01*
X19321368Y-11071131D02*
X19330891Y-11090179D01*
X19330891Y-11090179D02*
X19340415Y-11128274D01*
X19340415Y-11128274D02*
X19340415Y-11175893D01*
X19340415Y-11175893D02*
X19330891Y-11213988D01*
X19330891Y-11213988D02*
X19321368Y-11233036D01*
X19321368Y-11233036D02*
X19311844Y-11242560D01*
X19311844Y-11242560D02*
X19292796Y-11252084D01*
X19292796Y-11252084D02*
X19273748Y-11252084D01*
X19273748Y-11252084D02*
X19254701Y-11242560D01*
X19254701Y-11242560D02*
X19245177Y-11233036D01*
X19245177Y-11233036D02*
X19235653Y-11213988D01*
X19235653Y-11213988D02*
X19226129Y-11175893D01*
X19226129Y-11175893D02*
X19226129Y-11128274D01*
X19226129Y-11128274D02*
X19235653Y-11090179D01*
X19235653Y-11090179D02*
X19245177Y-11071131D01*
X19245177Y-11071131D02*
X19254701Y-11061608D01*
X19254701Y-11061608D02*
X19273748Y-11052084D01*
X19416606Y-11071131D02*
X19426129Y-11061608D01*
X19426129Y-11061608D02*
X19445177Y-11052084D01*
X19445177Y-11052084D02*
X19492796Y-11052084D01*
X19492796Y-11052084D02*
X19511844Y-11061608D01*
X19511844Y-11061608D02*
X19521368Y-11071131D01*
X19521368Y-11071131D02*
X19530891Y-11090179D01*
X19530891Y-11090179D02*
X19530891Y-11109227D01*
X19530891Y-11109227D02*
X19521368Y-11137798D01*
X19521368Y-11137798D02*
X19407082Y-11252084D01*
X19407082Y-11252084D02*
X19530891Y-11252084D01*
X19597558Y-11052084D02*
X19721368Y-11052084D01*
X19721368Y-11052084D02*
X19654701Y-11128274D01*
X19654701Y-11128274D02*
X19683272Y-11128274D01*
X19683272Y-11128274D02*
X19702320Y-11137798D01*
X19702320Y-11137798D02*
X19711844Y-11147322D01*
X19711844Y-11147322D02*
X19721368Y-11166370D01*
X19721368Y-11166370D02*
X19721368Y-11213988D01*
X19721368Y-11213988D02*
X19711844Y-11233036D01*
X19711844Y-11233036D02*
X19702320Y-11242560D01*
X19702320Y-11242560D02*
X19683272Y-11252084D01*
X19683272Y-11252084D02*
X19626129Y-11252084D01*
X19626129Y-11252084D02*
X19607082Y-11242560D01*
X19607082Y-11242560D02*
X19597558Y-11233036D01*
X19892796Y-11052084D02*
X19854701Y-11052084D01*
X19854701Y-11052084D02*
X19835653Y-11061608D01*
X19835653Y-11061608D02*
X19826129Y-11071131D01*
X19826129Y-11071131D02*
X19807082Y-11099703D01*
X19807082Y-11099703D02*
X19797558Y-11137798D01*
X19797558Y-11137798D02*
X19797558Y-11213988D01*
X19797558Y-11213988D02*
X19807082Y-11233036D01*
X19807082Y-11233036D02*
X19816606Y-11242560D01*
X19816606Y-11242560D02*
X19835653Y-11252084D01*
X19835653Y-11252084D02*
X19873749Y-11252084D01*
X19873749Y-11252084D02*
X19892796Y-11242560D01*
X19892796Y-11242560D02*
X19902320Y-11233036D01*
X19902320Y-11233036D02*
X19911844Y-11213988D01*
X19911844Y-11213988D02*
X19911844Y-11166370D01*
X19911844Y-11166370D02*
X19902320Y-11147322D01*
X19902320Y-11147322D02*
X19892796Y-11137798D01*
X19892796Y-11137798D02*
X19873749Y-11128274D01*
X19873749Y-11128274D02*
X19835653Y-11128274D01*
X19835653Y-11128274D02*
X19816606Y-11137798D01*
X19816606Y-11137798D02*
X19807082Y-11147322D01*
X19807082Y-11147322D02*
X19797558Y-11166370D01*
X19988034Y-11052084D02*
X19988034Y-11090179D01*
X20064225Y-11052084D02*
X20064225Y-11090179D01*
X20359463Y-11328274D02*
X20349939Y-11318750D01*
X20349939Y-11318750D02*
X20330891Y-11290179D01*
X20330891Y-11290179D02*
X20321368Y-11271131D01*
X20321368Y-11271131D02*
X20311844Y-11242560D01*
X20311844Y-11242560D02*
X20302320Y-11194941D01*
X20302320Y-11194941D02*
X20302320Y-11156846D01*
X20302320Y-11156846D02*
X20311844Y-11109227D01*
X20311844Y-11109227D02*
X20321368Y-11080655D01*
X20321368Y-11080655D02*
X20330891Y-11061608D01*
X20330891Y-11061608D02*
X20349939Y-11033036D01*
X20349939Y-11033036D02*
X20359463Y-11023512D01*
X20521368Y-11052084D02*
X20483272Y-11052084D01*
X20483272Y-11052084D02*
X20464225Y-11061608D01*
X20464225Y-11061608D02*
X20454701Y-11071131D01*
X20454701Y-11071131D02*
X20435653Y-11099703D01*
X20435653Y-11099703D02*
X20426130Y-11137798D01*
X20426130Y-11137798D02*
X20426130Y-11213988D01*
X20426130Y-11213988D02*
X20435653Y-11233036D01*
X20435653Y-11233036D02*
X20445177Y-11242560D01*
X20445177Y-11242560D02*
X20464225Y-11252084D01*
X20464225Y-11252084D02*
X20502320Y-11252084D01*
X20502320Y-11252084D02*
X20521368Y-11242560D01*
X20521368Y-11242560D02*
X20530891Y-11233036D01*
X20530891Y-11233036D02*
X20540415Y-11213988D01*
X20540415Y-11213988D02*
X20540415Y-11166370D01*
X20540415Y-11166370D02*
X20530891Y-11147322D01*
X20530891Y-11147322D02*
X20521368Y-11137798D01*
X20521368Y-11137798D02*
X20502320Y-11128274D01*
X20502320Y-11128274D02*
X20464225Y-11128274D01*
X20464225Y-11128274D02*
X20445177Y-11137798D01*
X20445177Y-11137798D02*
X20435653Y-11147322D01*
X20435653Y-11147322D02*
X20426130Y-11166370D01*
X20635653Y-11252084D02*
X20673749Y-11252084D01*
X20673749Y-11252084D02*
X20692796Y-11242560D01*
X20692796Y-11242560D02*
X20702320Y-11233036D01*
X20702320Y-11233036D02*
X20721368Y-11204465D01*
X20721368Y-11204465D02*
X20730891Y-11166370D01*
X20730891Y-11166370D02*
X20730891Y-11090179D01*
X20730891Y-11090179D02*
X20721368Y-11071131D01*
X20721368Y-11071131D02*
X20711844Y-11061608D01*
X20711844Y-11061608D02*
X20692796Y-11052084D01*
X20692796Y-11052084D02*
X20654701Y-11052084D01*
X20654701Y-11052084D02*
X20635653Y-11061608D01*
X20635653Y-11061608D02*
X20626130Y-11071131D01*
X20626130Y-11071131D02*
X20616606Y-11090179D01*
X20616606Y-11090179D02*
X20616606Y-11137798D01*
X20616606Y-11137798D02*
X20626130Y-11156846D01*
X20626130Y-11156846D02*
X20635653Y-11166370D01*
X20635653Y-11166370D02*
X20654701Y-11175893D01*
X20654701Y-11175893D02*
X20692796Y-11175893D01*
X20692796Y-11175893D02*
X20711844Y-11166370D01*
X20711844Y-11166370D02*
X20721368Y-11156846D01*
X20721368Y-11156846D02*
X20730891Y-11137798D01*
X20968987Y-11252084D02*
X20968987Y-11052084D01*
X21054701Y-11252084D02*
X21054701Y-11147322D01*
X21054701Y-11147322D02*
X21045177Y-11128274D01*
X21045177Y-11128274D02*
X21026130Y-11118750D01*
X21026130Y-11118750D02*
X20997558Y-11118750D01*
X20997558Y-11118750D02*
X20978511Y-11128274D01*
X20978511Y-11128274D02*
X20968987Y-11137798D01*
X21178511Y-11252084D02*
X21159463Y-11242560D01*
X21159463Y-11242560D02*
X21149939Y-11233036D01*
X21149939Y-11233036D02*
X21140415Y-11213988D01*
X21140415Y-11213988D02*
X21140415Y-11156846D01*
X21140415Y-11156846D02*
X21149939Y-11137798D01*
X21149939Y-11137798D02*
X21159463Y-11128274D01*
X21159463Y-11128274D02*
X21178511Y-11118750D01*
X21178511Y-11118750D02*
X21207082Y-11118750D01*
X21207082Y-11118750D02*
X21226130Y-11128274D01*
X21226130Y-11128274D02*
X21235653Y-11137798D01*
X21235653Y-11137798D02*
X21245177Y-11156846D01*
X21245177Y-11156846D02*
X21245177Y-11213988D01*
X21245177Y-11213988D02*
X21235653Y-11233036D01*
X21235653Y-11233036D02*
X21226130Y-11242560D01*
X21226130Y-11242560D02*
X21207082Y-11252084D01*
X21207082Y-11252084D02*
X21178511Y-11252084D01*
X21359463Y-11252084D02*
X21340415Y-11242560D01*
X21340415Y-11242560D02*
X21330892Y-11223512D01*
X21330892Y-11223512D02*
X21330892Y-11052084D01*
X21511844Y-11242560D02*
X21492796Y-11252084D01*
X21492796Y-11252084D02*
X21454701Y-11252084D01*
X21454701Y-11252084D02*
X21435653Y-11242560D01*
X21435653Y-11242560D02*
X21426130Y-11223512D01*
X21426130Y-11223512D02*
X21426130Y-11147322D01*
X21426130Y-11147322D02*
X21435653Y-11128274D01*
X21435653Y-11128274D02*
X21454701Y-11118750D01*
X21454701Y-11118750D02*
X21492796Y-11118750D01*
X21492796Y-11118750D02*
X21511844Y-11128274D01*
X21511844Y-11128274D02*
X21521368Y-11147322D01*
X21521368Y-11147322D02*
X21521368Y-11166370D01*
X21521368Y-11166370D02*
X21426130Y-11185417D01*
X21597558Y-11242560D02*
X21616606Y-11252084D01*
X21616606Y-11252084D02*
X21654701Y-11252084D01*
X21654701Y-11252084D02*
X21673749Y-11242560D01*
X21673749Y-11242560D02*
X21683273Y-11223512D01*
X21683273Y-11223512D02*
X21683273Y-11213988D01*
X21683273Y-11213988D02*
X21673749Y-11194941D01*
X21673749Y-11194941D02*
X21654701Y-11185417D01*
X21654701Y-11185417D02*
X21626130Y-11185417D01*
X21626130Y-11185417D02*
X21607082Y-11175893D01*
X21607082Y-11175893D02*
X21597558Y-11156846D01*
X21597558Y-11156846D02*
X21597558Y-11147322D01*
X21597558Y-11147322D02*
X21607082Y-11128274D01*
X21607082Y-11128274D02*
X21626130Y-11118750D01*
X21626130Y-11118750D02*
X21654701Y-11118750D01*
X21654701Y-11118750D02*
X21673749Y-11128274D01*
X21749939Y-11328274D02*
X21759463Y-11318750D01*
X21759463Y-11318750D02*
X21778511Y-11290179D01*
X21778511Y-11290179D02*
X21788034Y-11271131D01*
X21788034Y-11271131D02*
X21797558Y-11242560D01*
X21797558Y-11242560D02*
X21807082Y-11194941D01*
X21807082Y-11194941D02*
X21807082Y-11156846D01*
X21807082Y-11156846D02*
X21797558Y-11109227D01*
X21797558Y-11109227D02*
X21788034Y-11080655D01*
X21788034Y-11080655D02*
X21778511Y-11061608D01*
X21778511Y-11061608D02*
X21759463Y-11033036D01*
X21759463Y-11033036D02*
X21749939Y-11023512D01*
D10*
X16784400Y-11424600D02*
G75*
G03*
X16692400Y-11424600I-46000J0D01*
G01*
X16692400Y-11424600D02*
G75*
G03*
X16784400Y-11424600I46000J0D01*
G01*
D11*
X17083272Y-11316084D02*
X17102320Y-11316084D01*
X17102320Y-11316084D02*
X17121367Y-11325608D01*
X17121367Y-11325608D02*
X17130891Y-11335131D01*
X17130891Y-11335131D02*
X17140415Y-11354179D01*
X17140415Y-11354179D02*
X17149939Y-11392274D01*
X17149939Y-11392274D02*
X17149939Y-11439893D01*
X17149939Y-11439893D02*
X17140415Y-11477988D01*
X17140415Y-11477988D02*
X17130891Y-11497036D01*
X17130891Y-11497036D02*
X17121367Y-11506560D01*
X17121367Y-11506560D02*
X17102320Y-11516084D01*
X17102320Y-11516084D02*
X17083272Y-11516084D01*
X17083272Y-11516084D02*
X17064224Y-11506560D01*
X17064224Y-11506560D02*
X17054701Y-11497036D01*
X17054701Y-11497036D02*
X17045177Y-11477988D01*
X17045177Y-11477988D02*
X17035653Y-11439893D01*
X17035653Y-11439893D02*
X17035653Y-11392274D01*
X17035653Y-11392274D02*
X17045177Y-11354179D01*
X17045177Y-11354179D02*
X17054701Y-11335131D01*
X17054701Y-11335131D02*
X17064224Y-11325608D01*
X17064224Y-11325608D02*
X17083272Y-11316084D01*
X17235653Y-11497036D02*
X17245177Y-11506560D01*
X17245177Y-11506560D02*
X17235653Y-11516084D01*
X17235653Y-11516084D02*
X17226129Y-11506560D01*
X17226129Y-11506560D02*
X17235653Y-11497036D01*
X17235653Y-11497036D02*
X17235653Y-11516084D01*
X17340415Y-11516084D02*
X17378510Y-11516084D01*
X17378510Y-11516084D02*
X17397558Y-11506560D01*
X17397558Y-11506560D02*
X17407082Y-11497036D01*
X17407082Y-11497036D02*
X17426129Y-11468465D01*
X17426129Y-11468465D02*
X17435653Y-11430369D01*
X17435653Y-11430369D02*
X17435653Y-11354179D01*
X17435653Y-11354179D02*
X17426129Y-11335131D01*
X17426129Y-11335131D02*
X17416605Y-11325608D01*
X17416605Y-11325608D02*
X17397558Y-11316084D01*
X17397558Y-11316084D02*
X17359463Y-11316084D01*
X17359463Y-11316084D02*
X17340415Y-11325608D01*
X17340415Y-11325608D02*
X17330891Y-11335131D01*
X17330891Y-11335131D02*
X17321367Y-11354179D01*
X17321367Y-11354179D02*
X17321367Y-11401798D01*
X17321367Y-11401798D02*
X17330891Y-11420846D01*
X17330891Y-11420846D02*
X17340415Y-11430369D01*
X17340415Y-11430369D02*
X17359463Y-11439893D01*
X17359463Y-11439893D02*
X17397558Y-11439893D01*
X17397558Y-11439893D02*
X17416605Y-11430369D01*
X17416605Y-11430369D02*
X17426129Y-11420846D01*
X17426129Y-11420846D02*
X17435653Y-11401798D01*
X17511844Y-11335131D02*
X17521367Y-11325608D01*
X17521367Y-11325608D02*
X17540415Y-11316084D01*
X17540415Y-11316084D02*
X17588034Y-11316084D01*
X17588034Y-11316084D02*
X17607082Y-11325608D01*
X17607082Y-11325608D02*
X17616605Y-11335131D01*
X17616605Y-11335131D02*
X17626129Y-11354179D01*
X17626129Y-11354179D02*
X17626129Y-11373227D01*
X17626129Y-11373227D02*
X17616605Y-11401798D01*
X17616605Y-11401798D02*
X17502320Y-11516084D01*
X17502320Y-11516084D02*
X17626129Y-11516084D01*
X17749939Y-11316084D02*
X17768986Y-11316084D01*
X17768986Y-11316084D02*
X17788034Y-11325608D01*
X17788034Y-11325608D02*
X17797558Y-11335131D01*
X17797558Y-11335131D02*
X17807082Y-11354179D01*
X17807082Y-11354179D02*
X17816605Y-11392274D01*
X17816605Y-11392274D02*
X17816605Y-11439893D01*
X17816605Y-11439893D02*
X17807082Y-11477988D01*
X17807082Y-11477988D02*
X17797558Y-11497036D01*
X17797558Y-11497036D02*
X17788034Y-11506560D01*
X17788034Y-11506560D02*
X17768986Y-11516084D01*
X17768986Y-11516084D02*
X17749939Y-11516084D01*
X17749939Y-11516084D02*
X17730891Y-11506560D01*
X17730891Y-11506560D02*
X17721367Y-11497036D01*
X17721367Y-11497036D02*
X17711844Y-11477988D01*
X17711844Y-11477988D02*
X17702320Y-11439893D01*
X17702320Y-11439893D02*
X17702320Y-11392274D01*
X17702320Y-11392274D02*
X17711844Y-11354179D01*
X17711844Y-11354179D02*
X17721367Y-11335131D01*
X17721367Y-11335131D02*
X17730891Y-11325608D01*
X17730891Y-11325608D02*
X17749939Y-11316084D01*
X17902320Y-11516084D02*
X17902320Y-11382750D01*
X17902320Y-11401798D02*
X17911844Y-11392274D01*
X17911844Y-11392274D02*
X17930891Y-11382750D01*
X17930891Y-11382750D02*
X17959463Y-11382750D01*
X17959463Y-11382750D02*
X17978510Y-11392274D01*
X17978510Y-11392274D02*
X17988034Y-11411322D01*
X17988034Y-11411322D02*
X17988034Y-11516084D01*
X17988034Y-11411322D02*
X17997558Y-11392274D01*
X17997558Y-11392274D02*
X18016605Y-11382750D01*
X18016605Y-11382750D02*
X18045177Y-11382750D01*
X18045177Y-11382750D02*
X18064225Y-11392274D01*
X18064225Y-11392274D02*
X18073748Y-11411322D01*
X18073748Y-11411322D02*
X18073748Y-11516084D01*
X18168986Y-11516084D02*
X18168986Y-11382750D01*
X18168986Y-11401798D02*
X18178510Y-11392274D01*
X18178510Y-11392274D02*
X18197558Y-11382750D01*
X18197558Y-11382750D02*
X18226129Y-11382750D01*
X18226129Y-11382750D02*
X18245177Y-11392274D01*
X18245177Y-11392274D02*
X18254701Y-11411322D01*
X18254701Y-11411322D02*
X18254701Y-11516084D01*
X18254701Y-11411322D02*
X18264225Y-11392274D01*
X18264225Y-11392274D02*
X18283272Y-11382750D01*
X18283272Y-11382750D02*
X18311844Y-11382750D01*
X18311844Y-11382750D02*
X18330891Y-11392274D01*
X18330891Y-11392274D02*
X18340415Y-11411322D01*
X18340415Y-11411322D02*
X18340415Y-11516084D01*
X18730891Y-11306560D02*
X18559463Y-11563703D01*
X18988034Y-11316084D02*
X19007082Y-11316084D01*
X19007082Y-11316084D02*
X19026129Y-11325608D01*
X19026129Y-11325608D02*
X19035653Y-11335131D01*
X19035653Y-11335131D02*
X19045177Y-11354179D01*
X19045177Y-11354179D02*
X19054701Y-11392274D01*
X19054701Y-11392274D02*
X19054701Y-11439893D01*
X19054701Y-11439893D02*
X19045177Y-11477988D01*
X19045177Y-11477988D02*
X19035653Y-11497036D01*
X19035653Y-11497036D02*
X19026129Y-11506560D01*
X19026129Y-11506560D02*
X19007082Y-11516084D01*
X19007082Y-11516084D02*
X18988034Y-11516084D01*
X18988034Y-11516084D02*
X18968987Y-11506560D01*
X18968987Y-11506560D02*
X18959463Y-11497036D01*
X18959463Y-11497036D02*
X18949939Y-11477988D01*
X18949939Y-11477988D02*
X18940415Y-11439893D01*
X18940415Y-11439893D02*
X18940415Y-11392274D01*
X18940415Y-11392274D02*
X18949939Y-11354179D01*
X18949939Y-11354179D02*
X18959463Y-11335131D01*
X18959463Y-11335131D02*
X18968987Y-11325608D01*
X18968987Y-11325608D02*
X18988034Y-11316084D01*
X19140415Y-11497036D02*
X19149939Y-11506560D01*
X19149939Y-11506560D02*
X19140415Y-11516084D01*
X19140415Y-11516084D02*
X19130891Y-11506560D01*
X19130891Y-11506560D02*
X19140415Y-11497036D01*
X19140415Y-11497036D02*
X19140415Y-11516084D01*
X19273748Y-11316084D02*
X19292796Y-11316084D01*
X19292796Y-11316084D02*
X19311844Y-11325608D01*
X19311844Y-11325608D02*
X19321368Y-11335131D01*
X19321368Y-11335131D02*
X19330891Y-11354179D01*
X19330891Y-11354179D02*
X19340415Y-11392274D01*
X19340415Y-11392274D02*
X19340415Y-11439893D01*
X19340415Y-11439893D02*
X19330891Y-11477988D01*
X19330891Y-11477988D02*
X19321368Y-11497036D01*
X19321368Y-11497036D02*
X19311844Y-11506560D01*
X19311844Y-11506560D02*
X19292796Y-11516084D01*
X19292796Y-11516084D02*
X19273748Y-11516084D01*
X19273748Y-11516084D02*
X19254701Y-11506560D01*
X19254701Y-11506560D02*
X19245177Y-11497036D01*
X19245177Y-11497036D02*
X19235653Y-11477988D01*
X19235653Y-11477988D02*
X19226129Y-11439893D01*
X19226129Y-11439893D02*
X19226129Y-11392274D01*
X19226129Y-11392274D02*
X19235653Y-11354179D01*
X19235653Y-11354179D02*
X19245177Y-11335131D01*
X19245177Y-11335131D02*
X19254701Y-11325608D01*
X19254701Y-11325608D02*
X19273748Y-11316084D01*
X19407082Y-11316084D02*
X19530891Y-11316084D01*
X19530891Y-11316084D02*
X19464225Y-11392274D01*
X19464225Y-11392274D02*
X19492796Y-11392274D01*
X19492796Y-11392274D02*
X19511844Y-11401798D01*
X19511844Y-11401798D02*
X19521368Y-11411322D01*
X19521368Y-11411322D02*
X19530891Y-11430369D01*
X19530891Y-11430369D02*
X19530891Y-11477988D01*
X19530891Y-11477988D02*
X19521368Y-11497036D01*
X19521368Y-11497036D02*
X19511844Y-11506560D01*
X19511844Y-11506560D02*
X19492796Y-11516084D01*
X19492796Y-11516084D02*
X19435653Y-11516084D01*
X19435653Y-11516084D02*
X19416606Y-11506560D01*
X19416606Y-11506560D02*
X19407082Y-11497036D01*
X19702320Y-11316084D02*
X19664225Y-11316084D01*
X19664225Y-11316084D02*
X19645177Y-11325608D01*
X19645177Y-11325608D02*
X19635653Y-11335131D01*
X19635653Y-11335131D02*
X19616606Y-11363703D01*
X19616606Y-11363703D02*
X19607082Y-11401798D01*
X19607082Y-11401798D02*
X19607082Y-11477988D01*
X19607082Y-11477988D02*
X19616606Y-11497036D01*
X19616606Y-11497036D02*
X19626129Y-11506560D01*
X19626129Y-11506560D02*
X19645177Y-11516084D01*
X19645177Y-11516084D02*
X19683272Y-11516084D01*
X19683272Y-11516084D02*
X19702320Y-11506560D01*
X19702320Y-11506560D02*
X19711844Y-11497036D01*
X19711844Y-11497036D02*
X19721368Y-11477988D01*
X19721368Y-11477988D02*
X19721368Y-11430369D01*
X19721368Y-11430369D02*
X19711844Y-11411322D01*
X19711844Y-11411322D02*
X19702320Y-11401798D01*
X19702320Y-11401798D02*
X19683272Y-11392274D01*
X19683272Y-11392274D02*
X19645177Y-11392274D01*
X19645177Y-11392274D02*
X19626129Y-11401798D01*
X19626129Y-11401798D02*
X19616606Y-11411322D01*
X19616606Y-11411322D02*
X19607082Y-11430369D01*
X19797558Y-11335131D02*
X19807082Y-11325608D01*
X19807082Y-11325608D02*
X19826129Y-11316084D01*
X19826129Y-11316084D02*
X19873749Y-11316084D01*
X19873749Y-11316084D02*
X19892796Y-11325608D01*
X19892796Y-11325608D02*
X19902320Y-11335131D01*
X19902320Y-11335131D02*
X19911844Y-11354179D01*
X19911844Y-11354179D02*
X19911844Y-11373227D01*
X19911844Y-11373227D02*
X19902320Y-11401798D01*
X19902320Y-11401798D02*
X19788034Y-11516084D01*
X19788034Y-11516084D02*
X19911844Y-11516084D01*
X19988034Y-11316084D02*
X19988034Y-11354179D01*
X20064225Y-11316084D02*
X20064225Y-11354179D01*
X20359463Y-11592274D02*
X20349939Y-11582750D01*
X20349939Y-11582750D02*
X20330891Y-11554179D01*
X20330891Y-11554179D02*
X20321368Y-11535131D01*
X20321368Y-11535131D02*
X20311844Y-11506560D01*
X20311844Y-11506560D02*
X20302320Y-11458941D01*
X20302320Y-11458941D02*
X20302320Y-11420846D01*
X20302320Y-11420846D02*
X20311844Y-11373227D01*
X20311844Y-11373227D02*
X20321368Y-11344655D01*
X20321368Y-11344655D02*
X20330891Y-11325608D01*
X20330891Y-11325608D02*
X20349939Y-11297036D01*
X20349939Y-11297036D02*
X20359463Y-11287512D01*
X20521368Y-11382750D02*
X20521368Y-11516084D01*
X20473749Y-11306560D02*
X20426130Y-11449417D01*
X20426130Y-11449417D02*
X20549939Y-11449417D01*
X20778511Y-11516084D02*
X20778511Y-11316084D01*
X20864225Y-11516084D02*
X20864225Y-11411322D01*
X20864225Y-11411322D02*
X20854701Y-11392274D01*
X20854701Y-11392274D02*
X20835653Y-11382750D01*
X20835653Y-11382750D02*
X20807082Y-11382750D01*
X20807082Y-11382750D02*
X20788034Y-11392274D01*
X20788034Y-11392274D02*
X20778511Y-11401798D01*
X20988034Y-11516084D02*
X20968987Y-11506560D01*
X20968987Y-11506560D02*
X20959463Y-11497036D01*
X20959463Y-11497036D02*
X20949939Y-11477988D01*
X20949939Y-11477988D02*
X20949939Y-11420846D01*
X20949939Y-11420846D02*
X20959463Y-11401798D01*
X20959463Y-11401798D02*
X20968987Y-11392274D01*
X20968987Y-11392274D02*
X20988034Y-11382750D01*
X20988034Y-11382750D02*
X21016606Y-11382750D01*
X21016606Y-11382750D02*
X21035653Y-11392274D01*
X21035653Y-11392274D02*
X21045177Y-11401798D01*
X21045177Y-11401798D02*
X21054701Y-11420846D01*
X21054701Y-11420846D02*
X21054701Y-11477988D01*
X21054701Y-11477988D02*
X21045177Y-11497036D01*
X21045177Y-11497036D02*
X21035653Y-11506560D01*
X21035653Y-11506560D02*
X21016606Y-11516084D01*
X21016606Y-11516084D02*
X20988034Y-11516084D01*
X21168987Y-11516084D02*
X21149939Y-11506560D01*
X21149939Y-11506560D02*
X21140415Y-11487512D01*
X21140415Y-11487512D02*
X21140415Y-11316084D01*
X21321368Y-11506560D02*
X21302320Y-11516084D01*
X21302320Y-11516084D02*
X21264225Y-11516084D01*
X21264225Y-11516084D02*
X21245177Y-11506560D01*
X21245177Y-11506560D02*
X21235653Y-11487512D01*
X21235653Y-11487512D02*
X21235653Y-11411322D01*
X21235653Y-11411322D02*
X21245177Y-11392274D01*
X21245177Y-11392274D02*
X21264225Y-11382750D01*
X21264225Y-11382750D02*
X21302320Y-11382750D01*
X21302320Y-11382750D02*
X21321368Y-11392274D01*
X21321368Y-11392274D02*
X21330892Y-11411322D01*
X21330892Y-11411322D02*
X21330892Y-11430369D01*
X21330892Y-11430369D02*
X21235653Y-11449417D01*
X21407082Y-11506560D02*
X21426130Y-11516084D01*
X21426130Y-11516084D02*
X21464225Y-11516084D01*
X21464225Y-11516084D02*
X21483273Y-11506560D01*
X21483273Y-11506560D02*
X21492796Y-11487512D01*
X21492796Y-11487512D02*
X21492796Y-11477988D01*
X21492796Y-11477988D02*
X21483273Y-11458941D01*
X21483273Y-11458941D02*
X21464225Y-11449417D01*
X21464225Y-11449417D02*
X21435653Y-11449417D01*
X21435653Y-11449417D02*
X21416606Y-11439893D01*
X21416606Y-11439893D02*
X21407082Y-11420846D01*
X21407082Y-11420846D02*
X21407082Y-11411322D01*
X21407082Y-11411322D02*
X21416606Y-11392274D01*
X21416606Y-11392274D02*
X21435653Y-11382750D01*
X21435653Y-11382750D02*
X21464225Y-11382750D01*
X21464225Y-11382750D02*
X21483273Y-11392274D01*
X21559463Y-11592274D02*
X21568987Y-11582750D01*
X21568987Y-11582750D02*
X21588034Y-11554179D01*
X21588034Y-11554179D02*
X21597558Y-11535131D01*
X21597558Y-11535131D02*
X21607082Y-11506560D01*
X21607082Y-11506560D02*
X21616606Y-11458941D01*
X21616606Y-11458941D02*
X21616606Y-11420846D01*
X21616606Y-11420846D02*
X21607082Y-11373227D01*
X21607082Y-11373227D02*
X21597558Y-11344655D01*
X21597558Y-11344655D02*
X21588034Y-11325608D01*
X21588034Y-11325608D02*
X21568987Y-11297036D01*
X21568987Y-11297036D02*
X21559463Y-11287512D01*
D10*
X16734400Y-11638600D02*
X16734400Y-11738600D01*
X16684400Y-11688600D02*
X16784400Y-11688600D01*
D11*
X17149939Y-11780084D02*
X17035653Y-11780084D01*
X17092796Y-11780084D02*
X17092796Y-11580084D01*
X17092796Y-11580084D02*
X17073748Y-11608655D01*
X17073748Y-11608655D02*
X17054701Y-11627703D01*
X17054701Y-11627703D02*
X17035653Y-11637227D01*
X17235653Y-11761036D02*
X17245177Y-11770560D01*
X17245177Y-11770560D02*
X17235653Y-11780084D01*
X17235653Y-11780084D02*
X17226129Y-11770560D01*
X17226129Y-11770560D02*
X17235653Y-11761036D01*
X17235653Y-11761036D02*
X17235653Y-11780084D01*
X17368986Y-11580084D02*
X17388034Y-11580084D01*
X17388034Y-11580084D02*
X17407082Y-11589608D01*
X17407082Y-11589608D02*
X17416605Y-11599131D01*
X17416605Y-11599131D02*
X17426129Y-11618179D01*
X17426129Y-11618179D02*
X17435653Y-11656274D01*
X17435653Y-11656274D02*
X17435653Y-11703893D01*
X17435653Y-11703893D02*
X17426129Y-11741988D01*
X17426129Y-11741988D02*
X17416605Y-11761036D01*
X17416605Y-11761036D02*
X17407082Y-11770560D01*
X17407082Y-11770560D02*
X17388034Y-11780084D01*
X17388034Y-11780084D02*
X17368986Y-11780084D01*
X17368986Y-11780084D02*
X17349939Y-11770560D01*
X17349939Y-11770560D02*
X17340415Y-11761036D01*
X17340415Y-11761036D02*
X17330891Y-11741988D01*
X17330891Y-11741988D02*
X17321367Y-11703893D01*
X17321367Y-11703893D02*
X17321367Y-11656274D01*
X17321367Y-11656274D02*
X17330891Y-11618179D01*
X17330891Y-11618179D02*
X17340415Y-11599131D01*
X17340415Y-11599131D02*
X17349939Y-11589608D01*
X17349939Y-11589608D02*
X17368986Y-11580084D01*
X17559463Y-11580084D02*
X17578510Y-11580084D01*
X17578510Y-11580084D02*
X17597558Y-11589608D01*
X17597558Y-11589608D02*
X17607082Y-11599131D01*
X17607082Y-11599131D02*
X17616605Y-11618179D01*
X17616605Y-11618179D02*
X17626129Y-11656274D01*
X17626129Y-11656274D02*
X17626129Y-11703893D01*
X17626129Y-11703893D02*
X17616605Y-11741988D01*
X17616605Y-11741988D02*
X17607082Y-11761036D01*
X17607082Y-11761036D02*
X17597558Y-11770560D01*
X17597558Y-11770560D02*
X17578510Y-11780084D01*
X17578510Y-11780084D02*
X17559463Y-11780084D01*
X17559463Y-11780084D02*
X17540415Y-11770560D01*
X17540415Y-11770560D02*
X17530891Y-11761036D01*
X17530891Y-11761036D02*
X17521367Y-11741988D01*
X17521367Y-11741988D02*
X17511844Y-11703893D01*
X17511844Y-11703893D02*
X17511844Y-11656274D01*
X17511844Y-11656274D02*
X17521367Y-11618179D01*
X17521367Y-11618179D02*
X17530891Y-11599131D01*
X17530891Y-11599131D02*
X17540415Y-11589608D01*
X17540415Y-11589608D02*
X17559463Y-11580084D01*
X17749939Y-11580084D02*
X17768986Y-11580084D01*
X17768986Y-11580084D02*
X17788034Y-11589608D01*
X17788034Y-11589608D02*
X17797558Y-11599131D01*
X17797558Y-11599131D02*
X17807082Y-11618179D01*
X17807082Y-11618179D02*
X17816605Y-11656274D01*
X17816605Y-11656274D02*
X17816605Y-11703893D01*
X17816605Y-11703893D02*
X17807082Y-11741988D01*
X17807082Y-11741988D02*
X17797558Y-11761036D01*
X17797558Y-11761036D02*
X17788034Y-11770560D01*
X17788034Y-11770560D02*
X17768986Y-11780084D01*
X17768986Y-11780084D02*
X17749939Y-11780084D01*
X17749939Y-11780084D02*
X17730891Y-11770560D01*
X17730891Y-11770560D02*
X17721367Y-11761036D01*
X17721367Y-11761036D02*
X17711844Y-11741988D01*
X17711844Y-11741988D02*
X17702320Y-11703893D01*
X17702320Y-11703893D02*
X17702320Y-11656274D01*
X17702320Y-11656274D02*
X17711844Y-11618179D01*
X17711844Y-11618179D02*
X17721367Y-11599131D01*
X17721367Y-11599131D02*
X17730891Y-11589608D01*
X17730891Y-11589608D02*
X17749939Y-11580084D01*
X17902320Y-11780084D02*
X17902320Y-11646750D01*
X17902320Y-11665798D02*
X17911844Y-11656274D01*
X17911844Y-11656274D02*
X17930891Y-11646750D01*
X17930891Y-11646750D02*
X17959463Y-11646750D01*
X17959463Y-11646750D02*
X17978510Y-11656274D01*
X17978510Y-11656274D02*
X17988034Y-11675322D01*
X17988034Y-11675322D02*
X17988034Y-11780084D01*
X17988034Y-11675322D02*
X17997558Y-11656274D01*
X17997558Y-11656274D02*
X18016605Y-11646750D01*
X18016605Y-11646750D02*
X18045177Y-11646750D01*
X18045177Y-11646750D02*
X18064225Y-11656274D01*
X18064225Y-11656274D02*
X18073748Y-11675322D01*
X18073748Y-11675322D02*
X18073748Y-11780084D01*
X18168986Y-11780084D02*
X18168986Y-11646750D01*
X18168986Y-11665798D02*
X18178510Y-11656274D01*
X18178510Y-11656274D02*
X18197558Y-11646750D01*
X18197558Y-11646750D02*
X18226129Y-11646750D01*
X18226129Y-11646750D02*
X18245177Y-11656274D01*
X18245177Y-11656274D02*
X18254701Y-11675322D01*
X18254701Y-11675322D02*
X18254701Y-11780084D01*
X18254701Y-11675322D02*
X18264225Y-11656274D01*
X18264225Y-11656274D02*
X18283272Y-11646750D01*
X18283272Y-11646750D02*
X18311844Y-11646750D01*
X18311844Y-11646750D02*
X18330891Y-11656274D01*
X18330891Y-11656274D02*
X18340415Y-11675322D01*
X18340415Y-11675322D02*
X18340415Y-11780084D01*
X18730891Y-11570560D02*
X18559463Y-11827703D01*
X18988034Y-11580084D02*
X19007082Y-11580084D01*
X19007082Y-11580084D02*
X19026129Y-11589608D01*
X19026129Y-11589608D02*
X19035653Y-11599131D01*
X19035653Y-11599131D02*
X19045177Y-11618179D01*
X19045177Y-11618179D02*
X19054701Y-11656274D01*
X19054701Y-11656274D02*
X19054701Y-11703893D01*
X19054701Y-11703893D02*
X19045177Y-11741988D01*
X19045177Y-11741988D02*
X19035653Y-11761036D01*
X19035653Y-11761036D02*
X19026129Y-11770560D01*
X19026129Y-11770560D02*
X19007082Y-11780084D01*
X19007082Y-11780084D02*
X18988034Y-11780084D01*
X18988034Y-11780084D02*
X18968987Y-11770560D01*
X18968987Y-11770560D02*
X18959463Y-11761036D01*
X18959463Y-11761036D02*
X18949939Y-11741988D01*
X18949939Y-11741988D02*
X18940415Y-11703893D01*
X18940415Y-11703893D02*
X18940415Y-11656274D01*
X18940415Y-11656274D02*
X18949939Y-11618179D01*
X18949939Y-11618179D02*
X18959463Y-11599131D01*
X18959463Y-11599131D02*
X18968987Y-11589608D01*
X18968987Y-11589608D02*
X18988034Y-11580084D01*
X19140415Y-11761036D02*
X19149939Y-11770560D01*
X19149939Y-11770560D02*
X19140415Y-11780084D01*
X19140415Y-11780084D02*
X19130891Y-11770560D01*
X19130891Y-11770560D02*
X19140415Y-11761036D01*
X19140415Y-11761036D02*
X19140415Y-11780084D01*
X19273748Y-11580084D02*
X19292796Y-11580084D01*
X19292796Y-11580084D02*
X19311844Y-11589608D01*
X19311844Y-11589608D02*
X19321368Y-11599131D01*
X19321368Y-11599131D02*
X19330891Y-11618179D01*
X19330891Y-11618179D02*
X19340415Y-11656274D01*
X19340415Y-11656274D02*
X19340415Y-11703893D01*
X19340415Y-11703893D02*
X19330891Y-11741988D01*
X19330891Y-11741988D02*
X19321368Y-11761036D01*
X19321368Y-11761036D02*
X19311844Y-11770560D01*
X19311844Y-11770560D02*
X19292796Y-11780084D01*
X19292796Y-11780084D02*
X19273748Y-11780084D01*
X19273748Y-11780084D02*
X19254701Y-11770560D01*
X19254701Y-11770560D02*
X19245177Y-11761036D01*
X19245177Y-11761036D02*
X19235653Y-11741988D01*
X19235653Y-11741988D02*
X19226129Y-11703893D01*
X19226129Y-11703893D02*
X19226129Y-11656274D01*
X19226129Y-11656274D02*
X19235653Y-11618179D01*
X19235653Y-11618179D02*
X19245177Y-11599131D01*
X19245177Y-11599131D02*
X19254701Y-11589608D01*
X19254701Y-11589608D02*
X19273748Y-11580084D01*
X19407082Y-11580084D02*
X19530891Y-11580084D01*
X19530891Y-11580084D02*
X19464225Y-11656274D01*
X19464225Y-11656274D02*
X19492796Y-11656274D01*
X19492796Y-11656274D02*
X19511844Y-11665798D01*
X19511844Y-11665798D02*
X19521368Y-11675322D01*
X19521368Y-11675322D02*
X19530891Y-11694369D01*
X19530891Y-11694369D02*
X19530891Y-11741988D01*
X19530891Y-11741988D02*
X19521368Y-11761036D01*
X19521368Y-11761036D02*
X19511844Y-11770560D01*
X19511844Y-11770560D02*
X19492796Y-11780084D01*
X19492796Y-11780084D02*
X19435653Y-11780084D01*
X19435653Y-11780084D02*
X19416606Y-11770560D01*
X19416606Y-11770560D02*
X19407082Y-11761036D01*
X19626129Y-11780084D02*
X19664225Y-11780084D01*
X19664225Y-11780084D02*
X19683272Y-11770560D01*
X19683272Y-11770560D02*
X19692796Y-11761036D01*
X19692796Y-11761036D02*
X19711844Y-11732465D01*
X19711844Y-11732465D02*
X19721368Y-11694369D01*
X19721368Y-11694369D02*
X19721368Y-11618179D01*
X19721368Y-11618179D02*
X19711844Y-11599131D01*
X19711844Y-11599131D02*
X19702320Y-11589608D01*
X19702320Y-11589608D02*
X19683272Y-11580084D01*
X19683272Y-11580084D02*
X19645177Y-11580084D01*
X19645177Y-11580084D02*
X19626129Y-11589608D01*
X19626129Y-11589608D02*
X19616606Y-11599131D01*
X19616606Y-11599131D02*
X19607082Y-11618179D01*
X19607082Y-11618179D02*
X19607082Y-11665798D01*
X19607082Y-11665798D02*
X19616606Y-11684846D01*
X19616606Y-11684846D02*
X19626129Y-11694369D01*
X19626129Y-11694369D02*
X19645177Y-11703893D01*
X19645177Y-11703893D02*
X19683272Y-11703893D01*
X19683272Y-11703893D02*
X19702320Y-11694369D01*
X19702320Y-11694369D02*
X19711844Y-11684846D01*
X19711844Y-11684846D02*
X19721368Y-11665798D01*
X19892796Y-11646750D02*
X19892796Y-11780084D01*
X19845177Y-11570560D02*
X19797558Y-11713417D01*
X19797558Y-11713417D02*
X19921368Y-11713417D01*
X19988034Y-11580084D02*
X19988034Y-11618179D01*
X20064225Y-11580084D02*
X20064225Y-11618179D01*
X20359463Y-11856274D02*
X20349939Y-11846750D01*
X20349939Y-11846750D02*
X20330891Y-11818179D01*
X20330891Y-11818179D02*
X20321368Y-11799131D01*
X20321368Y-11799131D02*
X20311844Y-11770560D01*
X20311844Y-11770560D02*
X20302320Y-11722941D01*
X20302320Y-11722941D02*
X20302320Y-11684846D01*
X20302320Y-11684846D02*
X20311844Y-11637227D01*
X20311844Y-11637227D02*
X20321368Y-11608655D01*
X20321368Y-11608655D02*
X20330891Y-11589608D01*
X20330891Y-11589608D02*
X20349939Y-11561036D01*
X20349939Y-11561036D02*
X20359463Y-11551512D01*
X20540415Y-11780084D02*
X20426130Y-11780084D01*
X20483272Y-11780084D02*
X20483272Y-11580084D01*
X20483272Y-11580084D02*
X20464225Y-11608655D01*
X20464225Y-11608655D02*
X20445177Y-11627703D01*
X20445177Y-11627703D02*
X20426130Y-11637227D01*
X20721368Y-11580084D02*
X20626130Y-11580084D01*
X20626130Y-11580084D02*
X20616606Y-11675322D01*
X20616606Y-11675322D02*
X20626130Y-11665798D01*
X20626130Y-11665798D02*
X20645177Y-11656274D01*
X20645177Y-11656274D02*
X20692796Y-11656274D01*
X20692796Y-11656274D02*
X20711844Y-11665798D01*
X20711844Y-11665798D02*
X20721368Y-11675322D01*
X20721368Y-11675322D02*
X20730891Y-11694369D01*
X20730891Y-11694369D02*
X20730891Y-11741988D01*
X20730891Y-11741988D02*
X20721368Y-11761036D01*
X20721368Y-11761036D02*
X20711844Y-11770560D01*
X20711844Y-11770560D02*
X20692796Y-11780084D01*
X20692796Y-11780084D02*
X20645177Y-11780084D01*
X20645177Y-11780084D02*
X20626130Y-11770560D01*
X20626130Y-11770560D02*
X20616606Y-11761036D01*
X20968987Y-11780084D02*
X20968987Y-11580084D01*
X21054701Y-11780084D02*
X21054701Y-11675322D01*
X21054701Y-11675322D02*
X21045177Y-11656274D01*
X21045177Y-11656274D02*
X21026130Y-11646750D01*
X21026130Y-11646750D02*
X20997558Y-11646750D01*
X20997558Y-11646750D02*
X20978511Y-11656274D01*
X20978511Y-11656274D02*
X20968987Y-11665798D01*
X21178511Y-11780084D02*
X21159463Y-11770560D01*
X21159463Y-11770560D02*
X21149939Y-11761036D01*
X21149939Y-11761036D02*
X21140415Y-11741988D01*
X21140415Y-11741988D02*
X21140415Y-11684846D01*
X21140415Y-11684846D02*
X21149939Y-11665798D01*
X21149939Y-11665798D02*
X21159463Y-11656274D01*
X21159463Y-11656274D02*
X21178511Y-11646750D01*
X21178511Y-11646750D02*
X21207082Y-11646750D01*
X21207082Y-11646750D02*
X21226130Y-11656274D01*
X21226130Y-11656274D02*
X21235653Y-11665798D01*
X21235653Y-11665798D02*
X21245177Y-11684846D01*
X21245177Y-11684846D02*
X21245177Y-11741988D01*
X21245177Y-11741988D02*
X21235653Y-11761036D01*
X21235653Y-11761036D02*
X21226130Y-11770560D01*
X21226130Y-11770560D02*
X21207082Y-11780084D01*
X21207082Y-11780084D02*
X21178511Y-11780084D01*
X21359463Y-11780084D02*
X21340415Y-11770560D01*
X21340415Y-11770560D02*
X21330892Y-11751512D01*
X21330892Y-11751512D02*
X21330892Y-11580084D01*
X21511844Y-11770560D02*
X21492796Y-11780084D01*
X21492796Y-11780084D02*
X21454701Y-11780084D01*
X21454701Y-11780084D02*
X21435653Y-11770560D01*
X21435653Y-11770560D02*
X21426130Y-11751512D01*
X21426130Y-11751512D02*
X21426130Y-11675322D01*
X21426130Y-11675322D02*
X21435653Y-11656274D01*
X21435653Y-11656274D02*
X21454701Y-11646750D01*
X21454701Y-11646750D02*
X21492796Y-11646750D01*
X21492796Y-11646750D02*
X21511844Y-11656274D01*
X21511844Y-11656274D02*
X21521368Y-11675322D01*
X21521368Y-11675322D02*
X21521368Y-11694369D01*
X21521368Y-11694369D02*
X21426130Y-11713417D01*
X21597558Y-11770560D02*
X21616606Y-11780084D01*
X21616606Y-11780084D02*
X21654701Y-11780084D01*
X21654701Y-11780084D02*
X21673749Y-11770560D01*
X21673749Y-11770560D02*
X21683273Y-11751512D01*
X21683273Y-11751512D02*
X21683273Y-11741988D01*
X21683273Y-11741988D02*
X21673749Y-11722941D01*
X21673749Y-11722941D02*
X21654701Y-11713417D01*
X21654701Y-11713417D02*
X21626130Y-11713417D01*
X21626130Y-11713417D02*
X21607082Y-11703893D01*
X21607082Y-11703893D02*
X21597558Y-11684846D01*
X21597558Y-11684846D02*
X21597558Y-11675322D01*
X21597558Y-11675322D02*
X21607082Y-11656274D01*
X21607082Y-11656274D02*
X21626130Y-11646750D01*
X21626130Y-11646750D02*
X21654701Y-11646750D01*
X21654701Y-11646750D02*
X21673749Y-11656274D01*
X21749939Y-11856274D02*
X21759463Y-11846750D01*
X21759463Y-11846750D02*
X21778511Y-11818179D01*
X21778511Y-11818179D02*
X21788034Y-11799131D01*
X21788034Y-11799131D02*
X21797558Y-11770560D01*
X21797558Y-11770560D02*
X21807082Y-11722941D01*
X21807082Y-11722941D02*
X21807082Y-11684846D01*
X21807082Y-11684846D02*
X21797558Y-11637227D01*
X21797558Y-11637227D02*
X21788034Y-11608655D01*
X21788034Y-11608655D02*
X21778511Y-11589608D01*
X21778511Y-11589608D02*
X21759463Y-11561036D01*
X21759463Y-11561036D02*
X21749939Y-11551512D01*
D12*
X16760969Y-12009169D02*
X16760969Y-11896031D01*
X16647831Y-11896031D01*
X16647831Y-12009169D01*
X16760969Y-12009169D01*
D11*
X17149939Y-12044084D02*
X17035653Y-12044084D01*
X17092796Y-12044084D02*
X17092796Y-11844084D01*
X17092796Y-11844084D02*
X17073748Y-11872655D01*
X17073748Y-11872655D02*
X17054701Y-11891703D01*
X17054701Y-11891703D02*
X17035653Y-11901227D01*
X17235653Y-12025036D02*
X17245177Y-12034560D01*
X17245177Y-12034560D02*
X17235653Y-12044084D01*
X17235653Y-12044084D02*
X17226129Y-12034560D01*
X17226129Y-12034560D02*
X17235653Y-12025036D01*
X17235653Y-12025036D02*
X17235653Y-12044084D01*
X17416605Y-11844084D02*
X17378510Y-11844084D01*
X17378510Y-11844084D02*
X17359463Y-11853608D01*
X17359463Y-11853608D02*
X17349939Y-11863131D01*
X17349939Y-11863131D02*
X17330891Y-11891703D01*
X17330891Y-11891703D02*
X17321367Y-11929798D01*
X17321367Y-11929798D02*
X17321367Y-12005988D01*
X17321367Y-12005988D02*
X17330891Y-12025036D01*
X17330891Y-12025036D02*
X17340415Y-12034560D01*
X17340415Y-12034560D02*
X17359463Y-12044084D01*
X17359463Y-12044084D02*
X17397558Y-12044084D01*
X17397558Y-12044084D02*
X17416605Y-12034560D01*
X17416605Y-12034560D02*
X17426129Y-12025036D01*
X17426129Y-12025036D02*
X17435653Y-12005988D01*
X17435653Y-12005988D02*
X17435653Y-11958369D01*
X17435653Y-11958369D02*
X17426129Y-11939322D01*
X17426129Y-11939322D02*
X17416605Y-11929798D01*
X17416605Y-11929798D02*
X17397558Y-11920274D01*
X17397558Y-11920274D02*
X17359463Y-11920274D01*
X17359463Y-11920274D02*
X17340415Y-11929798D01*
X17340415Y-11929798D02*
X17330891Y-11939322D01*
X17330891Y-11939322D02*
X17321367Y-11958369D01*
X17559463Y-11844084D02*
X17578510Y-11844084D01*
X17578510Y-11844084D02*
X17597558Y-11853608D01*
X17597558Y-11853608D02*
X17607082Y-11863131D01*
X17607082Y-11863131D02*
X17616605Y-11882179D01*
X17616605Y-11882179D02*
X17626129Y-11920274D01*
X17626129Y-11920274D02*
X17626129Y-11967893D01*
X17626129Y-11967893D02*
X17616605Y-12005988D01*
X17616605Y-12005988D02*
X17607082Y-12025036D01*
X17607082Y-12025036D02*
X17597558Y-12034560D01*
X17597558Y-12034560D02*
X17578510Y-12044084D01*
X17578510Y-12044084D02*
X17559463Y-12044084D01*
X17559463Y-12044084D02*
X17540415Y-12034560D01*
X17540415Y-12034560D02*
X17530891Y-12025036D01*
X17530891Y-12025036D02*
X17521367Y-12005988D01*
X17521367Y-12005988D02*
X17511844Y-11967893D01*
X17511844Y-11967893D02*
X17511844Y-11920274D01*
X17511844Y-11920274D02*
X17521367Y-11882179D01*
X17521367Y-11882179D02*
X17530891Y-11863131D01*
X17530891Y-11863131D02*
X17540415Y-11853608D01*
X17540415Y-11853608D02*
X17559463Y-11844084D01*
X17749939Y-11844084D02*
X17768986Y-11844084D01*
X17768986Y-11844084D02*
X17788034Y-11853608D01*
X17788034Y-11853608D02*
X17797558Y-11863131D01*
X17797558Y-11863131D02*
X17807082Y-11882179D01*
X17807082Y-11882179D02*
X17816605Y-11920274D01*
X17816605Y-11920274D02*
X17816605Y-11967893D01*
X17816605Y-11967893D02*
X17807082Y-12005988D01*
X17807082Y-12005988D02*
X17797558Y-12025036D01*
X17797558Y-12025036D02*
X17788034Y-12034560D01*
X17788034Y-12034560D02*
X17768986Y-12044084D01*
X17768986Y-12044084D02*
X17749939Y-12044084D01*
X17749939Y-12044084D02*
X17730891Y-12034560D01*
X17730891Y-12034560D02*
X17721367Y-12025036D01*
X17721367Y-12025036D02*
X17711844Y-12005988D01*
X17711844Y-12005988D02*
X17702320Y-11967893D01*
X17702320Y-11967893D02*
X17702320Y-11920274D01*
X17702320Y-11920274D02*
X17711844Y-11882179D01*
X17711844Y-11882179D02*
X17721367Y-11863131D01*
X17721367Y-11863131D02*
X17730891Y-11853608D01*
X17730891Y-11853608D02*
X17749939Y-11844084D01*
X17902320Y-12044084D02*
X17902320Y-11910750D01*
X17902320Y-11929798D02*
X17911844Y-11920274D01*
X17911844Y-11920274D02*
X17930891Y-11910750D01*
X17930891Y-11910750D02*
X17959463Y-11910750D01*
X17959463Y-11910750D02*
X17978510Y-11920274D01*
X17978510Y-11920274D02*
X17988034Y-11939322D01*
X17988034Y-11939322D02*
X17988034Y-12044084D01*
X17988034Y-11939322D02*
X17997558Y-11920274D01*
X17997558Y-11920274D02*
X18016605Y-11910750D01*
X18016605Y-11910750D02*
X18045177Y-11910750D01*
X18045177Y-11910750D02*
X18064225Y-11920274D01*
X18064225Y-11920274D02*
X18073748Y-11939322D01*
X18073748Y-11939322D02*
X18073748Y-12044084D01*
X18168986Y-12044084D02*
X18168986Y-11910750D01*
X18168986Y-11929798D02*
X18178510Y-11920274D01*
X18178510Y-11920274D02*
X18197558Y-11910750D01*
X18197558Y-11910750D02*
X18226129Y-11910750D01*
X18226129Y-11910750D02*
X18245177Y-11920274D01*
X18245177Y-11920274D02*
X18254701Y-11939322D01*
X18254701Y-11939322D02*
X18254701Y-12044084D01*
X18254701Y-11939322D02*
X18264225Y-11920274D01*
X18264225Y-11920274D02*
X18283272Y-11910750D01*
X18283272Y-11910750D02*
X18311844Y-11910750D01*
X18311844Y-11910750D02*
X18330891Y-11920274D01*
X18330891Y-11920274D02*
X18340415Y-11939322D01*
X18340415Y-11939322D02*
X18340415Y-12044084D01*
X18730891Y-11834560D02*
X18559463Y-12091703D01*
X18988034Y-11844084D02*
X19007082Y-11844084D01*
X19007082Y-11844084D02*
X19026129Y-11853608D01*
X19026129Y-11853608D02*
X19035653Y-11863131D01*
X19035653Y-11863131D02*
X19045177Y-11882179D01*
X19045177Y-11882179D02*
X19054701Y-11920274D01*
X19054701Y-11920274D02*
X19054701Y-11967893D01*
X19054701Y-11967893D02*
X19045177Y-12005988D01*
X19045177Y-12005988D02*
X19035653Y-12025036D01*
X19035653Y-12025036D02*
X19026129Y-12034560D01*
X19026129Y-12034560D02*
X19007082Y-12044084D01*
X19007082Y-12044084D02*
X18988034Y-12044084D01*
X18988034Y-12044084D02*
X18968987Y-12034560D01*
X18968987Y-12034560D02*
X18959463Y-12025036D01*
X18959463Y-12025036D02*
X18949939Y-12005988D01*
X18949939Y-12005988D02*
X18940415Y-11967893D01*
X18940415Y-11967893D02*
X18940415Y-11920274D01*
X18940415Y-11920274D02*
X18949939Y-11882179D01*
X18949939Y-11882179D02*
X18959463Y-11863131D01*
X18959463Y-11863131D02*
X18968987Y-11853608D01*
X18968987Y-11853608D02*
X18988034Y-11844084D01*
X19140415Y-12025036D02*
X19149939Y-12034560D01*
X19149939Y-12034560D02*
X19140415Y-12044084D01*
X19140415Y-12044084D02*
X19130891Y-12034560D01*
X19130891Y-12034560D02*
X19140415Y-12025036D01*
X19140415Y-12025036D02*
X19140415Y-12044084D01*
X19273748Y-11844084D02*
X19292796Y-11844084D01*
X19292796Y-11844084D02*
X19311844Y-11853608D01*
X19311844Y-11853608D02*
X19321368Y-11863131D01*
X19321368Y-11863131D02*
X19330891Y-11882179D01*
X19330891Y-11882179D02*
X19340415Y-11920274D01*
X19340415Y-11920274D02*
X19340415Y-11967893D01*
X19340415Y-11967893D02*
X19330891Y-12005988D01*
X19330891Y-12005988D02*
X19321368Y-12025036D01*
X19321368Y-12025036D02*
X19311844Y-12034560D01*
X19311844Y-12034560D02*
X19292796Y-12044084D01*
X19292796Y-12044084D02*
X19273748Y-12044084D01*
X19273748Y-12044084D02*
X19254701Y-12034560D01*
X19254701Y-12034560D02*
X19245177Y-12025036D01*
X19245177Y-12025036D02*
X19235653Y-12005988D01*
X19235653Y-12005988D02*
X19226129Y-11967893D01*
X19226129Y-11967893D02*
X19226129Y-11920274D01*
X19226129Y-11920274D02*
X19235653Y-11882179D01*
X19235653Y-11882179D02*
X19245177Y-11863131D01*
X19245177Y-11863131D02*
X19254701Y-11853608D01*
X19254701Y-11853608D02*
X19273748Y-11844084D01*
X19511844Y-11844084D02*
X19473748Y-11844084D01*
X19473748Y-11844084D02*
X19454701Y-11853608D01*
X19454701Y-11853608D02*
X19445177Y-11863131D01*
X19445177Y-11863131D02*
X19426129Y-11891703D01*
X19426129Y-11891703D02*
X19416606Y-11929798D01*
X19416606Y-11929798D02*
X19416606Y-12005988D01*
X19416606Y-12005988D02*
X19426129Y-12025036D01*
X19426129Y-12025036D02*
X19435653Y-12034560D01*
X19435653Y-12034560D02*
X19454701Y-12044084D01*
X19454701Y-12044084D02*
X19492796Y-12044084D01*
X19492796Y-12044084D02*
X19511844Y-12034560D01*
X19511844Y-12034560D02*
X19521368Y-12025036D01*
X19521368Y-12025036D02*
X19530891Y-12005988D01*
X19530891Y-12005988D02*
X19530891Y-11958369D01*
X19530891Y-11958369D02*
X19521368Y-11939322D01*
X19521368Y-11939322D02*
X19511844Y-11929798D01*
X19511844Y-11929798D02*
X19492796Y-11920274D01*
X19492796Y-11920274D02*
X19454701Y-11920274D01*
X19454701Y-11920274D02*
X19435653Y-11929798D01*
X19435653Y-11929798D02*
X19426129Y-11939322D01*
X19426129Y-11939322D02*
X19416606Y-11958369D01*
X19597558Y-11844084D02*
X19721368Y-11844084D01*
X19721368Y-11844084D02*
X19654701Y-11920274D01*
X19654701Y-11920274D02*
X19683272Y-11920274D01*
X19683272Y-11920274D02*
X19702320Y-11929798D01*
X19702320Y-11929798D02*
X19711844Y-11939322D01*
X19711844Y-11939322D02*
X19721368Y-11958369D01*
X19721368Y-11958369D02*
X19721368Y-12005988D01*
X19721368Y-12005988D02*
X19711844Y-12025036D01*
X19711844Y-12025036D02*
X19702320Y-12034560D01*
X19702320Y-12034560D02*
X19683272Y-12044084D01*
X19683272Y-12044084D02*
X19626129Y-12044084D01*
X19626129Y-12044084D02*
X19607082Y-12034560D01*
X19607082Y-12034560D02*
X19597558Y-12025036D01*
X19845177Y-11844084D02*
X19864225Y-11844084D01*
X19864225Y-11844084D02*
X19883272Y-11853608D01*
X19883272Y-11853608D02*
X19892796Y-11863131D01*
X19892796Y-11863131D02*
X19902320Y-11882179D01*
X19902320Y-11882179D02*
X19911844Y-11920274D01*
X19911844Y-11920274D02*
X19911844Y-11967893D01*
X19911844Y-11967893D02*
X19902320Y-12005988D01*
X19902320Y-12005988D02*
X19892796Y-12025036D01*
X19892796Y-12025036D02*
X19883272Y-12034560D01*
X19883272Y-12034560D02*
X19864225Y-12044084D01*
X19864225Y-12044084D02*
X19845177Y-12044084D01*
X19845177Y-12044084D02*
X19826129Y-12034560D01*
X19826129Y-12034560D02*
X19816606Y-12025036D01*
X19816606Y-12025036D02*
X19807082Y-12005988D01*
X19807082Y-12005988D02*
X19797558Y-11967893D01*
X19797558Y-11967893D02*
X19797558Y-11920274D01*
X19797558Y-11920274D02*
X19807082Y-11882179D01*
X19807082Y-11882179D02*
X19816606Y-11863131D01*
X19816606Y-11863131D02*
X19826129Y-11853608D01*
X19826129Y-11853608D02*
X19845177Y-11844084D01*
X19988034Y-11844084D02*
X19988034Y-11882179D01*
X20064225Y-11844084D02*
X20064225Y-11882179D01*
X20359463Y-12120274D02*
X20349939Y-12110750D01*
X20349939Y-12110750D02*
X20330891Y-12082179D01*
X20330891Y-12082179D02*
X20321368Y-12063131D01*
X20321368Y-12063131D02*
X20311844Y-12034560D01*
X20311844Y-12034560D02*
X20302320Y-11986941D01*
X20302320Y-11986941D02*
X20302320Y-11948846D01*
X20302320Y-11948846D02*
X20311844Y-11901227D01*
X20311844Y-11901227D02*
X20321368Y-11872655D01*
X20321368Y-11872655D02*
X20330891Y-11853608D01*
X20330891Y-11853608D02*
X20349939Y-11825036D01*
X20349939Y-11825036D02*
X20359463Y-11815512D01*
X20521368Y-11910750D02*
X20521368Y-12044084D01*
X20473749Y-11834560D02*
X20426130Y-11977417D01*
X20426130Y-11977417D02*
X20549939Y-11977417D01*
X20778511Y-12044084D02*
X20778511Y-11844084D01*
X20864225Y-12044084D02*
X20864225Y-11939322D01*
X20864225Y-11939322D02*
X20854701Y-11920274D01*
X20854701Y-11920274D02*
X20835653Y-11910750D01*
X20835653Y-11910750D02*
X20807082Y-11910750D01*
X20807082Y-11910750D02*
X20788034Y-11920274D01*
X20788034Y-11920274D02*
X20778511Y-11929798D01*
X20988034Y-12044084D02*
X20968987Y-12034560D01*
X20968987Y-12034560D02*
X20959463Y-12025036D01*
X20959463Y-12025036D02*
X20949939Y-12005988D01*
X20949939Y-12005988D02*
X20949939Y-11948846D01*
X20949939Y-11948846D02*
X20959463Y-11929798D01*
X20959463Y-11929798D02*
X20968987Y-11920274D01*
X20968987Y-11920274D02*
X20988034Y-11910750D01*
X20988034Y-11910750D02*
X21016606Y-11910750D01*
X21016606Y-11910750D02*
X21035653Y-11920274D01*
X21035653Y-11920274D02*
X21045177Y-11929798D01*
X21045177Y-11929798D02*
X21054701Y-11948846D01*
X21054701Y-11948846D02*
X21054701Y-12005988D01*
X21054701Y-12005988D02*
X21045177Y-12025036D01*
X21045177Y-12025036D02*
X21035653Y-12034560D01*
X21035653Y-12034560D02*
X21016606Y-12044084D01*
X21016606Y-12044084D02*
X20988034Y-12044084D01*
X21168987Y-12044084D02*
X21149939Y-12034560D01*
X21149939Y-12034560D02*
X21140415Y-12015512D01*
X21140415Y-12015512D02*
X21140415Y-11844084D01*
X21321368Y-12034560D02*
X21302320Y-12044084D01*
X21302320Y-12044084D02*
X21264225Y-12044084D01*
X21264225Y-12044084D02*
X21245177Y-12034560D01*
X21245177Y-12034560D02*
X21235653Y-12015512D01*
X21235653Y-12015512D02*
X21235653Y-11939322D01*
X21235653Y-11939322D02*
X21245177Y-11920274D01*
X21245177Y-11920274D02*
X21264225Y-11910750D01*
X21264225Y-11910750D02*
X21302320Y-11910750D01*
X21302320Y-11910750D02*
X21321368Y-11920274D01*
X21321368Y-11920274D02*
X21330892Y-11939322D01*
X21330892Y-11939322D02*
X21330892Y-11958369D01*
X21330892Y-11958369D02*
X21235653Y-11977417D01*
X21407082Y-12034560D02*
X21426130Y-12044084D01*
X21426130Y-12044084D02*
X21464225Y-12044084D01*
X21464225Y-12044084D02*
X21483273Y-12034560D01*
X21483273Y-12034560D02*
X21492796Y-12015512D01*
X21492796Y-12015512D02*
X21492796Y-12005988D01*
X21492796Y-12005988D02*
X21483273Y-11986941D01*
X21483273Y-11986941D02*
X21464225Y-11977417D01*
X21464225Y-11977417D02*
X21435653Y-11977417D01*
X21435653Y-11977417D02*
X21416606Y-11967893D01*
X21416606Y-11967893D02*
X21407082Y-11948846D01*
X21407082Y-11948846D02*
X21407082Y-11939322D01*
X21407082Y-11939322D02*
X21416606Y-11920274D01*
X21416606Y-11920274D02*
X21435653Y-11910750D01*
X21435653Y-11910750D02*
X21464225Y-11910750D01*
X21464225Y-11910750D02*
X21483273Y-11920274D01*
X21559463Y-12120274D02*
X21568987Y-12110750D01*
X21568987Y-12110750D02*
X21588034Y-12082179D01*
X21588034Y-12082179D02*
X21597558Y-12063131D01*
X21597558Y-12063131D02*
X21607082Y-12034560D01*
X21607082Y-12034560D02*
X21616606Y-11986941D01*
X21616606Y-11986941D02*
X21616606Y-11948846D01*
X21616606Y-11948846D02*
X21607082Y-11901227D01*
X21607082Y-11901227D02*
X21597558Y-11872655D01*
X21597558Y-11872655D02*
X21588034Y-11853608D01*
X21588034Y-11853608D02*
X21568987Y-11825036D01*
X21568987Y-11825036D02*
X21559463Y-11815512D01*
X16684400Y-12332600D02*
X16784400Y-12232600D01*
X16684400Y-12132600D01*
X16584400Y-12232600D01*
X16684400Y-12332600D01*
X17035653Y-12143131D02*
X17045177Y-12133608D01*
X17045177Y-12133608D02*
X17064224Y-12124084D01*
X17064224Y-12124084D02*
X17111844Y-12124084D01*
X17111844Y-12124084D02*
X17130891Y-12133608D01*
X17130891Y-12133608D02*
X17140415Y-12143131D01*
X17140415Y-12143131D02*
X17149939Y-12162179D01*
X17149939Y-12162179D02*
X17149939Y-12181227D01*
X17149939Y-12181227D02*
X17140415Y-12209798D01*
X17140415Y-12209798D02*
X17026129Y-12324084D01*
X17026129Y-12324084D02*
X17149939Y-12324084D01*
X17235653Y-12305036D02*
X17245177Y-12314560D01*
X17245177Y-12314560D02*
X17235653Y-12324084D01*
X17235653Y-12324084D02*
X17226129Y-12314560D01*
X17226129Y-12314560D02*
X17235653Y-12305036D01*
X17235653Y-12305036D02*
X17235653Y-12324084D01*
X17311844Y-12124084D02*
X17435653Y-12124084D01*
X17435653Y-12124084D02*
X17368986Y-12200274D01*
X17368986Y-12200274D02*
X17397558Y-12200274D01*
X17397558Y-12200274D02*
X17416605Y-12209798D01*
X17416605Y-12209798D02*
X17426129Y-12219322D01*
X17426129Y-12219322D02*
X17435653Y-12238369D01*
X17435653Y-12238369D02*
X17435653Y-12285988D01*
X17435653Y-12285988D02*
X17426129Y-12305036D01*
X17426129Y-12305036D02*
X17416605Y-12314560D01*
X17416605Y-12314560D02*
X17397558Y-12324084D01*
X17397558Y-12324084D02*
X17340415Y-12324084D01*
X17340415Y-12324084D02*
X17321367Y-12314560D01*
X17321367Y-12314560D02*
X17311844Y-12305036D01*
X17502320Y-12124084D02*
X17626129Y-12124084D01*
X17626129Y-12124084D02*
X17559463Y-12200274D01*
X17559463Y-12200274D02*
X17588034Y-12200274D01*
X17588034Y-12200274D02*
X17607082Y-12209798D01*
X17607082Y-12209798D02*
X17616605Y-12219322D01*
X17616605Y-12219322D02*
X17626129Y-12238369D01*
X17626129Y-12238369D02*
X17626129Y-12285988D01*
X17626129Y-12285988D02*
X17616605Y-12305036D01*
X17616605Y-12305036D02*
X17607082Y-12314560D01*
X17607082Y-12314560D02*
X17588034Y-12324084D01*
X17588034Y-12324084D02*
X17530891Y-12324084D01*
X17530891Y-12324084D02*
X17511844Y-12314560D01*
X17511844Y-12314560D02*
X17502320Y-12305036D01*
X17749939Y-12124084D02*
X17768986Y-12124084D01*
X17768986Y-12124084D02*
X17788034Y-12133608D01*
X17788034Y-12133608D02*
X17797558Y-12143131D01*
X17797558Y-12143131D02*
X17807082Y-12162179D01*
X17807082Y-12162179D02*
X17816605Y-12200274D01*
X17816605Y-12200274D02*
X17816605Y-12247893D01*
X17816605Y-12247893D02*
X17807082Y-12285988D01*
X17807082Y-12285988D02*
X17797558Y-12305036D01*
X17797558Y-12305036D02*
X17788034Y-12314560D01*
X17788034Y-12314560D02*
X17768986Y-12324084D01*
X17768986Y-12324084D02*
X17749939Y-12324084D01*
X17749939Y-12324084D02*
X17730891Y-12314560D01*
X17730891Y-12314560D02*
X17721367Y-12305036D01*
X17721367Y-12305036D02*
X17711844Y-12285988D01*
X17711844Y-12285988D02*
X17702320Y-12247893D01*
X17702320Y-12247893D02*
X17702320Y-12200274D01*
X17702320Y-12200274D02*
X17711844Y-12162179D01*
X17711844Y-12162179D02*
X17721367Y-12143131D01*
X17721367Y-12143131D02*
X17730891Y-12133608D01*
X17730891Y-12133608D02*
X17749939Y-12124084D01*
X17902320Y-12324084D02*
X17902320Y-12190750D01*
X17902320Y-12209798D02*
X17911844Y-12200274D01*
X17911844Y-12200274D02*
X17930891Y-12190750D01*
X17930891Y-12190750D02*
X17959463Y-12190750D01*
X17959463Y-12190750D02*
X17978510Y-12200274D01*
X17978510Y-12200274D02*
X17988034Y-12219322D01*
X17988034Y-12219322D02*
X17988034Y-12324084D01*
X17988034Y-12219322D02*
X17997558Y-12200274D01*
X17997558Y-12200274D02*
X18016605Y-12190750D01*
X18016605Y-12190750D02*
X18045177Y-12190750D01*
X18045177Y-12190750D02*
X18064225Y-12200274D01*
X18064225Y-12200274D02*
X18073748Y-12219322D01*
X18073748Y-12219322D02*
X18073748Y-12324084D01*
X18168986Y-12324084D02*
X18168986Y-12190750D01*
X18168986Y-12209798D02*
X18178510Y-12200274D01*
X18178510Y-12200274D02*
X18197558Y-12190750D01*
X18197558Y-12190750D02*
X18226129Y-12190750D01*
X18226129Y-12190750D02*
X18245177Y-12200274D01*
X18245177Y-12200274D02*
X18254701Y-12219322D01*
X18254701Y-12219322D02*
X18254701Y-12324084D01*
X18254701Y-12219322D02*
X18264225Y-12200274D01*
X18264225Y-12200274D02*
X18283272Y-12190750D01*
X18283272Y-12190750D02*
X18311844Y-12190750D01*
X18311844Y-12190750D02*
X18330891Y-12200274D01*
X18330891Y-12200274D02*
X18340415Y-12219322D01*
X18340415Y-12219322D02*
X18340415Y-12324084D01*
X18730891Y-12114560D02*
X18559463Y-12371703D01*
X18988034Y-12124084D02*
X19007082Y-12124084D01*
X19007082Y-12124084D02*
X19026129Y-12133608D01*
X19026129Y-12133608D02*
X19035653Y-12143131D01*
X19035653Y-12143131D02*
X19045177Y-12162179D01*
X19045177Y-12162179D02*
X19054701Y-12200274D01*
X19054701Y-12200274D02*
X19054701Y-12247893D01*
X19054701Y-12247893D02*
X19045177Y-12285988D01*
X19045177Y-12285988D02*
X19035653Y-12305036D01*
X19035653Y-12305036D02*
X19026129Y-12314560D01*
X19026129Y-12314560D02*
X19007082Y-12324084D01*
X19007082Y-12324084D02*
X18988034Y-12324084D01*
X18988034Y-12324084D02*
X18968987Y-12314560D01*
X18968987Y-12314560D02*
X18959463Y-12305036D01*
X18959463Y-12305036D02*
X18949939Y-12285988D01*
X18949939Y-12285988D02*
X18940415Y-12247893D01*
X18940415Y-12247893D02*
X18940415Y-12200274D01*
X18940415Y-12200274D02*
X18949939Y-12162179D01*
X18949939Y-12162179D02*
X18959463Y-12143131D01*
X18959463Y-12143131D02*
X18968987Y-12133608D01*
X18968987Y-12133608D02*
X18988034Y-12124084D01*
X19140415Y-12305036D02*
X19149939Y-12314560D01*
X19149939Y-12314560D02*
X19140415Y-12324084D01*
X19140415Y-12324084D02*
X19130891Y-12314560D01*
X19130891Y-12314560D02*
X19140415Y-12305036D01*
X19140415Y-12305036D02*
X19140415Y-12324084D01*
X19273748Y-12124084D02*
X19292796Y-12124084D01*
X19292796Y-12124084D02*
X19311844Y-12133608D01*
X19311844Y-12133608D02*
X19321368Y-12143131D01*
X19321368Y-12143131D02*
X19330891Y-12162179D01*
X19330891Y-12162179D02*
X19340415Y-12200274D01*
X19340415Y-12200274D02*
X19340415Y-12247893D01*
X19340415Y-12247893D02*
X19330891Y-12285988D01*
X19330891Y-12285988D02*
X19321368Y-12305036D01*
X19321368Y-12305036D02*
X19311844Y-12314560D01*
X19311844Y-12314560D02*
X19292796Y-12324084D01*
X19292796Y-12324084D02*
X19273748Y-12324084D01*
X19273748Y-12324084D02*
X19254701Y-12314560D01*
X19254701Y-12314560D02*
X19245177Y-12305036D01*
X19245177Y-12305036D02*
X19235653Y-12285988D01*
X19235653Y-12285988D02*
X19226129Y-12247893D01*
X19226129Y-12247893D02*
X19226129Y-12200274D01*
X19226129Y-12200274D02*
X19235653Y-12162179D01*
X19235653Y-12162179D02*
X19245177Y-12143131D01*
X19245177Y-12143131D02*
X19254701Y-12133608D01*
X19254701Y-12133608D02*
X19273748Y-12124084D01*
X19435653Y-12324084D02*
X19473748Y-12324084D01*
X19473748Y-12324084D02*
X19492796Y-12314560D01*
X19492796Y-12314560D02*
X19502320Y-12305036D01*
X19502320Y-12305036D02*
X19521368Y-12276465D01*
X19521368Y-12276465D02*
X19530891Y-12238369D01*
X19530891Y-12238369D02*
X19530891Y-12162179D01*
X19530891Y-12162179D02*
X19521368Y-12143131D01*
X19521368Y-12143131D02*
X19511844Y-12133608D01*
X19511844Y-12133608D02*
X19492796Y-12124084D01*
X19492796Y-12124084D02*
X19454701Y-12124084D01*
X19454701Y-12124084D02*
X19435653Y-12133608D01*
X19435653Y-12133608D02*
X19426129Y-12143131D01*
X19426129Y-12143131D02*
X19416606Y-12162179D01*
X19416606Y-12162179D02*
X19416606Y-12209798D01*
X19416606Y-12209798D02*
X19426129Y-12228846D01*
X19426129Y-12228846D02*
X19435653Y-12238369D01*
X19435653Y-12238369D02*
X19454701Y-12247893D01*
X19454701Y-12247893D02*
X19492796Y-12247893D01*
X19492796Y-12247893D02*
X19511844Y-12238369D01*
X19511844Y-12238369D02*
X19521368Y-12228846D01*
X19521368Y-12228846D02*
X19530891Y-12209798D01*
X19721368Y-12324084D02*
X19607082Y-12324084D01*
X19664225Y-12324084D02*
X19664225Y-12124084D01*
X19664225Y-12124084D02*
X19645177Y-12152655D01*
X19645177Y-12152655D02*
X19626129Y-12171703D01*
X19626129Y-12171703D02*
X19607082Y-12181227D01*
X19788034Y-12124084D02*
X19921368Y-12124084D01*
X19921368Y-12124084D02*
X19835653Y-12324084D01*
X19988034Y-12124084D02*
X19988034Y-12162179D01*
X20064225Y-12124084D02*
X20064225Y-12162179D01*
X20359463Y-12400274D02*
X20349939Y-12390750D01*
X20349939Y-12390750D02*
X20330891Y-12362179D01*
X20330891Y-12362179D02*
X20321368Y-12343131D01*
X20321368Y-12343131D02*
X20311844Y-12314560D01*
X20311844Y-12314560D02*
X20302320Y-12266941D01*
X20302320Y-12266941D02*
X20302320Y-12228846D01*
X20302320Y-12228846D02*
X20311844Y-12181227D01*
X20311844Y-12181227D02*
X20321368Y-12152655D01*
X20321368Y-12152655D02*
X20330891Y-12133608D01*
X20330891Y-12133608D02*
X20349939Y-12105036D01*
X20349939Y-12105036D02*
X20359463Y-12095512D01*
X20426130Y-12143131D02*
X20435653Y-12133608D01*
X20435653Y-12133608D02*
X20454701Y-12124084D01*
X20454701Y-12124084D02*
X20502320Y-12124084D01*
X20502320Y-12124084D02*
X20521368Y-12133608D01*
X20521368Y-12133608D02*
X20530891Y-12143131D01*
X20530891Y-12143131D02*
X20540415Y-12162179D01*
X20540415Y-12162179D02*
X20540415Y-12181227D01*
X20540415Y-12181227D02*
X20530891Y-12209798D01*
X20530891Y-12209798D02*
X20416606Y-12324084D01*
X20416606Y-12324084D02*
X20540415Y-12324084D01*
X20778511Y-12324084D02*
X20778511Y-12124084D01*
X20864225Y-12324084D02*
X20864225Y-12219322D01*
X20864225Y-12219322D02*
X20854701Y-12200274D01*
X20854701Y-12200274D02*
X20835653Y-12190750D01*
X20835653Y-12190750D02*
X20807082Y-12190750D01*
X20807082Y-12190750D02*
X20788034Y-12200274D01*
X20788034Y-12200274D02*
X20778511Y-12209798D01*
X20988034Y-12324084D02*
X20968987Y-12314560D01*
X20968987Y-12314560D02*
X20959463Y-12305036D01*
X20959463Y-12305036D02*
X20949939Y-12285988D01*
X20949939Y-12285988D02*
X20949939Y-12228846D01*
X20949939Y-12228846D02*
X20959463Y-12209798D01*
X20959463Y-12209798D02*
X20968987Y-12200274D01*
X20968987Y-12200274D02*
X20988034Y-12190750D01*
X20988034Y-12190750D02*
X21016606Y-12190750D01*
X21016606Y-12190750D02*
X21035653Y-12200274D01*
X21035653Y-12200274D02*
X21045177Y-12209798D01*
X21045177Y-12209798D02*
X21054701Y-12228846D01*
X21054701Y-12228846D02*
X21054701Y-12285988D01*
X21054701Y-12285988D02*
X21045177Y-12305036D01*
X21045177Y-12305036D02*
X21035653Y-12314560D01*
X21035653Y-12314560D02*
X21016606Y-12324084D01*
X21016606Y-12324084D02*
X20988034Y-12324084D01*
X21168987Y-12324084D02*
X21149939Y-12314560D01*
X21149939Y-12314560D02*
X21140415Y-12295512D01*
X21140415Y-12295512D02*
X21140415Y-12124084D01*
X21321368Y-12314560D02*
X21302320Y-12324084D01*
X21302320Y-12324084D02*
X21264225Y-12324084D01*
X21264225Y-12324084D02*
X21245177Y-12314560D01*
X21245177Y-12314560D02*
X21235653Y-12295512D01*
X21235653Y-12295512D02*
X21235653Y-12219322D01*
X21235653Y-12219322D02*
X21245177Y-12200274D01*
X21245177Y-12200274D02*
X21264225Y-12190750D01*
X21264225Y-12190750D02*
X21302320Y-12190750D01*
X21302320Y-12190750D02*
X21321368Y-12200274D01*
X21321368Y-12200274D02*
X21330892Y-12219322D01*
X21330892Y-12219322D02*
X21330892Y-12238369D01*
X21330892Y-12238369D02*
X21235653Y-12257417D01*
X21407082Y-12314560D02*
X21426130Y-12324084D01*
X21426130Y-12324084D02*
X21464225Y-12324084D01*
X21464225Y-12324084D02*
X21483273Y-12314560D01*
X21483273Y-12314560D02*
X21492796Y-12295512D01*
X21492796Y-12295512D02*
X21492796Y-12285988D01*
X21492796Y-12285988D02*
X21483273Y-12266941D01*
X21483273Y-12266941D02*
X21464225Y-12257417D01*
X21464225Y-12257417D02*
X21435653Y-12257417D01*
X21435653Y-12257417D02*
X21416606Y-12247893D01*
X21416606Y-12247893D02*
X21407082Y-12228846D01*
X21407082Y-12228846D02*
X21407082Y-12219322D01*
X21407082Y-12219322D02*
X21416606Y-12200274D01*
X21416606Y-12200274D02*
X21435653Y-12190750D01*
X21435653Y-12190750D02*
X21464225Y-12190750D01*
X21464225Y-12190750D02*
X21483273Y-12200274D01*
X21559463Y-12400274D02*
X21568987Y-12390750D01*
X21568987Y-12390750D02*
X21588034Y-12362179D01*
X21588034Y-12362179D02*
X21597558Y-12343131D01*
X21597558Y-12343131D02*
X21607082Y-12314560D01*
X21607082Y-12314560D02*
X21616606Y-12266941D01*
X21616606Y-12266941D02*
X21616606Y-12228846D01*
X21616606Y-12228846D02*
X21607082Y-12181227D01*
X21607082Y-12181227D02*
X21597558Y-12152655D01*
X21597558Y-12152655D02*
X21588034Y-12133608D01*
X21588034Y-12133608D02*
X21568987Y-12105036D01*
X21568987Y-12105036D02*
X21559463Y-12095512D01*
M02*
