G04 #@! TF.GenerationSoftware,KiCad,Pcbnew,7.0.10*
G04 #@! TF.CreationDate,2024-03-12T12:36:54-06:00*
G04 #@! TF.ProjectId,ARXCarrierBoard,41525843-6172-4726-9965-72426f617264,rev?*
G04 #@! TF.SameCoordinates,Original*
G04 #@! TF.FileFunction,Copper,L2,Inr*
G04 #@! TF.FilePolarity,Positive*
%FSLAX46Y46*%
G04 Gerber Fmt 4.6, Leading zero omitted, Abs format (unit mm)*
G04 Created by KiCad (PCBNEW 7.0.10) date 2024-03-12 12:36:54*
%MOMM*%
%LPD*%
G01*
G04 APERTURE LIST*
G04 #@! TA.AperFunction,ComponentPad*
%ADD10R,1.700000X1.700000*%
G04 #@! TD*
G04 #@! TA.AperFunction,ComponentPad*
%ADD11O,1.700000X1.700000*%
G04 #@! TD*
G04 #@! TA.AperFunction,ComponentPad*
%ADD12C,1.700000*%
G04 #@! TD*
G04 #@! TA.AperFunction,ComponentPad*
%ADD13C,3.500000*%
G04 #@! TD*
G04 #@! TA.AperFunction,ViaPad*
%ADD14C,1.200000*%
G04 #@! TD*
G04 #@! TA.AperFunction,ViaPad*
%ADD15C,3.200000*%
G04 #@! TD*
G04 APERTURE END LIST*
D10*
X210566000Y-76200000D03*
D11*
X213106000Y-76200000D03*
X210566000Y-78740000D03*
X213106000Y-78740000D03*
X210566000Y-81280000D03*
X213106000Y-81280000D03*
X210566000Y-83820000D03*
X213106000Y-83820000D03*
D10*
X197125590Y-97478310D03*
D12*
X194625590Y-97478310D03*
X194625590Y-99478310D03*
X197125590Y-99478310D03*
D13*
X201895590Y-102188310D03*
X189855590Y-102188310D03*
D10*
X178563270Y-81900490D03*
D11*
X178563270Y-79360490D03*
X178563270Y-76820490D03*
D10*
X178563270Y-93980000D03*
D11*
X178563270Y-91440000D03*
X178563270Y-88900000D03*
X178563270Y-86360000D03*
D14*
X184912000Y-90170000D03*
X205232000Y-99060000D03*
X198374000Y-69596000D03*
X201676000Y-69088000D03*
X189738000Y-80772000D03*
X197358000Y-80772000D03*
X211074000Y-64770000D03*
X177292000Y-77978000D03*
X189738000Y-78105000D03*
X196088000Y-67310000D03*
X180594000Y-75946000D03*
X214884000Y-77470000D03*
X205232000Y-95758000D03*
X179832000Y-90170000D03*
D15*
X220980000Y-66294000D03*
D14*
X185674000Y-80772000D03*
X203200000Y-95250000D03*
X214884000Y-82550000D03*
X212344000Y-66548000D03*
X186690000Y-87122000D03*
X182118000Y-92202000D03*
X201676000Y-70612000D03*
D15*
X220980000Y-102362000D03*
D14*
X212344000Y-69088000D03*
X180340000Y-93980000D03*
X182118000Y-88138000D03*
X201930000Y-80772000D03*
X194564000Y-93472000D03*
X185674000Y-75438000D03*
X185928000Y-78105000D03*
X190754000Y-90932000D03*
X196088000Y-69596000D03*
X201676000Y-67564000D03*
X190754000Y-89408000D03*
X214884000Y-85344000D03*
X205232000Y-97536000D03*
X180594000Y-80264000D03*
X214884000Y-80010000D03*
X180340000Y-86360000D03*
X194564000Y-86868000D03*
D15*
X170688000Y-102362000D03*
X170688000Y-66294000D03*
D14*
X198882000Y-82296000D03*
X198374000Y-67310000D03*
X190754000Y-74168000D03*
X215646000Y-88392000D03*
X188720730Y-95758000D03*
X187196730Y-93980000D03*
X209260770Y-73660000D03*
X207736770Y-73660000D03*
X182372000Y-84328000D03*
X209260770Y-71740490D03*
X182118000Y-82296000D03*
X187196730Y-95758000D03*
X210820000Y-73660000D03*
X182118000Y-73914000D03*
X199665590Y-95885000D03*
X206187370Y-64755490D03*
X199665590Y-99060000D03*
X203200000Y-99060000D03*
X203200000Y-97478310D03*
X199665590Y-97478310D03*
X209260770Y-66660490D03*
X201358923Y-97478310D03*
X209260770Y-69200490D03*
X207711370Y-64755490D03*
X192786000Y-82804000D03*
X209235370Y-64755490D03*
X194564000Y-80772000D03*
X192786000Y-80772000D03*
X201358923Y-99060000D03*
X194818000Y-70866000D03*
X201676000Y-84328000D03*
G04 #@! TA.AperFunction,Conductor*
G36*
X223715621Y-63645002D02*
G01*
X223762114Y-63698658D01*
X223773500Y-63751000D01*
X223773500Y-104974000D01*
X223753498Y-105042121D01*
X223699842Y-105088614D01*
X223647500Y-105100000D01*
X168122000Y-105100000D01*
X168053879Y-105079998D01*
X168007386Y-105026342D01*
X167996000Y-104974000D01*
X167996000Y-102188310D01*
X187846471Y-102188310D01*
X187866920Y-102474233D01*
X187927854Y-102754344D01*
X188028030Y-103022926D01*
X188165414Y-103274525D01*
X188270193Y-103414493D01*
X188270194Y-103414494D01*
X188871969Y-102812719D01*
X188921917Y-102893387D01*
X189067372Y-103052944D01*
X189228492Y-103174615D01*
X188629404Y-103773704D01*
X188629405Y-103773705D01*
X188769374Y-103878486D01*
X189020973Y-104015869D01*
X189020972Y-104015869D01*
X189289555Y-104116045D01*
X189569666Y-104176979D01*
X189855590Y-104197428D01*
X190141513Y-104176979D01*
X190421624Y-104116045D01*
X190690206Y-104015869D01*
X190941801Y-103878488D01*
X191081773Y-103773704D01*
X191081774Y-103773704D01*
X190482686Y-103174616D01*
X190643808Y-103052944D01*
X190789263Y-102893387D01*
X190839209Y-102812719D01*
X191440984Y-103414494D01*
X191440984Y-103414493D01*
X191545768Y-103274521D01*
X191683149Y-103022926D01*
X191783325Y-102754344D01*
X191844259Y-102474233D01*
X191864708Y-102188310D01*
X199886471Y-102188310D01*
X199906920Y-102474233D01*
X199967854Y-102754344D01*
X200068030Y-103022926D01*
X200205414Y-103274525D01*
X200310193Y-103414493D01*
X200310194Y-103414494D01*
X200911969Y-102812719D01*
X200961917Y-102893387D01*
X201107372Y-103052944D01*
X201268492Y-103174615D01*
X200669404Y-103773704D01*
X200669405Y-103773705D01*
X200809374Y-103878486D01*
X201060973Y-104015869D01*
X201060972Y-104015869D01*
X201329555Y-104116045D01*
X201609666Y-104176979D01*
X201895590Y-104197428D01*
X202181513Y-104176979D01*
X202461624Y-104116045D01*
X202730206Y-104015869D01*
X202981801Y-103878488D01*
X203121773Y-103773704D01*
X203121774Y-103773704D01*
X202522686Y-103174616D01*
X202683808Y-103052944D01*
X202829263Y-102893387D01*
X202879209Y-102812719D01*
X203480984Y-103414494D01*
X203480984Y-103414493D01*
X203585768Y-103274521D01*
X203723149Y-103022926D01*
X203823325Y-102754344D01*
X203884259Y-102474233D01*
X203904708Y-102188310D01*
X203884259Y-101902386D01*
X203823325Y-101622275D01*
X203723149Y-101353693D01*
X203585766Y-101102094D01*
X203480985Y-100962125D01*
X203480984Y-100962124D01*
X202879209Y-101563899D01*
X202829263Y-101483233D01*
X202683808Y-101323676D01*
X202522686Y-101202002D01*
X203121774Y-100602914D01*
X203121773Y-100602913D01*
X202981805Y-100498134D01*
X202730206Y-100360750D01*
X202730207Y-100360750D01*
X202461624Y-100260574D01*
X202181513Y-100199640D01*
X201895590Y-100179191D01*
X201609666Y-100199640D01*
X201329555Y-100260574D01*
X201060973Y-100360750D01*
X200809379Y-100498131D01*
X200669405Y-100602913D01*
X200669404Y-100602914D01*
X201268493Y-101202003D01*
X201107372Y-101323676D01*
X200961917Y-101483233D01*
X200911970Y-101563900D01*
X200310194Y-100962124D01*
X200310193Y-100962125D01*
X200205411Y-101102099D01*
X200068030Y-101353693D01*
X199967854Y-101622275D01*
X199906920Y-101902386D01*
X199886471Y-102188310D01*
X191864708Y-102188310D01*
X191844259Y-101902386D01*
X191783325Y-101622275D01*
X191683149Y-101353693D01*
X191545766Y-101102094D01*
X191440985Y-100962125D01*
X191440984Y-100962124D01*
X190839209Y-101563899D01*
X190789263Y-101483233D01*
X190643808Y-101323676D01*
X190482686Y-101202002D01*
X191081774Y-100602914D01*
X191081773Y-100602913D01*
X190941805Y-100498134D01*
X190690206Y-100360750D01*
X190690207Y-100360750D01*
X190421624Y-100260574D01*
X190141513Y-100199640D01*
X189855590Y-100179191D01*
X189569666Y-100199640D01*
X189289555Y-100260574D01*
X189020973Y-100360750D01*
X188769379Y-100498131D01*
X188629405Y-100602913D01*
X188629404Y-100602914D01*
X189228493Y-101202003D01*
X189067372Y-101323676D01*
X188921917Y-101483233D01*
X188871970Y-101563900D01*
X188270194Y-100962124D01*
X188270193Y-100962125D01*
X188165411Y-101102099D01*
X188028030Y-101353693D01*
X187927854Y-101622275D01*
X187866920Y-101902386D01*
X187846471Y-102188310D01*
X167996000Y-102188310D01*
X167996000Y-99478314D01*
X193516358Y-99478314D01*
X193535244Y-99682129D01*
X193591209Y-99878824D01*
X193591262Y-99879011D01*
X193682502Y-100062245D01*
X193682503Y-100062246D01*
X193805856Y-100225594D01*
X193957126Y-100363495D01*
X194131156Y-100471250D01*
X194131158Y-100471250D01*
X194131163Y-100471254D01*
X194322034Y-100545198D01*
X194523243Y-100582810D01*
X194523245Y-100582810D01*
X194727935Y-100582810D01*
X194727937Y-100582810D01*
X194929146Y-100545198D01*
X195120017Y-100471254D01*
X195294052Y-100363496D01*
X195445322Y-100225595D01*
X195568678Y-100062245D01*
X195659918Y-99879011D01*
X195715935Y-99682131D01*
X195726786Y-99565029D01*
X195734822Y-99478314D01*
X195734822Y-99478310D01*
X196016860Y-99478310D01*
X196035738Y-99682040D01*
X196091728Y-99878824D01*
X196182854Y-100061832D01*
X196671415Y-99573271D01*
X196672057Y-99581826D01*
X196722718Y-99710908D01*
X196809176Y-99819323D01*
X196923749Y-99897437D01*
X197032214Y-99930894D01*
X196545490Y-100417618D01*
X196631383Y-100470801D01*
X196631392Y-100470806D01*
X196822167Y-100544713D01*
X196822166Y-100544713D01*
X197023291Y-100582310D01*
X197227889Y-100582310D01*
X197429013Y-100544713D01*
X197619787Y-100470806D01*
X197619796Y-100470801D01*
X197705687Y-100417619D01*
X197705688Y-100417618D01*
X197217693Y-99929623D01*
X197262709Y-99922839D01*
X197387644Y-99862673D01*
X197489295Y-99768355D01*
X197558629Y-99648265D01*
X197576491Y-99570001D01*
X198068323Y-100061832D01*
X198159448Y-99878833D01*
X198159451Y-99878824D01*
X198215441Y-99682040D01*
X198234319Y-99478310D01*
X198215441Y-99274579D01*
X198159451Y-99077795D01*
X198159449Y-99077790D01*
X198150591Y-99060000D01*
X198806383Y-99060000D01*
X198825158Y-99238639D01*
X198880662Y-99409466D01*
X198880665Y-99409472D01*
X198970475Y-99565026D01*
X198970477Y-99565029D01*
X199090668Y-99698515D01*
X199235986Y-99804095D01*
X199400080Y-99877154D01*
X199575778Y-99914500D01*
X199755402Y-99914500D01*
X199931100Y-99877154D01*
X200095194Y-99804095D01*
X200240512Y-99698515D01*
X200360703Y-99565029D01*
X200403138Y-99491528D01*
X200454519Y-99442537D01*
X200524232Y-99429100D01*
X200590144Y-99455487D01*
X200621375Y-99491530D01*
X200633813Y-99513074D01*
X200663810Y-99565029D01*
X200784001Y-99698515D01*
X200929319Y-99804095D01*
X201093413Y-99877154D01*
X201269111Y-99914500D01*
X201448735Y-99914500D01*
X201624433Y-99877154D01*
X201788527Y-99804095D01*
X201933845Y-99698515D01*
X202054036Y-99565029D01*
X202143848Y-99409471D01*
X202159628Y-99360904D01*
X202199700Y-99302299D01*
X202265096Y-99274662D01*
X202335053Y-99286767D01*
X202387360Y-99334772D01*
X202399294Y-99360904D01*
X202415072Y-99409465D01*
X202415075Y-99409472D01*
X202504885Y-99565026D01*
X202504887Y-99565029D01*
X202625078Y-99698515D01*
X202770396Y-99804095D01*
X202934490Y-99877154D01*
X203110188Y-99914500D01*
X203289812Y-99914500D01*
X203465510Y-99877154D01*
X203629604Y-99804095D01*
X203774922Y-99698515D01*
X203895113Y-99565029D01*
X203984925Y-99409471D01*
X204024794Y-99286767D01*
X204040431Y-99238639D01*
X204043631Y-99208194D01*
X204059207Y-99060000D01*
X204040431Y-98881361D01*
X204009195Y-98785224D01*
X203984927Y-98710533D01*
X203984924Y-98710527D01*
X203911185Y-98582809D01*
X203895113Y-98554971D01*
X203774922Y-98421485D01*
X203705559Y-98371090D01*
X203662206Y-98314869D01*
X203656130Y-98244133D01*
X203689262Y-98181341D01*
X203705554Y-98167223D01*
X203774922Y-98116825D01*
X203895113Y-97983339D01*
X203984925Y-97827781D01*
X204024794Y-97705077D01*
X204040431Y-97656949D01*
X204059207Y-97478310D01*
X204040431Y-97299671D01*
X204040431Y-97299670D01*
X203984927Y-97128843D01*
X203984924Y-97128837D01*
X203895114Y-96973283D01*
X203895113Y-96973281D01*
X203774922Y-96839795D01*
X203774919Y-96839793D01*
X203629604Y-96734215D01*
X203465510Y-96661156D01*
X203289812Y-96623810D01*
X203110188Y-96623810D01*
X202934489Y-96661156D01*
X202770392Y-96734217D01*
X202625078Y-96839794D01*
X202504888Y-96973279D01*
X202504885Y-96973283D01*
X202415075Y-97128837D01*
X202415073Y-97128841D01*
X202399294Y-97177406D01*
X202359220Y-97236011D01*
X202293823Y-97263648D01*
X202223866Y-97251541D01*
X202171561Y-97203534D01*
X202159628Y-97177404D01*
X202143851Y-97128846D01*
X202143847Y-97128837D01*
X202054037Y-96973283D01*
X202054036Y-96973281D01*
X201933845Y-96839795D01*
X201933842Y-96839793D01*
X201788527Y-96734215D01*
X201624433Y-96661156D01*
X201448735Y-96623810D01*
X201269111Y-96623810D01*
X201093412Y-96661156D01*
X200929315Y-96734217D01*
X200784001Y-96839794D01*
X200663811Y-96973279D01*
X200663810Y-96973280D01*
X200621375Y-97046780D01*
X200569991Y-97095773D01*
X200500278Y-97109208D01*
X200434367Y-97082821D01*
X200403137Y-97046779D01*
X200360704Y-96973283D01*
X200360703Y-96973281D01*
X200240512Y-96839795D01*
X200240509Y-96839793D01*
X200163154Y-96783591D01*
X200119800Y-96727369D01*
X200113725Y-96656633D01*
X200146856Y-96593841D01*
X200163154Y-96579719D01*
X200169437Y-96575154D01*
X200240512Y-96523515D01*
X200360703Y-96390029D01*
X200450515Y-96234471D01*
X200506021Y-96063639D01*
X200524797Y-95885000D01*
X200506021Y-95706361D01*
X200464757Y-95579361D01*
X200450517Y-95535533D01*
X200450514Y-95535527D01*
X200360704Y-95379973D01*
X200360703Y-95379971D01*
X200240512Y-95246485D01*
X200208548Y-95223262D01*
X200095194Y-95140905D01*
X199931100Y-95067846D01*
X199755402Y-95030500D01*
X199575778Y-95030500D01*
X199400079Y-95067846D01*
X199235982Y-95140907D01*
X199090668Y-95246484D01*
X198970478Y-95379969D01*
X198970475Y-95379973D01*
X198880665Y-95535527D01*
X198880662Y-95535533D01*
X198825158Y-95706360D01*
X198806383Y-95885000D01*
X198825158Y-96063639D01*
X198880662Y-96234466D01*
X198880665Y-96234472D01*
X198970475Y-96390026D01*
X198970478Y-96390030D01*
X199090667Y-96523515D01*
X199145085Y-96563051D01*
X199161741Y-96575153D01*
X199168025Y-96579718D01*
X199211379Y-96635940D01*
X199217454Y-96706676D01*
X199184323Y-96769468D01*
X199168026Y-96783589D01*
X199090669Y-96839793D01*
X198970478Y-96973279D01*
X198970475Y-96973283D01*
X198880665Y-97128837D01*
X198880662Y-97128843D01*
X198825158Y-97299670D01*
X198806383Y-97478310D01*
X198825158Y-97656949D01*
X198880662Y-97827776D01*
X198880665Y-97827782D01*
X198970475Y-97983336D01*
X198970477Y-97983339D01*
X199090668Y-98116825D01*
X199160029Y-98167219D01*
X199203383Y-98223439D01*
X199209459Y-98294175D01*
X199176327Y-98356967D01*
X199160030Y-98371089D01*
X199090668Y-98421483D01*
X198970478Y-98554969D01*
X198970475Y-98554973D01*
X198880665Y-98710527D01*
X198880662Y-98710533D01*
X198825158Y-98881360D01*
X198806383Y-99060000D01*
X198150591Y-99060000D01*
X198068249Y-98894637D01*
X197975761Y-98772161D01*
X197950671Y-98705745D01*
X197965471Y-98636308D01*
X198015462Y-98585896D01*
X198051726Y-98572651D01*
X198074891Y-98568044D01*
X198159074Y-98511794D01*
X198215324Y-98427611D01*
X198230090Y-98353377D01*
X198230089Y-96603244D01*
X198230088Y-96603240D01*
X198230088Y-96603236D01*
X198215324Y-96529009D01*
X198159073Y-96444825D01*
X198074892Y-96388576D01*
X198000657Y-96373810D01*
X196250526Y-96373810D01*
X196250516Y-96373811D01*
X196176289Y-96388575D01*
X196092105Y-96444826D01*
X196035856Y-96529007D01*
X196021090Y-96603240D01*
X196021090Y-98353373D01*
X196021091Y-98353383D01*
X196035855Y-98427610D01*
X196092106Y-98511794D01*
X196176287Y-98568043D01*
X196176289Y-98568044D01*
X196193491Y-98571465D01*
X196199449Y-98572651D01*
X196262359Y-98605559D01*
X196297491Y-98667254D01*
X196293691Y-98738148D01*
X196275419Y-98772161D01*
X196182929Y-98894637D01*
X196091730Y-99077790D01*
X196091728Y-99077795D01*
X196035738Y-99274579D01*
X196016860Y-99478310D01*
X195734822Y-99478310D01*
X195734822Y-99478305D01*
X195715935Y-99274490D01*
X195707747Y-99245712D01*
X195659918Y-99077609D01*
X195568678Y-98894375D01*
X195510777Y-98817701D01*
X195445323Y-98731025D01*
X195294054Y-98593125D01*
X195282378Y-98585896D01*
X195281637Y-98585437D01*
X195234250Y-98532571D01*
X195222967Y-98462477D01*
X195251370Y-98397410D01*
X195281636Y-98371183D01*
X195294052Y-98363496D01*
X195445322Y-98225595D01*
X195568678Y-98062245D01*
X195659918Y-97879011D01*
X195715935Y-97682131D01*
X195734822Y-97478310D01*
X195715935Y-97274489D01*
X195659918Y-97077609D01*
X195568678Y-96894375D01*
X195485018Y-96783591D01*
X195445323Y-96731025D01*
X195294053Y-96593124D01*
X195120023Y-96485369D01*
X195120018Y-96485367D01*
X195120017Y-96485366D01*
X195120012Y-96485364D01*
X194929149Y-96411423D01*
X194929150Y-96411423D01*
X194929147Y-96411422D01*
X194929146Y-96411422D01*
X194727937Y-96373810D01*
X194523243Y-96373810D01*
X194322034Y-96411422D01*
X194322029Y-96411423D01*
X194131167Y-96485364D01*
X194131156Y-96485369D01*
X193957126Y-96593124D01*
X193805856Y-96731025D01*
X193682503Y-96894373D01*
X193591261Y-97077611D01*
X193535244Y-97274490D01*
X193516358Y-97478305D01*
X193516358Y-97478314D01*
X193535244Y-97682129D01*
X193546193Y-97720609D01*
X193591262Y-97879011D01*
X193682502Y-98062245D01*
X193682503Y-98062246D01*
X193805856Y-98225594D01*
X193957128Y-98363496D01*
X193957128Y-98363497D01*
X193969543Y-98371184D01*
X194016930Y-98424052D01*
X194028212Y-98494146D01*
X193999807Y-98559213D01*
X193969543Y-98585436D01*
X193957128Y-98593122D01*
X193957128Y-98593123D01*
X193805856Y-98731025D01*
X193682503Y-98894373D01*
X193591261Y-99077611D01*
X193535244Y-99274490D01*
X193516358Y-99478305D01*
X193516358Y-99478314D01*
X167996000Y-99478314D01*
X167996000Y-95758000D01*
X186337523Y-95758000D01*
X186356298Y-95936639D01*
X186411802Y-96107466D01*
X186411805Y-96107472D01*
X186497268Y-96255497D01*
X186501617Y-96263029D01*
X186621808Y-96396515D01*
X186767126Y-96502095D01*
X186931220Y-96575154D01*
X187106918Y-96612500D01*
X187286542Y-96612500D01*
X187462240Y-96575154D01*
X187626334Y-96502095D01*
X187771652Y-96396515D01*
X187865094Y-96292735D01*
X187925539Y-96255497D01*
X187996523Y-96256848D01*
X188052364Y-96292735D01*
X188145808Y-96396515D01*
X188291126Y-96502095D01*
X188455220Y-96575154D01*
X188630918Y-96612500D01*
X188810542Y-96612500D01*
X188986240Y-96575154D01*
X189150334Y-96502095D01*
X189295652Y-96396515D01*
X189415843Y-96263029D01*
X189505655Y-96107471D01*
X189561161Y-95936639D01*
X189579937Y-95758000D01*
X189561161Y-95579361D01*
X189546921Y-95535533D01*
X189505657Y-95408533D01*
X189505654Y-95408527D01*
X189415844Y-95252973D01*
X189415843Y-95252971D01*
X189295652Y-95119485D01*
X189247499Y-95084500D01*
X189150334Y-95013905D01*
X188986240Y-94940846D01*
X188810542Y-94903500D01*
X188630918Y-94903500D01*
X188455219Y-94940846D01*
X188291122Y-95013907D01*
X188145805Y-95119486D01*
X188052366Y-95223262D01*
X187991920Y-95260502D01*
X187920937Y-95259150D01*
X187865094Y-95223262D01*
X187771654Y-95119486D01*
X187700577Y-95067846D01*
X187626334Y-95013905D01*
X187625388Y-95013484D01*
X187559406Y-94984107D01*
X187505310Y-94938127D01*
X187484660Y-94870200D01*
X187504012Y-94801892D01*
X187557223Y-94754890D01*
X187559406Y-94753893D01*
X187626334Y-94724095D01*
X187771652Y-94618515D01*
X187891843Y-94485029D01*
X187981655Y-94329471D01*
X188037161Y-94158639D01*
X188055937Y-93980000D01*
X188037161Y-93801361D01*
X188037161Y-93801360D01*
X187981657Y-93630533D01*
X187981654Y-93630527D01*
X187891844Y-93474973D01*
X187891843Y-93474971D01*
X187771652Y-93341485D01*
X187626334Y-93235905D01*
X187462240Y-93162846D01*
X187286542Y-93125500D01*
X187106918Y-93125500D01*
X186931219Y-93162846D01*
X186767122Y-93235907D01*
X186621808Y-93341484D01*
X186501618Y-93474969D01*
X186501615Y-93474973D01*
X186411805Y-93630527D01*
X186411802Y-93630533D01*
X186356298Y-93801360D01*
X186337523Y-93980000D01*
X186356298Y-94158639D01*
X186411802Y-94329466D01*
X186411805Y-94329472D01*
X186501615Y-94485026D01*
X186501617Y-94485029D01*
X186621808Y-94618515D01*
X186767126Y-94724095D01*
X186834054Y-94753893D01*
X186888150Y-94799873D01*
X186908799Y-94867801D01*
X186889447Y-94936109D01*
X186836236Y-94983110D01*
X186834055Y-94984106D01*
X186767125Y-95013905D01*
X186767124Y-95013906D01*
X186621808Y-95119484D01*
X186501618Y-95252969D01*
X186501615Y-95252973D01*
X186411805Y-95408527D01*
X186411802Y-95408533D01*
X186356298Y-95579360D01*
X186337523Y-95758000D01*
X167996000Y-95758000D01*
X167996000Y-94855063D01*
X177458770Y-94855063D01*
X177458771Y-94855073D01*
X177473535Y-94929300D01*
X177529786Y-95013484D01*
X177613967Y-95069733D01*
X177613969Y-95069734D01*
X177688203Y-95084500D01*
X179438336Y-95084499D01*
X179438339Y-95084498D01*
X179438343Y-95084498D01*
X179487596Y-95074701D01*
X179512571Y-95069734D01*
X179596754Y-95013484D01*
X179653004Y-94929301D01*
X179667770Y-94855067D01*
X179667769Y-93104934D01*
X179667768Y-93104930D01*
X179667768Y-93104926D01*
X179653004Y-93030699D01*
X179596753Y-92946515D01*
X179512572Y-92890266D01*
X179438337Y-92875500D01*
X177688206Y-92875500D01*
X177688196Y-92875501D01*
X177613969Y-92890265D01*
X177529785Y-92946516D01*
X177473536Y-93030697D01*
X177458770Y-93104930D01*
X177458770Y-94855063D01*
X167996000Y-94855063D01*
X167996000Y-91440004D01*
X177454038Y-91440004D01*
X177472924Y-91643819D01*
X177472925Y-91643821D01*
X177528942Y-91840701D01*
X177620182Y-92023935D01*
X177620183Y-92023936D01*
X177743536Y-92187284D01*
X177894806Y-92325185D01*
X178068836Y-92432940D01*
X178068838Y-92432940D01*
X178068843Y-92432944D01*
X178259714Y-92506888D01*
X178460923Y-92544500D01*
X178460925Y-92544500D01*
X178665615Y-92544500D01*
X178665617Y-92544500D01*
X178866826Y-92506888D01*
X179057697Y-92432944D01*
X179231732Y-92325186D01*
X179383002Y-92187285D01*
X179506358Y-92023935D01*
X179597598Y-91840701D01*
X179653615Y-91643821D01*
X179672502Y-91440000D01*
X179653615Y-91236179D01*
X179597598Y-91039299D01*
X179506358Y-90856065D01*
X179465808Y-90802368D01*
X179383003Y-90692715D01*
X179231733Y-90554814D01*
X179057703Y-90447059D01*
X179057698Y-90447057D01*
X179057697Y-90447056D01*
X178866829Y-90373113D01*
X178866830Y-90373113D01*
X178866827Y-90373112D01*
X178866826Y-90373112D01*
X178665617Y-90335500D01*
X178460923Y-90335500D01*
X178259714Y-90373112D01*
X178259709Y-90373113D01*
X178068847Y-90447054D01*
X178068836Y-90447059D01*
X177894806Y-90554814D01*
X177743536Y-90692715D01*
X177620183Y-90856063D01*
X177528941Y-91039301D01*
X177472924Y-91236180D01*
X177454038Y-91439995D01*
X177454038Y-91440004D01*
X167996000Y-91440004D01*
X167996000Y-88900004D01*
X177454038Y-88900004D01*
X177472924Y-89103819D01*
X177528941Y-89300698D01*
X177528942Y-89300701D01*
X177620182Y-89483935D01*
X177620183Y-89483936D01*
X177743536Y-89647284D01*
X177894806Y-89785185D01*
X178068836Y-89892940D01*
X178068838Y-89892940D01*
X178068843Y-89892944D01*
X178259714Y-89966888D01*
X178460923Y-90004500D01*
X178460925Y-90004500D01*
X178665615Y-90004500D01*
X178665617Y-90004500D01*
X178866826Y-89966888D01*
X179057697Y-89892944D01*
X179231732Y-89785186D01*
X179383002Y-89647285D01*
X179506358Y-89483935D01*
X179597598Y-89300701D01*
X179653615Y-89103821D01*
X179672502Y-88900000D01*
X179672226Y-88897026D01*
X179653615Y-88696180D01*
X179653615Y-88696179D01*
X179597598Y-88499299D01*
X179544169Y-88392000D01*
X214786793Y-88392000D01*
X214805568Y-88570639D01*
X214861072Y-88741466D01*
X214861075Y-88741472D01*
X214950885Y-88897026D01*
X214950887Y-88897029D01*
X215071078Y-89030515D01*
X215216396Y-89136095D01*
X215380490Y-89209154D01*
X215556188Y-89246500D01*
X215735812Y-89246500D01*
X215911510Y-89209154D01*
X216075604Y-89136095D01*
X216220922Y-89030515D01*
X216341113Y-88897029D01*
X216430925Y-88741471D01*
X216486431Y-88570639D01*
X216505207Y-88392000D01*
X216486431Y-88213361D01*
X216486431Y-88213360D01*
X216430927Y-88042533D01*
X216430924Y-88042527D01*
X216341114Y-87886973D01*
X216341113Y-87886971D01*
X216220922Y-87753485D01*
X216075604Y-87647905D01*
X215911510Y-87574846D01*
X215735812Y-87537500D01*
X215556188Y-87537500D01*
X215380489Y-87574846D01*
X215216392Y-87647907D01*
X215071078Y-87753484D01*
X214950888Y-87886969D01*
X214950885Y-87886973D01*
X214861075Y-88042527D01*
X214861072Y-88042533D01*
X214805568Y-88213360D01*
X214786793Y-88392000D01*
X179544169Y-88392000D01*
X179506358Y-88316065D01*
X179428799Y-88213360D01*
X179383003Y-88152715D01*
X179231733Y-88014814D01*
X179057703Y-87907059D01*
X179057698Y-87907057D01*
X179057697Y-87907056D01*
X178866829Y-87833113D01*
X178866830Y-87833113D01*
X178866827Y-87833112D01*
X178866826Y-87833112D01*
X178665617Y-87795500D01*
X178460923Y-87795500D01*
X178259714Y-87833112D01*
X178259709Y-87833113D01*
X178068847Y-87907054D01*
X178068836Y-87907059D01*
X177894806Y-88014814D01*
X177743536Y-88152715D01*
X177620183Y-88316063D01*
X177528941Y-88499301D01*
X177472924Y-88696180D01*
X177454038Y-88899995D01*
X177454038Y-88900004D01*
X167996000Y-88900004D01*
X167996000Y-86360004D01*
X177454038Y-86360004D01*
X177472924Y-86563819D01*
X177472925Y-86563821D01*
X177528942Y-86760701D01*
X177620182Y-86943935D01*
X177620183Y-86943936D01*
X177743536Y-87107284D01*
X177894806Y-87245185D01*
X178068836Y-87352940D01*
X178068838Y-87352940D01*
X178068843Y-87352944D01*
X178259714Y-87426888D01*
X178460923Y-87464500D01*
X178460925Y-87464500D01*
X178665615Y-87464500D01*
X178665617Y-87464500D01*
X178866826Y-87426888D01*
X179057697Y-87352944D01*
X179231732Y-87245186D01*
X179383002Y-87107285D01*
X179506358Y-86943935D01*
X179597598Y-86760701D01*
X179653615Y-86563821D01*
X179672502Y-86360000D01*
X179653615Y-86156179D01*
X179597598Y-85959299D01*
X179506358Y-85776065D01*
X179465808Y-85722368D01*
X179383003Y-85612715D01*
X179231733Y-85474814D01*
X179057703Y-85367059D01*
X179057698Y-85367057D01*
X179057697Y-85367056D01*
X178866829Y-85293113D01*
X178866830Y-85293113D01*
X178866827Y-85293112D01*
X178866826Y-85293112D01*
X178665617Y-85255500D01*
X178460923Y-85255500D01*
X178259714Y-85293112D01*
X178259709Y-85293113D01*
X178068847Y-85367054D01*
X178068836Y-85367059D01*
X177894806Y-85474814D01*
X177743536Y-85612715D01*
X177620183Y-85776063D01*
X177528941Y-85959301D01*
X177472924Y-86156180D01*
X177454038Y-86359995D01*
X177454038Y-86360004D01*
X167996000Y-86360004D01*
X167996000Y-84328000D01*
X181512793Y-84328000D01*
X181531568Y-84506639D01*
X181587072Y-84677466D01*
X181587075Y-84677472D01*
X181665291Y-84812944D01*
X181676887Y-84833029D01*
X181797078Y-84966515D01*
X181942396Y-85072095D01*
X182106490Y-85145154D01*
X182282188Y-85182500D01*
X182461812Y-85182500D01*
X182637510Y-85145154D01*
X182801604Y-85072095D01*
X182946922Y-84966515D01*
X183067113Y-84833029D01*
X183156925Y-84677471D01*
X183192727Y-84567284D01*
X183212431Y-84506639D01*
X183231207Y-84328000D01*
X200816793Y-84328000D01*
X200835568Y-84506639D01*
X200891072Y-84677466D01*
X200891075Y-84677472D01*
X200969291Y-84812944D01*
X200980887Y-84833029D01*
X201101078Y-84966515D01*
X201246396Y-85072095D01*
X201410490Y-85145154D01*
X201586188Y-85182500D01*
X201765812Y-85182500D01*
X201941510Y-85145154D01*
X202105604Y-85072095D01*
X202250922Y-84966515D01*
X202371113Y-84833029D01*
X202460925Y-84677471D01*
X202496727Y-84567284D01*
X202516431Y-84506639D01*
X202535207Y-84328000D01*
X202516431Y-84149361D01*
X202516431Y-84149360D01*
X202460927Y-83978533D01*
X202460924Y-83978527D01*
X202371114Y-83822973D01*
X202371113Y-83822971D01*
X202250922Y-83689485D01*
X202105604Y-83583905D01*
X202065386Y-83565999D01*
X209490450Y-83565999D01*
X209490451Y-83566000D01*
X210134884Y-83566000D01*
X210106507Y-83610156D01*
X210066000Y-83748111D01*
X210066000Y-83891889D01*
X210106507Y-84029844D01*
X210134884Y-84074000D01*
X209490451Y-84074000D01*
X209532138Y-84220514D01*
X209532140Y-84220519D01*
X209623340Y-84403672D01*
X209746637Y-84566946D01*
X209897838Y-84704784D01*
X210071796Y-84812493D01*
X210071803Y-84812496D01*
X210262582Y-84886405D01*
X210311999Y-84895642D01*
X210312000Y-84895642D01*
X210312000Y-84253674D01*
X210423685Y-84304680D01*
X210530237Y-84320000D01*
X210601763Y-84320000D01*
X210708315Y-84304680D01*
X210820000Y-84253674D01*
X210820000Y-84895642D01*
X210869417Y-84886405D01*
X210869418Y-84886405D01*
X211060196Y-84812496D01*
X211060203Y-84812493D01*
X211234161Y-84704784D01*
X211385362Y-84566946D01*
X211508659Y-84403672D01*
X211599859Y-84220519D01*
X211599861Y-84220514D01*
X211641549Y-84074000D01*
X210997116Y-84074000D01*
X211025493Y-84029844D01*
X211066000Y-83891889D01*
X211066000Y-83820004D01*
X211996768Y-83820004D01*
X212015654Y-84023819D01*
X212029932Y-84074000D01*
X212071672Y-84220701D01*
X212162912Y-84403935D01*
X212162913Y-84403936D01*
X212286266Y-84567284D01*
X212437536Y-84705185D01*
X212611566Y-84812940D01*
X212611568Y-84812940D01*
X212611573Y-84812944D01*
X212802444Y-84886888D01*
X213003653Y-84924500D01*
X213003655Y-84924500D01*
X213208345Y-84924500D01*
X213208347Y-84924500D01*
X213409556Y-84886888D01*
X213600427Y-84812944D01*
X213774462Y-84705186D01*
X213925732Y-84567285D01*
X214049088Y-84403935D01*
X214140328Y-84220701D01*
X214196345Y-84023821D01*
X214202640Y-83955880D01*
X214215232Y-83820004D01*
X214215232Y-83819995D01*
X214196345Y-83616180D01*
X214182068Y-83566000D01*
X214140328Y-83419299D01*
X214049088Y-83236065D01*
X213986712Y-83153466D01*
X213925733Y-83072715D01*
X213774463Y-82934814D01*
X213600433Y-82827059D01*
X213600428Y-82827057D01*
X213600427Y-82827056D01*
X213540913Y-82804000D01*
X213409559Y-82753113D01*
X213409560Y-82753113D01*
X213409557Y-82753112D01*
X213409556Y-82753112D01*
X213208347Y-82715500D01*
X213003653Y-82715500D01*
X212849280Y-82744357D01*
X212802439Y-82753113D01*
X212611577Y-82827054D01*
X212611566Y-82827059D01*
X212437536Y-82934814D01*
X212286266Y-83072715D01*
X212162913Y-83236063D01*
X212071671Y-83419301D01*
X212015654Y-83616180D01*
X211996768Y-83819995D01*
X211996768Y-83820004D01*
X211066000Y-83820004D01*
X211066000Y-83748111D01*
X211025493Y-83610156D01*
X210997116Y-83566000D01*
X211641549Y-83566000D01*
X211641549Y-83565999D01*
X211599861Y-83419485D01*
X211599859Y-83419480D01*
X211508659Y-83236327D01*
X211385362Y-83073053D01*
X211234161Y-82935215D01*
X211060203Y-82827506D01*
X211060196Y-82827503D01*
X210869424Y-82753596D01*
X210820000Y-82744357D01*
X210820000Y-83386325D01*
X210708315Y-83335320D01*
X210601763Y-83320000D01*
X210530237Y-83320000D01*
X210423685Y-83335320D01*
X210312000Y-83386325D01*
X210312000Y-82744357D01*
X210262575Y-82753596D01*
X210071803Y-82827503D01*
X210071796Y-82827506D01*
X209897838Y-82935215D01*
X209746637Y-83073053D01*
X209623340Y-83236327D01*
X209532140Y-83419480D01*
X209532138Y-83419485D01*
X209490450Y-83565999D01*
X202065386Y-83565999D01*
X201941510Y-83510846D01*
X201765812Y-83473500D01*
X201586188Y-83473500D01*
X201410489Y-83510846D01*
X201246392Y-83583907D01*
X201101078Y-83689484D01*
X200980888Y-83822969D01*
X200980885Y-83822973D01*
X200891075Y-83978527D01*
X200891072Y-83978533D01*
X200835568Y-84149360D01*
X200816793Y-84328000D01*
X183231207Y-84328000D01*
X183212431Y-84149361D01*
X183212431Y-84149360D01*
X183156927Y-83978533D01*
X183156924Y-83978527D01*
X183067114Y-83822973D01*
X183067113Y-83822971D01*
X182946922Y-83689485D01*
X182801604Y-83583905D01*
X182637510Y-83510846D01*
X182461812Y-83473500D01*
X182282188Y-83473500D01*
X182106489Y-83510846D01*
X181942392Y-83583907D01*
X181797078Y-83689484D01*
X181676888Y-83822969D01*
X181676885Y-83822973D01*
X181587075Y-83978527D01*
X181587072Y-83978533D01*
X181531568Y-84149360D01*
X181512793Y-84328000D01*
X167996000Y-84328000D01*
X167996000Y-81646490D01*
X177459270Y-81646490D01*
X178132154Y-81646490D01*
X178103777Y-81690646D01*
X178063270Y-81828601D01*
X178063270Y-81972379D01*
X178103777Y-82110334D01*
X178132154Y-82154490D01*
X177459271Y-82154490D01*
X177459271Y-82775512D01*
X177474007Y-82849595D01*
X177474007Y-82849597D01*
X177530145Y-82933614D01*
X177614163Y-82989752D01*
X177614164Y-82989753D01*
X177688250Y-83004489D01*
X178309270Y-83004489D01*
X178309270Y-82334164D01*
X178420955Y-82385170D01*
X178527507Y-82400490D01*
X178599033Y-82400490D01*
X178705585Y-82385170D01*
X178817270Y-82334164D01*
X178817270Y-83004489D01*
X179438284Y-83004489D01*
X179438292Y-83004488D01*
X179512375Y-82989752D01*
X179512377Y-82989752D01*
X179596394Y-82933614D01*
X179652532Y-82849596D01*
X179652533Y-82849595D01*
X179667269Y-82775512D01*
X179667270Y-82775505D01*
X179667270Y-82296000D01*
X181258793Y-82296000D01*
X181277568Y-82474639D01*
X181333072Y-82645466D01*
X181333075Y-82645472D01*
X181422885Y-82801026D01*
X181422887Y-82801029D01*
X181543078Y-82934515D01*
X181688396Y-83040095D01*
X181852490Y-83113154D01*
X182028188Y-83150500D01*
X182207812Y-83150500D01*
X182383510Y-83113154D01*
X182547604Y-83040095D01*
X182692922Y-82934515D01*
X182810438Y-82804000D01*
X191926793Y-82804000D01*
X191945568Y-82982639D01*
X192001072Y-83153466D01*
X192001075Y-83153472D01*
X192048761Y-83236065D01*
X192090887Y-83309029D01*
X192211078Y-83442515D01*
X192356396Y-83548095D01*
X192520490Y-83621154D01*
X192696188Y-83658500D01*
X192875812Y-83658500D01*
X193051510Y-83621154D01*
X193215604Y-83548095D01*
X193360922Y-83442515D01*
X193481113Y-83309029D01*
X193570925Y-83153471D01*
X193571891Y-83150500D01*
X193626431Y-82982639D01*
X193645207Y-82804000D01*
X193626431Y-82625361D01*
X193626431Y-82625360D01*
X193570927Y-82454533D01*
X193570924Y-82454527D01*
X193481114Y-82298973D01*
X193481113Y-82298971D01*
X193360922Y-82165485D01*
X193360510Y-82165186D01*
X193215604Y-82059905D01*
X193051510Y-81986846D01*
X192875812Y-81949500D01*
X192696188Y-81949500D01*
X192520489Y-81986846D01*
X192356392Y-82059907D01*
X192211078Y-82165484D01*
X192090888Y-82298969D01*
X192090885Y-82298973D01*
X192001075Y-82454527D01*
X192001072Y-82454533D01*
X191945568Y-82625360D01*
X191926793Y-82804000D01*
X182810438Y-82804000D01*
X182813113Y-82801029D01*
X182902925Y-82645471D01*
X182909460Y-82625360D01*
X182958431Y-82474639D01*
X182966224Y-82400490D01*
X182977207Y-82296000D01*
X182958431Y-82117361D01*
X182956148Y-82110334D01*
X182902927Y-81946533D01*
X182902924Y-81946527D01*
X182813114Y-81790973D01*
X182813113Y-81790971D01*
X182692922Y-81657485D01*
X182547604Y-81551905D01*
X182383510Y-81478846D01*
X182207812Y-81441500D01*
X182028188Y-81441500D01*
X181852489Y-81478846D01*
X181688392Y-81551907D01*
X181543078Y-81657484D01*
X181422888Y-81790969D01*
X181422885Y-81790973D01*
X181333075Y-81946527D01*
X181333072Y-81946533D01*
X181277568Y-82117360D01*
X181258793Y-82296000D01*
X179667270Y-82296000D01*
X179667270Y-82154490D01*
X178994386Y-82154490D01*
X179022763Y-82110334D01*
X179063270Y-81972379D01*
X179063270Y-81828601D01*
X179022763Y-81690646D01*
X178994386Y-81646490D01*
X179667269Y-81646490D01*
X179667269Y-81025476D01*
X179667268Y-81025467D01*
X179652532Y-80951384D01*
X179652532Y-80951382D01*
X179596394Y-80867365D01*
X179512376Y-80811227D01*
X179512375Y-80811226D01*
X179438292Y-80796490D01*
X178817270Y-80796490D01*
X178817270Y-81466815D01*
X178705585Y-81415810D01*
X178599033Y-81400490D01*
X178527507Y-81400490D01*
X178420955Y-81415810D01*
X178309270Y-81466815D01*
X178309270Y-80796490D01*
X177688256Y-80796490D01*
X177688246Y-80796491D01*
X177614164Y-80811227D01*
X177614162Y-80811227D01*
X177530145Y-80867365D01*
X177474007Y-80951383D01*
X177474006Y-80951384D01*
X177459270Y-81025467D01*
X177459270Y-81646490D01*
X167996000Y-81646490D01*
X167996000Y-80772000D01*
X191926793Y-80772000D01*
X191945568Y-80950639D01*
X192001072Y-81121466D01*
X192001075Y-81121472D01*
X192051097Y-81208111D01*
X192090887Y-81277029D01*
X192211078Y-81410515D01*
X192356396Y-81516095D01*
X192520490Y-81589154D01*
X192696188Y-81626500D01*
X192875812Y-81626500D01*
X193051510Y-81589154D01*
X193215604Y-81516095D01*
X193360922Y-81410515D01*
X193481113Y-81277029D01*
X193565881Y-81130206D01*
X193617264Y-81081214D01*
X193686977Y-81067778D01*
X193752888Y-81094164D01*
X193784118Y-81130206D01*
X193868887Y-81277029D01*
X193989078Y-81410515D01*
X194134396Y-81516095D01*
X194298490Y-81589154D01*
X194474188Y-81626500D01*
X194653812Y-81626500D01*
X194829510Y-81589154D01*
X194993604Y-81516095D01*
X195138922Y-81410515D01*
X195259113Y-81277029D01*
X195348925Y-81121471D01*
X195357798Y-81094164D01*
X195379946Y-81025999D01*
X209490450Y-81025999D01*
X209490451Y-81026000D01*
X210134884Y-81026000D01*
X210106507Y-81070156D01*
X210066000Y-81208111D01*
X210066000Y-81351889D01*
X210106507Y-81489844D01*
X210134884Y-81534000D01*
X209490451Y-81534000D01*
X209532138Y-81680514D01*
X209532140Y-81680519D01*
X209623340Y-81863672D01*
X209746637Y-82026946D01*
X209897838Y-82164784D01*
X210071796Y-82272493D01*
X210071803Y-82272496D01*
X210262582Y-82346405D01*
X210311999Y-82355642D01*
X210312000Y-82355642D01*
X210312000Y-81713674D01*
X210423685Y-81764680D01*
X210530237Y-81780000D01*
X210601763Y-81780000D01*
X210708315Y-81764680D01*
X210820000Y-81713674D01*
X210820000Y-82355642D01*
X210869417Y-82346405D01*
X210869418Y-82346405D01*
X211060196Y-82272496D01*
X211060203Y-82272493D01*
X211234161Y-82164784D01*
X211385362Y-82026946D01*
X211508659Y-81863672D01*
X211599859Y-81680519D01*
X211599861Y-81680514D01*
X211641549Y-81534000D01*
X210997116Y-81534000D01*
X211025493Y-81489844D01*
X211066000Y-81351889D01*
X211066000Y-81280004D01*
X211996768Y-81280004D01*
X212015654Y-81483819D01*
X212071619Y-81680514D01*
X212071672Y-81680701D01*
X212162912Y-81863935D01*
X212162913Y-81863936D01*
X212286266Y-82027284D01*
X212437536Y-82165185D01*
X212611566Y-82272940D01*
X212611568Y-82272940D01*
X212611573Y-82272944D01*
X212802444Y-82346888D01*
X213003653Y-82384500D01*
X213003655Y-82384500D01*
X213208345Y-82384500D01*
X213208347Y-82384500D01*
X213409556Y-82346888D01*
X213600427Y-82272944D01*
X213774462Y-82165186D01*
X213925732Y-82027285D01*
X214049088Y-81863935D01*
X214140328Y-81680701D01*
X214196345Y-81483821D01*
X214204067Y-81400490D01*
X214215232Y-81280004D01*
X214215232Y-81279995D01*
X214198012Y-81094164D01*
X214196345Y-81076179D01*
X214140328Y-80879299D01*
X214049088Y-80696065D01*
X213971529Y-80593360D01*
X213925733Y-80532715D01*
X213774463Y-80394814D01*
X213600433Y-80287059D01*
X213600428Y-80287057D01*
X213600427Y-80287056D01*
X213493611Y-80245675D01*
X213409559Y-80213113D01*
X213409560Y-80213113D01*
X213409557Y-80213112D01*
X213409556Y-80213112D01*
X213208347Y-80175500D01*
X213003653Y-80175500D01*
X212849280Y-80204357D01*
X212802439Y-80213113D01*
X212611577Y-80287054D01*
X212611566Y-80287059D01*
X212437536Y-80394814D01*
X212286266Y-80532715D01*
X212162913Y-80696063D01*
X212071671Y-80879301D01*
X212015654Y-81076180D01*
X211996768Y-81279995D01*
X211996768Y-81280004D01*
X211066000Y-81280004D01*
X211066000Y-81208111D01*
X211025493Y-81070156D01*
X210997116Y-81026000D01*
X211641549Y-81026000D01*
X211641549Y-81025999D01*
X211599861Y-80879485D01*
X211599859Y-80879480D01*
X211508659Y-80696327D01*
X211385362Y-80533053D01*
X211234161Y-80395215D01*
X211060203Y-80287506D01*
X211060196Y-80287503D01*
X210869424Y-80213596D01*
X210820000Y-80204357D01*
X210820000Y-80846325D01*
X210708315Y-80795320D01*
X210601763Y-80780000D01*
X210530237Y-80780000D01*
X210423685Y-80795320D01*
X210312000Y-80846325D01*
X210312000Y-80204357D01*
X210262575Y-80213596D01*
X210071803Y-80287503D01*
X210071796Y-80287506D01*
X209897838Y-80395215D01*
X209746637Y-80533053D01*
X209623340Y-80696327D01*
X209532140Y-80879480D01*
X209532138Y-80879485D01*
X209490450Y-81025999D01*
X195379946Y-81025999D01*
X195404431Y-80950639D01*
X195404582Y-80949202D01*
X195423207Y-80772000D01*
X195404431Y-80593361D01*
X195384836Y-80533053D01*
X195348927Y-80422533D01*
X195348924Y-80422527D01*
X195259114Y-80266973D01*
X195259113Y-80266971D01*
X195138922Y-80133485D01*
X195103535Y-80107775D01*
X194993604Y-80027905D01*
X194829510Y-79954846D01*
X194653812Y-79917500D01*
X194474188Y-79917500D01*
X194298489Y-79954846D01*
X194134392Y-80027907D01*
X193989078Y-80133484D01*
X193868888Y-80266969D01*
X193868887Y-80266971D01*
X193794845Y-80395215D01*
X193784119Y-80413793D01*
X193732736Y-80462786D01*
X193663022Y-80476221D01*
X193597111Y-80449834D01*
X193565881Y-80413793D01*
X193555155Y-80395215D01*
X193481113Y-80266971D01*
X193360922Y-80133485D01*
X193325535Y-80107775D01*
X193215604Y-80027905D01*
X193051510Y-79954846D01*
X192875812Y-79917500D01*
X192696188Y-79917500D01*
X192520489Y-79954846D01*
X192356392Y-80027907D01*
X192211078Y-80133484D01*
X192090888Y-80266969D01*
X192090885Y-80266973D01*
X192001075Y-80422527D01*
X192001072Y-80422533D01*
X191945568Y-80593360D01*
X191926793Y-80772000D01*
X167996000Y-80772000D01*
X167996000Y-79360494D01*
X177454038Y-79360494D01*
X177472924Y-79564309D01*
X177520904Y-79732940D01*
X177528942Y-79761191D01*
X177620182Y-79944425D01*
X177620183Y-79944426D01*
X177743536Y-80107774D01*
X177894806Y-80245675D01*
X178068836Y-80353430D01*
X178068838Y-80353430D01*
X178068843Y-80353434D01*
X178259714Y-80427378D01*
X178460923Y-80464990D01*
X178460925Y-80464990D01*
X178665615Y-80464990D01*
X178665617Y-80464990D01*
X178866826Y-80427378D01*
X179057697Y-80353434D01*
X179231732Y-80245676D01*
X179383002Y-80107775D01*
X179506358Y-79944425D01*
X179597598Y-79761191D01*
X179653615Y-79564311D01*
X179672502Y-79360490D01*
X179669090Y-79323672D01*
X179656762Y-79190639D01*
X179653615Y-79156669D01*
X179597598Y-78959789D01*
X179506358Y-78776555D01*
X179465808Y-78722858D01*
X179383003Y-78613205D01*
X179243465Y-78485999D01*
X209490450Y-78485999D01*
X209490451Y-78486000D01*
X210134884Y-78486000D01*
X210106507Y-78530156D01*
X210066000Y-78668111D01*
X210066000Y-78811889D01*
X210106507Y-78949844D01*
X210134884Y-78994000D01*
X209490451Y-78994000D01*
X209532138Y-79140514D01*
X209532140Y-79140519D01*
X209623340Y-79323672D01*
X209746637Y-79486946D01*
X209897838Y-79624784D01*
X210071796Y-79732493D01*
X210071803Y-79732496D01*
X210262582Y-79806405D01*
X210311999Y-79815642D01*
X210312000Y-79815642D01*
X210312000Y-79173674D01*
X210423685Y-79224680D01*
X210530237Y-79240000D01*
X210601763Y-79240000D01*
X210708315Y-79224680D01*
X210820000Y-79173674D01*
X210820000Y-79815642D01*
X210869417Y-79806405D01*
X210869418Y-79806405D01*
X211060196Y-79732496D01*
X211060203Y-79732493D01*
X211234161Y-79624784D01*
X211385362Y-79486946D01*
X211508659Y-79323672D01*
X211599859Y-79140519D01*
X211599861Y-79140514D01*
X211641549Y-78994000D01*
X210997116Y-78994000D01*
X211025493Y-78949844D01*
X211066000Y-78811889D01*
X211066000Y-78740004D01*
X211996768Y-78740004D01*
X212015654Y-78943819D01*
X212029932Y-78994000D01*
X212071672Y-79140701D01*
X212162912Y-79323935D01*
X212162913Y-79323936D01*
X212286266Y-79487284D01*
X212437536Y-79625185D01*
X212611566Y-79732940D01*
X212611568Y-79732940D01*
X212611573Y-79732944D01*
X212802444Y-79806888D01*
X213003653Y-79844500D01*
X213003655Y-79844500D01*
X213208345Y-79844500D01*
X213208347Y-79844500D01*
X213409556Y-79806888D01*
X213600427Y-79732944D01*
X213774462Y-79625186D01*
X213925732Y-79487285D01*
X214049088Y-79323935D01*
X214140328Y-79140701D01*
X214196345Y-78943821D01*
X214202640Y-78875880D01*
X214215232Y-78740004D01*
X214215232Y-78739995D01*
X214196345Y-78536180D01*
X214182068Y-78486000D01*
X214140328Y-78339299D01*
X214049088Y-78156065D01*
X214008538Y-78102368D01*
X213925733Y-77992715D01*
X213774463Y-77854814D01*
X213600433Y-77747059D01*
X213600428Y-77747057D01*
X213600427Y-77747056D01*
X213493611Y-77705675D01*
X213409559Y-77673113D01*
X213409560Y-77673113D01*
X213409557Y-77673112D01*
X213409556Y-77673112D01*
X213208347Y-77635500D01*
X213003653Y-77635500D01*
X212849280Y-77664357D01*
X212802439Y-77673113D01*
X212611577Y-77747054D01*
X212611566Y-77747059D01*
X212437536Y-77854814D01*
X212286266Y-77992715D01*
X212162913Y-78156063D01*
X212071671Y-78339301D01*
X212015654Y-78536180D01*
X211996768Y-78739995D01*
X211996768Y-78740004D01*
X211066000Y-78740004D01*
X211066000Y-78668111D01*
X211025493Y-78530156D01*
X210997116Y-78486000D01*
X211641549Y-78486000D01*
X211641549Y-78485999D01*
X211599861Y-78339485D01*
X211599859Y-78339480D01*
X211508659Y-78156327D01*
X211385362Y-77993053D01*
X211234161Y-77855215D01*
X211060203Y-77747506D01*
X211060196Y-77747503D01*
X210869424Y-77673596D01*
X210820000Y-77664357D01*
X210820000Y-78306325D01*
X210708315Y-78255320D01*
X210601763Y-78240000D01*
X210530237Y-78240000D01*
X210423685Y-78255320D01*
X210312000Y-78306325D01*
X210312000Y-77664357D01*
X210262575Y-77673596D01*
X210071803Y-77747503D01*
X210071796Y-77747506D01*
X209897838Y-77855215D01*
X209746637Y-77993053D01*
X209623340Y-78156327D01*
X209532140Y-78339480D01*
X209532138Y-78339485D01*
X209490450Y-78485999D01*
X179243465Y-78485999D01*
X179231733Y-78475304D01*
X179057703Y-78367549D01*
X179057698Y-78367547D01*
X179057697Y-78367546D01*
X179057692Y-78367544D01*
X178866829Y-78293603D01*
X178866830Y-78293603D01*
X178866827Y-78293602D01*
X178866826Y-78293602D01*
X178665617Y-78255990D01*
X178460923Y-78255990D01*
X178259714Y-78293602D01*
X178259709Y-78293603D01*
X178068847Y-78367544D01*
X178068836Y-78367549D01*
X177894806Y-78475304D01*
X177743536Y-78613205D01*
X177620183Y-78776553D01*
X177528941Y-78959791D01*
X177472924Y-79156670D01*
X177454038Y-79360485D01*
X177454038Y-79360494D01*
X167996000Y-79360494D01*
X167996000Y-76820494D01*
X177454038Y-76820494D01*
X177472924Y-77024309D01*
X177472925Y-77024311D01*
X177528942Y-77221191D01*
X177620182Y-77404425D01*
X177620183Y-77404426D01*
X177743536Y-77567774D01*
X177894806Y-77705675D01*
X178068836Y-77813430D01*
X178068838Y-77813430D01*
X178068843Y-77813434D01*
X178259714Y-77887378D01*
X178460923Y-77924990D01*
X178460925Y-77924990D01*
X178665615Y-77924990D01*
X178665617Y-77924990D01*
X178866826Y-77887378D01*
X179057697Y-77813434D01*
X179231732Y-77705676D01*
X179383002Y-77567775D01*
X179506358Y-77404425D01*
X179597598Y-77221191D01*
X179653615Y-77024311D01*
X179672502Y-76820490D01*
X179653615Y-76616669D01*
X179597598Y-76419789D01*
X179506358Y-76236555D01*
X179465808Y-76182858D01*
X179383003Y-76073205D01*
X179243466Y-75946000D01*
X209462000Y-75946000D01*
X210134884Y-75946000D01*
X210106507Y-75990156D01*
X210066000Y-76128111D01*
X210066000Y-76271889D01*
X210106507Y-76409844D01*
X210134884Y-76454000D01*
X209462001Y-76454000D01*
X209462001Y-77075022D01*
X209476737Y-77149105D01*
X209476737Y-77149107D01*
X209532875Y-77233124D01*
X209616893Y-77289262D01*
X209616894Y-77289263D01*
X209690980Y-77303999D01*
X210312000Y-77303999D01*
X210312000Y-76633674D01*
X210423685Y-76684680D01*
X210530237Y-76700000D01*
X210601763Y-76700000D01*
X210708315Y-76684680D01*
X210820000Y-76633674D01*
X210820000Y-77303999D01*
X211441014Y-77303999D01*
X211441022Y-77303998D01*
X211515105Y-77289262D01*
X211515107Y-77289262D01*
X211599124Y-77233124D01*
X211655262Y-77149106D01*
X211655263Y-77149105D01*
X211669999Y-77075022D01*
X211670000Y-77075015D01*
X211670000Y-76454000D01*
X210997116Y-76454000D01*
X211025493Y-76409844D01*
X211066000Y-76271889D01*
X211066000Y-76200004D01*
X211996768Y-76200004D01*
X212015654Y-76403819D01*
X212029932Y-76454000D01*
X212071672Y-76600701D01*
X212162912Y-76783935D01*
X212162913Y-76783936D01*
X212286266Y-76947284D01*
X212437536Y-77085185D01*
X212611566Y-77192940D01*
X212611568Y-77192940D01*
X212611573Y-77192944D01*
X212802444Y-77266888D01*
X213003653Y-77304500D01*
X213003655Y-77304500D01*
X213208345Y-77304500D01*
X213208347Y-77304500D01*
X213409556Y-77266888D01*
X213600427Y-77192944D01*
X213774462Y-77085186D01*
X213925732Y-76947285D01*
X214049088Y-76783935D01*
X214140328Y-76600701D01*
X214196345Y-76403821D01*
X214202640Y-76335880D01*
X214215232Y-76200004D01*
X214215232Y-76199995D01*
X214196345Y-75996180D01*
X214182068Y-75946000D01*
X214140328Y-75799299D01*
X214049088Y-75616065D01*
X214008538Y-75562368D01*
X213925733Y-75452715D01*
X213774463Y-75314814D01*
X213600433Y-75207059D01*
X213600428Y-75207057D01*
X213600427Y-75207056D01*
X213409559Y-75133113D01*
X213409560Y-75133113D01*
X213409557Y-75133112D01*
X213409556Y-75133112D01*
X213208347Y-75095500D01*
X213003653Y-75095500D01*
X212802444Y-75133112D01*
X212802439Y-75133113D01*
X212611577Y-75207054D01*
X212611566Y-75207059D01*
X212437536Y-75314814D01*
X212286266Y-75452715D01*
X212162913Y-75616063D01*
X212071671Y-75799301D01*
X212015654Y-75996180D01*
X211996768Y-76199995D01*
X211996768Y-76200004D01*
X211066000Y-76200004D01*
X211066000Y-76128111D01*
X211025493Y-75990156D01*
X210997116Y-75946000D01*
X211669999Y-75946000D01*
X211669999Y-75324986D01*
X211669998Y-75324977D01*
X211655262Y-75250894D01*
X211655262Y-75250892D01*
X211599124Y-75166875D01*
X211515106Y-75110737D01*
X211515105Y-75110736D01*
X211441022Y-75096000D01*
X210820000Y-75096000D01*
X210820000Y-75766325D01*
X210708315Y-75715320D01*
X210601763Y-75700000D01*
X210530237Y-75700000D01*
X210423685Y-75715320D01*
X210312000Y-75766325D01*
X210312000Y-75096000D01*
X209690986Y-75096000D01*
X209690976Y-75096001D01*
X209616894Y-75110737D01*
X209616892Y-75110737D01*
X209532875Y-75166875D01*
X209476737Y-75250893D01*
X209476736Y-75250894D01*
X209462000Y-75324977D01*
X209462000Y-75946000D01*
X179243466Y-75946000D01*
X179231733Y-75935304D01*
X179057703Y-75827549D01*
X179057698Y-75827547D01*
X179057697Y-75827546D01*
X179057692Y-75827544D01*
X178866829Y-75753603D01*
X178866830Y-75753603D01*
X178866827Y-75753602D01*
X178866826Y-75753602D01*
X178665617Y-75715990D01*
X178460923Y-75715990D01*
X178259714Y-75753602D01*
X178259709Y-75753603D01*
X178068847Y-75827544D01*
X178068836Y-75827549D01*
X177894806Y-75935304D01*
X177743536Y-76073205D01*
X177620183Y-76236553D01*
X177528941Y-76419791D01*
X177472924Y-76616670D01*
X177454038Y-76820485D01*
X177454038Y-76820494D01*
X167996000Y-76820494D01*
X167996000Y-73914000D01*
X181258793Y-73914000D01*
X181277568Y-74092639D01*
X181333072Y-74263466D01*
X181333075Y-74263472D01*
X181381092Y-74346639D01*
X181422887Y-74419029D01*
X181543078Y-74552515D01*
X181688396Y-74658095D01*
X181852490Y-74731154D01*
X182028188Y-74768500D01*
X182207812Y-74768500D01*
X182383510Y-74731154D01*
X182547604Y-74658095D01*
X182692922Y-74552515D01*
X182813113Y-74419029D01*
X182902925Y-74263471D01*
X182933946Y-74168000D01*
X189894793Y-74168000D01*
X189913568Y-74346639D01*
X189969072Y-74517466D01*
X189969075Y-74517472D01*
X190050264Y-74658094D01*
X190058887Y-74673029D01*
X190179078Y-74806515D01*
X190324396Y-74912095D01*
X190488490Y-74985154D01*
X190664188Y-75022500D01*
X190843812Y-75022500D01*
X191019510Y-74985154D01*
X191183604Y-74912095D01*
X191328922Y-74806515D01*
X191449113Y-74673029D01*
X191538925Y-74517471D01*
X191539891Y-74514500D01*
X191594431Y-74346639D01*
X191603173Y-74263466D01*
X191613207Y-74168000D01*
X191594431Y-73989361D01*
X191594431Y-73989360D01*
X191538927Y-73818533D01*
X191538924Y-73818527D01*
X191449114Y-73662973D01*
X191449113Y-73662971D01*
X191446438Y-73660000D01*
X206877563Y-73660000D01*
X206896338Y-73838639D01*
X206951842Y-74009466D01*
X206951845Y-74009472D01*
X207037308Y-74157497D01*
X207041657Y-74165029D01*
X207161848Y-74298515D01*
X207307166Y-74404095D01*
X207471260Y-74477154D01*
X207646958Y-74514500D01*
X207826582Y-74514500D01*
X208002280Y-74477154D01*
X208166374Y-74404095D01*
X208311692Y-74298515D01*
X208405134Y-74194735D01*
X208465579Y-74157497D01*
X208536563Y-74158848D01*
X208592404Y-74194735D01*
X208685848Y-74298515D01*
X208831166Y-74404095D01*
X208995260Y-74477154D01*
X209170958Y-74514500D01*
X209350582Y-74514500D01*
X209526280Y-74477154D01*
X209690374Y-74404095D01*
X209835692Y-74298515D01*
X209946748Y-74175173D01*
X210007194Y-74137934D01*
X210078178Y-74139285D01*
X210134020Y-74175173D01*
X210245078Y-74298515D01*
X210390396Y-74404095D01*
X210554490Y-74477154D01*
X210730188Y-74514500D01*
X210909812Y-74514500D01*
X211085510Y-74477154D01*
X211249604Y-74404095D01*
X211394922Y-74298515D01*
X211515113Y-74165029D01*
X211604925Y-74009471D01*
X211611460Y-73989360D01*
X211660431Y-73838639D01*
X211671286Y-73735360D01*
X211679207Y-73660000D01*
X211660431Y-73481361D01*
X211660431Y-73481360D01*
X211604927Y-73310533D01*
X211604924Y-73310527D01*
X211515114Y-73154973D01*
X211515113Y-73154971D01*
X211394922Y-73021485D01*
X211249604Y-72915905D01*
X211085510Y-72842846D01*
X210909812Y-72805500D01*
X210730188Y-72805500D01*
X210554489Y-72842846D01*
X210390392Y-72915907D01*
X210245075Y-73021486D01*
X210134021Y-73144825D01*
X210073575Y-73182065D01*
X210002591Y-73180713D01*
X209946749Y-73144825D01*
X209835694Y-73021486D01*
X209690374Y-72915905D01*
X209526280Y-72842846D01*
X209435227Y-72823492D01*
X209372753Y-72789763D01*
X209338432Y-72727614D01*
X209343160Y-72656775D01*
X209385436Y-72599737D01*
X209435227Y-72576998D01*
X209526280Y-72557644D01*
X209690374Y-72484585D01*
X209835692Y-72379005D01*
X209955883Y-72245519D01*
X210045695Y-72089961D01*
X210101201Y-71919129D01*
X210119977Y-71740490D01*
X210101201Y-71561851D01*
X210082572Y-71504515D01*
X210045697Y-71391023D01*
X210045694Y-71391017D01*
X209955884Y-71235463D01*
X209955883Y-71235461D01*
X209835692Y-71101975D01*
X209690374Y-70996395D01*
X209526280Y-70923336D01*
X209350582Y-70885990D01*
X209170958Y-70885990D01*
X208995259Y-70923336D01*
X208831162Y-70996397D01*
X208685848Y-71101974D01*
X208565658Y-71235459D01*
X208565655Y-71235463D01*
X208475845Y-71391017D01*
X208475842Y-71391023D01*
X208420338Y-71561850D01*
X208401563Y-71740490D01*
X208420338Y-71919129D01*
X208475842Y-72089956D01*
X208475845Y-72089962D01*
X208565655Y-72245516D01*
X208565657Y-72245519D01*
X208685848Y-72379005D01*
X208831166Y-72484585D01*
X208995260Y-72557644D01*
X208995263Y-72557644D01*
X208995264Y-72557645D01*
X209086312Y-72576999D01*
X209148786Y-72610727D01*
X209183107Y-72672877D01*
X209178379Y-72743716D01*
X209136103Y-72800753D01*
X209086312Y-72823491D01*
X208995264Y-72842844D01*
X208831162Y-72915907D01*
X208685845Y-73021486D01*
X208592406Y-73125262D01*
X208531960Y-73162502D01*
X208460977Y-73161150D01*
X208405134Y-73125262D01*
X208311694Y-73021486D01*
X208166374Y-72915905D01*
X208002280Y-72842846D01*
X207826582Y-72805500D01*
X207646958Y-72805500D01*
X207471259Y-72842846D01*
X207307162Y-72915907D01*
X207161848Y-73021484D01*
X207041658Y-73154969D01*
X207041655Y-73154973D01*
X206951845Y-73310527D01*
X206951842Y-73310533D01*
X206896338Y-73481360D01*
X206877563Y-73660000D01*
X191446438Y-73660000D01*
X191328922Y-73529485D01*
X191183604Y-73423905D01*
X191019510Y-73350846D01*
X190843812Y-73313500D01*
X190664188Y-73313500D01*
X190488489Y-73350846D01*
X190324392Y-73423907D01*
X190179078Y-73529484D01*
X190058888Y-73662969D01*
X190058885Y-73662973D01*
X189969075Y-73818527D01*
X189969072Y-73818533D01*
X189913568Y-73989360D01*
X189894793Y-74168000D01*
X182933946Y-74168000D01*
X182934911Y-74165029D01*
X182958431Y-74092639D01*
X182962999Y-74049178D01*
X182977207Y-73914000D01*
X182958431Y-73735361D01*
X182934911Y-73662973D01*
X182902927Y-73564533D01*
X182902924Y-73564527D01*
X182813114Y-73408973D01*
X182813113Y-73408971D01*
X182692922Y-73275485D01*
X182547604Y-73169905D01*
X182383510Y-73096846D01*
X182207812Y-73059500D01*
X182028188Y-73059500D01*
X181852489Y-73096846D01*
X181688392Y-73169907D01*
X181543078Y-73275484D01*
X181422888Y-73408969D01*
X181422885Y-73408973D01*
X181333075Y-73564527D01*
X181333072Y-73564533D01*
X181277568Y-73735360D01*
X181258793Y-73914000D01*
X167996000Y-73914000D01*
X167996000Y-70866000D01*
X193958793Y-70866000D01*
X193977568Y-71044639D01*
X194033072Y-71215466D01*
X194033075Y-71215472D01*
X194044615Y-71235459D01*
X194122887Y-71371029D01*
X194243078Y-71504515D01*
X194388396Y-71610095D01*
X194552490Y-71683154D01*
X194728188Y-71720500D01*
X194907812Y-71720500D01*
X195083510Y-71683154D01*
X195247604Y-71610095D01*
X195392922Y-71504515D01*
X195513113Y-71371029D01*
X195602925Y-71215471D01*
X195658431Y-71044639D01*
X195677207Y-70866000D01*
X195658431Y-70687361D01*
X195658431Y-70687360D01*
X195602927Y-70516533D01*
X195602924Y-70516527D01*
X195513114Y-70360973D01*
X195513113Y-70360971D01*
X195392922Y-70227485D01*
X195247604Y-70121905D01*
X195083510Y-70048846D01*
X194907812Y-70011500D01*
X194728188Y-70011500D01*
X194552489Y-70048846D01*
X194388392Y-70121907D01*
X194243078Y-70227484D01*
X194122888Y-70360969D01*
X194122885Y-70360973D01*
X194033075Y-70516527D01*
X194033072Y-70516533D01*
X193977568Y-70687360D01*
X193958793Y-70866000D01*
X167996000Y-70866000D01*
X167996000Y-69200490D01*
X208401563Y-69200490D01*
X208420338Y-69379129D01*
X208475842Y-69549956D01*
X208475845Y-69549962D01*
X208565655Y-69705516D01*
X208565657Y-69705519D01*
X208685848Y-69839005D01*
X208831166Y-69944585D01*
X208995260Y-70017644D01*
X209170958Y-70054990D01*
X209350582Y-70054990D01*
X209526280Y-70017644D01*
X209690374Y-69944585D01*
X209835692Y-69839005D01*
X209955883Y-69705519D01*
X210045695Y-69549961D01*
X210101201Y-69379129D01*
X210119977Y-69200490D01*
X210101201Y-69021851D01*
X210101201Y-69021850D01*
X210045697Y-68851023D01*
X210045694Y-68851017D01*
X209955884Y-68695463D01*
X209955883Y-68695461D01*
X209835692Y-68561975D01*
X209690374Y-68456395D01*
X209526280Y-68383336D01*
X209350582Y-68345990D01*
X209170958Y-68345990D01*
X208995259Y-68383336D01*
X208831162Y-68456397D01*
X208685848Y-68561974D01*
X208565658Y-68695459D01*
X208565655Y-68695463D01*
X208475845Y-68851017D01*
X208475842Y-68851023D01*
X208420338Y-69021850D01*
X208401563Y-69200490D01*
X167996000Y-69200490D01*
X167996000Y-64755490D01*
X205328163Y-64755490D01*
X205346938Y-64934129D01*
X205402442Y-65104956D01*
X205402445Y-65104962D01*
X205487908Y-65252987D01*
X205492257Y-65260519D01*
X205612448Y-65394005D01*
X205757766Y-65499585D01*
X205921860Y-65572644D01*
X206097558Y-65609990D01*
X206277182Y-65609990D01*
X206452880Y-65572644D01*
X206616974Y-65499585D01*
X206762292Y-65394005D01*
X206855734Y-65290225D01*
X206916179Y-65252987D01*
X206987163Y-65254338D01*
X207043004Y-65290225D01*
X207136448Y-65394005D01*
X207281766Y-65499585D01*
X207445860Y-65572644D01*
X207621558Y-65609990D01*
X207801182Y-65609990D01*
X207976880Y-65572644D01*
X208140974Y-65499585D01*
X208286292Y-65394005D01*
X208379734Y-65290225D01*
X208440179Y-65252987D01*
X208511163Y-65254338D01*
X208567004Y-65290225D01*
X208660448Y-65394005D01*
X208805766Y-65499585D01*
X208969860Y-65572644D01*
X209039480Y-65587442D01*
X209101954Y-65621170D01*
X209136276Y-65683320D01*
X209131548Y-65754159D01*
X209089273Y-65811196D01*
X209039482Y-65833935D01*
X208995263Y-65843334D01*
X208831162Y-65916397D01*
X208685848Y-66021974D01*
X208565658Y-66155459D01*
X208565655Y-66155463D01*
X208475845Y-66311017D01*
X208475842Y-66311023D01*
X208420338Y-66481850D01*
X208401563Y-66660490D01*
X208420338Y-66839129D01*
X208475842Y-67009956D01*
X208475845Y-67009962D01*
X208565655Y-67165516D01*
X208565657Y-67165519D01*
X208685848Y-67299005D01*
X208831166Y-67404585D01*
X208995260Y-67477644D01*
X209170958Y-67514990D01*
X209350582Y-67514990D01*
X209526280Y-67477644D01*
X209690374Y-67404585D01*
X209835692Y-67299005D01*
X209955883Y-67165519D01*
X210045695Y-67009961D01*
X210101201Y-66839129D01*
X210119977Y-66660490D01*
X210101201Y-66481851D01*
X210101201Y-66481850D01*
X210045697Y-66311023D01*
X210045694Y-66311017D01*
X209955884Y-66155463D01*
X209955883Y-66155461D01*
X209835692Y-66021975D01*
X209690374Y-65916395D01*
X209526280Y-65843336D01*
X209526276Y-65843334D01*
X209456657Y-65828536D01*
X209394184Y-65794808D01*
X209359863Y-65732658D01*
X209364591Y-65661819D01*
X209406867Y-65604782D01*
X209456656Y-65582043D01*
X209500880Y-65572644D01*
X209664974Y-65499585D01*
X209810292Y-65394005D01*
X209930483Y-65260519D01*
X210020295Y-65104961D01*
X210075801Y-64934129D01*
X210094577Y-64755490D01*
X210075801Y-64576851D01*
X210075801Y-64576850D01*
X210020297Y-64406023D01*
X210020294Y-64406017D01*
X209930484Y-64250463D01*
X209930483Y-64250461D01*
X209810292Y-64116975D01*
X209664974Y-64011395D01*
X209500880Y-63938336D01*
X209325182Y-63900990D01*
X209145558Y-63900990D01*
X208969859Y-63938336D01*
X208805762Y-64011397D01*
X208660445Y-64116976D01*
X208567006Y-64220752D01*
X208506560Y-64257992D01*
X208435577Y-64256640D01*
X208379734Y-64220752D01*
X208286294Y-64116976D01*
X208140974Y-64011395D01*
X207976880Y-63938336D01*
X207801182Y-63900990D01*
X207621558Y-63900990D01*
X207445859Y-63938336D01*
X207281762Y-64011397D01*
X207136445Y-64116976D01*
X207043006Y-64220752D01*
X206982560Y-64257992D01*
X206911577Y-64256640D01*
X206855734Y-64220752D01*
X206762294Y-64116976D01*
X206616974Y-64011395D01*
X206452880Y-63938336D01*
X206277182Y-63900990D01*
X206097558Y-63900990D01*
X205921859Y-63938336D01*
X205757762Y-64011397D01*
X205612448Y-64116974D01*
X205492258Y-64250459D01*
X205492255Y-64250463D01*
X205402445Y-64406017D01*
X205402442Y-64406023D01*
X205346938Y-64576850D01*
X205328163Y-64755490D01*
X167996000Y-64755490D01*
X167996000Y-63751000D01*
X168016002Y-63682879D01*
X168069658Y-63636386D01*
X168122000Y-63625000D01*
X223647500Y-63625000D01*
X223715621Y-63645002D01*
G37*
G04 #@! TD.AperFunction*
M02*
