M48
; DRILL file {KiCad 7.0.10} date Tue Mar 12 12:37:56 2024
; FORMAT={-:-/ absolute / metric / decimal}
; #@! TF.CreationDate,2024-03-12T12:37:56-06:00
; #@! TF.GenerationSoftware,Kicad,Pcbnew,7.0.10
; #@! TF.FileFunction,Plated,1,4,PTH
FMAT,2
METRIC
; #@! TA.AperFunction,Plated,PTH,ViaDrill
T1C0.600
; #@! TA.AperFunction,Plated,PTH,ComponentDrill
T2C0.920
; #@! TA.AperFunction,Plated,PTH,ComponentDrill
T3C1.000
; #@! TA.AperFunction,Plated,PTH,ViaDrill
T4C1.600
; #@! TA.AperFunction,Plated,PTH,ComponentDrill
T5C2.330
%
G90
G05
T1
X177.292Y-77.978
X179.832Y-90.17
X180.34Y-86.36
X180.34Y-93.98
X180.594Y-75.946
X180.594Y-80.264
X182.118Y-73.914
X182.118Y-82.296
X182.118Y-88.138
X182.118Y-92.202
X182.372Y-84.328
X184.912Y-90.17
X185.674Y-75.438
X185.674Y-80.772
X185.928Y-78.105
X186.69Y-87.122
X187.197Y-93.98
X187.197Y-95.758
X188.721Y-95.758
X189.738Y-78.105
X189.738Y-80.772
X190.754Y-74.168
X190.754Y-89.408
X190.754Y-90.932
X192.786Y-80.772
X192.786Y-82.804
X194.564Y-80.772
X194.564Y-86.868
X194.564Y-93.472
X194.818Y-70.866
X196.088Y-67.31
X196.088Y-69.596
X197.358Y-80.772
X198.374Y-67.31
X198.374Y-69.596
X198.882Y-82.296
X199.666Y-95.885
X199.666Y-97.478
X199.666Y-99.06
X201.359Y-97.478
X201.359Y-99.06
X201.676Y-67.564
X201.676Y-69.088
X201.676Y-70.612
X201.676Y-84.328
X201.93Y-80.772
X203.2Y-95.25
X203.2Y-97.478
X203.2Y-99.06
X205.232Y-95.758
X205.232Y-97.536
X205.232Y-99.06
X206.187Y-64.755
X207.711Y-64.755
X207.737Y-73.66
X209.235Y-64.755
X209.261Y-66.66
X209.261Y-69.2
X209.261Y-71.74
X209.261Y-73.66
X210.82Y-73.66
X211.074Y-64.77
X212.344Y-66.548
X212.344Y-69.088
X214.884Y-77.47
X214.884Y-80.01
X214.884Y-82.55
X214.884Y-85.344
X215.646Y-88.392
T2
X194.626Y-97.478
X194.626Y-99.478
X197.126Y-97.478
X197.126Y-99.478
T3
X178.563Y-76.82
X178.563Y-79.36
X178.563Y-81.9
X178.563Y-86.36
X178.563Y-88.9
X178.563Y-91.44
X178.563Y-93.98
X210.566Y-76.2
X210.566Y-78.74
X210.566Y-81.28
X210.566Y-83.82
X213.106Y-76.2
X213.106Y-78.74
X213.106Y-81.28
X213.106Y-83.82
T4
X170.688Y-66.294
X170.688Y-102.362
X220.98Y-66.294
X220.98Y-102.362
T5
X189.856Y-102.188
X201.896Y-102.188
M30
