G04 #@! TF.GenerationSoftware,KiCad,Pcbnew,7.0.10*
G04 #@! TF.CreationDate,2024-03-12T12:36:54-06:00*
G04 #@! TF.ProjectId,ARXCarrierBoard,41525843-6172-4726-9965-72426f617264,rev?*
G04 #@! TF.SameCoordinates,Original*
G04 #@! TF.FileFunction,Copper,L3,Inr*
G04 #@! TF.FilePolarity,Positive*
%FSLAX46Y46*%
G04 Gerber Fmt 4.6, Leading zero omitted, Abs format (unit mm)*
G04 Created by KiCad (PCBNEW 7.0.10) date 2024-03-12 12:36:54*
%MOMM*%
%LPD*%
G01*
G04 APERTURE LIST*
G04 #@! TA.AperFunction,ComponentPad*
%ADD10R,1.700000X1.700000*%
G04 #@! TD*
G04 #@! TA.AperFunction,ComponentPad*
%ADD11O,1.700000X1.700000*%
G04 #@! TD*
G04 #@! TA.AperFunction,ComponentPad*
%ADD12C,1.700000*%
G04 #@! TD*
G04 #@! TA.AperFunction,ComponentPad*
%ADD13C,3.500000*%
G04 #@! TD*
G04 #@! TA.AperFunction,ViaPad*
%ADD14C,1.200000*%
G04 #@! TD*
G04 #@! TA.AperFunction,ViaPad*
%ADD15C,3.200000*%
G04 #@! TD*
G04 APERTURE END LIST*
D10*
X210566000Y-76200000D03*
D11*
X213106000Y-76200000D03*
X210566000Y-78740000D03*
X213106000Y-78740000D03*
X210566000Y-81280000D03*
X213106000Y-81280000D03*
X210566000Y-83820000D03*
X213106000Y-83820000D03*
D10*
X197125590Y-97478310D03*
D12*
X194625590Y-97478310D03*
X194625590Y-99478310D03*
X197125590Y-99478310D03*
D13*
X201895590Y-102188310D03*
X189855590Y-102188310D03*
D10*
X178563270Y-81900490D03*
D11*
X178563270Y-79360490D03*
X178563270Y-76820490D03*
D10*
X178563270Y-93980000D03*
D11*
X178563270Y-91440000D03*
X178563270Y-88900000D03*
X178563270Y-86360000D03*
D14*
X184912000Y-90170000D03*
X205232000Y-99060000D03*
X198374000Y-69596000D03*
X201676000Y-69088000D03*
X189738000Y-80772000D03*
X197358000Y-80772000D03*
X211074000Y-64770000D03*
X177292000Y-77978000D03*
X189738000Y-78105000D03*
X196088000Y-67310000D03*
X180594000Y-75946000D03*
X214884000Y-77470000D03*
X205232000Y-95758000D03*
X179832000Y-90170000D03*
D15*
X220980000Y-66294000D03*
D14*
X185674000Y-80772000D03*
X203200000Y-95250000D03*
X214884000Y-82550000D03*
X212344000Y-66548000D03*
X186690000Y-87122000D03*
X182118000Y-92202000D03*
X201676000Y-70612000D03*
D15*
X220980000Y-102362000D03*
D14*
X212344000Y-69088000D03*
X180340000Y-93980000D03*
X182118000Y-88138000D03*
X201930000Y-80772000D03*
X194564000Y-93472000D03*
X185674000Y-75438000D03*
X185928000Y-78105000D03*
X190754000Y-90932000D03*
X196088000Y-69596000D03*
X201676000Y-67564000D03*
X190754000Y-89408000D03*
X214884000Y-85344000D03*
X205232000Y-97536000D03*
X180594000Y-80264000D03*
X214884000Y-80010000D03*
X180340000Y-86360000D03*
X194564000Y-86868000D03*
D15*
X170688000Y-102362000D03*
X170688000Y-66294000D03*
D14*
X198882000Y-82296000D03*
X198374000Y-67310000D03*
X190754000Y-74168000D03*
X215646000Y-88392000D03*
X188720730Y-95758000D03*
X187196730Y-93980000D03*
X209260770Y-73660000D03*
X207736770Y-73660000D03*
X182372000Y-84328000D03*
X209260770Y-71740490D03*
X182118000Y-82296000D03*
X187196730Y-95758000D03*
X210820000Y-73660000D03*
X182118000Y-73914000D03*
X199665590Y-95885000D03*
X206187370Y-64755490D03*
X199665590Y-99060000D03*
X203200000Y-99060000D03*
X203200000Y-97478310D03*
X199665590Y-97478310D03*
X209260770Y-66660490D03*
X201358923Y-97478310D03*
X209260770Y-69200490D03*
X207711370Y-64755490D03*
X192786000Y-82804000D03*
X209235370Y-64755490D03*
X194564000Y-80772000D03*
X192786000Y-80772000D03*
X201358923Y-99060000D03*
X194818000Y-70866000D03*
X201676000Y-84328000D03*
G04 #@! TA.AperFunction,Conductor*
G36*
X205265943Y-63645002D02*
G01*
X205312436Y-63698658D01*
X205322540Y-63768932D01*
X205293046Y-63833512D01*
X205286917Y-63840095D01*
X202279385Y-66847624D01*
X202264727Y-66863556D01*
X202251203Y-66879546D01*
X202204103Y-66962260D01*
X202204101Y-66962264D01*
X202180880Y-67029359D01*
X202169710Y-67074236D01*
X202169710Y-67074238D01*
X202173925Y-67175403D01*
X202190662Y-67244399D01*
X202218112Y-67312963D01*
X202220083Y-67317019D01*
X202219527Y-67317288D01*
X202226645Y-67333249D01*
X202254129Y-67417841D01*
X202257110Y-67427013D01*
X202262586Y-67452776D01*
X202272892Y-67550828D01*
X202272892Y-67577170D01*
X202262586Y-67675222D01*
X202257110Y-67700986D01*
X202226648Y-67794742D01*
X202215933Y-67818808D01*
X202166636Y-67904192D01*
X202151153Y-67925502D01*
X202084991Y-67998982D01*
X202069724Y-68013334D01*
X202051293Y-68027973D01*
X202035012Y-68042083D01*
X202035007Y-68042088D01*
X201975453Y-68117086D01*
X201975452Y-68117088D01*
X201942323Y-68179875D01*
X201942319Y-68179882D01*
X201924465Y-68222555D01*
X201924464Y-68222560D01*
X201913284Y-68323185D01*
X201913284Y-68323188D01*
X201913284Y-68323191D01*
X201915774Y-68352176D01*
X201919360Y-68393924D01*
X201927413Y-68439478D01*
X201972411Y-68530181D01*
X202015760Y-68586396D01*
X202015762Y-68586398D01*
X202017942Y-68588517D01*
X202068731Y-68637875D01*
X202072177Y-68640776D01*
X202071818Y-68641201D01*
X202085188Y-68653236D01*
X202151155Y-68726500D01*
X202166638Y-68747810D01*
X202215932Y-68833190D01*
X202226646Y-68857254D01*
X202257109Y-68951011D01*
X202262586Y-68976775D01*
X202272893Y-69074827D01*
X202272893Y-69101171D01*
X202262586Y-69199223D01*
X202257110Y-69224986D01*
X202226648Y-69318742D01*
X202215933Y-69342808D01*
X202166636Y-69428192D01*
X202151153Y-69449501D01*
X202084988Y-69522985D01*
X202069714Y-69537343D01*
X202051319Y-69551951D01*
X202035026Y-69566070D01*
X201975452Y-69641088D01*
X201975450Y-69641093D01*
X201942323Y-69703875D01*
X201942319Y-69703882D01*
X201924465Y-69746555D01*
X201924464Y-69746560D01*
X201913284Y-69847185D01*
X201913284Y-69847188D01*
X201913284Y-69847191D01*
X201913768Y-69852819D01*
X201919360Y-69917924D01*
X201927413Y-69963478D01*
X201972411Y-70054181D01*
X202015760Y-70110396D01*
X202068731Y-70161875D01*
X202072177Y-70164776D01*
X202071818Y-70165201D01*
X202085188Y-70177236D01*
X202151155Y-70250500D01*
X202166638Y-70271810D01*
X202215930Y-70357186D01*
X202226644Y-70381249D01*
X202257111Y-70475014D01*
X202262588Y-70500782D01*
X202272892Y-70598829D01*
X202272892Y-70625169D01*
X202262586Y-70723222D01*
X202257110Y-70748986D01*
X202226648Y-70842742D01*
X202215933Y-70866808D01*
X202166636Y-70952192D01*
X202151153Y-70973502D01*
X202085190Y-71046761D01*
X202065615Y-71064386D01*
X201985850Y-71122339D01*
X201963037Y-71135510D01*
X201872972Y-71175609D01*
X201847923Y-71183748D01*
X201778380Y-71198531D01*
X201751493Y-71204246D01*
X201725297Y-71207000D01*
X201626703Y-71207000D01*
X201600505Y-71204246D01*
X201565150Y-71196730D01*
X201504075Y-71183748D01*
X201479026Y-71175609D01*
X201388961Y-71135510D01*
X201366148Y-71122339D01*
X201286383Y-71064386D01*
X201266808Y-71046761D01*
X201200842Y-70973498D01*
X201185362Y-70952192D01*
X201176032Y-70936032D01*
X201136063Y-70866804D01*
X201125352Y-70842745D01*
X201125351Y-70842742D01*
X201094886Y-70748981D01*
X201089412Y-70723228D01*
X201079106Y-70625167D01*
X201079106Y-70598828D01*
X201087757Y-70516527D01*
X201089412Y-70500773D01*
X201094889Y-70475011D01*
X201125352Y-70381253D01*
X201136064Y-70357192D01*
X201185359Y-70271809D01*
X201200837Y-70250506D01*
X201267009Y-70177014D01*
X201282284Y-70162657D01*
X201283269Y-70161875D01*
X201300670Y-70148056D01*
X201316967Y-70133935D01*
X201376544Y-70058915D01*
X201409676Y-69996123D01*
X201427531Y-69953451D01*
X201438714Y-69852818D01*
X201432639Y-69782082D01*
X201432636Y-69782066D01*
X201432635Y-69782056D01*
X201426361Y-69746555D01*
X201424589Y-69736528D01*
X201408393Y-69703882D01*
X201379591Y-69645826D01*
X201367649Y-69630340D01*
X201336236Y-69589602D01*
X201336233Y-69589599D01*
X201336230Y-69589595D01*
X201283270Y-69538127D01*
X201279824Y-69535225D01*
X201280174Y-69534808D01*
X201266813Y-69522766D01*
X201200845Y-69449501D01*
X201185367Y-69428196D01*
X201136065Y-69342805D01*
X201125351Y-69318742D01*
X201094886Y-69224981D01*
X201089412Y-69199228D01*
X201079106Y-69101166D01*
X201079106Y-69074827D01*
X201085927Y-69009931D01*
X201087311Y-68987138D01*
X201087680Y-68964987D01*
X201087679Y-68964986D01*
X201087680Y-68964983D01*
X201071354Y-68869975D01*
X201046543Y-68803455D01*
X201026579Y-68761727D01*
X201026579Y-68761726D01*
X200958918Y-68686402D01*
X200902085Y-68643857D01*
X200902083Y-68643856D01*
X200902082Y-68643855D01*
X200862726Y-68619544D01*
X200862723Y-68619543D01*
X200765084Y-68592756D01*
X200694272Y-68587691D01*
X200694267Y-68587691D01*
X200648014Y-68588517D01*
X200648012Y-68588517D01*
X200551383Y-68618774D01*
X200489082Y-68652794D01*
X200429951Y-68697059D01*
X200429948Y-68697062D01*
X191623411Y-77503598D01*
X191623408Y-77503601D01*
X191604852Y-77524258D01*
X191604851Y-77524260D01*
X191592175Y-77539989D01*
X191590127Y-77542268D01*
X191587943Y-77545241D01*
X191541014Y-77634956D01*
X191541013Y-77634959D01*
X191521011Y-77703080D01*
X191514624Y-77747506D01*
X191510500Y-77776191D01*
X191510500Y-94435825D01*
X191511985Y-94463533D01*
X191511987Y-94463567D01*
X191514861Y-94490296D01*
X191514865Y-94490328D01*
X191514866Y-94490336D01*
X191545123Y-94586961D01*
X191562353Y-94618515D01*
X191579152Y-94649278D01*
X191623407Y-94708394D01*
X191623411Y-94708399D01*
X192165011Y-95249999D01*
X193652402Y-96737391D01*
X193652411Y-96737400D01*
X193656262Y-96740888D01*
X193693321Y-96801446D01*
X193691757Y-96872425D01*
X193684463Y-96890435D01*
X193591261Y-97077610D01*
X193535244Y-97274490D01*
X193516358Y-97478305D01*
X193516358Y-97478314D01*
X193535244Y-97682129D01*
X193566165Y-97790805D01*
X193591262Y-97879011D01*
X193682502Y-98062245D01*
X193682503Y-98062246D01*
X193805856Y-98225594D01*
X193957128Y-98363496D01*
X193957128Y-98363497D01*
X193969543Y-98371184D01*
X194016930Y-98424052D01*
X194028212Y-98494146D01*
X193999807Y-98559213D01*
X193969543Y-98585436D01*
X193957128Y-98593122D01*
X193957128Y-98593123D01*
X193805856Y-98731025D01*
X193682503Y-98894373D01*
X193591261Y-99077611D01*
X193535244Y-99274490D01*
X193516358Y-99478305D01*
X193516358Y-99478314D01*
X193535244Y-99682129D01*
X193574279Y-99819323D01*
X193591262Y-99879011D01*
X193682502Y-100062245D01*
X193697016Y-100081465D01*
X193805856Y-100225594D01*
X193957126Y-100363495D01*
X194131156Y-100471250D01*
X194131158Y-100471250D01*
X194131163Y-100471254D01*
X194322034Y-100545198D01*
X194523243Y-100582810D01*
X194523245Y-100582810D01*
X194727935Y-100582810D01*
X194727937Y-100582810D01*
X194929146Y-100545198D01*
X195120017Y-100471254D01*
X195294052Y-100363496D01*
X195445322Y-100225595D01*
X195568678Y-100062245D01*
X195659918Y-99879011D01*
X195715935Y-99682131D01*
X195725230Y-99581826D01*
X195734822Y-99478314D01*
X195734822Y-99478305D01*
X195715935Y-99274490D01*
X195697072Y-99208194D01*
X195659918Y-99077609D01*
X195610623Y-98978612D01*
X195598164Y-98908720D01*
X195625471Y-98843185D01*
X195683873Y-98802816D01*
X195754830Y-98800430D01*
X195775757Y-98807838D01*
X195782489Y-98810912D01*
X195790851Y-98814731D01*
X195790854Y-98814731D01*
X195790857Y-98814733D01*
X195831781Y-98824404D01*
X195859945Y-98831060D01*
X195905737Y-98837645D01*
X195997059Y-98824515D01*
X196067330Y-98834620D01*
X196120985Y-98881113D01*
X196140987Y-98949233D01*
X196127778Y-99005395D01*
X196091732Y-99077785D01*
X196091728Y-99077795D01*
X196035738Y-99274579D01*
X196016860Y-99478310D01*
X196035738Y-99682040D01*
X196091728Y-99878824D01*
X196182854Y-100061832D01*
X196671415Y-99573271D01*
X196672057Y-99581826D01*
X196722718Y-99710908D01*
X196809176Y-99819323D01*
X196923749Y-99897437D01*
X197032214Y-99930894D01*
X196545490Y-100417618D01*
X196631383Y-100470801D01*
X196631392Y-100470806D01*
X196822167Y-100544713D01*
X196822166Y-100544713D01*
X197023291Y-100582310D01*
X197227889Y-100582310D01*
X197429013Y-100544713D01*
X197619787Y-100470806D01*
X197619796Y-100470801D01*
X197705687Y-100417619D01*
X197705688Y-100417618D01*
X197217693Y-99929623D01*
X197262709Y-99922839D01*
X197387644Y-99862673D01*
X197489295Y-99768355D01*
X197558629Y-99648265D01*
X197576491Y-99570001D01*
X198068324Y-100061833D01*
X198119557Y-100053475D01*
X198159940Y-100043076D01*
X198193731Y-100050232D01*
X198194022Y-100049243D01*
X198199957Y-100050985D01*
X198199960Y-100050987D01*
X198268081Y-100070989D01*
X198341190Y-100081500D01*
X198341193Y-100081500D01*
X201111302Y-100081500D01*
X201179423Y-100101502D01*
X201225916Y-100155158D01*
X201236020Y-100225432D01*
X201206526Y-100290012D01*
X201155334Y-100325556D01*
X201060973Y-100360750D01*
X200809379Y-100498131D01*
X200669405Y-100602913D01*
X200669404Y-100602914D01*
X201268493Y-101202003D01*
X201107372Y-101323676D01*
X200961917Y-101483233D01*
X200911970Y-101563900D01*
X200310194Y-100962124D01*
X200310193Y-100962125D01*
X200205411Y-101102099D01*
X200068030Y-101353693D01*
X199967854Y-101622275D01*
X199906920Y-101902386D01*
X199886471Y-102188310D01*
X199906920Y-102474233D01*
X199967854Y-102754344D01*
X200068030Y-103022926D01*
X200205414Y-103274525D01*
X200310193Y-103414493D01*
X200310194Y-103414494D01*
X200911969Y-102812719D01*
X200961917Y-102893387D01*
X201107372Y-103052944D01*
X201268492Y-103174615D01*
X200669404Y-103773704D01*
X200669405Y-103773705D01*
X200809374Y-103878486D01*
X201060973Y-104015869D01*
X201060972Y-104015869D01*
X201329555Y-104116045D01*
X201609666Y-104176979D01*
X201895590Y-104197428D01*
X202181513Y-104176979D01*
X202461624Y-104116045D01*
X202730206Y-104015869D01*
X202981801Y-103878488D01*
X203121773Y-103773704D01*
X203121774Y-103773704D01*
X202522686Y-103174616D01*
X202683808Y-103052944D01*
X202829263Y-102893387D01*
X202879209Y-102812719D01*
X203480984Y-103414494D01*
X203480984Y-103414493D01*
X203585768Y-103274521D01*
X203723149Y-103022926D01*
X203823325Y-102754344D01*
X203884259Y-102474233D01*
X203904708Y-102188310D01*
X203884259Y-101902386D01*
X203823325Y-101622275D01*
X203723149Y-101353693D01*
X203585766Y-101102094D01*
X203480985Y-100962125D01*
X203480984Y-100962124D01*
X202879209Y-101563899D01*
X202829263Y-101483233D01*
X202683808Y-101323676D01*
X202522686Y-101202002D01*
X203121774Y-100602914D01*
X203121773Y-100602913D01*
X202981805Y-100498134D01*
X202730206Y-100360750D01*
X202730207Y-100360750D01*
X202635846Y-100325556D01*
X202579010Y-100283009D01*
X202554199Y-100216489D01*
X202569290Y-100147115D01*
X202619493Y-100096912D01*
X202679878Y-100081500D01*
X204485163Y-100081500D01*
X204485264Y-100081500D01*
X204487752Y-100081488D01*
X204490151Y-100081465D01*
X204490155Y-100081464D01*
X204490159Y-100081464D01*
X204524633Y-100076002D01*
X204565499Y-100069529D01*
X204588665Y-100062245D01*
X204633211Y-100048239D01*
X204633214Y-100048237D01*
X204633226Y-100048234D01*
X204675943Y-100030480D01*
X204754707Y-99966854D01*
X204800170Y-99912323D01*
X204826506Y-99874296D01*
X204858368Y-99778188D01*
X204867133Y-99707734D01*
X204868729Y-99661496D01*
X204843571Y-99563419D01*
X204812853Y-99499412D01*
X204775428Y-99443546D01*
X204771747Y-99438051D01*
X204771743Y-99438047D01*
X204756845Y-99421501D01*
X204741364Y-99400194D01*
X204692065Y-99314808D01*
X204681352Y-99290745D01*
X204676099Y-99274579D01*
X204650886Y-99196981D01*
X204645412Y-99171228D01*
X204635106Y-99073167D01*
X204635106Y-99046828D01*
X204636478Y-99033781D01*
X204645412Y-98948773D01*
X204650889Y-98923011D01*
X204681353Y-98829249D01*
X204692064Y-98805192D01*
X204741359Y-98719809D01*
X204756837Y-98698506D01*
X204823009Y-98625014D01*
X204838284Y-98610657D01*
X204839265Y-98609878D01*
X204856670Y-98596056D01*
X204872967Y-98581935D01*
X204932544Y-98506915D01*
X204965676Y-98444123D01*
X204983531Y-98401451D01*
X204994714Y-98300818D01*
X204988639Y-98230082D01*
X204988636Y-98230066D01*
X204988635Y-98230056D01*
X204984381Y-98205989D01*
X204980589Y-98184528D01*
X204979904Y-98183148D01*
X204935591Y-98093826D01*
X204911238Y-98062245D01*
X204892236Y-98037602D01*
X204892233Y-98037599D01*
X204892230Y-98037595D01*
X204839270Y-97986127D01*
X204835824Y-97983225D01*
X204836174Y-97982808D01*
X204822813Y-97970766D01*
X204756846Y-97897502D01*
X204741367Y-97876196D01*
X204692065Y-97790805D01*
X204681352Y-97766745D01*
X204650886Y-97672981D01*
X204645412Y-97647228D01*
X204635106Y-97549167D01*
X204635106Y-97522828D01*
X204645412Y-97424775D01*
X204650889Y-97399011D01*
X204681352Y-97305253D01*
X204692064Y-97281192D01*
X204741359Y-97195809D01*
X204756833Y-97174511D01*
X204822819Y-97101226D01*
X204842388Y-97083607D01*
X204850643Y-97077610D01*
X204922143Y-97025661D01*
X204944949Y-97012493D01*
X204974874Y-96999171D01*
X204977123Y-96998157D01*
X204979304Y-96997161D01*
X205043300Y-96955602D01*
X205096511Y-96908601D01*
X205128317Y-96875005D01*
X205174391Y-96784843D01*
X205193743Y-96716535D01*
X205202334Y-96671086D01*
X205202333Y-96671080D01*
X205202334Y-96671080D01*
X205192351Y-96570329D01*
X205192351Y-96570327D01*
X205171702Y-96502399D01*
X205154355Y-96459512D01*
X205091481Y-96380147D01*
X205037385Y-96334167D01*
X205037374Y-96334160D01*
X204974883Y-96294834D01*
X204974871Y-96294828D01*
X204944959Y-96281510D01*
X204922150Y-96268341D01*
X204842382Y-96210385D01*
X204822808Y-96192761D01*
X204781765Y-96147178D01*
X204756842Y-96119498D01*
X204741362Y-96098192D01*
X204692063Y-96012804D01*
X204681352Y-95988745D01*
X204664422Y-95936639D01*
X204650886Y-95894981D01*
X204645412Y-95869228D01*
X204635106Y-95771167D01*
X204635106Y-95744828D01*
X204641420Y-95684761D01*
X204645412Y-95646773D01*
X204650889Y-95621011D01*
X204657177Y-95601659D01*
X204681353Y-95527249D01*
X204692064Y-95503192D01*
X204741359Y-95417809D01*
X204756833Y-95396511D01*
X204822819Y-95323226D01*
X204842388Y-95305607D01*
X204922147Y-95247658D01*
X204944942Y-95234497D01*
X205035033Y-95194385D01*
X205060068Y-95186251D01*
X205156509Y-95165753D01*
X205182705Y-95163000D01*
X205295176Y-95163000D01*
X205297260Y-95163016D01*
X205378999Y-95164378D01*
X205379006Y-95164377D01*
X205379007Y-95164377D01*
X205449273Y-95154274D01*
X205494291Y-95143635D01*
X205502814Y-95138782D01*
X205525947Y-95125609D01*
X205582278Y-95093532D01*
X205635934Y-95047039D01*
X205668056Y-95013750D01*
X205714987Y-94924031D01*
X205734989Y-94855910D01*
X205745500Y-94782801D01*
X205745500Y-88392000D01*
X214786793Y-88392000D01*
X214805568Y-88570639D01*
X214861072Y-88741466D01*
X214861075Y-88741472D01*
X214950885Y-88897026D01*
X214950887Y-88897029D01*
X215071078Y-89030515D01*
X215216396Y-89136095D01*
X215380490Y-89209154D01*
X215556188Y-89246500D01*
X215735812Y-89246500D01*
X215911510Y-89209154D01*
X216075604Y-89136095D01*
X216220922Y-89030515D01*
X216341113Y-88897029D01*
X216430925Y-88741471D01*
X216486431Y-88570639D01*
X216505207Y-88392000D01*
X216486431Y-88213361D01*
X216486431Y-88213360D01*
X216430927Y-88042533D01*
X216430924Y-88042527D01*
X216341114Y-87886973D01*
X216341113Y-87886971D01*
X216220922Y-87753485D01*
X216075604Y-87647905D01*
X215911510Y-87574846D01*
X215735812Y-87537500D01*
X215556188Y-87537500D01*
X215380489Y-87574846D01*
X215216392Y-87647907D01*
X215071078Y-87753484D01*
X214950888Y-87886969D01*
X214950885Y-87886973D01*
X214861075Y-88042527D01*
X214861072Y-88042533D01*
X214805568Y-88213360D01*
X214786793Y-88392000D01*
X205745500Y-88392000D01*
X205745500Y-83565999D01*
X209490450Y-83565999D01*
X209490451Y-83566000D01*
X210134884Y-83566000D01*
X210106507Y-83610156D01*
X210066000Y-83748111D01*
X210066000Y-83891889D01*
X210106507Y-84029844D01*
X210134884Y-84074000D01*
X209490451Y-84074000D01*
X209532138Y-84220514D01*
X209532140Y-84220519D01*
X209623340Y-84403672D01*
X209746637Y-84566946D01*
X209897838Y-84704784D01*
X210071796Y-84812493D01*
X210071803Y-84812496D01*
X210262582Y-84886405D01*
X210311999Y-84895642D01*
X210312000Y-84895642D01*
X210312000Y-84253674D01*
X210423685Y-84304680D01*
X210530237Y-84320000D01*
X210601763Y-84320000D01*
X210708315Y-84304680D01*
X210820000Y-84253674D01*
X210820000Y-84895642D01*
X210869417Y-84886405D01*
X210869418Y-84886405D01*
X211060196Y-84812496D01*
X211060203Y-84812493D01*
X211234161Y-84704784D01*
X211385362Y-84566946D01*
X211508659Y-84403672D01*
X211599859Y-84220519D01*
X211599861Y-84220514D01*
X211641549Y-84074000D01*
X210997116Y-84074000D01*
X211025493Y-84029844D01*
X211066000Y-83891889D01*
X211066000Y-83820004D01*
X211996768Y-83820004D01*
X212015654Y-84023819D01*
X212029932Y-84074000D01*
X212071672Y-84220701D01*
X212162912Y-84403935D01*
X212162913Y-84403936D01*
X212286266Y-84567284D01*
X212437536Y-84705185D01*
X212611566Y-84812940D01*
X212611568Y-84812940D01*
X212611573Y-84812944D01*
X212802444Y-84886888D01*
X213003653Y-84924500D01*
X213003655Y-84924500D01*
X213208345Y-84924500D01*
X213208347Y-84924500D01*
X213409556Y-84886888D01*
X213600427Y-84812944D01*
X213774462Y-84705186D01*
X213925732Y-84567285D01*
X214049088Y-84403935D01*
X214140328Y-84220701D01*
X214196345Y-84023821D01*
X214202640Y-83955880D01*
X214215232Y-83820004D01*
X214215232Y-83819995D01*
X214196345Y-83616180D01*
X214182068Y-83566000D01*
X214140328Y-83419299D01*
X214049088Y-83236065D01*
X214008538Y-83182368D01*
X213925733Y-83072715D01*
X213774463Y-82934814D01*
X213600433Y-82827059D01*
X213600428Y-82827057D01*
X213600427Y-82827056D01*
X213567046Y-82814124D01*
X213409559Y-82753113D01*
X213409560Y-82753113D01*
X213409557Y-82753112D01*
X213409556Y-82753112D01*
X213208347Y-82715500D01*
X213003653Y-82715500D01*
X212802444Y-82753112D01*
X212802439Y-82753113D01*
X212611577Y-82827054D01*
X212611566Y-82827059D01*
X212437536Y-82934814D01*
X212286266Y-83072715D01*
X212162913Y-83236063D01*
X212071671Y-83419301D01*
X212015654Y-83616180D01*
X211996768Y-83819995D01*
X211996768Y-83820004D01*
X211066000Y-83820004D01*
X211066000Y-83748111D01*
X211025493Y-83610156D01*
X210997116Y-83566000D01*
X211641549Y-83566000D01*
X211641549Y-83565999D01*
X211599861Y-83419485D01*
X211599859Y-83419480D01*
X211508659Y-83236327D01*
X211385362Y-83073053D01*
X211234161Y-82935215D01*
X211060203Y-82827506D01*
X211060196Y-82827503D01*
X210869424Y-82753596D01*
X210820000Y-82744357D01*
X210820000Y-83386325D01*
X210708315Y-83335320D01*
X210601763Y-83320000D01*
X210530237Y-83320000D01*
X210423685Y-83335320D01*
X210312000Y-83386325D01*
X210312000Y-82744357D01*
X210262575Y-82753596D01*
X210071803Y-82827503D01*
X210071796Y-82827506D01*
X209897838Y-82935215D01*
X209746637Y-83073053D01*
X209623340Y-83236327D01*
X209532140Y-83419480D01*
X209532138Y-83419485D01*
X209490450Y-83565999D01*
X205745500Y-83565999D01*
X205745500Y-81025999D01*
X209490450Y-81025999D01*
X209490451Y-81026000D01*
X210134884Y-81026000D01*
X210106507Y-81070156D01*
X210066000Y-81208111D01*
X210066000Y-81351889D01*
X210106507Y-81489844D01*
X210134884Y-81534000D01*
X209490451Y-81534000D01*
X209532138Y-81680514D01*
X209532140Y-81680519D01*
X209623340Y-81863672D01*
X209746637Y-82026946D01*
X209897838Y-82164784D01*
X210071796Y-82272493D01*
X210071803Y-82272496D01*
X210262582Y-82346405D01*
X210311999Y-82355642D01*
X210312000Y-82355642D01*
X210312000Y-81713674D01*
X210423685Y-81764680D01*
X210530237Y-81780000D01*
X210601763Y-81780000D01*
X210708315Y-81764680D01*
X210820000Y-81713674D01*
X210820000Y-82355642D01*
X210869417Y-82346405D01*
X210869418Y-82346405D01*
X211060196Y-82272496D01*
X211060203Y-82272493D01*
X211234161Y-82164784D01*
X211385362Y-82026946D01*
X211508659Y-81863672D01*
X211599859Y-81680519D01*
X211599861Y-81680514D01*
X211641549Y-81534000D01*
X210997116Y-81534000D01*
X211025493Y-81489844D01*
X211066000Y-81351889D01*
X211066000Y-81280004D01*
X211996768Y-81280004D01*
X212015654Y-81483819D01*
X212071619Y-81680514D01*
X212071672Y-81680701D01*
X212162912Y-81863935D01*
X212162913Y-81863936D01*
X212286266Y-82027284D01*
X212437536Y-82165185D01*
X212611566Y-82272940D01*
X212611568Y-82272940D01*
X212611573Y-82272944D01*
X212802444Y-82346888D01*
X213003653Y-82384500D01*
X213003655Y-82384500D01*
X213208345Y-82384500D01*
X213208347Y-82384500D01*
X213409556Y-82346888D01*
X213600427Y-82272944D01*
X213774462Y-82165186D01*
X213925732Y-82027285D01*
X214049088Y-81863935D01*
X214140328Y-81680701D01*
X214196345Y-81483821D01*
X214207170Y-81367000D01*
X214215232Y-81280004D01*
X214215232Y-81279995D01*
X214196345Y-81076180D01*
X214182298Y-81026810D01*
X214140328Y-80879299D01*
X214049088Y-80696065D01*
X214008538Y-80642368D01*
X213925733Y-80532715D01*
X213774463Y-80394814D01*
X213600433Y-80287059D01*
X213600428Y-80287057D01*
X213600427Y-80287056D01*
X213493611Y-80245675D01*
X213409559Y-80213113D01*
X213409560Y-80213113D01*
X213409557Y-80213112D01*
X213409556Y-80213112D01*
X213208347Y-80175500D01*
X213003653Y-80175500D01*
X212802444Y-80213112D01*
X212802439Y-80213113D01*
X212611577Y-80287054D01*
X212611566Y-80287059D01*
X212437536Y-80394814D01*
X212286266Y-80532715D01*
X212162913Y-80696063D01*
X212071671Y-80879301D01*
X212015654Y-81076180D01*
X211996768Y-81279995D01*
X211996768Y-81280004D01*
X211066000Y-81280004D01*
X211066000Y-81208111D01*
X211025493Y-81070156D01*
X210997116Y-81026000D01*
X211641549Y-81026000D01*
X211641549Y-81025999D01*
X211599861Y-80879485D01*
X211599859Y-80879480D01*
X211508659Y-80696327D01*
X211385362Y-80533053D01*
X211234161Y-80395215D01*
X211060203Y-80287506D01*
X211060196Y-80287503D01*
X210869424Y-80213596D01*
X210820000Y-80204357D01*
X210820000Y-80846325D01*
X210708315Y-80795320D01*
X210601763Y-80780000D01*
X210530237Y-80780000D01*
X210423685Y-80795320D01*
X210312000Y-80846325D01*
X210312000Y-80204357D01*
X210262575Y-80213596D01*
X210071803Y-80287503D01*
X210071796Y-80287506D01*
X209897838Y-80395215D01*
X209746637Y-80533053D01*
X209623340Y-80696327D01*
X209532140Y-80879480D01*
X209532138Y-80879485D01*
X209490450Y-81025999D01*
X205745500Y-81025999D01*
X205745500Y-78485999D01*
X209490450Y-78485999D01*
X209490451Y-78486000D01*
X210134884Y-78486000D01*
X210106507Y-78530156D01*
X210066000Y-78668111D01*
X210066000Y-78811889D01*
X210106507Y-78949844D01*
X210134884Y-78994000D01*
X209490451Y-78994000D01*
X209532138Y-79140514D01*
X209532140Y-79140519D01*
X209623340Y-79323672D01*
X209746637Y-79486946D01*
X209897838Y-79624784D01*
X210071796Y-79732493D01*
X210071803Y-79732496D01*
X210262582Y-79806405D01*
X210311999Y-79815642D01*
X210312000Y-79815642D01*
X210312000Y-79173674D01*
X210423685Y-79224680D01*
X210530237Y-79240000D01*
X210601763Y-79240000D01*
X210708315Y-79224680D01*
X210820000Y-79173674D01*
X210820000Y-79815642D01*
X210869417Y-79806405D01*
X210869418Y-79806405D01*
X211060196Y-79732496D01*
X211060203Y-79732493D01*
X211234161Y-79624784D01*
X211385362Y-79486946D01*
X211508659Y-79323672D01*
X211599859Y-79140519D01*
X211599861Y-79140514D01*
X211641549Y-78994000D01*
X210997116Y-78994000D01*
X211025493Y-78949844D01*
X211066000Y-78811889D01*
X211066000Y-78740004D01*
X211996768Y-78740004D01*
X212015654Y-78943819D01*
X212029932Y-78994000D01*
X212071672Y-79140701D01*
X212162912Y-79323935D01*
X212162913Y-79323936D01*
X212286266Y-79487284D01*
X212437536Y-79625185D01*
X212611566Y-79732940D01*
X212611568Y-79732940D01*
X212611573Y-79732944D01*
X212802444Y-79806888D01*
X213003653Y-79844500D01*
X213003655Y-79844500D01*
X213208345Y-79844500D01*
X213208347Y-79844500D01*
X213409556Y-79806888D01*
X213600427Y-79732944D01*
X213774462Y-79625186D01*
X213925732Y-79487285D01*
X214049088Y-79323935D01*
X214140328Y-79140701D01*
X214196345Y-78943821D01*
X214202640Y-78875880D01*
X214215232Y-78740004D01*
X214215232Y-78739995D01*
X214196345Y-78536180D01*
X214182068Y-78486000D01*
X214140328Y-78339299D01*
X214049088Y-78156065D01*
X214008538Y-78102368D01*
X213925733Y-77992715D01*
X213774463Y-77854814D01*
X213600433Y-77747059D01*
X213600428Y-77747057D01*
X213600427Y-77747056D01*
X213486912Y-77703080D01*
X213409559Y-77673113D01*
X213409560Y-77673113D01*
X213409557Y-77673112D01*
X213409556Y-77673112D01*
X213208347Y-77635500D01*
X213003653Y-77635500D01*
X212849280Y-77664357D01*
X212802439Y-77673113D01*
X212611577Y-77747054D01*
X212611566Y-77747059D01*
X212437536Y-77854814D01*
X212286266Y-77992715D01*
X212162913Y-78156063D01*
X212071671Y-78339301D01*
X212015654Y-78536180D01*
X211996768Y-78739995D01*
X211996768Y-78740004D01*
X211066000Y-78740004D01*
X211066000Y-78668111D01*
X211025493Y-78530156D01*
X210997116Y-78486000D01*
X211641549Y-78486000D01*
X211641549Y-78485999D01*
X211599861Y-78339485D01*
X211599859Y-78339480D01*
X211508659Y-78156327D01*
X211385362Y-77993053D01*
X211234161Y-77855215D01*
X211060203Y-77747506D01*
X211060196Y-77747503D01*
X210869424Y-77673596D01*
X210820000Y-77664357D01*
X210820000Y-78306325D01*
X210708315Y-78255320D01*
X210601763Y-78240000D01*
X210530237Y-78240000D01*
X210423685Y-78255320D01*
X210312000Y-78306325D01*
X210312000Y-77664357D01*
X210262575Y-77673596D01*
X210071803Y-77747503D01*
X210071796Y-77747506D01*
X209897838Y-77855215D01*
X209746637Y-77993053D01*
X209623340Y-78156327D01*
X209532140Y-78339480D01*
X209532138Y-78339485D01*
X209490450Y-78485999D01*
X205745500Y-78485999D01*
X205745500Y-75946000D01*
X209462000Y-75946000D01*
X210134884Y-75946000D01*
X210106507Y-75990156D01*
X210066000Y-76128111D01*
X210066000Y-76271889D01*
X210106507Y-76409844D01*
X210134884Y-76454000D01*
X209462001Y-76454000D01*
X209462001Y-77075022D01*
X209476737Y-77149105D01*
X209476737Y-77149107D01*
X209532875Y-77233124D01*
X209616893Y-77289262D01*
X209616894Y-77289263D01*
X209690980Y-77303999D01*
X210312000Y-77303999D01*
X210312000Y-76633674D01*
X210423685Y-76684680D01*
X210530237Y-76700000D01*
X210601763Y-76700000D01*
X210708315Y-76684680D01*
X210820000Y-76633674D01*
X210820000Y-77303999D01*
X211441014Y-77303999D01*
X211441022Y-77303998D01*
X211515105Y-77289262D01*
X211515107Y-77289262D01*
X211599124Y-77233124D01*
X211655262Y-77149106D01*
X211655263Y-77149105D01*
X211669999Y-77075022D01*
X211670000Y-77075015D01*
X211670000Y-76454000D01*
X210997116Y-76454000D01*
X211025493Y-76409844D01*
X211066000Y-76271889D01*
X211066000Y-76200004D01*
X211996768Y-76200004D01*
X212015654Y-76403819D01*
X212029932Y-76454000D01*
X212071672Y-76600701D01*
X212162912Y-76783935D01*
X212162913Y-76783936D01*
X212286266Y-76947284D01*
X212437536Y-77085185D01*
X212611566Y-77192940D01*
X212611568Y-77192940D01*
X212611573Y-77192944D01*
X212802444Y-77266888D01*
X213003653Y-77304500D01*
X213003655Y-77304500D01*
X213208345Y-77304500D01*
X213208347Y-77304500D01*
X213409556Y-77266888D01*
X213600427Y-77192944D01*
X213774462Y-77085186D01*
X213925732Y-76947285D01*
X214049088Y-76783935D01*
X214140328Y-76600701D01*
X214196345Y-76403821D01*
X214202640Y-76335880D01*
X214215232Y-76200004D01*
X214215232Y-76199995D01*
X214196345Y-75996180D01*
X214182068Y-75946000D01*
X214140328Y-75799299D01*
X214049088Y-75616065D01*
X214008538Y-75562368D01*
X213925733Y-75452715D01*
X213774463Y-75314814D01*
X213600433Y-75207059D01*
X213600428Y-75207057D01*
X213600427Y-75207056D01*
X213409559Y-75133113D01*
X213409560Y-75133113D01*
X213409557Y-75133112D01*
X213409556Y-75133112D01*
X213208347Y-75095500D01*
X213003653Y-75095500D01*
X212802444Y-75133112D01*
X212802439Y-75133113D01*
X212611577Y-75207054D01*
X212611566Y-75207059D01*
X212437536Y-75314814D01*
X212286266Y-75452715D01*
X212162913Y-75616063D01*
X212071671Y-75799301D01*
X212015654Y-75996180D01*
X211996768Y-76199995D01*
X211996768Y-76200004D01*
X211066000Y-76200004D01*
X211066000Y-76128111D01*
X211025493Y-75990156D01*
X210997116Y-75946000D01*
X211669999Y-75946000D01*
X211669999Y-75324986D01*
X211669998Y-75324977D01*
X211655262Y-75250894D01*
X211655262Y-75250892D01*
X211599124Y-75166875D01*
X211515106Y-75110737D01*
X211515105Y-75110736D01*
X211441022Y-75096000D01*
X210820000Y-75096000D01*
X210820000Y-75766325D01*
X210708315Y-75715320D01*
X210601763Y-75700000D01*
X210530237Y-75700000D01*
X210423685Y-75715320D01*
X210312000Y-75766325D01*
X210312000Y-75096000D01*
X209690986Y-75096000D01*
X209690976Y-75096001D01*
X209616894Y-75110737D01*
X209616892Y-75110737D01*
X209532875Y-75166875D01*
X209476737Y-75250893D01*
X209476736Y-75250894D01*
X209462000Y-75324977D01*
X209462000Y-75946000D01*
X205745500Y-75946000D01*
X205745500Y-75089675D01*
X205765502Y-75021554D01*
X205782400Y-75000584D01*
X206770462Y-74012522D01*
X206832772Y-73978499D01*
X206903587Y-73983563D01*
X206960423Y-74026110D01*
X206968674Y-74038619D01*
X207026793Y-74139285D01*
X207041657Y-74165029D01*
X207161848Y-74298515D01*
X207307166Y-74404095D01*
X207471260Y-74477154D01*
X207646958Y-74514500D01*
X207826582Y-74514500D01*
X208002280Y-74477154D01*
X208166374Y-74404095D01*
X208311692Y-74298515D01*
X208405134Y-74194735D01*
X208465579Y-74157497D01*
X208536563Y-74158848D01*
X208592404Y-74194735D01*
X208685848Y-74298515D01*
X208831166Y-74404095D01*
X208995260Y-74477154D01*
X209170958Y-74514500D01*
X209350582Y-74514500D01*
X209526280Y-74477154D01*
X209690374Y-74404095D01*
X209835692Y-74298515D01*
X209946748Y-74175173D01*
X210007194Y-74137934D01*
X210078178Y-74139285D01*
X210134020Y-74175173D01*
X210245078Y-74298515D01*
X210390396Y-74404095D01*
X210554490Y-74477154D01*
X210730188Y-74514500D01*
X210909812Y-74514500D01*
X211085510Y-74477154D01*
X211249604Y-74404095D01*
X211394922Y-74298515D01*
X211515113Y-74165029D01*
X211604925Y-74009471D01*
X211611460Y-73989360D01*
X211660431Y-73838639D01*
X211671286Y-73735360D01*
X211679207Y-73660000D01*
X211660431Y-73481361D01*
X211660431Y-73481360D01*
X211604927Y-73310533D01*
X211604924Y-73310527D01*
X211515114Y-73154973D01*
X211515113Y-73154971D01*
X211394922Y-73021485D01*
X211249604Y-72915905D01*
X211085510Y-72842846D01*
X210909812Y-72805500D01*
X210730188Y-72805500D01*
X210554489Y-72842846D01*
X210390392Y-72915907D01*
X210245075Y-73021486D01*
X210134021Y-73144825D01*
X210073575Y-73182065D01*
X210002591Y-73180713D01*
X209946749Y-73144825D01*
X209835694Y-73021486D01*
X209690374Y-72915905D01*
X209526280Y-72842846D01*
X209435227Y-72823492D01*
X209372753Y-72789763D01*
X209338432Y-72727614D01*
X209343160Y-72656775D01*
X209385436Y-72599737D01*
X209435227Y-72576998D01*
X209526280Y-72557644D01*
X209690374Y-72484585D01*
X209835692Y-72379005D01*
X209955883Y-72245519D01*
X210045695Y-72089961D01*
X210101201Y-71919129D01*
X210119977Y-71740490D01*
X210101201Y-71561851D01*
X210082572Y-71504515D01*
X210045697Y-71391023D01*
X210045694Y-71391017D01*
X209955884Y-71235463D01*
X209955877Y-71235453D01*
X209842412Y-71109438D01*
X209811695Y-71045431D01*
X209820459Y-70974977D01*
X209846953Y-70936032D01*
X209916985Y-70866000D01*
X210458589Y-70324398D01*
X210477151Y-70303734D01*
X210489822Y-70288009D01*
X210491872Y-70285728D01*
X210494043Y-70282772D01*
X210494054Y-70282759D01*
X210494056Y-70282757D01*
X210540987Y-70193038D01*
X210560989Y-70124917D01*
X210571500Y-70051808D01*
X210571500Y-65192939D01*
X210562657Y-65125773D01*
X210545775Y-65062771D01*
X210537143Y-65041936D01*
X210533723Y-65032666D01*
X210492886Y-64906982D01*
X210487412Y-64881228D01*
X210477106Y-64783167D01*
X210477106Y-64756829D01*
X210487412Y-64658773D01*
X210492885Y-64633022D01*
X210533727Y-64507320D01*
X210537141Y-64498067D01*
X210545779Y-64477216D01*
X210562658Y-64414220D01*
X210571500Y-64347059D01*
X210571500Y-63880000D01*
X210565570Y-63824841D01*
X210555333Y-63777781D01*
X210560399Y-63706967D01*
X210602946Y-63650131D01*
X210669466Y-63625321D01*
X210678454Y-63625000D01*
X223647500Y-63625000D01*
X223715621Y-63645002D01*
X223762114Y-63698658D01*
X223773500Y-63751000D01*
X223773500Y-104974000D01*
X223753498Y-105042121D01*
X223699842Y-105088614D01*
X223647500Y-105100000D01*
X168122000Y-105100000D01*
X168053879Y-105079998D01*
X168007386Y-105026342D01*
X167996000Y-104974000D01*
X167996000Y-102188310D01*
X187846471Y-102188310D01*
X187866920Y-102474233D01*
X187927854Y-102754344D01*
X188028030Y-103022926D01*
X188165414Y-103274525D01*
X188270193Y-103414493D01*
X188270194Y-103414494D01*
X188871969Y-102812719D01*
X188921917Y-102893387D01*
X189067372Y-103052944D01*
X189228492Y-103174615D01*
X188629404Y-103773704D01*
X188629405Y-103773705D01*
X188769374Y-103878486D01*
X189020973Y-104015869D01*
X189020972Y-104015869D01*
X189289555Y-104116045D01*
X189569666Y-104176979D01*
X189855590Y-104197428D01*
X190141513Y-104176979D01*
X190421624Y-104116045D01*
X190690206Y-104015869D01*
X190941801Y-103878488D01*
X191081773Y-103773704D01*
X191081774Y-103773704D01*
X190482686Y-103174616D01*
X190643808Y-103052944D01*
X190789263Y-102893387D01*
X190839209Y-102812719D01*
X191440984Y-103414494D01*
X191440984Y-103414493D01*
X191545768Y-103274521D01*
X191683149Y-103022926D01*
X191783325Y-102754344D01*
X191844259Y-102474233D01*
X191864708Y-102188310D01*
X191844259Y-101902386D01*
X191783325Y-101622275D01*
X191683149Y-101353693D01*
X191545766Y-101102094D01*
X191440985Y-100962125D01*
X191440984Y-100962124D01*
X190839209Y-101563899D01*
X190789263Y-101483233D01*
X190643808Y-101323676D01*
X190482686Y-101202002D01*
X191081774Y-100602914D01*
X191081773Y-100602913D01*
X190941805Y-100498134D01*
X190690206Y-100360750D01*
X190690207Y-100360750D01*
X190421624Y-100260574D01*
X190141513Y-100199640D01*
X189855590Y-100179191D01*
X189569666Y-100199640D01*
X189289555Y-100260574D01*
X189020973Y-100360750D01*
X188769379Y-100498131D01*
X188629405Y-100602913D01*
X188629404Y-100602914D01*
X189228493Y-101202003D01*
X189067372Y-101323676D01*
X188921917Y-101483233D01*
X188871970Y-101563900D01*
X188270194Y-100962124D01*
X188270193Y-100962125D01*
X188165411Y-101102099D01*
X188028030Y-101353693D01*
X187927854Y-101622275D01*
X187866920Y-101902386D01*
X187846471Y-102188310D01*
X167996000Y-102188310D01*
X167996000Y-95758000D01*
X186337523Y-95758000D01*
X186356298Y-95936639D01*
X186411802Y-96107466D01*
X186411805Y-96107472D01*
X186497268Y-96255497D01*
X186501617Y-96263029D01*
X186621808Y-96396515D01*
X186767126Y-96502095D01*
X186931220Y-96575154D01*
X187106918Y-96612500D01*
X187286542Y-96612500D01*
X187462240Y-96575154D01*
X187626334Y-96502095D01*
X187771652Y-96396515D01*
X187865094Y-96292735D01*
X187925539Y-96255497D01*
X187996523Y-96256848D01*
X188052364Y-96292735D01*
X188145808Y-96396515D01*
X188291126Y-96502095D01*
X188455220Y-96575154D01*
X188630918Y-96612500D01*
X188810542Y-96612500D01*
X188986240Y-96575154D01*
X189150334Y-96502095D01*
X189295652Y-96396515D01*
X189415843Y-96263029D01*
X189505655Y-96107471D01*
X189561161Y-95936639D01*
X189579937Y-95758000D01*
X189561161Y-95579361D01*
X189561161Y-95579360D01*
X189505657Y-95408533D01*
X189505654Y-95408527D01*
X189415844Y-95252973D01*
X189415843Y-95252971D01*
X189295652Y-95119485D01*
X189286745Y-95113014D01*
X189150334Y-95013905D01*
X188986240Y-94940846D01*
X188810542Y-94903500D01*
X188630918Y-94903500D01*
X188455219Y-94940846D01*
X188291122Y-95013907D01*
X188145805Y-95119486D01*
X188052366Y-95223262D01*
X187991920Y-95260502D01*
X187920937Y-95259150D01*
X187865094Y-95223262D01*
X187771654Y-95119486D01*
X187671951Y-95047048D01*
X187626334Y-95013905D01*
X187625388Y-95013484D01*
X187559406Y-94984107D01*
X187505310Y-94938127D01*
X187484660Y-94870200D01*
X187504012Y-94801892D01*
X187557223Y-94754890D01*
X187559406Y-94753893D01*
X187626334Y-94724095D01*
X187771652Y-94618515D01*
X187891843Y-94485029D01*
X187981655Y-94329471D01*
X188037161Y-94158639D01*
X188055937Y-93980000D01*
X188037161Y-93801361D01*
X188037161Y-93801360D01*
X187981657Y-93630533D01*
X187981654Y-93630527D01*
X187891844Y-93474973D01*
X187891843Y-93474971D01*
X187771652Y-93341485D01*
X187762745Y-93335014D01*
X187626334Y-93235905D01*
X187462240Y-93162846D01*
X187286542Y-93125500D01*
X187106918Y-93125500D01*
X186931219Y-93162846D01*
X186767122Y-93235907D01*
X186621808Y-93341484D01*
X186501618Y-93474969D01*
X186501615Y-93474973D01*
X186411805Y-93630527D01*
X186411802Y-93630533D01*
X186356298Y-93801360D01*
X186337523Y-93980000D01*
X186356298Y-94158639D01*
X186411802Y-94329466D01*
X186411805Y-94329472D01*
X186473200Y-94435810D01*
X186501617Y-94485029D01*
X186621808Y-94618515D01*
X186767126Y-94724095D01*
X186834054Y-94753893D01*
X186888150Y-94799873D01*
X186908799Y-94867801D01*
X186889447Y-94936109D01*
X186836236Y-94983110D01*
X186834055Y-94984106D01*
X186767125Y-95013905D01*
X186767124Y-95013906D01*
X186621808Y-95119484D01*
X186501618Y-95252969D01*
X186501615Y-95252973D01*
X186411805Y-95408527D01*
X186411802Y-95408533D01*
X186356298Y-95579360D01*
X186337523Y-95758000D01*
X167996000Y-95758000D01*
X167996000Y-94855063D01*
X177458770Y-94855063D01*
X177458771Y-94855073D01*
X177473535Y-94929300D01*
X177529786Y-95013484D01*
X177613967Y-95069733D01*
X177613969Y-95069734D01*
X177688203Y-95084500D01*
X179438336Y-95084499D01*
X179438339Y-95084498D01*
X179438343Y-95084498D01*
X179487596Y-95074701D01*
X179512571Y-95069734D01*
X179596754Y-95013484D01*
X179653004Y-94929301D01*
X179667770Y-94855067D01*
X179667769Y-93104934D01*
X179667768Y-93104930D01*
X179667768Y-93104926D01*
X179653004Y-93030699D01*
X179645592Y-93019607D01*
X179596754Y-92946516D01*
X179539697Y-92908391D01*
X179512572Y-92890266D01*
X179438337Y-92875500D01*
X177688206Y-92875500D01*
X177688196Y-92875501D01*
X177613969Y-92890265D01*
X177529785Y-92946516D01*
X177473536Y-93030697D01*
X177458770Y-93104930D01*
X177458770Y-94855063D01*
X167996000Y-94855063D01*
X167996000Y-91440004D01*
X177454038Y-91440004D01*
X177472924Y-91643819D01*
X177472925Y-91643821D01*
X177528942Y-91840701D01*
X177620182Y-92023935D01*
X177620183Y-92023936D01*
X177743536Y-92187284D01*
X177894806Y-92325185D01*
X178068836Y-92432940D01*
X178068838Y-92432940D01*
X178068843Y-92432944D01*
X178259714Y-92506888D01*
X178460923Y-92544500D01*
X178460925Y-92544500D01*
X178665615Y-92544500D01*
X178665617Y-92544500D01*
X178866826Y-92506888D01*
X179057697Y-92432944D01*
X179231732Y-92325186D01*
X179383002Y-92187285D01*
X179506358Y-92023935D01*
X179597598Y-91840701D01*
X179653615Y-91643821D01*
X179672502Y-91440000D01*
X179653615Y-91236179D01*
X179597598Y-91039299D01*
X179506358Y-90856065D01*
X179465808Y-90802368D01*
X179383003Y-90692715D01*
X179231733Y-90554814D01*
X179057703Y-90447059D01*
X179057698Y-90447057D01*
X179057697Y-90447056D01*
X178866829Y-90373113D01*
X178866830Y-90373113D01*
X178866827Y-90373112D01*
X178866826Y-90373112D01*
X178665617Y-90335500D01*
X178460923Y-90335500D01*
X178259714Y-90373112D01*
X178259709Y-90373113D01*
X178068847Y-90447054D01*
X178068836Y-90447059D01*
X177894806Y-90554814D01*
X177743536Y-90692715D01*
X177620183Y-90856063D01*
X177528941Y-91039301D01*
X177472924Y-91236180D01*
X177454038Y-91439995D01*
X177454038Y-91440004D01*
X167996000Y-91440004D01*
X167996000Y-88900004D01*
X177454038Y-88900004D01*
X177472924Y-89103819D01*
X177528941Y-89300698D01*
X177528942Y-89300701D01*
X177620182Y-89483935D01*
X177620183Y-89483936D01*
X177743536Y-89647284D01*
X177894806Y-89785185D01*
X178068836Y-89892940D01*
X178068838Y-89892940D01*
X178068843Y-89892944D01*
X178259714Y-89966888D01*
X178460923Y-90004500D01*
X178460925Y-90004500D01*
X178665615Y-90004500D01*
X178665617Y-90004500D01*
X178866826Y-89966888D01*
X179057697Y-89892944D01*
X179231732Y-89785186D01*
X179383002Y-89647285D01*
X179506358Y-89483935D01*
X179597598Y-89300701D01*
X179653615Y-89103821D01*
X179672502Y-88900000D01*
X179672226Y-88897026D01*
X179653615Y-88696180D01*
X179653615Y-88696179D01*
X179597598Y-88499299D01*
X179506358Y-88316065D01*
X179428799Y-88213360D01*
X179383003Y-88152715D01*
X179231733Y-88014814D01*
X179057703Y-87907059D01*
X179057698Y-87907057D01*
X179057697Y-87907056D01*
X178866829Y-87833113D01*
X178866830Y-87833113D01*
X178866827Y-87833112D01*
X178866826Y-87833112D01*
X178665617Y-87795500D01*
X178460923Y-87795500D01*
X178259714Y-87833112D01*
X178259709Y-87833113D01*
X178068847Y-87907054D01*
X178068836Y-87907059D01*
X177894806Y-88014814D01*
X177743536Y-88152715D01*
X177620183Y-88316063D01*
X177528941Y-88499301D01*
X177472924Y-88696180D01*
X177454038Y-88899995D01*
X177454038Y-88900004D01*
X167996000Y-88900004D01*
X167996000Y-86360004D01*
X177454038Y-86360004D01*
X177472924Y-86563819D01*
X177486971Y-86613188D01*
X177528942Y-86760701D01*
X177620182Y-86943935D01*
X177620183Y-86943936D01*
X177743536Y-87107284D01*
X177894806Y-87245185D01*
X178068836Y-87352940D01*
X178068838Y-87352940D01*
X178068843Y-87352944D01*
X178259714Y-87426888D01*
X178460923Y-87464500D01*
X178460925Y-87464500D01*
X178665615Y-87464500D01*
X178665617Y-87464500D01*
X178866826Y-87426888D01*
X179057697Y-87352944D01*
X179231732Y-87245186D01*
X179383002Y-87107285D01*
X179389454Y-87098742D01*
X179403276Y-87080436D01*
X179506358Y-86943935D01*
X179597598Y-86760701D01*
X179653615Y-86563821D01*
X179672502Y-86360000D01*
X179672285Y-86357661D01*
X179653615Y-86156180D01*
X179653615Y-86156179D01*
X179597598Y-85959299D01*
X179506358Y-85776065D01*
X179465808Y-85722368D01*
X179383003Y-85612715D01*
X179231733Y-85474814D01*
X179057703Y-85367059D01*
X179057698Y-85367057D01*
X179057697Y-85367056D01*
X178866829Y-85293113D01*
X178866830Y-85293113D01*
X178866827Y-85293112D01*
X178866826Y-85293112D01*
X178665617Y-85255500D01*
X178460923Y-85255500D01*
X178259714Y-85293112D01*
X178259709Y-85293113D01*
X178068847Y-85367054D01*
X178068836Y-85367059D01*
X177894806Y-85474814D01*
X177743536Y-85612715D01*
X177620183Y-85776063D01*
X177528941Y-85959301D01*
X177472924Y-86156180D01*
X177454038Y-86359995D01*
X177454038Y-86360004D01*
X167996000Y-86360004D01*
X167996000Y-84328000D01*
X181512793Y-84328000D01*
X181531568Y-84506639D01*
X181587072Y-84677466D01*
X181587075Y-84677472D01*
X181665291Y-84812944D01*
X181676887Y-84833029D01*
X181797078Y-84966515D01*
X181942396Y-85072095D01*
X182106490Y-85145154D01*
X182282188Y-85182500D01*
X182461812Y-85182500D01*
X182637510Y-85145154D01*
X182801604Y-85072095D01*
X182946922Y-84966515D01*
X183067113Y-84833029D01*
X183156925Y-84677471D01*
X183192727Y-84567284D01*
X183212431Y-84506639D01*
X183231207Y-84328000D01*
X183212431Y-84149361D01*
X183212431Y-84149360D01*
X183156927Y-83978533D01*
X183156924Y-83978527D01*
X183067114Y-83822973D01*
X183067113Y-83822971D01*
X182946922Y-83689485D01*
X182801604Y-83583905D01*
X182637510Y-83510846D01*
X182461812Y-83473500D01*
X182282188Y-83473500D01*
X182106489Y-83510846D01*
X181942392Y-83583907D01*
X181797078Y-83689484D01*
X181676888Y-83822969D01*
X181676885Y-83822973D01*
X181587075Y-83978527D01*
X181587072Y-83978533D01*
X181531568Y-84149360D01*
X181512793Y-84328000D01*
X167996000Y-84328000D01*
X167996000Y-81646490D01*
X177459270Y-81646490D01*
X178132154Y-81646490D01*
X178103777Y-81690646D01*
X178063270Y-81828601D01*
X178063270Y-81972379D01*
X178103777Y-82110334D01*
X178132154Y-82154490D01*
X177459271Y-82154490D01*
X177459271Y-82775512D01*
X177474007Y-82849595D01*
X177474007Y-82849597D01*
X177530145Y-82933614D01*
X177614163Y-82989752D01*
X177614164Y-82989753D01*
X177688250Y-83004489D01*
X178309270Y-83004489D01*
X178309270Y-82334164D01*
X178420955Y-82385170D01*
X178527507Y-82400490D01*
X178599033Y-82400490D01*
X178705585Y-82385170D01*
X178817270Y-82334164D01*
X178817270Y-83004489D01*
X179438284Y-83004489D01*
X179438292Y-83004488D01*
X179512375Y-82989752D01*
X179512377Y-82989752D01*
X179596394Y-82933614D01*
X179652532Y-82849596D01*
X179652533Y-82849595D01*
X179667269Y-82775512D01*
X179667270Y-82775505D01*
X179667270Y-82296000D01*
X181258793Y-82296000D01*
X181277568Y-82474639D01*
X181333072Y-82645466D01*
X181333075Y-82645472D01*
X181422885Y-82801026D01*
X181422887Y-82801029D01*
X181543078Y-82934515D01*
X181688396Y-83040095D01*
X181852490Y-83113154D01*
X182028188Y-83150500D01*
X182207812Y-83150500D01*
X182383510Y-83113154D01*
X182547604Y-83040095D01*
X182692922Y-82934515D01*
X182813113Y-82801029D01*
X182902925Y-82645471D01*
X182933683Y-82550808D01*
X182958431Y-82474639D01*
X182962809Y-82432986D01*
X182977207Y-82296000D01*
X182958431Y-82117361D01*
X182941501Y-82065254D01*
X182902927Y-81946533D01*
X182902924Y-81946527D01*
X182813114Y-81790973D01*
X182813113Y-81790971D01*
X182692922Y-81657485D01*
X182547604Y-81551905D01*
X182383510Y-81478846D01*
X182207812Y-81441500D01*
X182028188Y-81441500D01*
X181852489Y-81478846D01*
X181688392Y-81551907D01*
X181543078Y-81657484D01*
X181422888Y-81790969D01*
X181422885Y-81790973D01*
X181333075Y-81946527D01*
X181333072Y-81946533D01*
X181277568Y-82117360D01*
X181258793Y-82296000D01*
X179667270Y-82296000D01*
X179667270Y-82154490D01*
X178994386Y-82154490D01*
X179022763Y-82110334D01*
X179063270Y-81972379D01*
X179063270Y-81828601D01*
X179022763Y-81690646D01*
X178994386Y-81646490D01*
X179667269Y-81646490D01*
X179667269Y-81025476D01*
X179667268Y-81025467D01*
X179652532Y-80951384D01*
X179652532Y-80951382D01*
X179596394Y-80867365D01*
X179512376Y-80811227D01*
X179512375Y-80811226D01*
X179438292Y-80796490D01*
X178817270Y-80796490D01*
X178817270Y-81466815D01*
X178705585Y-81415810D01*
X178599033Y-81400490D01*
X178527507Y-81400490D01*
X178420955Y-81415810D01*
X178309270Y-81466815D01*
X178309270Y-80796490D01*
X177688256Y-80796490D01*
X177688246Y-80796491D01*
X177614164Y-80811227D01*
X177614162Y-80811227D01*
X177530145Y-80867365D01*
X177474007Y-80951383D01*
X177474006Y-80951384D01*
X177459270Y-81025467D01*
X177459270Y-81646490D01*
X167996000Y-81646490D01*
X167996000Y-79360494D01*
X177454038Y-79360494D01*
X177472924Y-79564309D01*
X177520904Y-79732940D01*
X177528942Y-79761191D01*
X177620182Y-79944425D01*
X177620183Y-79944426D01*
X177743536Y-80107774D01*
X177894806Y-80245675D01*
X178068836Y-80353430D01*
X178068838Y-80353430D01*
X178068843Y-80353434D01*
X178259714Y-80427378D01*
X178460923Y-80464990D01*
X178460925Y-80464990D01*
X178665615Y-80464990D01*
X178665617Y-80464990D01*
X178866826Y-80427378D01*
X179057697Y-80353434D01*
X179231732Y-80245676D01*
X179383002Y-80107775D01*
X179506358Y-79944425D01*
X179597598Y-79761191D01*
X179653615Y-79564311D01*
X179672502Y-79360490D01*
X179669090Y-79323672D01*
X179656762Y-79190639D01*
X179653615Y-79156669D01*
X179597598Y-78959789D01*
X179506358Y-78776555D01*
X179465808Y-78722858D01*
X179383003Y-78613205D01*
X179231733Y-78475304D01*
X179057703Y-78367549D01*
X179057698Y-78367547D01*
X179057697Y-78367546D01*
X179057692Y-78367544D01*
X178866829Y-78293603D01*
X178866830Y-78293603D01*
X178866827Y-78293602D01*
X178866826Y-78293602D01*
X178665617Y-78255990D01*
X178460923Y-78255990D01*
X178259714Y-78293602D01*
X178259709Y-78293603D01*
X178068847Y-78367544D01*
X178068836Y-78367549D01*
X177894806Y-78475304D01*
X177743536Y-78613205D01*
X177620183Y-78776553D01*
X177528941Y-78959791D01*
X177472924Y-79156670D01*
X177454038Y-79360485D01*
X177454038Y-79360494D01*
X167996000Y-79360494D01*
X167996000Y-76820494D01*
X177454038Y-76820494D01*
X177472924Y-77024309D01*
X177472925Y-77024311D01*
X177528942Y-77221191D01*
X177620182Y-77404425D01*
X177620183Y-77404426D01*
X177743536Y-77567774D01*
X177894806Y-77705675D01*
X178068836Y-77813430D01*
X178068838Y-77813430D01*
X178068843Y-77813434D01*
X178259714Y-77887378D01*
X178460923Y-77924990D01*
X178460925Y-77924990D01*
X178665615Y-77924990D01*
X178665617Y-77924990D01*
X178866826Y-77887378D01*
X179057697Y-77813434D01*
X179231732Y-77705676D01*
X179383002Y-77567775D01*
X179506358Y-77404425D01*
X179597598Y-77221191D01*
X179653615Y-77024311D01*
X179672502Y-76820490D01*
X179653615Y-76616669D01*
X179597598Y-76419789D01*
X179506358Y-76236555D01*
X179465808Y-76182858D01*
X179383003Y-76073205D01*
X179231733Y-75935304D01*
X179057703Y-75827549D01*
X179057698Y-75827547D01*
X179057697Y-75827546D01*
X179057692Y-75827544D01*
X178866829Y-75753603D01*
X178866830Y-75753603D01*
X178866827Y-75753602D01*
X178866826Y-75753602D01*
X178665617Y-75715990D01*
X178460923Y-75715990D01*
X178259714Y-75753602D01*
X178259709Y-75753603D01*
X178068847Y-75827544D01*
X178068836Y-75827549D01*
X177894806Y-75935304D01*
X177743536Y-76073205D01*
X177620183Y-76236553D01*
X177528941Y-76419791D01*
X177472924Y-76616670D01*
X177454038Y-76820485D01*
X177454038Y-76820494D01*
X167996000Y-76820494D01*
X167996000Y-73914000D01*
X181258793Y-73914000D01*
X181277568Y-74092639D01*
X181333072Y-74263466D01*
X181333075Y-74263472D01*
X181381092Y-74346639D01*
X181422887Y-74419029D01*
X181543078Y-74552515D01*
X181688396Y-74658095D01*
X181852490Y-74731154D01*
X182028188Y-74768500D01*
X182207812Y-74768500D01*
X182383510Y-74731154D01*
X182547604Y-74658095D01*
X182692922Y-74552515D01*
X182813113Y-74419029D01*
X182902925Y-74263471D01*
X182933946Y-74168000D01*
X189894793Y-74168000D01*
X189913568Y-74346639D01*
X189969072Y-74517466D01*
X189969075Y-74517472D01*
X190050264Y-74658094D01*
X190058887Y-74673029D01*
X190179078Y-74806515D01*
X190324396Y-74912095D01*
X190488490Y-74985154D01*
X190664188Y-75022500D01*
X190843812Y-75022500D01*
X191019510Y-74985154D01*
X191183604Y-74912095D01*
X191328922Y-74806515D01*
X191449113Y-74673029D01*
X191538925Y-74517471D01*
X191539891Y-74514500D01*
X191594431Y-74346639D01*
X191603173Y-74263466D01*
X191613207Y-74168000D01*
X191594431Y-73989361D01*
X191590902Y-73978499D01*
X191538927Y-73818533D01*
X191538924Y-73818527D01*
X191449114Y-73662973D01*
X191449113Y-73662971D01*
X191328922Y-73529485D01*
X191183604Y-73423905D01*
X191019510Y-73350846D01*
X190843812Y-73313500D01*
X190664188Y-73313500D01*
X190488489Y-73350846D01*
X190324392Y-73423907D01*
X190179078Y-73529484D01*
X190058888Y-73662969D01*
X190058885Y-73662973D01*
X189969075Y-73818527D01*
X189969072Y-73818533D01*
X189913568Y-73989360D01*
X189894793Y-74168000D01*
X182933946Y-74168000D01*
X182934911Y-74165029D01*
X182958431Y-74092639D01*
X182964109Y-74038619D01*
X182977207Y-73914000D01*
X182958431Y-73735361D01*
X182934911Y-73662973D01*
X182902927Y-73564533D01*
X182902924Y-73564527D01*
X182813114Y-73408973D01*
X182813113Y-73408971D01*
X182692922Y-73275485D01*
X182547604Y-73169905D01*
X182383510Y-73096846D01*
X182207812Y-73059500D01*
X182028188Y-73059500D01*
X181852489Y-73096846D01*
X181688392Y-73169907D01*
X181543078Y-73275484D01*
X181422888Y-73408969D01*
X181422885Y-73408973D01*
X181333075Y-73564527D01*
X181333072Y-73564533D01*
X181277568Y-73735360D01*
X181258793Y-73914000D01*
X167996000Y-73914000D01*
X167996000Y-70866000D01*
X193958793Y-70866000D01*
X193977568Y-71044639D01*
X194033072Y-71215466D01*
X194033075Y-71215472D01*
X194044616Y-71235461D01*
X194122887Y-71371029D01*
X194243078Y-71504515D01*
X194388396Y-71610095D01*
X194552490Y-71683154D01*
X194728188Y-71720500D01*
X194907812Y-71720500D01*
X195083510Y-71683154D01*
X195247604Y-71610095D01*
X195392922Y-71504515D01*
X195513113Y-71371029D01*
X195602925Y-71215471D01*
X195605678Y-71207000D01*
X195658431Y-71044639D01*
X195659246Y-71036883D01*
X195677207Y-70866000D01*
X195658431Y-70687361D01*
X195629666Y-70598829D01*
X195602927Y-70516533D01*
X195602924Y-70516527D01*
X195524823Y-70381253D01*
X195513113Y-70360971D01*
X195392922Y-70227485D01*
X195323760Y-70177236D01*
X195247604Y-70121905D01*
X195083510Y-70048846D01*
X194907812Y-70011500D01*
X194728188Y-70011500D01*
X194552489Y-70048846D01*
X194388392Y-70121907D01*
X194243078Y-70227484D01*
X194122888Y-70360969D01*
X194122885Y-70360973D01*
X194033075Y-70516527D01*
X194033072Y-70516533D01*
X193977568Y-70687360D01*
X193958793Y-70866000D01*
X167996000Y-70866000D01*
X167996000Y-63751000D01*
X168016002Y-63682879D01*
X168069658Y-63636386D01*
X168122000Y-63625000D01*
X205197822Y-63625000D01*
X205265943Y-63645002D01*
G37*
G04 #@! TD.AperFunction*
G04 #@! TA.AperFunction,Conductor*
G36*
X203275491Y-94657753D02*
G01*
X203371925Y-94678251D01*
X203396977Y-94686391D01*
X203481659Y-94724094D01*
X203487037Y-94726488D01*
X203509850Y-94739659D01*
X203589615Y-94797612D01*
X203609188Y-94815235D01*
X203675155Y-94888499D01*
X203690636Y-94909807D01*
X203739930Y-94995186D01*
X203750644Y-95019249D01*
X203781111Y-95113014D01*
X203786588Y-95138782D01*
X203796892Y-95236829D01*
X203796892Y-95263169D01*
X203786586Y-95361222D01*
X203781110Y-95386986D01*
X203750648Y-95480742D01*
X203739933Y-95504808D01*
X203690636Y-95590192D01*
X203675153Y-95611502D01*
X203609190Y-95684761D01*
X203589615Y-95702386D01*
X203509850Y-95760339D01*
X203487037Y-95773510D01*
X203396972Y-95813609D01*
X203371923Y-95821748D01*
X203302380Y-95836531D01*
X203275493Y-95842246D01*
X203249297Y-95845000D01*
X203150703Y-95845000D01*
X203124505Y-95842246D01*
X203089150Y-95834730D01*
X203028075Y-95821748D01*
X203003026Y-95813609D01*
X202912961Y-95773510D01*
X202890148Y-95760339D01*
X202810383Y-95702386D01*
X202790808Y-95684761D01*
X202724842Y-95611498D01*
X202709362Y-95590192D01*
X202703109Y-95579361D01*
X202660063Y-95504804D01*
X202649352Y-95480745D01*
X202649351Y-95480742D01*
X202618886Y-95386981D01*
X202613412Y-95361228D01*
X202603106Y-95263167D01*
X202603106Y-95236828D01*
X202610577Y-95165753D01*
X202613412Y-95138773D01*
X202618889Y-95113011D01*
X202632950Y-95069734D01*
X202649353Y-95019249D01*
X202660064Y-94995192D01*
X202709361Y-94909807D01*
X202724833Y-94888511D01*
X202790819Y-94815226D01*
X202810388Y-94797607D01*
X202890147Y-94739658D01*
X202912942Y-94726497D01*
X203003033Y-94686385D01*
X203028068Y-94678251D01*
X203124509Y-94657753D01*
X203150705Y-94655000D01*
X203249294Y-94655000D01*
X203275491Y-94657753D01*
G37*
G04 #@! TD.AperFunction*
G04 #@! TA.AperFunction,Conductor*
G36*
X194639491Y-92879753D02*
G01*
X194735925Y-92900251D01*
X194760977Y-92908391D01*
X194846607Y-92946516D01*
X194851037Y-92948488D01*
X194873850Y-92961659D01*
X194953615Y-93019612D01*
X194973188Y-93037235D01*
X195039155Y-93110499D01*
X195054636Y-93131807D01*
X195103930Y-93217186D01*
X195114644Y-93241249D01*
X195145111Y-93335014D01*
X195150588Y-93360782D01*
X195160892Y-93458829D01*
X195160892Y-93485169D01*
X195150586Y-93583222D01*
X195145110Y-93608986D01*
X195114648Y-93702742D01*
X195103933Y-93726808D01*
X195054636Y-93812192D01*
X195039153Y-93833502D01*
X194973190Y-93906761D01*
X194953615Y-93924386D01*
X194873850Y-93982339D01*
X194851037Y-93995510D01*
X194760972Y-94035609D01*
X194735923Y-94043748D01*
X194666380Y-94058531D01*
X194639493Y-94064246D01*
X194613297Y-94067000D01*
X194514703Y-94067000D01*
X194488505Y-94064246D01*
X194453150Y-94056730D01*
X194392075Y-94043748D01*
X194367026Y-94035609D01*
X194276961Y-93995510D01*
X194254148Y-93982339D01*
X194174383Y-93924386D01*
X194154808Y-93906761D01*
X194088842Y-93833498D01*
X194073362Y-93812192D01*
X194067109Y-93801361D01*
X194024063Y-93726804D01*
X194013352Y-93702745D01*
X193989889Y-93630533D01*
X193982886Y-93608981D01*
X193977412Y-93583228D01*
X193967106Y-93485167D01*
X193967106Y-93458828D01*
X193977412Y-93360775D01*
X193982889Y-93335011D01*
X194013352Y-93241253D01*
X194024064Y-93217192D01*
X194073361Y-93131807D01*
X194088833Y-93110511D01*
X194154819Y-93037226D01*
X194174388Y-93019607D01*
X194254147Y-92961658D01*
X194276942Y-92948497D01*
X194367033Y-92908385D01*
X194392068Y-92900251D01*
X194488509Y-92879753D01*
X194514705Y-92877000D01*
X194613294Y-92877000D01*
X194639491Y-92879753D01*
G37*
G04 #@! TD.AperFunction*
G04 #@! TA.AperFunction,Conductor*
G36*
X194639491Y-86275753D02*
G01*
X194735925Y-86296251D01*
X194760976Y-86304391D01*
X194851037Y-86344488D01*
X194873849Y-86357658D01*
X194894430Y-86372611D01*
X194953615Y-86415612D01*
X194973188Y-86433235D01*
X195039155Y-86506499D01*
X195054636Y-86527807D01*
X195103930Y-86613186D01*
X195114644Y-86637249D01*
X195145111Y-86731014D01*
X195150588Y-86756782D01*
X195160892Y-86854829D01*
X195160892Y-86881169D01*
X195150586Y-86979222D01*
X195145110Y-87004986D01*
X195114648Y-87098742D01*
X195103933Y-87122808D01*
X195054636Y-87208192D01*
X195039153Y-87229502D01*
X194973190Y-87302761D01*
X194953615Y-87320386D01*
X194873850Y-87378339D01*
X194851037Y-87391510D01*
X194760972Y-87431609D01*
X194735923Y-87439748D01*
X194666380Y-87454531D01*
X194639493Y-87460246D01*
X194613297Y-87463000D01*
X194514703Y-87463000D01*
X194488505Y-87460246D01*
X194453150Y-87452730D01*
X194392075Y-87439748D01*
X194367026Y-87431609D01*
X194276961Y-87391510D01*
X194254148Y-87378339D01*
X194174383Y-87320386D01*
X194154808Y-87302761D01*
X194088842Y-87229498D01*
X194073362Y-87208192D01*
X194024063Y-87122804D01*
X194013352Y-87098745D01*
X194013351Y-87098742D01*
X193982886Y-87004981D01*
X193977412Y-86979228D01*
X193967106Y-86881167D01*
X193967106Y-86854828D01*
X193977000Y-86760701D01*
X193977412Y-86756773D01*
X193982889Y-86731011D01*
X194013352Y-86637253D01*
X194024064Y-86613192D01*
X194073361Y-86527807D01*
X194088833Y-86506511D01*
X194154819Y-86433226D01*
X194174388Y-86415607D01*
X194254147Y-86357658D01*
X194276942Y-86344497D01*
X194367033Y-86304385D01*
X194392068Y-86296251D01*
X194488509Y-86275753D01*
X194514705Y-86273000D01*
X194613294Y-86273000D01*
X194639491Y-86275753D01*
G37*
G04 #@! TD.AperFunction*
G04 #@! TA.AperFunction,Conductor*
G36*
X198957491Y-81703753D02*
G01*
X199053925Y-81724251D01*
X199078977Y-81732391D01*
X199151499Y-81764680D01*
X199169037Y-81772488D01*
X199191849Y-81785658D01*
X199199161Y-81790971D01*
X199271615Y-81843612D01*
X199291188Y-81861235D01*
X199357155Y-81934499D01*
X199372636Y-81955807D01*
X199421932Y-82041190D01*
X199432646Y-82065254D01*
X199463109Y-82159011D01*
X199468586Y-82184776D01*
X199478892Y-82282828D01*
X199478892Y-82309170D01*
X199468586Y-82407222D01*
X199463110Y-82432986D01*
X199432648Y-82526742D01*
X199421933Y-82550808D01*
X199372636Y-82636192D01*
X199357153Y-82657502D01*
X199291190Y-82730761D01*
X199271615Y-82748386D01*
X199191850Y-82806339D01*
X199169037Y-82819510D01*
X199078972Y-82859609D01*
X199053923Y-82867748D01*
X198984380Y-82882531D01*
X198957493Y-82888246D01*
X198931297Y-82891000D01*
X198832703Y-82891000D01*
X198806505Y-82888246D01*
X198771150Y-82880730D01*
X198710075Y-82867748D01*
X198685026Y-82859609D01*
X198594961Y-82819510D01*
X198572148Y-82806339D01*
X198492383Y-82748386D01*
X198472808Y-82730761D01*
X198459067Y-82715500D01*
X198406842Y-82657498D01*
X198391362Y-82636192D01*
X198342063Y-82550804D01*
X198331352Y-82526745D01*
X198314422Y-82474639D01*
X198300886Y-82432981D01*
X198295412Y-82407228D01*
X198285106Y-82309167D01*
X198285106Y-82282828D01*
X198286146Y-82272940D01*
X198295412Y-82184773D01*
X198300889Y-82159011D01*
X198331352Y-82065253D01*
X198342065Y-82041190D01*
X198391361Y-81955807D01*
X198406833Y-81934511D01*
X198472819Y-81861226D01*
X198492388Y-81843607D01*
X198513042Y-81828601D01*
X198572147Y-81785658D01*
X198594942Y-81772497D01*
X198685033Y-81732385D01*
X198710068Y-81724251D01*
X198806509Y-81703753D01*
X198832705Y-81701000D01*
X198931294Y-81701000D01*
X198957491Y-81703753D01*
G37*
G04 #@! TD.AperFunction*
G04 #@! TA.AperFunction,Conductor*
G36*
X197433491Y-80179753D02*
G01*
X197529925Y-80200251D01*
X197554977Y-80208391D01*
X197638718Y-80245675D01*
X197645037Y-80248488D01*
X197667850Y-80261659D01*
X197747615Y-80319612D01*
X197767188Y-80337235D01*
X197833155Y-80410499D01*
X197848636Y-80431807D01*
X197897930Y-80517186D01*
X197908644Y-80541249D01*
X197939111Y-80635014D01*
X197944588Y-80660782D01*
X197954892Y-80758829D01*
X197954892Y-80785169D01*
X197944586Y-80883222D01*
X197939110Y-80908986D01*
X197908648Y-81002742D01*
X197897933Y-81026808D01*
X197848636Y-81112192D01*
X197833153Y-81133502D01*
X197767190Y-81206761D01*
X197747615Y-81224386D01*
X197667850Y-81282339D01*
X197645037Y-81295510D01*
X197554972Y-81335609D01*
X197529923Y-81343748D01*
X197460380Y-81358531D01*
X197433493Y-81364246D01*
X197407297Y-81367000D01*
X197308703Y-81367000D01*
X197282505Y-81364246D01*
X197247150Y-81356730D01*
X197186075Y-81343748D01*
X197161026Y-81335609D01*
X197070961Y-81295510D01*
X197048148Y-81282339D01*
X196968383Y-81224386D01*
X196948808Y-81206761D01*
X196882842Y-81133498D01*
X196867362Y-81112192D01*
X196818063Y-81026804D01*
X196807352Y-81002745D01*
X196790664Y-80951384D01*
X196776886Y-80908981D01*
X196771412Y-80883228D01*
X196761106Y-80785167D01*
X196761106Y-80758828D01*
X196771412Y-80660775D01*
X196776889Y-80635011D01*
X196807352Y-80541253D01*
X196818064Y-80517192D01*
X196867361Y-80431807D01*
X196882833Y-80410511D01*
X196948819Y-80337226D01*
X196968388Y-80319607D01*
X197048147Y-80261658D01*
X197070942Y-80248497D01*
X197161033Y-80208385D01*
X197186068Y-80200251D01*
X197282509Y-80179753D01*
X197308705Y-80177000D01*
X197407294Y-80177000D01*
X197433491Y-80179753D01*
G37*
G04 #@! TD.AperFunction*
G04 #@! TA.AperFunction,Conductor*
G36*
X202005491Y-80179753D02*
G01*
X202101925Y-80200251D01*
X202126977Y-80208391D01*
X202210718Y-80245675D01*
X202217037Y-80248488D01*
X202239850Y-80261659D01*
X202319615Y-80319612D01*
X202339188Y-80337235D01*
X202405155Y-80410499D01*
X202420636Y-80431807D01*
X202469930Y-80517186D01*
X202480644Y-80541249D01*
X202511111Y-80635014D01*
X202516588Y-80660782D01*
X202526892Y-80758829D01*
X202526892Y-80785169D01*
X202516586Y-80883222D01*
X202511110Y-80908986D01*
X202480648Y-81002742D01*
X202469933Y-81026808D01*
X202420636Y-81112192D01*
X202405153Y-81133502D01*
X202339190Y-81206761D01*
X202319615Y-81224386D01*
X202239850Y-81282339D01*
X202217037Y-81295510D01*
X202126972Y-81335609D01*
X202101923Y-81343748D01*
X202032380Y-81358531D01*
X202005493Y-81364246D01*
X201979297Y-81367000D01*
X201880703Y-81367000D01*
X201854505Y-81364246D01*
X201819150Y-81356730D01*
X201758075Y-81343748D01*
X201733026Y-81335609D01*
X201642961Y-81295510D01*
X201620148Y-81282339D01*
X201540383Y-81224386D01*
X201520808Y-81206761D01*
X201454842Y-81133498D01*
X201439362Y-81112192D01*
X201390063Y-81026804D01*
X201379352Y-81002745D01*
X201362664Y-80951384D01*
X201348886Y-80908981D01*
X201343412Y-80883228D01*
X201333106Y-80785167D01*
X201333106Y-80758828D01*
X201343412Y-80660775D01*
X201348889Y-80635011D01*
X201379352Y-80541253D01*
X201390064Y-80517192D01*
X201439361Y-80431807D01*
X201454833Y-80410511D01*
X201520819Y-80337226D01*
X201540388Y-80319607D01*
X201620147Y-80261658D01*
X201642942Y-80248497D01*
X201733033Y-80208385D01*
X201758068Y-80200251D01*
X201854509Y-80179753D01*
X201880705Y-80177000D01*
X201979294Y-80177000D01*
X202005491Y-80179753D01*
G37*
G04 #@! TD.AperFunction*
G04 #@! TA.AperFunction,Conductor*
G36*
X210254121Y-63774002D02*
G01*
X210300614Y-63827658D01*
X210312000Y-63880000D01*
X210312000Y-64347059D01*
X210295121Y-64410055D01*
X210289077Y-64420522D01*
X210289072Y-64420533D01*
X210233568Y-64591360D01*
X210214793Y-64770000D01*
X210233568Y-64948639D01*
X210289072Y-65119466D01*
X210289074Y-65119470D01*
X210295118Y-65129937D01*
X210312000Y-65192939D01*
X210312000Y-70051808D01*
X210291998Y-70119929D01*
X210275095Y-70140904D01*
X209546930Y-70869068D01*
X209484618Y-70903093D01*
X209431638Y-70903219D01*
X209350582Y-70885990D01*
X209170958Y-70885990D01*
X208995259Y-70923336D01*
X208831162Y-70996397D01*
X208685848Y-71101974D01*
X208565658Y-71235459D01*
X208565655Y-71235463D01*
X208475845Y-71391017D01*
X208475842Y-71391023D01*
X208420338Y-71561850D01*
X208401563Y-71740490D01*
X208421029Y-71925697D01*
X208418718Y-71925939D01*
X208414133Y-71986108D01*
X208385379Y-72030619D01*
X207627049Y-72788949D01*
X207564737Y-72822975D01*
X207564151Y-72823100D01*
X207471267Y-72842843D01*
X207471265Y-72842844D01*
X207471260Y-72842845D01*
X207471260Y-72842846D01*
X207405212Y-72872252D01*
X207307164Y-72915906D01*
X207161848Y-73021484D01*
X207041658Y-73154969D01*
X207041655Y-73154973D01*
X206951845Y-73310527D01*
X206951842Y-73310533D01*
X206896340Y-73481355D01*
X206894968Y-73487813D01*
X206893345Y-73487468D01*
X206869485Y-73545449D01*
X206860290Y-73555708D01*
X205486000Y-74929998D01*
X205486000Y-94782801D01*
X205465998Y-94850922D01*
X205412342Y-94897415D01*
X205342068Y-94907519D01*
X205333807Y-94906049D01*
X205321813Y-94903500D01*
X205321812Y-94903500D01*
X205142188Y-94903500D01*
X204966489Y-94940846D01*
X204802392Y-95013907D01*
X204657078Y-95119484D01*
X204536888Y-95252969D01*
X204536885Y-95252973D01*
X204447075Y-95408527D01*
X204447072Y-95408533D01*
X204391568Y-95579360D01*
X204372793Y-95758000D01*
X204391568Y-95936639D01*
X204447072Y-96107466D01*
X204447075Y-96107472D01*
X204536885Y-96263026D01*
X204536887Y-96263029D01*
X204657078Y-96396515D01*
X204802396Y-96502095D01*
X204863280Y-96529202D01*
X204869324Y-96531893D01*
X204923420Y-96577873D01*
X204944069Y-96645801D01*
X204924717Y-96714109D01*
X204871506Y-96761110D01*
X204869325Y-96762106D01*
X204802395Y-96791905D01*
X204802394Y-96791906D01*
X204657078Y-96897484D01*
X204536888Y-97030969D01*
X204536885Y-97030973D01*
X204447075Y-97186527D01*
X204447072Y-97186533D01*
X204391568Y-97357360D01*
X204372793Y-97536000D01*
X204391568Y-97714639D01*
X204447072Y-97885466D01*
X204447075Y-97885472D01*
X204536885Y-98041026D01*
X204536888Y-98041030D01*
X204657078Y-98174515D01*
X204686737Y-98196064D01*
X204730091Y-98252287D01*
X204736166Y-98323023D01*
X204703034Y-98385815D01*
X204686737Y-98399936D01*
X204657078Y-98421484D01*
X204536888Y-98554969D01*
X204536885Y-98554973D01*
X204447075Y-98710527D01*
X204447072Y-98710533D01*
X204391568Y-98881360D01*
X204372793Y-99060000D01*
X204391568Y-99238639D01*
X204447072Y-99409466D01*
X204447075Y-99409472D01*
X204536885Y-99565026D01*
X204536892Y-99565036D01*
X204578900Y-99611690D01*
X204609618Y-99675697D01*
X204600853Y-99746151D01*
X204555390Y-99800682D01*
X204487663Y-99821977D01*
X204485264Y-99822000D01*
X198341190Y-99822000D01*
X198273069Y-99801998D01*
X198226576Y-99748342D01*
X198215727Y-99684374D01*
X198222462Y-99611690D01*
X198234822Y-99478310D01*
X198215935Y-99274489D01*
X198159918Y-99077609D01*
X198068678Y-98894375D01*
X197975970Y-98771609D01*
X197950880Y-98705193D01*
X197965680Y-98635756D01*
X198015671Y-98585344D01*
X198051943Y-98572097D01*
X198074698Y-98567571D01*
X198158714Y-98511434D01*
X198214852Y-98427416D01*
X198214853Y-98427415D01*
X198229589Y-98353332D01*
X198229590Y-98353325D01*
X198229590Y-97605310D01*
X197568433Y-97605310D01*
X197589485Y-97513074D01*
X197579123Y-97374794D01*
X197569906Y-97351310D01*
X198229589Y-97351310D01*
X198229589Y-96603296D01*
X198229588Y-96603287D01*
X198214852Y-96529204D01*
X198214852Y-96529202D01*
X198158714Y-96445185D01*
X198074696Y-96389047D01*
X198074695Y-96389046D01*
X198000612Y-96374310D01*
X197252590Y-96374310D01*
X197252590Y-97036097D01*
X197194924Y-97018310D01*
X197091116Y-97018310D01*
X196998590Y-97032255D01*
X196998590Y-96374310D01*
X196250576Y-96374310D01*
X196250566Y-96374311D01*
X196176484Y-96389047D01*
X196176482Y-96389047D01*
X196092465Y-96445185D01*
X196036327Y-96529203D01*
X196036326Y-96529204D01*
X196021590Y-96603287D01*
X196021590Y-97351310D01*
X196682747Y-97351310D01*
X196661695Y-97443546D01*
X196672057Y-97581826D01*
X196681274Y-97605310D01*
X196021591Y-97605310D01*
X196021591Y-98353323D01*
X196021592Y-98353335D01*
X196036466Y-98428118D01*
X196030137Y-98498832D01*
X195986582Y-98554898D01*
X195919629Y-98578517D01*
X195850535Y-98562188D01*
X195823792Y-98541792D01*
X195549644Y-98267644D01*
X195515618Y-98205332D01*
X195520683Y-98134517D01*
X195538188Y-98102620D01*
X195568678Y-98062245D01*
X195659918Y-97879011D01*
X195715935Y-97682131D01*
X195734822Y-97478310D01*
X195715935Y-97274489D01*
X195659918Y-97077609D01*
X195568678Y-96894375D01*
X195528128Y-96840678D01*
X195445323Y-96731025D01*
X195294053Y-96593124D01*
X195120023Y-96485369D01*
X195120018Y-96485367D01*
X195120017Y-96485366D01*
X194929149Y-96411423D01*
X194929150Y-96411423D01*
X194929147Y-96411422D01*
X194929146Y-96411422D01*
X194727937Y-96373810D01*
X194523243Y-96373810D01*
X194322034Y-96411422D01*
X194322029Y-96411423D01*
X194131167Y-96485364D01*
X194131159Y-96485368D01*
X193991335Y-96571943D01*
X193922888Y-96590797D01*
X193855113Y-96569653D01*
X193835910Y-96553910D01*
X192532000Y-95250000D01*
X202340793Y-95250000D01*
X202359568Y-95428639D01*
X202415072Y-95599466D01*
X202415075Y-95599472D01*
X202504885Y-95755026D01*
X202504887Y-95755029D01*
X202625078Y-95888515D01*
X202770396Y-95994095D01*
X202934490Y-96067154D01*
X203110188Y-96104500D01*
X203289812Y-96104500D01*
X203465510Y-96067154D01*
X203629604Y-95994095D01*
X203774922Y-95888515D01*
X203895113Y-95755029D01*
X203984925Y-95599471D01*
X203991460Y-95579360D01*
X204040431Y-95428639D01*
X204042545Y-95408527D01*
X204059207Y-95250000D01*
X204040431Y-95071361D01*
X204040431Y-95071360D01*
X203984927Y-94900533D01*
X203984924Y-94900527D01*
X203895114Y-94744973D01*
X203895113Y-94744971D01*
X203774922Y-94611485D01*
X203629604Y-94505905D01*
X203465510Y-94432846D01*
X203289812Y-94395500D01*
X203110188Y-94395500D01*
X202934489Y-94432846D01*
X202770392Y-94505907D01*
X202625078Y-94611484D01*
X202504888Y-94744969D01*
X202504885Y-94744973D01*
X202415075Y-94900527D01*
X202415072Y-94900533D01*
X202359568Y-95071360D01*
X202340793Y-95250000D01*
X192532000Y-95250000D01*
X191806905Y-94524905D01*
X191772879Y-94462593D01*
X191770000Y-94435810D01*
X191770000Y-93472000D01*
X193704793Y-93472000D01*
X193723568Y-93650639D01*
X193779072Y-93821466D01*
X193779075Y-93821472D01*
X193868885Y-93977026D01*
X193868887Y-93977029D01*
X193989078Y-94110515D01*
X194134396Y-94216095D01*
X194298490Y-94289154D01*
X194474188Y-94326500D01*
X194653812Y-94326500D01*
X194829510Y-94289154D01*
X194993604Y-94216095D01*
X195138922Y-94110515D01*
X195259113Y-93977029D01*
X195348925Y-93821471D01*
X195404431Y-93650639D01*
X195423207Y-93472000D01*
X195404431Y-93293361D01*
X195404431Y-93293360D01*
X195348927Y-93122533D01*
X195348924Y-93122527D01*
X195259114Y-92966973D01*
X195259113Y-92966971D01*
X195138922Y-92833485D01*
X194993604Y-92727905D01*
X194829510Y-92654846D01*
X194653812Y-92617500D01*
X194474188Y-92617500D01*
X194298489Y-92654846D01*
X194134392Y-92727907D01*
X193989078Y-92833484D01*
X193868888Y-92966969D01*
X193868885Y-92966973D01*
X193779075Y-93122527D01*
X193779072Y-93122533D01*
X193723568Y-93293360D01*
X193704793Y-93472000D01*
X191770000Y-93472000D01*
X191770000Y-86868000D01*
X193704793Y-86868000D01*
X193723568Y-87046639D01*
X193779072Y-87217466D01*
X193779075Y-87217472D01*
X193868885Y-87373026D01*
X193868887Y-87373029D01*
X193989078Y-87506515D01*
X194134396Y-87612095D01*
X194298490Y-87685154D01*
X194474188Y-87722500D01*
X194653812Y-87722500D01*
X194829510Y-87685154D01*
X194993604Y-87612095D01*
X195138922Y-87506515D01*
X195259113Y-87373029D01*
X195348925Y-87217471D01*
X195404431Y-87046639D01*
X195423207Y-86868000D01*
X195404431Y-86689361D01*
X195404431Y-86689360D01*
X195348927Y-86518533D01*
X195348924Y-86518527D01*
X195259114Y-86362973D01*
X195259113Y-86362971D01*
X195138922Y-86229485D01*
X194993604Y-86123905D01*
X194829510Y-86050846D01*
X194653812Y-86013500D01*
X194474188Y-86013500D01*
X194298489Y-86050846D01*
X194134392Y-86123907D01*
X193989078Y-86229484D01*
X193868888Y-86362969D01*
X193868885Y-86362973D01*
X193779075Y-86518527D01*
X193779072Y-86518533D01*
X193723568Y-86689360D01*
X193704793Y-86868000D01*
X191770000Y-86868000D01*
X191770000Y-84328000D01*
X200816793Y-84328000D01*
X200835568Y-84506639D01*
X200891072Y-84677466D01*
X200891075Y-84677472D01*
X200907076Y-84705186D01*
X200980887Y-84833029D01*
X201101078Y-84966515D01*
X201246396Y-85072095D01*
X201410490Y-85145154D01*
X201586188Y-85182500D01*
X201765812Y-85182500D01*
X201941510Y-85145154D01*
X202105604Y-85072095D01*
X202250922Y-84966515D01*
X202371113Y-84833029D01*
X202460925Y-84677471D01*
X202516431Y-84506639D01*
X202535207Y-84328000D01*
X202516431Y-84149361D01*
X202516431Y-84149360D01*
X202460927Y-83978533D01*
X202460924Y-83978527D01*
X202371114Y-83822973D01*
X202371113Y-83822971D01*
X202250922Y-83689485D01*
X202105604Y-83583905D01*
X201941510Y-83510846D01*
X201765812Y-83473500D01*
X201586188Y-83473500D01*
X201410489Y-83510846D01*
X201246392Y-83583907D01*
X201101078Y-83689484D01*
X200980888Y-83822969D01*
X200980885Y-83822973D01*
X200891075Y-83978527D01*
X200891072Y-83978533D01*
X200835568Y-84149360D01*
X200816793Y-84328000D01*
X191770000Y-84328000D01*
X191770000Y-82296000D01*
X198022793Y-82296000D01*
X198041568Y-82474639D01*
X198097072Y-82645466D01*
X198097075Y-82645472D01*
X198159222Y-82753112D01*
X198186887Y-82801029D01*
X198307078Y-82934515D01*
X198452396Y-83040095D01*
X198616490Y-83113154D01*
X198792188Y-83150500D01*
X198971812Y-83150500D01*
X199147510Y-83113154D01*
X199311604Y-83040095D01*
X199456922Y-82934515D01*
X199577113Y-82801029D01*
X199666925Y-82645471D01*
X199722431Y-82474639D01*
X199741207Y-82296000D01*
X199722431Y-82117361D01*
X199693164Y-82027285D01*
X199666927Y-81946533D01*
X199666924Y-81946527D01*
X199577114Y-81790973D01*
X199577113Y-81790971D01*
X199456922Y-81657485D01*
X199311604Y-81551905D01*
X199147510Y-81478846D01*
X198971812Y-81441500D01*
X198792188Y-81441500D01*
X198616489Y-81478846D01*
X198452392Y-81551907D01*
X198307078Y-81657484D01*
X198186888Y-81790969D01*
X198186885Y-81790973D01*
X198097075Y-81946527D01*
X198097072Y-81946533D01*
X198041568Y-82117360D01*
X198022793Y-82296000D01*
X191770000Y-82296000D01*
X191770000Y-80772000D01*
X196498793Y-80772000D01*
X196517568Y-80950639D01*
X196573072Y-81121466D01*
X196573075Y-81121472D01*
X196662885Y-81277026D01*
X196662887Y-81277029D01*
X196783078Y-81410515D01*
X196928396Y-81516095D01*
X197092490Y-81589154D01*
X197268188Y-81626500D01*
X197447812Y-81626500D01*
X197623510Y-81589154D01*
X197787604Y-81516095D01*
X197932922Y-81410515D01*
X198053113Y-81277029D01*
X198142925Y-81121471D01*
X198198431Y-80950639D01*
X198217207Y-80772000D01*
X201070793Y-80772000D01*
X201089568Y-80950639D01*
X201145072Y-81121466D01*
X201145075Y-81121472D01*
X201234885Y-81277026D01*
X201234887Y-81277029D01*
X201355078Y-81410515D01*
X201500396Y-81516095D01*
X201664490Y-81589154D01*
X201840188Y-81626500D01*
X202019812Y-81626500D01*
X202195510Y-81589154D01*
X202359604Y-81516095D01*
X202504922Y-81410515D01*
X202625113Y-81277029D01*
X202714925Y-81121471D01*
X202770431Y-80950639D01*
X202789207Y-80772000D01*
X202770431Y-80593361D01*
X202770431Y-80593360D01*
X202714927Y-80422533D01*
X202714924Y-80422527D01*
X202625114Y-80266973D01*
X202625113Y-80266971D01*
X202504922Y-80133485D01*
X202359604Y-80027905D01*
X202195510Y-79954846D01*
X202019812Y-79917500D01*
X201840188Y-79917500D01*
X201664489Y-79954846D01*
X201500392Y-80027907D01*
X201355078Y-80133484D01*
X201234888Y-80266969D01*
X201234885Y-80266973D01*
X201145075Y-80422527D01*
X201145072Y-80422533D01*
X201089568Y-80593360D01*
X201070793Y-80772000D01*
X198217207Y-80772000D01*
X198198431Y-80593361D01*
X198198431Y-80593360D01*
X198142927Y-80422533D01*
X198142924Y-80422527D01*
X198053114Y-80266973D01*
X198053113Y-80266971D01*
X197932922Y-80133485D01*
X197787604Y-80027905D01*
X197623510Y-79954846D01*
X197447812Y-79917500D01*
X197268188Y-79917500D01*
X197092489Y-79954846D01*
X196928392Y-80027907D01*
X196783078Y-80133484D01*
X196662888Y-80266969D01*
X196662885Y-80266973D01*
X196573075Y-80422527D01*
X196573072Y-80422533D01*
X196517568Y-80593360D01*
X196498793Y-80772000D01*
X191770000Y-80772000D01*
X191770000Y-77776189D01*
X191790002Y-77708068D01*
X191806900Y-77687099D01*
X200613446Y-68880553D01*
X200675754Y-68846530D01*
X200746569Y-68851595D01*
X200803405Y-68894142D01*
X200828216Y-68960662D01*
X200827847Y-68982821D01*
X200816793Y-69087999D01*
X200835568Y-69266639D01*
X200891072Y-69437466D01*
X200891075Y-69437472D01*
X200980885Y-69593026D01*
X200980888Y-69593030D01*
X201101078Y-69726515D01*
X201130737Y-69748064D01*
X201174091Y-69804287D01*
X201180166Y-69875023D01*
X201147034Y-69937815D01*
X201130737Y-69951936D01*
X201101078Y-69973484D01*
X200980888Y-70106969D01*
X200980885Y-70106973D01*
X200891075Y-70262527D01*
X200891072Y-70262533D01*
X200835568Y-70433360D01*
X200816793Y-70612000D01*
X200835568Y-70790639D01*
X200891072Y-70961466D01*
X200891075Y-70961472D01*
X200980885Y-71117026D01*
X200980887Y-71117029D01*
X201101078Y-71250515D01*
X201246396Y-71356095D01*
X201410490Y-71429154D01*
X201586188Y-71466500D01*
X201765812Y-71466500D01*
X201941510Y-71429154D01*
X202105604Y-71356095D01*
X202250922Y-71250515D01*
X202371113Y-71117029D01*
X202460925Y-70961471D01*
X202516431Y-70790639D01*
X202535207Y-70612000D01*
X202516431Y-70433361D01*
X202516431Y-70433360D01*
X202460927Y-70262533D01*
X202460924Y-70262527D01*
X202371114Y-70106973D01*
X202371113Y-70106971D01*
X202250922Y-69973485D01*
X202221261Y-69951935D01*
X202177909Y-69895715D01*
X202171832Y-69824979D01*
X202204964Y-69762187D01*
X202221262Y-69748064D01*
X202250922Y-69726515D01*
X202371113Y-69593029D01*
X202460925Y-69437471D01*
X202516431Y-69266639D01*
X202535207Y-69088000D01*
X202516431Y-68909361D01*
X202497662Y-68851595D01*
X202460927Y-68738533D01*
X202460924Y-68738527D01*
X202371114Y-68582973D01*
X202371113Y-68582971D01*
X202250922Y-68449485D01*
X202221261Y-68427935D01*
X202177909Y-68371715D01*
X202171832Y-68300979D01*
X202204964Y-68238187D01*
X202221258Y-68224066D01*
X202250922Y-68202515D01*
X202371113Y-68069029D01*
X202460925Y-67913471D01*
X202492911Y-67815029D01*
X202516431Y-67742639D01*
X202525172Y-67659471D01*
X202535207Y-67564000D01*
X202516431Y-67385361D01*
X202460925Y-67214529D01*
X202442848Y-67183220D01*
X202426111Y-67114226D01*
X202449331Y-67047134D01*
X202462862Y-67031137D01*
X205703095Y-63790905D01*
X205765407Y-63756879D01*
X205792190Y-63754000D01*
X210186000Y-63754000D01*
X210254121Y-63774002D01*
G37*
G04 #@! TD.AperFunction*
M02*
