G04 #@! TF.GenerationSoftware,KiCad,Pcbnew,7.0.10*
G04 #@! TF.CreationDate,2024-03-12T12:36:54-06:00*
G04 #@! TF.ProjectId,ARXCarrierBoard,41525843-6172-4726-9965-72426f617264,rev?*
G04 #@! TF.SameCoordinates,Original*
G04 #@! TF.FileFunction,Copper,L4,Bot*
G04 #@! TF.FilePolarity,Positive*
%FSLAX46Y46*%
G04 Gerber Fmt 4.6, Leading zero omitted, Abs format (unit mm)*
G04 Created by KiCad (PCBNEW 7.0.10) date 2024-03-12 12:36:54*
%MOMM*%
%LPD*%
G01*
G04 APERTURE LIST*
G04 #@! TA.AperFunction,ComponentPad*
%ADD10R,1.700000X1.700000*%
G04 #@! TD*
G04 #@! TA.AperFunction,ComponentPad*
%ADD11O,1.700000X1.700000*%
G04 #@! TD*
G04 #@! TA.AperFunction,ComponentPad*
%ADD12C,1.700000*%
G04 #@! TD*
G04 #@! TA.AperFunction,ComponentPad*
%ADD13C,3.500000*%
G04 #@! TD*
G04 #@! TA.AperFunction,ViaPad*
%ADD14C,1.200000*%
G04 #@! TD*
G04 #@! TA.AperFunction,ViaPad*
%ADD15C,3.200000*%
G04 #@! TD*
G04 #@! TA.AperFunction,Conductor*
%ADD16C,0.500000*%
G04 #@! TD*
G04 APERTURE END LIST*
D10*
X210566000Y-76200000D03*
D11*
X213106000Y-76200000D03*
X210566000Y-78740000D03*
X213106000Y-78740000D03*
X210566000Y-81280000D03*
X213106000Y-81280000D03*
X210566000Y-83820000D03*
X213106000Y-83820000D03*
D10*
X197125590Y-97478310D03*
D12*
X194625590Y-97478310D03*
X194625590Y-99478310D03*
X197125590Y-99478310D03*
D13*
X201895590Y-102188310D03*
X189855590Y-102188310D03*
D10*
X178563270Y-81900490D03*
D11*
X178563270Y-79360490D03*
X178563270Y-76820490D03*
D10*
X178563270Y-93980000D03*
D11*
X178563270Y-91440000D03*
X178563270Y-88900000D03*
X178563270Y-86360000D03*
D14*
X184912000Y-90170000D03*
X205232000Y-99060000D03*
X198374000Y-69596000D03*
X201676000Y-69088000D03*
X189738000Y-80772000D03*
X197358000Y-80772000D03*
X211074000Y-64770000D03*
X177292000Y-77978000D03*
X189738000Y-78105000D03*
X196088000Y-67310000D03*
X180594000Y-75946000D03*
X214884000Y-77470000D03*
X205232000Y-95758000D03*
X179832000Y-90170000D03*
D15*
X220980000Y-66294000D03*
D14*
X185674000Y-80772000D03*
X203200000Y-95250000D03*
X214884000Y-82550000D03*
X212344000Y-66548000D03*
X186690000Y-87122000D03*
X182118000Y-92202000D03*
X201676000Y-70612000D03*
D15*
X220980000Y-102362000D03*
D14*
X212344000Y-69088000D03*
X180340000Y-93980000D03*
X182118000Y-88138000D03*
X201930000Y-80772000D03*
X194564000Y-93472000D03*
X185674000Y-75438000D03*
X185928000Y-78105000D03*
X190754000Y-90932000D03*
X196088000Y-69596000D03*
X201676000Y-67564000D03*
X190754000Y-89408000D03*
X214884000Y-85344000D03*
X205232000Y-97536000D03*
X180594000Y-80264000D03*
X214884000Y-80010000D03*
X180340000Y-86360000D03*
X194564000Y-86868000D03*
D15*
X170688000Y-102362000D03*
X170688000Y-66294000D03*
D14*
X198882000Y-82296000D03*
X198374000Y-67310000D03*
X190754000Y-74168000D03*
X215646000Y-88392000D03*
X188720730Y-95758000D03*
X187196730Y-93980000D03*
X209260770Y-73660000D03*
X207736770Y-73660000D03*
X182372000Y-84328000D03*
X209260770Y-71740490D03*
X182118000Y-82296000D03*
X187196730Y-95758000D03*
X210820000Y-73660000D03*
X182118000Y-73914000D03*
X199665590Y-95885000D03*
X206187370Y-64755490D03*
X199665590Y-99060000D03*
X203200000Y-99060000D03*
X203200000Y-97478310D03*
X199665590Y-97478310D03*
X209260770Y-66660490D03*
X201358923Y-97478310D03*
X209260770Y-69200490D03*
X207711370Y-64755490D03*
X192786000Y-82804000D03*
X209235370Y-64755490D03*
X194564000Y-80772000D03*
X192786000Y-80772000D03*
X201358923Y-99060000D03*
X194818000Y-70866000D03*
X201676000Y-84328000D03*
D16*
X190754000Y-74168000D02*
X191486000Y-74900000D01*
X191486000Y-74900000D02*
X211806000Y-74900000D01*
X211806000Y-74900000D02*
X213106000Y-76200000D01*
X177038000Y-90425270D02*
X177038000Y-92454730D01*
X177038000Y-92454730D02*
X178563270Y-93980000D01*
X178563270Y-88900000D02*
X177038000Y-90425270D01*
X190246000Y-70866000D02*
X188722000Y-72390000D01*
X201676000Y-83058000D02*
X201676000Y-84328000D01*
X194818000Y-70866000D02*
X190246000Y-70866000D01*
X191101000Y-77055000D02*
X195673000Y-77055000D01*
X188722000Y-74676000D02*
X191101000Y-77055000D01*
X188722000Y-72390000D02*
X188722000Y-74676000D01*
X195673000Y-77055000D02*
X201676000Y-83058000D01*
G04 #@! TA.AperFunction,Conductor*
G36*
X203275491Y-94657753D02*
G01*
X203371925Y-94678251D01*
X203396976Y-94686391D01*
X203487037Y-94726488D01*
X203509850Y-94739659D01*
X203589615Y-94797612D01*
X203609188Y-94815235D01*
X203675155Y-94888499D01*
X203690636Y-94909807D01*
X203739932Y-94995190D01*
X203750646Y-95019254D01*
X203781109Y-95113011D01*
X203786586Y-95138776D01*
X203796892Y-95236828D01*
X203796892Y-95263170D01*
X203786586Y-95361222D01*
X203781110Y-95386986D01*
X203750648Y-95480742D01*
X203739933Y-95504808D01*
X203690636Y-95590192D01*
X203675153Y-95611502D01*
X203609190Y-95684761D01*
X203589615Y-95702386D01*
X203509850Y-95760339D01*
X203487037Y-95773510D01*
X203396972Y-95813609D01*
X203371923Y-95821748D01*
X203302380Y-95836531D01*
X203275493Y-95842246D01*
X203249297Y-95845000D01*
X203150703Y-95845000D01*
X203124505Y-95842246D01*
X203089150Y-95834730D01*
X203028075Y-95821748D01*
X203003026Y-95813609D01*
X202912961Y-95773510D01*
X202890148Y-95760339D01*
X202810383Y-95702386D01*
X202790808Y-95684761D01*
X202724842Y-95611498D01*
X202709362Y-95590192D01*
X202660063Y-95504804D01*
X202649352Y-95480745D01*
X202649351Y-95480742D01*
X202618886Y-95386981D01*
X202613412Y-95361228D01*
X202603106Y-95263167D01*
X202603106Y-95236828D01*
X202607567Y-95194391D01*
X202613412Y-95138773D01*
X202618889Y-95113011D01*
X202632950Y-95069734D01*
X202649353Y-95019249D01*
X202660065Y-94995190D01*
X202709361Y-94909807D01*
X202724833Y-94888511D01*
X202790819Y-94815226D01*
X202810388Y-94797607D01*
X202890147Y-94739658D01*
X202912942Y-94726497D01*
X203003033Y-94686385D01*
X203028068Y-94678251D01*
X203124509Y-94657753D01*
X203150705Y-94655000D01*
X203249294Y-94655000D01*
X203275491Y-94657753D01*
G37*
G04 #@! TD.AperFunction*
G04 #@! TA.AperFunction,Conductor*
G36*
X194639491Y-92879753D02*
G01*
X194735925Y-92900251D01*
X194760977Y-92908391D01*
X194846607Y-92946516D01*
X194851037Y-92948488D01*
X194873850Y-92961659D01*
X194953615Y-93019612D01*
X194973188Y-93037235D01*
X195039155Y-93110499D01*
X195054636Y-93131807D01*
X195103930Y-93217186D01*
X195114644Y-93241249D01*
X195145111Y-93335014D01*
X195150588Y-93360782D01*
X195160892Y-93458829D01*
X195160892Y-93485169D01*
X195150586Y-93583222D01*
X195145110Y-93608986D01*
X195114648Y-93702742D01*
X195103933Y-93726808D01*
X195054636Y-93812192D01*
X195039153Y-93833502D01*
X194973190Y-93906761D01*
X194953615Y-93924386D01*
X194873850Y-93982339D01*
X194851037Y-93995510D01*
X194760972Y-94035609D01*
X194735923Y-94043748D01*
X194666380Y-94058531D01*
X194639493Y-94064246D01*
X194613297Y-94067000D01*
X194514703Y-94067000D01*
X194488505Y-94064246D01*
X194453150Y-94056730D01*
X194392075Y-94043748D01*
X194367026Y-94035609D01*
X194276961Y-93995510D01*
X194254148Y-93982339D01*
X194174383Y-93924386D01*
X194154808Y-93906761D01*
X194088842Y-93833498D01*
X194073362Y-93812192D01*
X194024063Y-93726804D01*
X194013352Y-93702745D01*
X194013351Y-93702742D01*
X193982886Y-93608981D01*
X193977412Y-93583228D01*
X193967106Y-93485167D01*
X193967106Y-93458828D01*
X193977412Y-93360775D01*
X193982889Y-93335011D01*
X194001879Y-93276565D01*
X194013353Y-93241249D01*
X194024064Y-93217192D01*
X194073361Y-93131807D01*
X194088833Y-93110511D01*
X194154819Y-93037226D01*
X194174388Y-93019607D01*
X194254147Y-92961658D01*
X194276942Y-92948497D01*
X194367033Y-92908385D01*
X194392068Y-92900251D01*
X194488509Y-92879753D01*
X194514705Y-92877000D01*
X194613294Y-92877000D01*
X194639491Y-92879753D01*
G37*
G04 #@! TD.AperFunction*
G04 #@! TA.AperFunction,Conductor*
G36*
X182193491Y-91609753D02*
G01*
X182289925Y-91630251D01*
X182314976Y-91638391D01*
X182405037Y-91678488D01*
X182427850Y-91691659D01*
X182507615Y-91749612D01*
X182527188Y-91767235D01*
X182593155Y-91840499D01*
X182608636Y-91861807D01*
X182657930Y-91947186D01*
X182668644Y-91971249D01*
X182699111Y-92065014D01*
X182704588Y-92090782D01*
X182714892Y-92188829D01*
X182714892Y-92215169D01*
X182704586Y-92313222D01*
X182699110Y-92338986D01*
X182670824Y-92426046D01*
X182668648Y-92432742D01*
X182657933Y-92456808D01*
X182608636Y-92542192D01*
X182593153Y-92563502D01*
X182527190Y-92636761D01*
X182507615Y-92654386D01*
X182427850Y-92712339D01*
X182405037Y-92725510D01*
X182314972Y-92765609D01*
X182289923Y-92773748D01*
X182232499Y-92785955D01*
X182193493Y-92794246D01*
X182167297Y-92797000D01*
X182068703Y-92797000D01*
X182042505Y-92794246D01*
X182007150Y-92786730D01*
X181946075Y-92773748D01*
X181921026Y-92765609D01*
X181830961Y-92725510D01*
X181808148Y-92712339D01*
X181728383Y-92654386D01*
X181708808Y-92636761D01*
X181674201Y-92598326D01*
X181642842Y-92563498D01*
X181627362Y-92542192D01*
X181578063Y-92456804D01*
X181567352Y-92432745D01*
X181567351Y-92432742D01*
X181536886Y-92338981D01*
X181531412Y-92313228D01*
X181521106Y-92215167D01*
X181521106Y-92188828D01*
X181521269Y-92187285D01*
X181531412Y-92090773D01*
X181536889Y-92065011D01*
X181567352Y-91971253D01*
X181578064Y-91947192D01*
X181627361Y-91861807D01*
X181642833Y-91840511D01*
X181708819Y-91767226D01*
X181728388Y-91749607D01*
X181808147Y-91691658D01*
X181830942Y-91678497D01*
X181921033Y-91638385D01*
X181946068Y-91630251D01*
X182042509Y-91609753D01*
X182068705Y-91607000D01*
X182167294Y-91607000D01*
X182193491Y-91609753D01*
G37*
G04 #@! TD.AperFunction*
G04 #@! TA.AperFunction,Conductor*
G36*
X184987491Y-89577753D02*
G01*
X185083925Y-89598251D01*
X185108976Y-89606391D01*
X185199037Y-89646488D01*
X185221850Y-89659659D01*
X185301615Y-89717612D01*
X185321188Y-89735235D01*
X185387155Y-89808499D01*
X185402636Y-89829807D01*
X185451932Y-89915190D01*
X185462646Y-89939254D01*
X185493109Y-90033011D01*
X185498586Y-90058776D01*
X185508892Y-90156828D01*
X185508892Y-90183170D01*
X185498586Y-90281222D01*
X185493110Y-90306986D01*
X185462648Y-90400742D01*
X185451933Y-90424808D01*
X185402636Y-90510192D01*
X185387153Y-90531502D01*
X185321190Y-90604761D01*
X185301615Y-90622386D01*
X185221850Y-90680339D01*
X185199037Y-90693510D01*
X185108972Y-90733609D01*
X185083923Y-90741748D01*
X185014380Y-90756531D01*
X184987493Y-90762246D01*
X184961297Y-90765000D01*
X184862703Y-90765000D01*
X184836505Y-90762246D01*
X184801150Y-90754730D01*
X184740075Y-90741748D01*
X184715026Y-90733609D01*
X184624961Y-90693510D01*
X184602148Y-90680339D01*
X184522383Y-90622386D01*
X184502808Y-90604761D01*
X184436842Y-90531498D01*
X184421362Y-90510192D01*
X184372063Y-90424804D01*
X184361352Y-90400745D01*
X184352374Y-90373113D01*
X184330886Y-90306981D01*
X184325412Y-90281228D01*
X184315106Y-90183167D01*
X184315106Y-90156828D01*
X184320185Y-90108511D01*
X184325412Y-90058773D01*
X184330889Y-90033011D01*
X184331808Y-90030182D01*
X184361353Y-89939249D01*
X184372065Y-89915190D01*
X184421361Y-89829807D01*
X184436833Y-89808511D01*
X184502819Y-89735226D01*
X184522388Y-89717607D01*
X184602147Y-89659658D01*
X184624942Y-89646497D01*
X184715033Y-89606385D01*
X184740068Y-89598251D01*
X184836509Y-89577753D01*
X184862705Y-89575000D01*
X184961294Y-89575000D01*
X184987491Y-89577753D01*
G37*
G04 #@! TD.AperFunction*
G04 #@! TA.AperFunction,Conductor*
G36*
X182193491Y-87545753D02*
G01*
X182289925Y-87566251D01*
X182314976Y-87574391D01*
X182405037Y-87614488D01*
X182427849Y-87627658D01*
X182448430Y-87642611D01*
X182507615Y-87685612D01*
X182527188Y-87703235D01*
X182593155Y-87776499D01*
X182608636Y-87797807D01*
X182657930Y-87883186D01*
X182668644Y-87907249D01*
X182699111Y-88001014D01*
X182704588Y-88026782D01*
X182714892Y-88124829D01*
X182714892Y-88151169D01*
X182704586Y-88249222D01*
X182699110Y-88274986D01*
X182668648Y-88368742D01*
X182657933Y-88392808D01*
X182608636Y-88478192D01*
X182593153Y-88499502D01*
X182527190Y-88572761D01*
X182507615Y-88590386D01*
X182427850Y-88648339D01*
X182405037Y-88661510D01*
X182314972Y-88701609D01*
X182289923Y-88709748D01*
X182220380Y-88724531D01*
X182193493Y-88730246D01*
X182167297Y-88733000D01*
X182068703Y-88733000D01*
X182042505Y-88730246D01*
X182007150Y-88722730D01*
X181946075Y-88709748D01*
X181921026Y-88701609D01*
X181830961Y-88661510D01*
X181808148Y-88648339D01*
X181728383Y-88590386D01*
X181708808Y-88572761D01*
X181642842Y-88499498D01*
X181627362Y-88478192D01*
X181578063Y-88392804D01*
X181567352Y-88368745D01*
X181567351Y-88368742D01*
X181536886Y-88274981D01*
X181531412Y-88249228D01*
X181521106Y-88151167D01*
X181521106Y-88124828D01*
X181523966Y-88097623D01*
X181531412Y-88026773D01*
X181536889Y-88001011D01*
X181567352Y-87907253D01*
X181578064Y-87883192D01*
X181627361Y-87797807D01*
X181642833Y-87776511D01*
X181708819Y-87703226D01*
X181728388Y-87685607D01*
X181808147Y-87627658D01*
X181830942Y-87614497D01*
X181921033Y-87574385D01*
X181946068Y-87566251D01*
X182042509Y-87545753D01*
X182068705Y-87543000D01*
X182167294Y-87543000D01*
X182193491Y-87545753D01*
G37*
G04 #@! TD.AperFunction*
G04 #@! TA.AperFunction,Conductor*
G36*
X185749491Y-80179753D02*
G01*
X185845925Y-80200251D01*
X185870977Y-80208391D01*
X185954718Y-80245675D01*
X185961037Y-80248488D01*
X185983849Y-80261658D01*
X185991160Y-80266970D01*
X186063615Y-80319612D01*
X186083188Y-80337235D01*
X186149156Y-80410500D01*
X186164637Y-80431808D01*
X186230146Y-80545272D01*
X186254775Y-80580744D01*
X186254792Y-80580766D01*
X186281376Y-80612962D01*
X186291555Y-80624570D01*
X186291563Y-80624577D01*
X186354296Y-80669815D01*
X186397850Y-80725882D01*
X186404178Y-80796596D01*
X186371270Y-80859506D01*
X186348088Y-80878415D01*
X186327194Y-80891667D01*
X186327192Y-80891669D01*
X186275807Y-80940662D01*
X186230149Y-80998720D01*
X186230148Y-80998721D01*
X186164634Y-81112194D01*
X186149151Y-81133504D01*
X186083190Y-81206761D01*
X186063615Y-81224386D01*
X185983850Y-81282339D01*
X185961037Y-81295510D01*
X185870972Y-81335609D01*
X185845923Y-81343748D01*
X185776380Y-81358531D01*
X185749493Y-81364246D01*
X185723297Y-81367000D01*
X185624703Y-81367000D01*
X185598505Y-81364246D01*
X185563150Y-81356730D01*
X185502075Y-81343748D01*
X185477026Y-81335609D01*
X185386961Y-81295510D01*
X185364148Y-81282339D01*
X185284383Y-81224386D01*
X185264808Y-81206761D01*
X185198842Y-81133498D01*
X185183364Y-81112195D01*
X185134063Y-81026804D01*
X185123352Y-81002745D01*
X185092886Y-80908981D01*
X185087412Y-80883228D01*
X185077106Y-80785167D01*
X185077106Y-80758828D01*
X185077595Y-80754183D01*
X185087412Y-80660773D01*
X185092889Y-80635011D01*
X185096279Y-80624577D01*
X185123353Y-80541249D01*
X185134064Y-80517192D01*
X185183359Y-80431809D01*
X185198833Y-80410511D01*
X185264819Y-80337226D01*
X185284388Y-80319607D01*
X185364147Y-80261658D01*
X185386942Y-80248497D01*
X185477033Y-80208385D01*
X185502068Y-80200251D01*
X185598509Y-80179753D01*
X185624705Y-80177000D01*
X185723294Y-80177000D01*
X185749491Y-80179753D01*
G37*
G04 #@! TD.AperFunction*
G04 #@! TA.AperFunction,Conductor*
G36*
X185749491Y-74845753D02*
G01*
X185845925Y-74866251D01*
X185870977Y-74874391D01*
X185955659Y-74912094D01*
X185961037Y-74914488D01*
X185983850Y-74927659D01*
X186063615Y-74985612D01*
X186083188Y-75003235D01*
X186149156Y-75076500D01*
X186164637Y-75097808D01*
X186230146Y-75211272D01*
X186254775Y-75246744D01*
X186254792Y-75246766D01*
X186281376Y-75278962D01*
X186291555Y-75290570D01*
X186291563Y-75290577D01*
X186354296Y-75335815D01*
X186397850Y-75391882D01*
X186404178Y-75462596D01*
X186371270Y-75525506D01*
X186348088Y-75544415D01*
X186327194Y-75557667D01*
X186327192Y-75557669D01*
X186275807Y-75606662D01*
X186230149Y-75664720D01*
X186230148Y-75664721D01*
X186164634Y-75778194D01*
X186149151Y-75799504D01*
X186083190Y-75872761D01*
X186063615Y-75890386D01*
X185983850Y-75948339D01*
X185961037Y-75961510D01*
X185870972Y-76001609D01*
X185845923Y-76009748D01*
X185776380Y-76024531D01*
X185749493Y-76030246D01*
X185723297Y-76033000D01*
X185624703Y-76033000D01*
X185598505Y-76030246D01*
X185563150Y-76022730D01*
X185502075Y-76009748D01*
X185477026Y-76001609D01*
X185386961Y-75961510D01*
X185364148Y-75948339D01*
X185284383Y-75890386D01*
X185264808Y-75872761D01*
X185198842Y-75799498D01*
X185183364Y-75778195D01*
X185134063Y-75692804D01*
X185123352Y-75668745D01*
X185122800Y-75667046D01*
X185092886Y-75574981D01*
X185087412Y-75549228D01*
X185077106Y-75451167D01*
X185077106Y-75424828D01*
X185077141Y-75424502D01*
X185087412Y-75326773D01*
X185092889Y-75301011D01*
X185123353Y-75207249D01*
X185134064Y-75183192D01*
X185183359Y-75097809D01*
X185198833Y-75076511D01*
X185264819Y-75003226D01*
X185284388Y-74985607D01*
X185364147Y-74927658D01*
X185386942Y-74914497D01*
X185477033Y-74874385D01*
X185502068Y-74866251D01*
X185598509Y-74845753D01*
X185624705Y-74843000D01*
X185723294Y-74843000D01*
X185749491Y-74845753D01*
G37*
G04 #@! TD.AperFunction*
G04 #@! TA.AperFunction,Conductor*
G36*
X223715621Y-63645002D02*
G01*
X223762114Y-63698658D01*
X223773500Y-63751000D01*
X223773500Y-104974000D01*
X223753498Y-105042121D01*
X223699842Y-105088614D01*
X223647500Y-105100000D01*
X168122000Y-105100000D01*
X168053879Y-105079998D01*
X168007386Y-105026342D01*
X167996000Y-104974000D01*
X167996000Y-102188310D01*
X187846471Y-102188310D01*
X187866920Y-102474233D01*
X187927854Y-102754344D01*
X188028030Y-103022926D01*
X188165414Y-103274525D01*
X188270193Y-103414493D01*
X188270194Y-103414494D01*
X188871969Y-102812719D01*
X188921917Y-102893387D01*
X189067372Y-103052944D01*
X189228492Y-103174615D01*
X188629404Y-103773704D01*
X188629405Y-103773705D01*
X188769374Y-103878486D01*
X189020973Y-104015869D01*
X189020972Y-104015869D01*
X189289555Y-104116045D01*
X189569666Y-104176979D01*
X189855590Y-104197428D01*
X190141513Y-104176979D01*
X190421624Y-104116045D01*
X190690206Y-104015869D01*
X190941801Y-103878488D01*
X191081773Y-103773704D01*
X191081774Y-103773704D01*
X190482686Y-103174616D01*
X190643808Y-103052944D01*
X190789263Y-102893387D01*
X190839209Y-102812719D01*
X191440984Y-103414494D01*
X191440984Y-103414493D01*
X191545768Y-103274521D01*
X191683149Y-103022926D01*
X191783325Y-102754344D01*
X191844259Y-102474233D01*
X191864708Y-102188310D01*
X199886471Y-102188310D01*
X199906920Y-102474233D01*
X199967854Y-102754344D01*
X200068030Y-103022926D01*
X200205414Y-103274525D01*
X200310193Y-103414493D01*
X200310194Y-103414494D01*
X200911969Y-102812719D01*
X200961917Y-102893387D01*
X201107372Y-103052944D01*
X201268492Y-103174615D01*
X200669404Y-103773704D01*
X200669405Y-103773705D01*
X200809374Y-103878486D01*
X201060973Y-104015869D01*
X201060972Y-104015869D01*
X201329555Y-104116045D01*
X201609666Y-104176979D01*
X201895590Y-104197428D01*
X202181513Y-104176979D01*
X202461624Y-104116045D01*
X202730206Y-104015869D01*
X202981801Y-103878488D01*
X203121773Y-103773704D01*
X203121774Y-103773704D01*
X202522686Y-103174616D01*
X202683808Y-103052944D01*
X202829263Y-102893387D01*
X202879209Y-102812719D01*
X203480984Y-103414494D01*
X203480984Y-103414493D01*
X203585768Y-103274521D01*
X203723149Y-103022926D01*
X203823325Y-102754344D01*
X203884259Y-102474233D01*
X203904708Y-102188310D01*
X203884259Y-101902386D01*
X203823325Y-101622275D01*
X203723149Y-101353693D01*
X203585766Y-101102094D01*
X203480985Y-100962125D01*
X203480984Y-100962124D01*
X202879209Y-101563899D01*
X202829263Y-101483233D01*
X202683808Y-101323676D01*
X202522686Y-101202002D01*
X203121774Y-100602914D01*
X203121773Y-100602913D01*
X202981805Y-100498134D01*
X202730206Y-100360750D01*
X202730207Y-100360750D01*
X202461624Y-100260574D01*
X202181513Y-100199640D01*
X201895590Y-100179191D01*
X201609666Y-100199640D01*
X201329555Y-100260574D01*
X201060973Y-100360750D01*
X200809379Y-100498131D01*
X200669405Y-100602913D01*
X200669404Y-100602914D01*
X201268493Y-101202003D01*
X201107372Y-101323676D01*
X200961917Y-101483233D01*
X200911970Y-101563900D01*
X200310194Y-100962124D01*
X200310193Y-100962125D01*
X200205411Y-101102099D01*
X200068030Y-101353693D01*
X199967854Y-101622275D01*
X199906920Y-101902386D01*
X199886471Y-102188310D01*
X191864708Y-102188310D01*
X191844259Y-101902386D01*
X191783325Y-101622275D01*
X191683149Y-101353693D01*
X191545766Y-101102094D01*
X191440985Y-100962125D01*
X191440984Y-100962124D01*
X190839209Y-101563899D01*
X190789263Y-101483233D01*
X190643808Y-101323676D01*
X190482686Y-101202002D01*
X191081774Y-100602914D01*
X191081773Y-100602913D01*
X190941805Y-100498134D01*
X190690206Y-100360750D01*
X190690207Y-100360750D01*
X190421624Y-100260574D01*
X190141513Y-100199640D01*
X189855590Y-100179191D01*
X189569666Y-100199640D01*
X189289555Y-100260574D01*
X189020973Y-100360750D01*
X188769379Y-100498131D01*
X188629405Y-100602913D01*
X188629404Y-100602914D01*
X189228493Y-101202003D01*
X189067372Y-101323676D01*
X188921917Y-101483233D01*
X188871970Y-101563900D01*
X188270194Y-100962124D01*
X188270193Y-100962125D01*
X188165411Y-101102099D01*
X188028030Y-101353693D01*
X187927854Y-101622275D01*
X187866920Y-101902386D01*
X187846471Y-102188310D01*
X167996000Y-102188310D01*
X167996000Y-95705825D01*
X180588500Y-95705825D01*
X180589985Y-95733533D01*
X180589987Y-95733567D01*
X180592861Y-95760296D01*
X180592866Y-95760336D01*
X180619377Y-95845000D01*
X180623123Y-95856961D01*
X180643887Y-95894987D01*
X180657152Y-95919278D01*
X180701407Y-95978394D01*
X180701417Y-95978406D01*
X181389586Y-96666575D01*
X181389594Y-96666582D01*
X181389601Y-96666589D01*
X181410260Y-96685147D01*
X181429765Y-96700866D01*
X181431005Y-96701897D01*
X181431240Y-96702056D01*
X181520952Y-96748983D01*
X181520960Y-96748987D01*
X181589081Y-96768989D01*
X181662190Y-96779500D01*
X193536206Y-96779500D01*
X193604327Y-96799502D01*
X193650820Y-96853158D01*
X193660924Y-96923432D01*
X193648996Y-96961663D01*
X193591264Y-97077603D01*
X193591261Y-97077609D01*
X193535244Y-97274490D01*
X193516358Y-97478305D01*
X193516358Y-97478314D01*
X193535244Y-97682129D01*
X193546193Y-97720609D01*
X193591262Y-97879011D01*
X193682502Y-98062245D01*
X193682503Y-98062246D01*
X193805856Y-98225594D01*
X193957128Y-98363496D01*
X193957128Y-98363497D01*
X193969543Y-98371184D01*
X194016930Y-98424052D01*
X194028212Y-98494146D01*
X193999807Y-98559213D01*
X193969543Y-98585436D01*
X193957128Y-98593122D01*
X193957128Y-98593123D01*
X193805856Y-98731025D01*
X193682503Y-98894373D01*
X193591261Y-99077611D01*
X193535244Y-99274490D01*
X193516358Y-99478305D01*
X193516358Y-99478314D01*
X193535244Y-99682129D01*
X193591209Y-99878824D01*
X193591262Y-99879011D01*
X193682502Y-100062245D01*
X193682503Y-100062246D01*
X193805856Y-100225594D01*
X193957126Y-100363495D01*
X194131156Y-100471250D01*
X194131158Y-100471250D01*
X194131163Y-100471254D01*
X194322034Y-100545198D01*
X194523243Y-100582810D01*
X194523245Y-100582810D01*
X194727935Y-100582810D01*
X194727937Y-100582810D01*
X194929146Y-100545198D01*
X195120017Y-100471254D01*
X195294052Y-100363496D01*
X195445322Y-100225595D01*
X195568678Y-100062245D01*
X195659918Y-99879011D01*
X195715935Y-99682131D01*
X195726786Y-99565029D01*
X195734822Y-99478314D01*
X195734822Y-99478305D01*
X195715935Y-99274490D01*
X195707747Y-99245712D01*
X195659918Y-99077609D01*
X195568678Y-98894375D01*
X195510777Y-98817701D01*
X195445323Y-98731025D01*
X195294054Y-98593125D01*
X195282378Y-98585896D01*
X195281637Y-98585437D01*
X195234250Y-98532571D01*
X195222967Y-98462477D01*
X195251370Y-98397410D01*
X195281636Y-98371183D01*
X195294052Y-98363496D01*
X195445322Y-98225595D01*
X195568678Y-98062245D01*
X195659918Y-97879011D01*
X195715935Y-97682131D01*
X195734822Y-97478310D01*
X195715935Y-97274489D01*
X195659918Y-97077609D01*
X195602184Y-96961663D01*
X195589724Y-96891769D01*
X195617031Y-96826233D01*
X195675434Y-96785865D01*
X195714974Y-96779500D01*
X195895090Y-96779500D01*
X195963211Y-96799502D01*
X196009704Y-96853158D01*
X196021090Y-96905500D01*
X196021090Y-98353373D01*
X196021091Y-98353383D01*
X196035855Y-98427610D01*
X196092106Y-98511794D01*
X196176287Y-98568043D01*
X196176289Y-98568044D01*
X196193491Y-98571465D01*
X196199449Y-98572651D01*
X196262359Y-98605559D01*
X196297491Y-98667254D01*
X196293691Y-98738148D01*
X196275419Y-98772161D01*
X196182929Y-98894637D01*
X196091730Y-99077790D01*
X196091728Y-99077795D01*
X196035738Y-99274579D01*
X196016860Y-99478310D01*
X196035738Y-99682040D01*
X196091728Y-99878824D01*
X196182854Y-100061832D01*
X196671415Y-99573271D01*
X196672057Y-99581826D01*
X196722718Y-99710908D01*
X196809176Y-99819323D01*
X196923749Y-99897437D01*
X197032214Y-99930894D01*
X196545490Y-100417618D01*
X196631383Y-100470801D01*
X196631392Y-100470806D01*
X196822167Y-100544713D01*
X196822166Y-100544713D01*
X197023291Y-100582310D01*
X197227889Y-100582310D01*
X197429013Y-100544713D01*
X197619787Y-100470806D01*
X197619796Y-100470801D01*
X197705687Y-100417619D01*
X197705688Y-100417618D01*
X197217693Y-99929623D01*
X197262709Y-99922839D01*
X197387644Y-99862673D01*
X197489295Y-99768355D01*
X197558629Y-99648265D01*
X197576491Y-99570001D01*
X198068323Y-100061832D01*
X198159448Y-99878833D01*
X198159451Y-99878824D01*
X198215441Y-99682040D01*
X198234319Y-99478310D01*
X198215441Y-99274579D01*
X198159451Y-99077795D01*
X198159449Y-99077790D01*
X198068249Y-98894637D01*
X197975761Y-98772161D01*
X197950671Y-98705745D01*
X197965471Y-98636308D01*
X198015462Y-98585896D01*
X198051726Y-98572651D01*
X198074891Y-98568044D01*
X198159074Y-98511794D01*
X198215324Y-98427611D01*
X198230090Y-98353377D01*
X198230089Y-96905499D01*
X198250091Y-96837379D01*
X198303747Y-96790886D01*
X198356089Y-96779500D01*
X198827276Y-96779500D01*
X198827277Y-96779500D01*
X198854287Y-96776920D01*
X198923998Y-96790353D01*
X198975383Y-96839343D01*
X198992125Y-96908338D01*
X198971987Y-96966527D01*
X198973779Y-96967562D01*
X198880665Y-97128837D01*
X198880662Y-97128843D01*
X198825158Y-97299670D01*
X198806383Y-97478310D01*
X198825158Y-97656949D01*
X198880662Y-97827776D01*
X198880665Y-97827782D01*
X198970475Y-97983336D01*
X198970477Y-97983339D01*
X199090668Y-98116825D01*
X199160029Y-98167219D01*
X199203383Y-98223439D01*
X199209459Y-98294175D01*
X199176327Y-98356967D01*
X199160030Y-98371089D01*
X199090668Y-98421483D01*
X198970478Y-98554969D01*
X198970475Y-98554973D01*
X198880665Y-98710527D01*
X198880662Y-98710533D01*
X198825158Y-98881360D01*
X198806383Y-99060000D01*
X198825158Y-99238639D01*
X198880662Y-99409466D01*
X198880665Y-99409472D01*
X198970475Y-99565026D01*
X198970477Y-99565029D01*
X199090668Y-99698515D01*
X199235986Y-99804095D01*
X199400080Y-99877154D01*
X199575778Y-99914500D01*
X199755402Y-99914500D01*
X199931100Y-99877154D01*
X200095194Y-99804095D01*
X200240512Y-99698515D01*
X200360703Y-99565029D01*
X200403138Y-99491528D01*
X200454519Y-99442537D01*
X200524232Y-99429100D01*
X200590144Y-99455487D01*
X200621375Y-99491530D01*
X200633813Y-99513074D01*
X200663810Y-99565029D01*
X200784001Y-99698515D01*
X200929319Y-99804095D01*
X201093413Y-99877154D01*
X201269111Y-99914500D01*
X201448735Y-99914500D01*
X201624433Y-99877154D01*
X201788527Y-99804095D01*
X201933845Y-99698515D01*
X202054036Y-99565029D01*
X202143848Y-99409471D01*
X202159628Y-99360904D01*
X202199700Y-99302299D01*
X202265096Y-99274662D01*
X202335053Y-99286767D01*
X202387360Y-99334772D01*
X202399294Y-99360904D01*
X202415072Y-99409465D01*
X202415075Y-99409472D01*
X202504885Y-99565026D01*
X202504887Y-99565029D01*
X202625078Y-99698515D01*
X202770396Y-99804095D01*
X202934490Y-99877154D01*
X203110188Y-99914500D01*
X203289812Y-99914500D01*
X203465510Y-99877154D01*
X203629604Y-99804095D01*
X203774922Y-99698515D01*
X203895113Y-99565029D01*
X203984925Y-99409471D01*
X204024794Y-99286767D01*
X204040431Y-99238639D01*
X204043631Y-99208194D01*
X204059207Y-99060000D01*
X204040431Y-98881361D01*
X204009195Y-98785224D01*
X203984927Y-98710533D01*
X203984924Y-98710527D01*
X203911185Y-98582809D01*
X203895113Y-98554971D01*
X203774922Y-98421485D01*
X203705559Y-98371090D01*
X203662206Y-98314869D01*
X203656130Y-98244133D01*
X203689262Y-98181341D01*
X203705554Y-98167223D01*
X203774922Y-98116825D01*
X203895113Y-97983339D01*
X203984925Y-97827781D01*
X204024794Y-97705077D01*
X204040431Y-97656949D01*
X204059207Y-97478310D01*
X204040431Y-97299671D01*
X204040431Y-97299670D01*
X203984927Y-97128843D01*
X203984924Y-97128837D01*
X203892353Y-96968500D01*
X203875615Y-96899505D01*
X203898835Y-96832413D01*
X203954642Y-96788526D01*
X204001472Y-96779500D01*
X204485163Y-96779500D01*
X204485264Y-96779500D01*
X204487752Y-96779488D01*
X204490151Y-96779465D01*
X204490155Y-96779464D01*
X204490159Y-96779464D01*
X204532193Y-96772805D01*
X204565499Y-96767529D01*
X204586852Y-96760815D01*
X204633211Y-96746239D01*
X204633214Y-96746237D01*
X204633226Y-96746234D01*
X204675943Y-96728480D01*
X204754707Y-96664854D01*
X204800170Y-96610323D01*
X204826506Y-96572296D01*
X204858368Y-96476188D01*
X204867133Y-96405734D01*
X204868729Y-96359496D01*
X204843571Y-96261419D01*
X204812853Y-96197412D01*
X204773022Y-96137955D01*
X204771747Y-96136051D01*
X204771743Y-96136047D01*
X204771702Y-96136002D01*
X204756841Y-96119496D01*
X204741364Y-96098194D01*
X204692064Y-96012806D01*
X204681352Y-95988745D01*
X204658781Y-95919278D01*
X204650886Y-95894981D01*
X204645412Y-95869228D01*
X204635106Y-95771167D01*
X204635106Y-95744828D01*
X204639206Y-95705825D01*
X204645412Y-95646773D01*
X204650889Y-95621011D01*
X204657177Y-95601659D01*
X204681353Y-95527249D01*
X204692065Y-95503190D01*
X204741361Y-95417807D01*
X204756833Y-95396511D01*
X204822819Y-95323226D01*
X204842388Y-95305607D01*
X204922147Y-95247658D01*
X204944942Y-95234497D01*
X205035033Y-95194385D01*
X205060068Y-95186251D01*
X205156509Y-95165753D01*
X205182705Y-95163000D01*
X205281294Y-95163000D01*
X205307491Y-95165753D01*
X205403925Y-95186251D01*
X205428976Y-95194391D01*
X205519037Y-95234488D01*
X205541850Y-95247659D01*
X205621615Y-95305612D01*
X205641188Y-95323235D01*
X205707155Y-95396499D01*
X205722636Y-95417807D01*
X205771932Y-95503190D01*
X205782646Y-95527254D01*
X205813109Y-95621011D01*
X205818586Y-95646776D01*
X205828892Y-95744828D01*
X205828892Y-95771170D01*
X205818586Y-95869222D01*
X205813109Y-95894986D01*
X205782647Y-95988741D01*
X205771933Y-96012806D01*
X205722637Y-96098190D01*
X205707161Y-96119492D01*
X205692252Y-96136052D01*
X205690869Y-96137603D01*
X205690555Y-96137955D01*
X205689013Y-96139700D01*
X205689008Y-96139707D01*
X205647467Y-96203678D01*
X205617970Y-96268263D01*
X205602578Y-96311894D01*
X205597158Y-96412991D01*
X205597159Y-96412998D01*
X205597159Y-96412999D01*
X205607263Y-96483273D01*
X205607264Y-96483280D01*
X205607265Y-96483282D01*
X205617901Y-96528288D01*
X205617902Y-96528293D01*
X205668001Y-96616272D01*
X205668011Y-96616286D01*
X205711602Y-96666592D01*
X205714498Y-96669934D01*
X205747787Y-96702056D01*
X205837506Y-96748987D01*
X205905627Y-96768989D01*
X205978736Y-96779500D01*
X205978739Y-96779500D01*
X214577819Y-96779500D01*
X214577823Y-96779499D01*
X214605545Y-96778014D01*
X214605559Y-96778012D01*
X214605567Y-96778012D01*
X214617686Y-96776708D01*
X214632328Y-96775135D01*
X214632336Y-96775134D01*
X214728961Y-96744877D01*
X214791273Y-96710851D01*
X214850399Y-96666589D01*
X220872589Y-90644399D01*
X220891147Y-90623740D01*
X220906905Y-90604186D01*
X220907900Y-90602989D01*
X220908056Y-90602759D01*
X220933135Y-90554814D01*
X220954987Y-90513040D01*
X220974989Y-90444919D01*
X220985500Y-90371810D01*
X220985500Y-75490190D01*
X220984014Y-75462455D01*
X220981135Y-75435672D01*
X220981134Y-75435664D01*
X220950877Y-75339039D01*
X220916851Y-75276727D01*
X220911422Y-75269475D01*
X220872592Y-75217605D01*
X220872582Y-75217593D01*
X215866413Y-70211424D01*
X215845732Y-70192846D01*
X215836094Y-70185079D01*
X215826240Y-70177138D01*
X215824994Y-70176102D01*
X215824759Y-70175943D01*
X215735047Y-70129016D01*
X215735042Y-70129014D01*
X215735040Y-70129013D01*
X215666919Y-70109011D01*
X215593810Y-70098500D01*
X209866316Y-70098500D01*
X209798195Y-70078498D01*
X209751702Y-70024842D01*
X209741598Y-69954568D01*
X209771092Y-69889988D01*
X209792255Y-69870564D01*
X209796787Y-69867270D01*
X209835692Y-69839005D01*
X209955883Y-69705519D01*
X210045695Y-69549961D01*
X210101201Y-69379129D01*
X210119977Y-69200490D01*
X210101201Y-69021851D01*
X210101201Y-69021850D01*
X210045697Y-68851023D01*
X210045694Y-68851017D01*
X209955884Y-68695463D01*
X209955883Y-68695461D01*
X209835692Y-68561975D01*
X209690374Y-68456395D01*
X209526280Y-68383336D01*
X209350582Y-68345990D01*
X209170958Y-68345990D01*
X208995259Y-68383336D01*
X208831162Y-68456397D01*
X208685848Y-68561974D01*
X208565658Y-68695459D01*
X208565655Y-68695463D01*
X208475845Y-68851017D01*
X208475842Y-68851023D01*
X208420338Y-69021850D01*
X208401563Y-69200490D01*
X208420338Y-69379129D01*
X208475842Y-69549956D01*
X208475845Y-69549962D01*
X208565655Y-69705516D01*
X208565658Y-69705520D01*
X208685848Y-69839005D01*
X208729285Y-69870564D01*
X208772639Y-69926786D01*
X208778714Y-69997522D01*
X208745583Y-70060314D01*
X208683763Y-70095225D01*
X208655224Y-70098500D01*
X206373993Y-70098500D01*
X206318838Y-70104430D01*
X206266516Y-70115812D01*
X206266510Y-70115813D01*
X206266499Y-70115816D01*
X206253707Y-70119325D01*
X206239710Y-70123165D01*
X206239709Y-70123166D01*
X206168971Y-70163446D01*
X206151720Y-70173270D01*
X206151713Y-70173275D01*
X206098076Y-70219752D01*
X206098058Y-70219769D01*
X206065944Y-70253049D01*
X206065944Y-70253050D01*
X206019014Y-70342767D01*
X206019013Y-70342770D01*
X205999011Y-70410891D01*
X205988500Y-70484000D01*
X205988500Y-70484002D01*
X205988500Y-74269500D01*
X205968498Y-74337621D01*
X205914842Y-74384114D01*
X205862500Y-74395500D01*
X191747161Y-74395500D01*
X191679040Y-74375498D01*
X191658066Y-74358595D01*
X191641843Y-74342372D01*
X191607817Y-74280060D01*
X191605628Y-74240106D01*
X191613207Y-74168000D01*
X191594431Y-73989361D01*
X191594431Y-73989360D01*
X191538927Y-73818533D01*
X191538924Y-73818527D01*
X191449114Y-73662973D01*
X191449113Y-73662971D01*
X191328922Y-73529485D01*
X191183604Y-73423905D01*
X191019510Y-73350846D01*
X190843812Y-73313500D01*
X190664188Y-73313500D01*
X190488489Y-73350846D01*
X190324392Y-73423907D01*
X190179078Y-73529484D01*
X190058888Y-73662969D01*
X190058885Y-73662973D01*
X189969075Y-73818527D01*
X189969072Y-73818533D01*
X189913568Y-73989360D01*
X189894793Y-74168000D01*
X189913568Y-74346639D01*
X189969072Y-74517466D01*
X189969075Y-74517472D01*
X190058885Y-74673026D01*
X190058887Y-74673029D01*
X190179078Y-74806515D01*
X190324396Y-74912095D01*
X190488490Y-74985154D01*
X190664188Y-75022500D01*
X190842839Y-75022500D01*
X190910960Y-75042502D01*
X190931934Y-75059405D01*
X191081332Y-75208803D01*
X191098232Y-75229773D01*
X191100804Y-75233775D01*
X191118922Y-75249474D01*
X191138601Y-75266526D01*
X191145174Y-75272645D01*
X191151491Y-75278962D01*
X191154779Y-75282250D01*
X191165639Y-75290380D01*
X191172637Y-75296020D01*
X191210442Y-75328777D01*
X191214761Y-75330749D01*
X191237929Y-75344495D01*
X191241730Y-75347340D01*
X191241733Y-75347342D01*
X191288607Y-75364824D01*
X191296889Y-75368255D01*
X191342404Y-75389042D01*
X191347103Y-75389717D01*
X191373213Y-75396382D01*
X191377658Y-75398040D01*
X191427554Y-75401608D01*
X191436487Y-75402569D01*
X191449917Y-75404500D01*
X191463483Y-75404500D01*
X191472470Y-75404820D01*
X191522360Y-75408389D01*
X191527003Y-75407378D01*
X191553784Y-75404500D01*
X209336000Y-75404500D01*
X209404121Y-75424502D01*
X209450614Y-75478158D01*
X209462000Y-75530500D01*
X209462000Y-75946000D01*
X210134884Y-75946000D01*
X210106507Y-75990156D01*
X210066000Y-76128111D01*
X210066000Y-76271889D01*
X210106507Y-76409844D01*
X210134884Y-76454000D01*
X209462001Y-76454000D01*
X209462001Y-77075022D01*
X209476737Y-77149105D01*
X209476737Y-77149107D01*
X209532875Y-77233124D01*
X209616893Y-77289262D01*
X209616894Y-77289263D01*
X209690980Y-77303999D01*
X210312000Y-77303999D01*
X210312000Y-76633674D01*
X210423685Y-76684680D01*
X210530237Y-76700000D01*
X210601763Y-76700000D01*
X210708315Y-76684680D01*
X210820000Y-76633674D01*
X210820000Y-77303999D01*
X211441014Y-77303999D01*
X211441022Y-77303998D01*
X211515105Y-77289262D01*
X211515107Y-77289262D01*
X211599124Y-77233124D01*
X211655262Y-77149106D01*
X211655263Y-77149105D01*
X211669999Y-77075022D01*
X211670000Y-77075015D01*
X211670000Y-76454000D01*
X210997116Y-76454000D01*
X211025493Y-76409844D01*
X211066000Y-76271889D01*
X211066000Y-76128111D01*
X211025493Y-75990156D01*
X210997116Y-75946000D01*
X211669999Y-75946000D01*
X211669999Y-75781660D01*
X211690001Y-75713539D01*
X211743657Y-75667046D01*
X211813931Y-75656942D01*
X211878511Y-75686436D01*
X211885094Y-75692565D01*
X212001628Y-75809099D01*
X212035654Y-75871411D01*
X212033723Y-75932675D01*
X212015654Y-75996179D01*
X212015654Y-75996184D01*
X211996768Y-76199995D01*
X211996768Y-76200004D01*
X212015654Y-76403819D01*
X212061787Y-76565958D01*
X212071672Y-76600701D01*
X212162912Y-76783935D01*
X212162913Y-76783936D01*
X212286266Y-76947284D01*
X212437536Y-77085185D01*
X212611566Y-77192940D01*
X212611568Y-77192940D01*
X212611573Y-77192944D01*
X212802444Y-77266888D01*
X213003653Y-77304500D01*
X213003655Y-77304500D01*
X213208345Y-77304500D01*
X213208347Y-77304500D01*
X213409556Y-77266888D01*
X213600427Y-77192944D01*
X213774462Y-77085186D01*
X213925732Y-76947285D01*
X214049088Y-76783935D01*
X214140328Y-76600701D01*
X214196345Y-76403821D01*
X214196345Y-76403819D01*
X214197583Y-76399469D01*
X214235463Y-76339422D01*
X214299794Y-76309388D01*
X214370150Y-76318901D01*
X214407868Y-76344855D01*
X214855388Y-76792375D01*
X214855391Y-76792377D01*
X214915600Y-76837227D01*
X214915602Y-76837228D01*
X214978075Y-76870956D01*
X215047401Y-76896438D01*
X215055923Y-76898249D01*
X215080971Y-76906388D01*
X215171039Y-76946489D01*
X215193851Y-76959660D01*
X215273615Y-77017612D01*
X215293188Y-77035235D01*
X215359155Y-77108499D01*
X215374636Y-77129807D01*
X215423930Y-77215186D01*
X215434644Y-77239249D01*
X215465111Y-77333014D01*
X215470588Y-77358782D01*
X215480892Y-77456829D01*
X215480892Y-77483169D01*
X215470586Y-77581222D01*
X215465109Y-77606986D01*
X215428299Y-77720283D01*
X215424281Y-77732649D01*
X215420857Y-77741928D01*
X215412229Y-77762759D01*
X215412220Y-77762785D01*
X215395342Y-77825773D01*
X215386500Y-77892936D01*
X215386500Y-79587063D01*
X215395339Y-79654206D01*
X215395343Y-79654227D01*
X215412217Y-79717205D01*
X215412219Y-79717212D01*
X215412221Y-79717216D01*
X215418736Y-79732945D01*
X215420849Y-79738047D01*
X215424268Y-79747317D01*
X215450886Y-79829237D01*
X215465111Y-79873014D01*
X215470588Y-79898782D01*
X215480892Y-79996829D01*
X215480892Y-80023169D01*
X215470586Y-80121222D01*
X215465109Y-80146986D01*
X215426126Y-80266971D01*
X215424281Y-80272649D01*
X215420857Y-80281928D01*
X215412229Y-80302759D01*
X215412220Y-80302785D01*
X215395342Y-80365773D01*
X215386500Y-80432936D01*
X215386500Y-82127063D01*
X215395339Y-82194206D01*
X215395343Y-82194227D01*
X215412217Y-82257205D01*
X215412219Y-82257212D01*
X215412221Y-82257216D01*
X215418736Y-82272945D01*
X215420849Y-82278047D01*
X215424268Y-82287317D01*
X215461041Y-82400490D01*
X215465111Y-82413014D01*
X215470588Y-82438782D01*
X215480892Y-82536829D01*
X215480892Y-82563169D01*
X215470586Y-82661222D01*
X215465109Y-82686986D01*
X215425166Y-82809926D01*
X215424281Y-82812649D01*
X215420857Y-82821928D01*
X215412229Y-82842759D01*
X215412220Y-82842785D01*
X215395342Y-82905773D01*
X215386500Y-82972936D01*
X215386500Y-84921063D01*
X215395339Y-84988206D01*
X215395343Y-84988227D01*
X215412217Y-85051205D01*
X215412219Y-85051212D01*
X215412221Y-85051216D01*
X215420849Y-85072047D01*
X215424268Y-85081317D01*
X215457145Y-85182500D01*
X215465111Y-85207014D01*
X215470588Y-85232782D01*
X215480892Y-85330829D01*
X215480892Y-85357169D01*
X215470586Y-85455222D01*
X215465110Y-85480986D01*
X215424281Y-85606649D01*
X215420857Y-85615928D01*
X215412229Y-85636759D01*
X215412220Y-85636785D01*
X215395342Y-85699773D01*
X215386500Y-85766936D01*
X215386500Y-86962322D01*
X215366498Y-87030443D01*
X215349595Y-87051417D01*
X211511417Y-90889595D01*
X211449105Y-90923621D01*
X211422322Y-90926500D01*
X191661490Y-90926500D01*
X191648240Y-90926878D01*
X191646680Y-90926923D01*
X191632316Y-90927744D01*
X191592465Y-90937011D01*
X191546106Y-90947791D01*
X191546104Y-90947791D01*
X191546099Y-90947793D01*
X191480718Y-90975425D01*
X191480715Y-90975426D01*
X191439877Y-90997162D01*
X191367519Y-91067987D01*
X191335730Y-91114479D01*
X191335244Y-91114875D01*
X191332779Y-91118794D01*
X191327446Y-91126594D01*
X191327445Y-91126595D01*
X191322111Y-91137443D01*
X191318162Y-91144840D01*
X191244635Y-91272192D01*
X191229152Y-91293503D01*
X191163190Y-91366761D01*
X191143615Y-91384386D01*
X191063850Y-91442339D01*
X191041037Y-91455510D01*
X190950972Y-91495609D01*
X190925923Y-91503748D01*
X190856380Y-91518531D01*
X190829493Y-91524246D01*
X190803297Y-91527000D01*
X190704703Y-91527000D01*
X190678505Y-91524246D01*
X190643150Y-91516730D01*
X190582075Y-91503748D01*
X190557026Y-91495609D01*
X190466961Y-91455510D01*
X190444148Y-91442339D01*
X190364383Y-91384386D01*
X190344808Y-91366761D01*
X190278842Y-91293498D01*
X190263362Y-91272192D01*
X190210180Y-91180079D01*
X190205490Y-91170302D01*
X190205336Y-91170379D01*
X190202951Y-91165531D01*
X190202948Y-91165522D01*
X190172169Y-91114479D01*
X190157241Y-91089721D01*
X190110747Y-91036065D01*
X190110740Y-91036058D01*
X190077459Y-91003944D01*
X189987742Y-90957014D01*
X189987741Y-90957013D01*
X189987740Y-90957013D01*
X189919619Y-90937011D01*
X189846510Y-90926500D01*
X189846507Y-90926500D01*
X189643678Y-90926500D01*
X189575557Y-90906498D01*
X189554583Y-90889595D01*
X186986405Y-88321417D01*
X186952379Y-88259105D01*
X186949500Y-88232322D01*
X186949500Y-88097611D01*
X186947948Y-88069288D01*
X186947947Y-88069282D01*
X186947947Y-88069273D01*
X186944939Y-88041904D01*
X186944870Y-88041285D01*
X186914154Y-87944805D01*
X186893309Y-87907059D01*
X186879832Y-87882654D01*
X186853952Y-87844318D01*
X186840413Y-87833112D01*
X186775952Y-87779758D01*
X186713480Y-87746030D01*
X186644151Y-87720547D01*
X186644149Y-87720546D01*
X186644142Y-87720544D01*
X186518073Y-87693747D01*
X186493026Y-87685609D01*
X186402959Y-87645509D01*
X186380148Y-87632339D01*
X186300383Y-87574386D01*
X186280808Y-87556761D01*
X186214842Y-87483498D01*
X186199362Y-87462192D01*
X186150063Y-87376804D01*
X186139352Y-87352745D01*
X186108886Y-87258981D01*
X186103412Y-87233228D01*
X186093106Y-87135167D01*
X186093106Y-87108828D01*
X186093269Y-87107285D01*
X186103412Y-87010773D01*
X186108889Y-86985011D01*
X186139352Y-86891253D01*
X186150064Y-86867192D01*
X186199359Y-86781809D01*
X186214833Y-86760511D01*
X186280819Y-86687226D01*
X186300381Y-86669612D01*
X186380152Y-86611654D01*
X186402941Y-86598497D01*
X186493038Y-86558383D01*
X186518072Y-86550249D01*
X186644152Y-86523451D01*
X186671558Y-86516038D01*
X186697702Y-86507406D01*
X186697742Y-86507392D01*
X186697841Y-86507360D01*
X186698291Y-86507210D01*
X186786278Y-86457107D01*
X186839934Y-86410614D01*
X186872056Y-86377325D01*
X186918987Y-86287606D01*
X186938989Y-86219485D01*
X186949500Y-86146376D01*
X186949500Y-82804000D01*
X191926793Y-82804000D01*
X191945568Y-82982639D01*
X192001072Y-83153466D01*
X192001075Y-83153472D01*
X192081273Y-83292378D01*
X192090887Y-83309029D01*
X192211078Y-83442515D01*
X192356396Y-83548095D01*
X192520490Y-83621154D01*
X192696188Y-83658500D01*
X192875812Y-83658500D01*
X193051510Y-83621154D01*
X193215604Y-83548095D01*
X193360922Y-83442515D01*
X193481113Y-83309029D01*
X193570925Y-83153471D01*
X193606341Y-83044472D01*
X193626431Y-82982639D01*
X193645207Y-82804000D01*
X193626431Y-82625361D01*
X193597666Y-82536829D01*
X193570927Y-82454533D01*
X193570924Y-82454527D01*
X193481114Y-82298973D01*
X193481113Y-82298971D01*
X193360922Y-82165485D01*
X193360510Y-82165186D01*
X193215604Y-82059905D01*
X193051510Y-81986846D01*
X192875812Y-81949500D01*
X192696188Y-81949500D01*
X192520489Y-81986846D01*
X192356392Y-82059907D01*
X192211078Y-82165484D01*
X192090888Y-82298969D01*
X192090885Y-82298973D01*
X192001075Y-82454527D01*
X192001072Y-82454533D01*
X191945568Y-82625360D01*
X191926793Y-82804000D01*
X186949500Y-82804000D01*
X186949500Y-81191475D01*
X186945907Y-81148441D01*
X186938977Y-81107231D01*
X186936543Y-81094994D01*
X186935967Y-81092097D01*
X186935966Y-81092095D01*
X186935966Y-81092093D01*
X186894454Y-80999742D01*
X186853272Y-80941909D01*
X186853268Y-80941904D01*
X186823183Y-80906763D01*
X186779689Y-80878446D01*
X186733515Y-80824516D01*
X186726282Y-80772000D01*
X191926793Y-80772000D01*
X191945568Y-80950639D01*
X192001072Y-81121466D01*
X192001075Y-81121472D01*
X192051097Y-81208111D01*
X192090887Y-81277029D01*
X192211078Y-81410515D01*
X192356396Y-81516095D01*
X192520490Y-81589154D01*
X192696188Y-81626500D01*
X192875812Y-81626500D01*
X193051510Y-81589154D01*
X193215604Y-81516095D01*
X193360922Y-81410515D01*
X193481113Y-81277029D01*
X193565881Y-81130206D01*
X193617264Y-81081214D01*
X193686977Y-81067778D01*
X193752888Y-81094164D01*
X193784118Y-81130206D01*
X193794642Y-81148434D01*
X193828317Y-81206761D01*
X193868887Y-81277029D01*
X193989078Y-81410515D01*
X194134396Y-81516095D01*
X194298490Y-81589154D01*
X194474188Y-81626500D01*
X194653812Y-81626500D01*
X194829510Y-81589154D01*
X194993604Y-81516095D01*
X195138922Y-81410515D01*
X195259113Y-81277029D01*
X195348925Y-81121471D01*
X195351940Y-81112194D01*
X195404431Y-80950639D01*
X195405848Y-80937153D01*
X195423207Y-80772000D01*
X195404431Y-80593361D01*
X195401219Y-80583474D01*
X195348927Y-80422533D01*
X195348924Y-80422527D01*
X195259114Y-80266973D01*
X195259113Y-80266971D01*
X195138922Y-80133485D01*
X195130015Y-80127014D01*
X194993604Y-80027905D01*
X194829510Y-79954846D01*
X194653812Y-79917500D01*
X194474188Y-79917500D01*
X194298489Y-79954846D01*
X194134392Y-80027907D01*
X193989078Y-80133484D01*
X193868888Y-80266969D01*
X193868887Y-80266971D01*
X193794845Y-80395215D01*
X193784119Y-80413793D01*
X193732736Y-80462786D01*
X193663022Y-80476221D01*
X193597111Y-80449834D01*
X193565881Y-80413793D01*
X193555155Y-80395215D01*
X193481113Y-80266971D01*
X193360922Y-80133485D01*
X193352015Y-80127014D01*
X193215604Y-80027905D01*
X193051510Y-79954846D01*
X192875812Y-79917500D01*
X192696188Y-79917500D01*
X192520489Y-79954846D01*
X192356392Y-80027907D01*
X192211078Y-80133484D01*
X192090888Y-80266969D01*
X192090885Y-80266973D01*
X192001075Y-80422527D01*
X192001072Y-80422533D01*
X191945568Y-80593360D01*
X191926793Y-80772000D01*
X186726282Y-80772000D01*
X186723828Y-80754183D01*
X186753704Y-80689778D01*
X186781451Y-80667147D01*
X186781226Y-80666829D01*
X186785875Y-80663539D01*
X186786098Y-80663357D01*
X186786278Y-80663255D01*
X186839934Y-80616762D01*
X186872056Y-80583473D01*
X186918987Y-80493754D01*
X186938989Y-80425633D01*
X186949500Y-80352524D01*
X186949500Y-78854883D01*
X186941891Y-78792503D01*
X186927329Y-78733702D01*
X186916578Y-78700208D01*
X186861532Y-78615225D01*
X186861530Y-78615223D01*
X186861527Y-78615219D01*
X186812069Y-78564329D01*
X186812063Y-78564323D01*
X186812052Y-78564312D01*
X186812040Y-78564302D01*
X186812033Y-78564295D01*
X186776987Y-78534146D01*
X186776977Y-78534140D01*
X186684732Y-78492412D01*
X186615577Y-78476331D01*
X186578690Y-78471162D01*
X186569773Y-78469913D01*
X186569772Y-78469913D01*
X186469603Y-78484680D01*
X186402738Y-78508536D01*
X186337413Y-78543004D01*
X186337398Y-78543013D01*
X186237850Y-78615339D01*
X186215038Y-78628510D01*
X186124973Y-78668609D01*
X186099924Y-78676748D01*
X186039804Y-78689527D01*
X186003493Y-78697246D01*
X185977297Y-78700000D01*
X185878703Y-78700000D01*
X185852505Y-78697246D01*
X185817150Y-78689730D01*
X185756075Y-78676748D01*
X185731026Y-78668609D01*
X185640961Y-78628510D01*
X185618148Y-78615339D01*
X185538383Y-78557386D01*
X185518808Y-78539761D01*
X185515583Y-78536179D01*
X185452842Y-78466498D01*
X185437362Y-78445192D01*
X185416583Y-78409202D01*
X185388063Y-78359804D01*
X185377352Y-78335745D01*
X185346886Y-78241981D01*
X185341412Y-78216228D01*
X185331106Y-78118167D01*
X185331106Y-78091828D01*
X185341412Y-77993775D01*
X185346889Y-77968011D01*
X185373088Y-77887378D01*
X185377353Y-77874249D01*
X185388064Y-77850192D01*
X185437359Y-77764809D01*
X185452833Y-77743511D01*
X185518819Y-77670226D01*
X185538388Y-77652607D01*
X185561934Y-77635500D01*
X185618147Y-77594658D01*
X185640942Y-77581497D01*
X185731033Y-77541385D01*
X185756068Y-77533251D01*
X185852509Y-77512753D01*
X185878705Y-77510000D01*
X185977294Y-77510000D01*
X186003490Y-77512752D01*
X186044148Y-77521395D01*
X186099925Y-77533251D01*
X186124976Y-77541391D01*
X186136777Y-77546645D01*
X186215041Y-77581490D01*
X186237851Y-77594659D01*
X186337409Y-77666992D01*
X186392344Y-77697501D01*
X186412483Y-77705675D01*
X186448462Y-77720279D01*
X186448464Y-77720279D01*
X186448473Y-77720283D01*
X186481892Y-77731273D01*
X186481891Y-77731273D01*
X186582991Y-77736693D01*
X186582993Y-77736692D01*
X186582999Y-77736693D01*
X186653273Y-77726589D01*
X186698291Y-77715950D01*
X186786278Y-77665847D01*
X186839934Y-77619354D01*
X186872056Y-77586065D01*
X186918987Y-77496346D01*
X186938989Y-77428225D01*
X186949500Y-77355116D01*
X186949500Y-75857475D01*
X186945907Y-75814441D01*
X186938977Y-75773231D01*
X186935966Y-75758093D01*
X186894454Y-75665742D01*
X186853272Y-75607909D01*
X186853268Y-75607904D01*
X186823183Y-75572763D01*
X186779689Y-75544446D01*
X186733515Y-75490516D01*
X186723828Y-75420183D01*
X186753704Y-75355778D01*
X186781451Y-75333147D01*
X186781226Y-75332829D01*
X186785875Y-75329539D01*
X186786098Y-75329357D01*
X186786278Y-75329255D01*
X186839934Y-75282762D01*
X186872056Y-75249473D01*
X186918987Y-75159754D01*
X186938989Y-75091633D01*
X186949500Y-75018524D01*
X186949500Y-74639640D01*
X188213611Y-74639640D01*
X188217179Y-74689527D01*
X188217500Y-74698516D01*
X188217500Y-74712083D01*
X188219430Y-74725508D01*
X188220390Y-74734441D01*
X188223960Y-74784344D01*
X188225621Y-74788798D01*
X188232281Y-74814890D01*
X188232958Y-74819596D01*
X188253737Y-74865096D01*
X188257175Y-74873399D01*
X188257546Y-74874391D01*
X188274657Y-74920268D01*
X188274658Y-74920269D01*
X188277504Y-74924071D01*
X188291243Y-74947224D01*
X188293220Y-74951553D01*
X188293222Y-74951556D01*
X188293223Y-74951558D01*
X188325985Y-74989367D01*
X188331603Y-74996338D01*
X188336764Y-75003232D01*
X188339753Y-75007225D01*
X188349336Y-75016808D01*
X188355464Y-75023389D01*
X188386673Y-75059405D01*
X188388225Y-75061196D01*
X188392228Y-75063768D01*
X188413197Y-75080668D01*
X190696332Y-77363803D01*
X190713232Y-77384773D01*
X190715804Y-77388775D01*
X190753601Y-77421526D01*
X190760174Y-77427645D01*
X190769779Y-77437250D01*
X190780649Y-77445387D01*
X190787632Y-77451014D01*
X190825442Y-77483777D01*
X190829761Y-77485749D01*
X190852925Y-77499492D01*
X190856733Y-77502343D01*
X190884644Y-77512753D01*
X190903596Y-77519822D01*
X190911906Y-77523264D01*
X190933773Y-77533250D01*
X190957404Y-77544042D01*
X190962101Y-77544717D01*
X190988209Y-77551380D01*
X190992658Y-77553040D01*
X191042554Y-77556608D01*
X191051487Y-77557569D01*
X191064917Y-77559500D01*
X191078483Y-77559500D01*
X191087470Y-77559820D01*
X191137360Y-77563389D01*
X191142003Y-77562378D01*
X191168784Y-77559500D01*
X195411839Y-77559500D01*
X195479960Y-77579502D01*
X195500934Y-77596405D01*
X201134595Y-83230066D01*
X201168621Y-83292378D01*
X201171500Y-83319161D01*
X201171500Y-83574119D01*
X201151498Y-83642240D01*
X201119562Y-83676054D01*
X201101081Y-83689481D01*
X201101080Y-83689482D01*
X200980888Y-83822969D01*
X200980885Y-83822973D01*
X200891075Y-83978527D01*
X200891072Y-83978533D01*
X200835568Y-84149360D01*
X200816793Y-84328000D01*
X200835568Y-84506639D01*
X200891072Y-84677466D01*
X200891075Y-84677472D01*
X200969291Y-84812944D01*
X200980887Y-84833029D01*
X201101078Y-84966515D01*
X201246396Y-85072095D01*
X201410490Y-85145154D01*
X201586188Y-85182500D01*
X201765812Y-85182500D01*
X201941510Y-85145154D01*
X202105604Y-85072095D01*
X202250922Y-84966515D01*
X202371113Y-84833029D01*
X202460925Y-84677471D01*
X202496727Y-84567284D01*
X202516431Y-84506639D01*
X202535207Y-84328000D01*
X202516431Y-84149361D01*
X202516431Y-84149360D01*
X202460927Y-83978533D01*
X202460924Y-83978527D01*
X202371114Y-83822973D01*
X202371113Y-83822971D01*
X202250922Y-83689485D01*
X202250921Y-83689484D01*
X202250919Y-83689482D01*
X202250918Y-83689481D01*
X202232438Y-83676054D01*
X202189085Y-83619831D01*
X202180500Y-83574119D01*
X202180500Y-83565999D01*
X209490450Y-83565999D01*
X209490451Y-83566000D01*
X210134884Y-83566000D01*
X210106507Y-83610156D01*
X210066000Y-83748111D01*
X210066000Y-83891889D01*
X210106507Y-84029844D01*
X210134884Y-84074000D01*
X209490451Y-84074000D01*
X209532138Y-84220514D01*
X209532140Y-84220519D01*
X209623340Y-84403672D01*
X209746637Y-84566946D01*
X209897838Y-84704784D01*
X210071796Y-84812493D01*
X210071803Y-84812496D01*
X210262582Y-84886405D01*
X210311999Y-84895642D01*
X210312000Y-84895642D01*
X210312000Y-84253674D01*
X210423685Y-84304680D01*
X210530237Y-84320000D01*
X210601763Y-84320000D01*
X210708315Y-84304680D01*
X210820000Y-84253674D01*
X210820000Y-84895642D01*
X210869417Y-84886405D01*
X210869418Y-84886405D01*
X211060196Y-84812496D01*
X211060203Y-84812493D01*
X211234161Y-84704784D01*
X211385362Y-84566946D01*
X211508659Y-84403672D01*
X211599859Y-84220519D01*
X211599861Y-84220514D01*
X211641549Y-84074000D01*
X210997116Y-84074000D01*
X211025493Y-84029844D01*
X211066000Y-83891889D01*
X211066000Y-83820004D01*
X211996768Y-83820004D01*
X212015654Y-84023819D01*
X212029932Y-84074000D01*
X212071672Y-84220701D01*
X212162912Y-84403935D01*
X212162913Y-84403936D01*
X212286266Y-84567284D01*
X212437536Y-84705185D01*
X212611566Y-84812940D01*
X212611568Y-84812940D01*
X212611573Y-84812944D01*
X212802444Y-84886888D01*
X213003653Y-84924500D01*
X213003655Y-84924500D01*
X213208345Y-84924500D01*
X213208347Y-84924500D01*
X213409556Y-84886888D01*
X213600427Y-84812944D01*
X213774462Y-84705186D01*
X213925732Y-84567285D01*
X214049088Y-84403935D01*
X214140328Y-84220701D01*
X214196345Y-84023821D01*
X214202640Y-83955880D01*
X214215232Y-83820004D01*
X214215232Y-83819995D01*
X214196345Y-83616180D01*
X214182068Y-83566000D01*
X214140328Y-83419299D01*
X214049088Y-83236065D01*
X213986712Y-83153466D01*
X213925733Y-83072715D01*
X213774463Y-82934814D01*
X213600433Y-82827059D01*
X213600428Y-82827057D01*
X213600427Y-82827056D01*
X213566039Y-82813734D01*
X213409559Y-82753113D01*
X213409560Y-82753113D01*
X213409557Y-82753112D01*
X213409556Y-82753112D01*
X213208347Y-82715500D01*
X213003653Y-82715500D01*
X212802444Y-82753112D01*
X212802439Y-82753113D01*
X212611577Y-82827054D01*
X212611566Y-82827059D01*
X212437536Y-82934814D01*
X212286266Y-83072715D01*
X212162913Y-83236063D01*
X212071671Y-83419301D01*
X212015654Y-83616180D01*
X211996768Y-83819995D01*
X211996768Y-83820004D01*
X211066000Y-83820004D01*
X211066000Y-83748111D01*
X211025493Y-83610156D01*
X210997116Y-83566000D01*
X211641549Y-83566000D01*
X211641549Y-83565999D01*
X211599861Y-83419485D01*
X211599859Y-83419480D01*
X211508659Y-83236327D01*
X211385362Y-83073053D01*
X211234161Y-82935215D01*
X211060203Y-82827506D01*
X211060196Y-82827503D01*
X210869424Y-82753596D01*
X210820000Y-82744357D01*
X210820000Y-83386325D01*
X210708315Y-83335320D01*
X210601763Y-83320000D01*
X210530237Y-83320000D01*
X210423685Y-83335320D01*
X210312000Y-83386325D01*
X210312000Y-82744357D01*
X210262575Y-82753596D01*
X210071803Y-82827503D01*
X210071796Y-82827506D01*
X209897838Y-82935215D01*
X209746637Y-83073053D01*
X209623340Y-83236327D01*
X209532140Y-83419480D01*
X209532138Y-83419485D01*
X209490450Y-83565999D01*
X202180500Y-83565999D01*
X202180500Y-83125782D01*
X202183379Y-83099001D01*
X202184389Y-83094360D01*
X202180820Y-83044470D01*
X202180500Y-83035483D01*
X202180500Y-83021916D01*
X202180499Y-83021913D01*
X202178569Y-83008486D01*
X202177608Y-82999554D01*
X202174040Y-82949658D01*
X202172380Y-82945209D01*
X202165717Y-82919101D01*
X202165042Y-82914404D01*
X202144264Y-82868906D01*
X202140822Y-82860596D01*
X202128311Y-82827054D01*
X202123343Y-82813733D01*
X202120492Y-82809925D01*
X202106749Y-82786761D01*
X202104777Y-82782442D01*
X202072014Y-82744632D01*
X202066387Y-82737649D01*
X202058250Y-82726779D01*
X202048645Y-82717174D01*
X202042526Y-82710601D01*
X202009775Y-82672804D01*
X202005773Y-82670232D01*
X201984803Y-82653332D01*
X200357470Y-81025999D01*
X209490450Y-81025999D01*
X209490451Y-81026000D01*
X210134884Y-81026000D01*
X210106507Y-81070156D01*
X210066000Y-81208111D01*
X210066000Y-81351889D01*
X210106507Y-81489844D01*
X210134884Y-81534000D01*
X209490451Y-81534000D01*
X209532138Y-81680514D01*
X209532140Y-81680519D01*
X209623340Y-81863672D01*
X209746637Y-82026946D01*
X209897838Y-82164784D01*
X210071796Y-82272493D01*
X210071803Y-82272496D01*
X210262582Y-82346405D01*
X210311999Y-82355642D01*
X210312000Y-82355642D01*
X210312000Y-81713674D01*
X210423685Y-81764680D01*
X210530237Y-81780000D01*
X210601763Y-81780000D01*
X210708315Y-81764680D01*
X210820000Y-81713674D01*
X210820000Y-82355642D01*
X210869417Y-82346405D01*
X210869418Y-82346405D01*
X211060196Y-82272496D01*
X211060203Y-82272493D01*
X211234161Y-82164784D01*
X211385362Y-82026946D01*
X211508659Y-81863672D01*
X211599859Y-81680519D01*
X211599861Y-81680514D01*
X211641549Y-81534000D01*
X210997116Y-81534000D01*
X211025493Y-81489844D01*
X211066000Y-81351889D01*
X211066000Y-81280004D01*
X211996768Y-81280004D01*
X212015654Y-81483819D01*
X212061938Y-81646490D01*
X212071672Y-81680701D01*
X212162912Y-81863935D01*
X212162913Y-81863936D01*
X212286266Y-82027284D01*
X212437536Y-82165185D01*
X212611566Y-82272940D01*
X212611568Y-82272940D01*
X212611573Y-82272944D01*
X212802444Y-82346888D01*
X213003653Y-82384500D01*
X213003655Y-82384500D01*
X213208345Y-82384500D01*
X213208347Y-82384500D01*
X213409556Y-82346888D01*
X213600427Y-82272944D01*
X213774462Y-82165186D01*
X213925732Y-82027285D01*
X214049088Y-81863935D01*
X214140328Y-81680701D01*
X214196345Y-81483821D01*
X214207170Y-81367000D01*
X214215232Y-81280004D01*
X214215232Y-81279995D01*
X214197820Y-81092092D01*
X214196345Y-81076179D01*
X214140328Y-80879299D01*
X214049088Y-80696065D01*
X214002982Y-80635011D01*
X213925733Y-80532715D01*
X213774463Y-80394814D01*
X213600433Y-80287059D01*
X213600428Y-80287057D01*
X213600427Y-80287056D01*
X213574906Y-80277169D01*
X213409559Y-80213113D01*
X213409560Y-80213113D01*
X213409557Y-80213112D01*
X213409556Y-80213112D01*
X213208347Y-80175500D01*
X213003653Y-80175500D01*
X212802444Y-80213112D01*
X212802439Y-80213113D01*
X212611577Y-80287054D01*
X212611566Y-80287059D01*
X212437536Y-80394814D01*
X212286266Y-80532715D01*
X212162913Y-80696063D01*
X212071671Y-80879301D01*
X212015654Y-81076180D01*
X211996768Y-81279995D01*
X211996768Y-81280004D01*
X211066000Y-81280004D01*
X211066000Y-81208111D01*
X211025493Y-81070156D01*
X210997116Y-81026000D01*
X211641549Y-81026000D01*
X211641549Y-81025999D01*
X211599861Y-80879485D01*
X211599859Y-80879480D01*
X211508659Y-80696327D01*
X211385362Y-80533053D01*
X211234161Y-80395215D01*
X211060203Y-80287506D01*
X211060196Y-80287503D01*
X210869424Y-80213596D01*
X210820000Y-80204357D01*
X210820000Y-80846325D01*
X210708315Y-80795320D01*
X210601763Y-80780000D01*
X210530237Y-80780000D01*
X210423685Y-80795320D01*
X210312000Y-80846325D01*
X210312000Y-80204357D01*
X210262575Y-80213596D01*
X210071803Y-80287503D01*
X210071796Y-80287506D01*
X209897838Y-80395215D01*
X209746637Y-80533053D01*
X209623340Y-80696327D01*
X209532140Y-80879480D01*
X209532138Y-80879485D01*
X209490450Y-81025999D01*
X200357470Y-81025999D01*
X197817470Y-78485999D01*
X209490450Y-78485999D01*
X209490451Y-78486000D01*
X210134884Y-78486000D01*
X210106507Y-78530156D01*
X210066000Y-78668111D01*
X210066000Y-78811889D01*
X210106507Y-78949844D01*
X210134884Y-78994000D01*
X209490451Y-78994000D01*
X209532138Y-79140514D01*
X209532140Y-79140519D01*
X209623340Y-79323672D01*
X209746637Y-79486946D01*
X209897838Y-79624784D01*
X210071796Y-79732493D01*
X210071803Y-79732496D01*
X210262582Y-79806405D01*
X210311999Y-79815642D01*
X210312000Y-79815642D01*
X210312000Y-79173674D01*
X210423685Y-79224680D01*
X210530237Y-79240000D01*
X210601763Y-79240000D01*
X210708315Y-79224680D01*
X210820000Y-79173674D01*
X210820000Y-79815642D01*
X210869417Y-79806405D01*
X210869418Y-79806405D01*
X211060196Y-79732496D01*
X211060203Y-79732493D01*
X211234161Y-79624784D01*
X211385362Y-79486946D01*
X211508659Y-79323672D01*
X211599859Y-79140519D01*
X211599861Y-79140514D01*
X211641549Y-78994000D01*
X210997116Y-78994000D01*
X211025493Y-78949844D01*
X211066000Y-78811889D01*
X211066000Y-78740004D01*
X211996768Y-78740004D01*
X212015654Y-78943819D01*
X212029932Y-78994000D01*
X212071672Y-79140701D01*
X212162912Y-79323935D01*
X212162913Y-79323936D01*
X212286266Y-79487284D01*
X212437536Y-79625185D01*
X212611566Y-79732940D01*
X212611568Y-79732940D01*
X212611573Y-79732944D01*
X212802444Y-79806888D01*
X213003653Y-79844500D01*
X213003655Y-79844500D01*
X213208345Y-79844500D01*
X213208347Y-79844500D01*
X213409556Y-79806888D01*
X213600427Y-79732944D01*
X213774462Y-79625186D01*
X213925732Y-79487285D01*
X214049088Y-79323935D01*
X214140328Y-79140701D01*
X214196345Y-78943821D01*
X214204587Y-78854882D01*
X214215232Y-78740004D01*
X214215232Y-78739995D01*
X214199492Y-78570149D01*
X214196345Y-78536179D01*
X214140328Y-78339299D01*
X214049088Y-78156065D01*
X214000579Y-78091828D01*
X213925733Y-77992715D01*
X213774463Y-77854814D01*
X213600433Y-77747059D01*
X213600428Y-77747057D01*
X213600427Y-77747056D01*
X213573677Y-77736693D01*
X213409559Y-77673113D01*
X213409560Y-77673113D01*
X213409557Y-77673112D01*
X213409556Y-77673112D01*
X213208347Y-77635500D01*
X213003653Y-77635500D01*
X212835184Y-77666992D01*
X212802439Y-77673113D01*
X212611577Y-77747054D01*
X212611566Y-77747059D01*
X212437536Y-77854814D01*
X212286266Y-77992715D01*
X212162913Y-78156063D01*
X212071671Y-78339301D01*
X212015654Y-78536180D01*
X211996768Y-78739995D01*
X211996768Y-78740004D01*
X211066000Y-78740004D01*
X211066000Y-78668111D01*
X211025493Y-78530156D01*
X210997116Y-78486000D01*
X211641549Y-78486000D01*
X211641549Y-78485999D01*
X211599861Y-78339485D01*
X211599859Y-78339480D01*
X211508659Y-78156327D01*
X211385362Y-77993053D01*
X211234161Y-77855215D01*
X211060203Y-77747506D01*
X211060196Y-77747503D01*
X210869424Y-77673596D01*
X210820000Y-77664357D01*
X210820000Y-78306325D01*
X210708315Y-78255320D01*
X210601763Y-78240000D01*
X210530237Y-78240000D01*
X210423685Y-78255320D01*
X210312000Y-78306325D01*
X210312000Y-77664357D01*
X210262575Y-77673596D01*
X210071803Y-77747503D01*
X210071796Y-77747506D01*
X209897838Y-77855215D01*
X209746637Y-77993053D01*
X209623340Y-78156327D01*
X209532140Y-78339480D01*
X209532138Y-78339485D01*
X209490450Y-78485999D01*
X197817470Y-78485999D01*
X196077668Y-76746197D01*
X196060768Y-76725228D01*
X196058196Y-76721225D01*
X196058194Y-76721223D01*
X196020389Y-76688464D01*
X196013808Y-76682336D01*
X196004225Y-76672753D01*
X196004221Y-76672750D01*
X195993338Y-76664603D01*
X195986367Y-76658985D01*
X195948558Y-76626223D01*
X195948556Y-76626222D01*
X195948553Y-76626220D01*
X195944224Y-76624243D01*
X195921071Y-76610504D01*
X195917269Y-76607658D01*
X195917268Y-76607657D01*
X195870402Y-76590177D01*
X195862103Y-76586740D01*
X195816596Y-76565958D01*
X195816593Y-76565957D01*
X195811890Y-76565281D01*
X195785798Y-76558621D01*
X195781344Y-76556960D01*
X195731441Y-76553390D01*
X195722520Y-76552431D01*
X195709083Y-76550500D01*
X195709078Y-76550500D01*
X195695517Y-76550500D01*
X195686529Y-76550179D01*
X195666067Y-76548715D01*
X195636641Y-76546611D01*
X195636639Y-76546611D01*
X195631997Y-76547621D01*
X195605216Y-76550500D01*
X191362161Y-76550500D01*
X191294040Y-76530498D01*
X191273066Y-76513595D01*
X189263405Y-74503934D01*
X189229379Y-74441622D01*
X189226500Y-74414839D01*
X189226500Y-72651161D01*
X189246502Y-72583040D01*
X189263405Y-72562066D01*
X190418066Y-71407405D01*
X190480378Y-71373379D01*
X190507161Y-71370500D01*
X194066312Y-71370500D01*
X194134433Y-71390502D01*
X194159946Y-71412187D01*
X194243078Y-71504515D01*
X194388396Y-71610095D01*
X194552490Y-71683154D01*
X194728188Y-71720500D01*
X194907812Y-71720500D01*
X195083510Y-71683154D01*
X195247604Y-71610095D01*
X195392922Y-71504515D01*
X195513113Y-71371029D01*
X195602925Y-71215471D01*
X195658431Y-71044639D01*
X195677207Y-70866000D01*
X195658431Y-70687361D01*
X195609326Y-70536228D01*
X195602927Y-70516533D01*
X195602924Y-70516527D01*
X195548064Y-70421507D01*
X195513113Y-70360971D01*
X195392922Y-70227485D01*
X195382292Y-70219762D01*
X195247604Y-70121905D01*
X195083510Y-70048846D01*
X194907812Y-70011500D01*
X194728188Y-70011500D01*
X194552489Y-70048846D01*
X194388392Y-70121907D01*
X194243078Y-70227484D01*
X194220060Y-70253049D01*
X194159947Y-70319810D01*
X194099503Y-70357050D01*
X194066312Y-70361500D01*
X190313784Y-70361500D01*
X190287003Y-70358621D01*
X190282360Y-70357611D01*
X190282358Y-70357611D01*
X190245340Y-70360258D01*
X190232470Y-70361179D01*
X190223483Y-70361500D01*
X190209917Y-70361500D01*
X190196485Y-70363430D01*
X190187558Y-70364390D01*
X190137656Y-70367960D01*
X190133194Y-70369624D01*
X190107109Y-70376281D01*
X190102406Y-70376957D01*
X190056898Y-70397739D01*
X190048593Y-70401179D01*
X190001729Y-70418659D01*
X190001725Y-70418661D01*
X189997924Y-70421507D01*
X189974773Y-70435244D01*
X189970446Y-70437220D01*
X189970440Y-70437224D01*
X189932642Y-70469975D01*
X189925649Y-70475611D01*
X189914785Y-70483744D01*
X189914774Y-70483754D01*
X189905182Y-70493346D01*
X189898604Y-70499470D01*
X189860804Y-70532223D01*
X189860803Y-70532225D01*
X189858231Y-70536228D01*
X189841333Y-70557194D01*
X188413194Y-71985333D01*
X188392228Y-72002231D01*
X188388225Y-72004803D01*
X188388223Y-72004804D01*
X188355470Y-72042604D01*
X188349346Y-72049182D01*
X188339754Y-72058774D01*
X188339744Y-72058785D01*
X188331611Y-72069649D01*
X188325975Y-72076643D01*
X188293223Y-72114441D01*
X188291244Y-72118774D01*
X188277515Y-72141913D01*
X188274657Y-72145730D01*
X188274656Y-72145732D01*
X188257172Y-72192607D01*
X188253732Y-72200912D01*
X188232959Y-72246400D01*
X188232957Y-72246404D01*
X188232281Y-72251110D01*
X188225624Y-72277195D01*
X188223960Y-72281657D01*
X188220390Y-72331551D01*
X188219431Y-72340471D01*
X188217501Y-72353908D01*
X188217500Y-72353923D01*
X188217500Y-72367483D01*
X188217179Y-72376472D01*
X188214423Y-72415013D01*
X188213611Y-72426360D01*
X188214620Y-72431001D01*
X188217500Y-72457782D01*
X188217500Y-74608215D01*
X188214621Y-74634994D01*
X188213611Y-74639635D01*
X188213611Y-74639640D01*
X186949500Y-74639640D01*
X186949500Y-72770000D01*
X186943570Y-72714841D01*
X186932184Y-72662499D01*
X186924834Y-72635709D01*
X186874731Y-72547722D01*
X186874727Y-72547718D01*
X186874724Y-72547713D01*
X186828247Y-72494076D01*
X186828230Y-72494058D01*
X186794949Y-72461944D01*
X186705232Y-72415014D01*
X186705231Y-72415013D01*
X186705230Y-72415013D01*
X186637109Y-72395011D01*
X186564000Y-72384500D01*
X180974000Y-72384500D01*
X180973993Y-72384500D01*
X180918838Y-72390430D01*
X180866516Y-72401812D01*
X180866510Y-72401813D01*
X180866499Y-72401816D01*
X180853707Y-72405325D01*
X180839710Y-72409165D01*
X180839709Y-72409166D01*
X180801375Y-72430995D01*
X180751720Y-72459270D01*
X180751713Y-72459275D01*
X180698076Y-72505752D01*
X180698058Y-72505769D01*
X180665944Y-72539049D01*
X180665944Y-72539050D01*
X180619014Y-72628767D01*
X180619013Y-72628770D01*
X180599011Y-72696891D01*
X180588500Y-72770000D01*
X180588500Y-75041896D01*
X180588503Y-75043193D01*
X180588504Y-75043341D01*
X180588503Y-75043341D01*
X180588508Y-75044382D01*
X180588509Y-75044394D01*
X180599723Y-75118566D01*
X180599724Y-75118571D01*
X180599725Y-75118574D01*
X180620375Y-75186501D01*
X180637719Y-75229380D01*
X180641201Y-75233775D01*
X180700587Y-75308742D01*
X180700590Y-75308745D01*
X180700591Y-75308746D01*
X180754684Y-75354725D01*
X180770718Y-75364815D01*
X180813351Y-75391645D01*
X180817202Y-75394068D01*
X180881044Y-75422491D01*
X180903846Y-75435656D01*
X180979568Y-75490671D01*
X180983616Y-75493612D01*
X181003188Y-75511235D01*
X181069155Y-75584499D01*
X181084636Y-75605807D01*
X181133932Y-75691190D01*
X181144646Y-75715254D01*
X181175109Y-75809011D01*
X181180586Y-75834776D01*
X181190892Y-75932828D01*
X181190892Y-75959170D01*
X181180586Y-76057222D01*
X181175110Y-76082986D01*
X181144648Y-76176742D01*
X181133933Y-76200808D01*
X181084636Y-76286192D01*
X181069153Y-76307502D01*
X181003190Y-76380761D01*
X180983615Y-76398386D01*
X180903853Y-76456337D01*
X180881042Y-76469507D01*
X180817155Y-76497951D01*
X180817156Y-76497952D01*
X180815554Y-76498670D01*
X180814833Y-76498995D01*
X180814827Y-76498998D01*
X180751716Y-76539375D01*
X180698066Y-76585865D01*
X180698058Y-76585872D01*
X180665944Y-76619152D01*
X180665944Y-76619153D01*
X180619014Y-76708870D01*
X180619013Y-76708873D01*
X180599011Y-76776994D01*
X180588500Y-76850103D01*
X180588500Y-79359896D01*
X180588503Y-79361193D01*
X180588504Y-79361341D01*
X180588503Y-79361341D01*
X180588508Y-79362382D01*
X180588509Y-79362394D01*
X180599723Y-79436566D01*
X180599724Y-79436571D01*
X180599725Y-79436574D01*
X180620375Y-79504501D01*
X180637719Y-79547380D01*
X180637720Y-79547381D01*
X180700587Y-79626742D01*
X180700590Y-79626745D01*
X180700591Y-79626746D01*
X180754684Y-79672725D01*
X180817202Y-79712068D01*
X180881044Y-79740491D01*
X180903846Y-79753656D01*
X180976449Y-79806405D01*
X180983616Y-79811612D01*
X181003188Y-79829235D01*
X181069155Y-79902499D01*
X181084636Y-79923807D01*
X181133930Y-80009186D01*
X181144644Y-80033249D01*
X181175111Y-80127014D01*
X181180588Y-80152782D01*
X181190892Y-80250829D01*
X181190892Y-80277169D01*
X181180586Y-80375222D01*
X181175110Y-80400986D01*
X181144648Y-80494742D01*
X181133933Y-80518808D01*
X181084636Y-80604192D01*
X181069153Y-80625502D01*
X181003190Y-80698761D01*
X180983615Y-80716386D01*
X180903853Y-80774337D01*
X180881042Y-80787507D01*
X180817155Y-80815951D01*
X180817156Y-80815952D01*
X180815554Y-80816670D01*
X180814833Y-80816995D01*
X180814827Y-80816998D01*
X180751716Y-80857375D01*
X180698066Y-80903865D01*
X180698058Y-80903872D01*
X180665944Y-80937152D01*
X180665944Y-80937153D01*
X180619014Y-81026870D01*
X180619013Y-81026873D01*
X180599011Y-81094994D01*
X180591328Y-81148434D01*
X180588500Y-81168105D01*
X180588500Y-85608667D01*
X180592957Y-85656553D01*
X180592959Y-85656565D01*
X180601539Y-85702253D01*
X180606083Y-85722121D01*
X180651081Y-85812830D01*
X180694432Y-85869052D01*
X180724804Y-85898570D01*
X180730604Y-85904595D01*
X180815156Y-85998500D01*
X180830636Y-86019807D01*
X180879930Y-86105186D01*
X180890644Y-86129249D01*
X180921111Y-86223014D01*
X180926588Y-86248782D01*
X180936892Y-86346829D01*
X180936892Y-86373169D01*
X180926586Y-86471222D01*
X180921110Y-86496986D01*
X180890648Y-86590742D01*
X180879933Y-86614807D01*
X180830638Y-86700188D01*
X180815155Y-86721498D01*
X180740580Y-86804322D01*
X180730136Y-86814643D01*
X180711294Y-86831207D01*
X180679345Y-86865033D01*
X180665943Y-86880388D01*
X180619014Y-86970103D01*
X180619013Y-86970106D01*
X180599011Y-87038227D01*
X180588861Y-87108828D01*
X180588500Y-87111338D01*
X180588500Y-93228667D01*
X180592957Y-93276553D01*
X180592959Y-93276565D01*
X180601539Y-93322253D01*
X180606083Y-93342121D01*
X180651081Y-93432830D01*
X180681283Y-93471999D01*
X180694432Y-93489052D01*
X180724804Y-93518570D01*
X180730604Y-93524595D01*
X180815156Y-93618500D01*
X180830636Y-93639807D01*
X180879930Y-93725186D01*
X180890644Y-93749249D01*
X180921111Y-93843014D01*
X180926588Y-93868782D01*
X180936892Y-93966829D01*
X180936892Y-93993169D01*
X180926586Y-94091222D01*
X180921110Y-94116986D01*
X180890648Y-94210742D01*
X180879933Y-94234807D01*
X180830638Y-94320188D01*
X180815155Y-94341498D01*
X180740580Y-94424322D01*
X180730136Y-94434643D01*
X180711294Y-94451207D01*
X180679345Y-94485033D01*
X180665943Y-94500388D01*
X180619014Y-94590103D01*
X180619013Y-94590106D01*
X180599011Y-94658227D01*
X180594962Y-94686390D01*
X180588500Y-94731338D01*
X180588500Y-95705825D01*
X167996000Y-95705825D01*
X167996000Y-92418370D01*
X176529611Y-92418370D01*
X176531934Y-92450857D01*
X176533179Y-92468257D01*
X176533500Y-92477246D01*
X176533500Y-92490813D01*
X176535430Y-92504238D01*
X176536390Y-92513171D01*
X176539960Y-92563074D01*
X176541621Y-92567528D01*
X176548281Y-92593620D01*
X176548958Y-92598326D01*
X176568364Y-92640820D01*
X176569737Y-92643826D01*
X176573177Y-92652132D01*
X176590657Y-92698998D01*
X176590658Y-92698999D01*
X176593504Y-92702801D01*
X176607243Y-92725954D01*
X176609220Y-92730283D01*
X176609222Y-92730286D01*
X176609223Y-92730288D01*
X176641985Y-92768097D01*
X176647603Y-92775068D01*
X176655750Y-92785951D01*
X176655753Y-92785955D01*
X176665336Y-92795538D01*
X176671464Y-92802119D01*
X176703072Y-92838595D01*
X176704225Y-92839926D01*
X176708221Y-92842494D01*
X176729194Y-92859395D01*
X177086987Y-93217188D01*
X177421865Y-93552065D01*
X177455890Y-93614378D01*
X177458770Y-93641161D01*
X177458770Y-94855063D01*
X177458771Y-94855073D01*
X177473535Y-94929300D01*
X177529786Y-95013484D01*
X177613967Y-95069733D01*
X177613969Y-95069734D01*
X177688203Y-95084500D01*
X179438336Y-95084499D01*
X179438339Y-95084498D01*
X179438343Y-95084498D01*
X179487596Y-95074701D01*
X179512571Y-95069734D01*
X179596754Y-95013484D01*
X179653004Y-94929301D01*
X179667770Y-94855067D01*
X179667769Y-93104934D01*
X179667768Y-93104931D01*
X179667768Y-93104926D01*
X179653004Y-93030699D01*
X179645592Y-93019607D01*
X179596754Y-92946516D01*
X179539697Y-92908391D01*
X179512572Y-92890266D01*
X179438339Y-92875500D01*
X179438337Y-92875500D01*
X178224431Y-92875500D01*
X178156310Y-92855498D01*
X178135336Y-92838595D01*
X177937561Y-92640820D01*
X177903535Y-92578508D01*
X177908600Y-92507693D01*
X177951147Y-92450857D01*
X178017667Y-92426046D01*
X178072172Y-92434233D01*
X178259714Y-92506888D01*
X178460923Y-92544500D01*
X178460925Y-92544500D01*
X178665615Y-92544500D01*
X178665617Y-92544500D01*
X178866826Y-92506888D01*
X179057697Y-92432944D01*
X179231732Y-92325186D01*
X179383002Y-92187285D01*
X179506358Y-92023935D01*
X179597598Y-91840701D01*
X179653615Y-91643821D01*
X179664440Y-91527000D01*
X179672502Y-91440004D01*
X179672502Y-91439995D01*
X179653615Y-91236180D01*
X179629698Y-91152119D01*
X179597598Y-91039299D01*
X179506358Y-90856065D01*
X179437589Y-90765000D01*
X179383003Y-90692715D01*
X179231733Y-90554814D01*
X179057703Y-90447059D01*
X179057698Y-90447057D01*
X179057697Y-90447056D01*
X179000274Y-90424810D01*
X178866829Y-90373113D01*
X178866830Y-90373113D01*
X178866827Y-90373112D01*
X178866826Y-90373112D01*
X178665617Y-90335500D01*
X178460923Y-90335500D01*
X178360318Y-90354306D01*
X178259712Y-90373112D01*
X178072170Y-90445767D01*
X178001424Y-90451723D01*
X177938688Y-90418486D01*
X177903881Y-90356607D01*
X177908053Y-90285733D01*
X177937557Y-90239182D01*
X178170743Y-90005996D01*
X178233053Y-89971972D01*
X178282984Y-89971238D01*
X178460923Y-90004500D01*
X178460925Y-90004500D01*
X178665615Y-90004500D01*
X178665617Y-90004500D01*
X178866826Y-89966888D01*
X179057697Y-89892944D01*
X179231732Y-89785186D01*
X179383002Y-89647285D01*
X179383603Y-89646490D01*
X179417952Y-89601003D01*
X179506358Y-89483935D01*
X179597598Y-89300701D01*
X179653615Y-89103821D01*
X179672502Y-88900000D01*
X179653615Y-88696179D01*
X179597598Y-88499299D01*
X179506358Y-88316065D01*
X179455880Y-88249221D01*
X179383003Y-88152715D01*
X179231733Y-88014814D01*
X179057703Y-87907059D01*
X179057698Y-87907057D01*
X179057697Y-87907056D01*
X178994711Y-87882655D01*
X178866829Y-87833113D01*
X178866830Y-87833113D01*
X178866827Y-87833112D01*
X178866826Y-87833112D01*
X178665617Y-87795500D01*
X178460923Y-87795500D01*
X178259714Y-87833112D01*
X178259709Y-87833113D01*
X178068847Y-87907054D01*
X178068836Y-87907059D01*
X177894806Y-88014814D01*
X177743536Y-88152715D01*
X177620183Y-88316063D01*
X177528941Y-88499301D01*
X177472924Y-88696180D01*
X177454038Y-88899995D01*
X177454038Y-88900004D01*
X177472924Y-89103815D01*
X177472924Y-89103819D01*
X177490993Y-89167323D01*
X177490397Y-89238317D01*
X177458898Y-89290899D01*
X176729194Y-90020603D01*
X176708228Y-90037501D01*
X176704225Y-90040073D01*
X176704223Y-90040074D01*
X176671470Y-90077874D01*
X176665346Y-90084452D01*
X176655754Y-90094044D01*
X176655744Y-90094055D01*
X176647611Y-90104919D01*
X176641975Y-90111913D01*
X176609223Y-90149711D01*
X176607244Y-90154044D01*
X176593515Y-90177183D01*
X176590657Y-90181000D01*
X176590656Y-90181002D01*
X176573172Y-90227877D01*
X176569732Y-90236182D01*
X176548959Y-90281670D01*
X176548957Y-90281674D01*
X176548281Y-90286380D01*
X176541624Y-90312465D01*
X176539960Y-90316927D01*
X176536390Y-90366821D01*
X176535431Y-90375741D01*
X176533501Y-90389178D01*
X176533500Y-90389193D01*
X176533500Y-90402753D01*
X176533179Y-90411742D01*
X176530320Y-90451723D01*
X176529611Y-90461630D01*
X176530620Y-90466271D01*
X176533500Y-90493052D01*
X176533500Y-92386945D01*
X176530621Y-92413724D01*
X176529611Y-92418365D01*
X176529611Y-92418370D01*
X167996000Y-92418370D01*
X167996000Y-86360004D01*
X177454038Y-86360004D01*
X177472924Y-86563819D01*
X177514988Y-86711659D01*
X177528942Y-86760701D01*
X177620182Y-86943935D01*
X177620183Y-86943936D01*
X177743536Y-87107284D01*
X177894806Y-87245185D01*
X178068836Y-87352940D01*
X178068838Y-87352940D01*
X178068843Y-87352944D01*
X178259714Y-87426888D01*
X178460923Y-87464500D01*
X178460925Y-87464500D01*
X178665615Y-87464500D01*
X178665617Y-87464500D01*
X178866826Y-87426888D01*
X179057697Y-87352944D01*
X179231732Y-87245186D01*
X179383002Y-87107285D01*
X179506358Y-86943935D01*
X179597598Y-86760701D01*
X179653615Y-86563821D01*
X179667813Y-86410606D01*
X179672502Y-86360004D01*
X179672502Y-86359995D01*
X179653615Y-86156180D01*
X179650825Y-86146373D01*
X179597598Y-85959299D01*
X179506358Y-85776065D01*
X179465621Y-85722121D01*
X179383003Y-85612715D01*
X179231733Y-85474814D01*
X179057703Y-85367059D01*
X179057698Y-85367057D01*
X179057697Y-85367056D01*
X178866829Y-85293113D01*
X178866830Y-85293113D01*
X178866827Y-85293112D01*
X178866826Y-85293112D01*
X178665617Y-85255500D01*
X178460923Y-85255500D01*
X178259714Y-85293112D01*
X178259709Y-85293113D01*
X178068847Y-85367054D01*
X178068836Y-85367059D01*
X177894806Y-85474814D01*
X177743536Y-85612715D01*
X177620183Y-85776063D01*
X177528941Y-85959301D01*
X177472924Y-86156180D01*
X177454038Y-86359995D01*
X177454038Y-86360004D01*
X167996000Y-86360004D01*
X167996000Y-81646490D01*
X177459270Y-81646490D01*
X178132154Y-81646490D01*
X178103777Y-81690646D01*
X178063270Y-81828601D01*
X178063270Y-81972379D01*
X178103777Y-82110334D01*
X178132154Y-82154490D01*
X177459271Y-82154490D01*
X177459271Y-82775512D01*
X177474007Y-82849595D01*
X177474007Y-82849597D01*
X177530145Y-82933614D01*
X177614163Y-82989752D01*
X177614164Y-82989753D01*
X177688250Y-83004489D01*
X178309270Y-83004489D01*
X178309270Y-82334164D01*
X178420955Y-82385170D01*
X178527507Y-82400490D01*
X178599033Y-82400490D01*
X178705585Y-82385170D01*
X178817270Y-82334164D01*
X178817270Y-83004489D01*
X179438284Y-83004489D01*
X179438292Y-83004488D01*
X179512375Y-82989752D01*
X179512377Y-82989752D01*
X179596394Y-82933614D01*
X179652532Y-82849596D01*
X179652533Y-82849595D01*
X179667269Y-82775512D01*
X179667270Y-82775505D01*
X179667270Y-82154490D01*
X178994386Y-82154490D01*
X179022763Y-82110334D01*
X179063270Y-81972379D01*
X179063270Y-81828601D01*
X179022763Y-81690646D01*
X178994386Y-81646490D01*
X179667269Y-81646490D01*
X179667269Y-81025476D01*
X179667268Y-81025467D01*
X179652532Y-80951384D01*
X179652532Y-80951382D01*
X179596394Y-80867365D01*
X179512376Y-80811227D01*
X179512375Y-80811226D01*
X179438292Y-80796490D01*
X178817270Y-80796490D01*
X178817270Y-81466815D01*
X178705585Y-81415810D01*
X178599033Y-81400490D01*
X178527507Y-81400490D01*
X178420955Y-81415810D01*
X178309270Y-81466815D01*
X178309270Y-80796490D01*
X177688256Y-80796490D01*
X177688246Y-80796491D01*
X177614164Y-80811227D01*
X177614162Y-80811227D01*
X177530145Y-80867365D01*
X177474007Y-80951383D01*
X177474006Y-80951384D01*
X177459270Y-81025467D01*
X177459270Y-81646490D01*
X167996000Y-81646490D01*
X167996000Y-79360494D01*
X177454038Y-79360494D01*
X177472924Y-79564309D01*
X177524996Y-79747323D01*
X177528942Y-79761191D01*
X177620182Y-79944425D01*
X177620183Y-79944426D01*
X177743536Y-80107774D01*
X177894806Y-80245675D01*
X178068836Y-80353430D01*
X178068838Y-80353430D01*
X178068843Y-80353434D01*
X178259714Y-80427378D01*
X178460923Y-80464990D01*
X178460925Y-80464990D01*
X178665615Y-80464990D01*
X178665617Y-80464990D01*
X178866826Y-80427378D01*
X179057697Y-80353434D01*
X179231732Y-80245676D01*
X179383002Y-80107775D01*
X179506358Y-79944425D01*
X179597598Y-79761191D01*
X179653615Y-79564311D01*
X179665452Y-79436574D01*
X179672502Y-79360494D01*
X179672502Y-79360485D01*
X179656762Y-79190639D01*
X179653615Y-79156669D01*
X179597598Y-78959789D01*
X179506358Y-78776555D01*
X179448701Y-78700205D01*
X179383003Y-78613205D01*
X179231733Y-78475304D01*
X179057703Y-78367549D01*
X179057698Y-78367547D01*
X179057697Y-78367546D01*
X179037728Y-78359810D01*
X178866829Y-78293603D01*
X178866830Y-78293603D01*
X178866827Y-78293602D01*
X178866826Y-78293602D01*
X178665617Y-78255990D01*
X178460923Y-78255990D01*
X178259714Y-78293602D01*
X178259709Y-78293603D01*
X178068847Y-78367544D01*
X178068836Y-78367549D01*
X177894806Y-78475304D01*
X177743536Y-78613205D01*
X177620183Y-78776553D01*
X177528941Y-78959791D01*
X177472924Y-79156670D01*
X177454038Y-79360485D01*
X177454038Y-79360494D01*
X167996000Y-79360494D01*
X167996000Y-76820494D01*
X177454038Y-76820494D01*
X177472924Y-77024309D01*
X177499678Y-77118340D01*
X177528942Y-77221191D01*
X177620182Y-77404425D01*
X177638155Y-77428225D01*
X177743536Y-77567774D01*
X177894806Y-77705675D01*
X178068836Y-77813430D01*
X178068838Y-77813430D01*
X178068843Y-77813434D01*
X178259714Y-77887378D01*
X178460923Y-77924990D01*
X178460925Y-77924990D01*
X178665615Y-77924990D01*
X178665617Y-77924990D01*
X178866826Y-77887378D01*
X179057697Y-77813434D01*
X179231732Y-77705676D01*
X179383002Y-77567775D01*
X179506358Y-77404425D01*
X179597598Y-77221191D01*
X179653615Y-77024311D01*
X179664542Y-76906388D01*
X179672502Y-76820494D01*
X179672502Y-76820485D01*
X179654500Y-76626220D01*
X179653615Y-76616669D01*
X179597598Y-76419789D01*
X179506358Y-76236555D01*
X179461189Y-76176742D01*
X179383003Y-76073205D01*
X179231733Y-75935304D01*
X179057703Y-75827549D01*
X179057698Y-75827547D01*
X179057697Y-75827546D01*
X179057692Y-75827544D01*
X178866829Y-75753603D01*
X178866830Y-75753603D01*
X178866827Y-75753602D01*
X178866826Y-75753602D01*
X178665617Y-75715990D01*
X178460923Y-75715990D01*
X178259714Y-75753602D01*
X178259709Y-75753603D01*
X178068847Y-75827544D01*
X178068836Y-75827549D01*
X177894806Y-75935304D01*
X177743536Y-76073205D01*
X177620183Y-76236553D01*
X177528941Y-76419791D01*
X177472924Y-76616670D01*
X177454038Y-76820485D01*
X177454038Y-76820494D01*
X167996000Y-76820494D01*
X167996000Y-64755490D01*
X205328163Y-64755490D01*
X205346938Y-64934129D01*
X205402442Y-65104956D01*
X205402445Y-65104962D01*
X205487908Y-65252987D01*
X205492257Y-65260519D01*
X205612448Y-65394005D01*
X205757766Y-65499585D01*
X205921860Y-65572644D01*
X206097558Y-65609990D01*
X206277182Y-65609990D01*
X206452880Y-65572644D01*
X206616974Y-65499585D01*
X206762292Y-65394005D01*
X206855734Y-65290225D01*
X206916179Y-65252987D01*
X206987163Y-65254338D01*
X207043004Y-65290225D01*
X207136448Y-65394005D01*
X207281766Y-65499585D01*
X207445860Y-65572644D01*
X207621558Y-65609990D01*
X207801182Y-65609990D01*
X207976880Y-65572644D01*
X208140974Y-65499585D01*
X208286292Y-65394005D01*
X208379734Y-65290225D01*
X208440179Y-65252987D01*
X208511163Y-65254338D01*
X208567004Y-65290225D01*
X208660448Y-65394005D01*
X208805766Y-65499585D01*
X208969860Y-65572644D01*
X209039480Y-65587442D01*
X209101954Y-65621170D01*
X209136276Y-65683320D01*
X209131548Y-65754159D01*
X209089273Y-65811196D01*
X209039482Y-65833935D01*
X208995263Y-65843334D01*
X208831162Y-65916397D01*
X208685848Y-66021974D01*
X208565658Y-66155459D01*
X208565655Y-66155463D01*
X208475845Y-66311017D01*
X208475842Y-66311023D01*
X208420338Y-66481850D01*
X208401563Y-66660490D01*
X208420338Y-66839129D01*
X208475842Y-67009956D01*
X208475845Y-67009962D01*
X208565655Y-67165516D01*
X208565657Y-67165519D01*
X208685848Y-67299005D01*
X208831166Y-67404585D01*
X208995260Y-67477644D01*
X209170958Y-67514990D01*
X209350582Y-67514990D01*
X209526280Y-67477644D01*
X209690374Y-67404585D01*
X209835692Y-67299005D01*
X209955883Y-67165519D01*
X210045695Y-67009961D01*
X210101201Y-66839129D01*
X210119977Y-66660490D01*
X210101201Y-66481851D01*
X210101201Y-66481850D01*
X210045697Y-66311023D01*
X210045694Y-66311017D01*
X209955884Y-66155463D01*
X209955883Y-66155461D01*
X209835692Y-66021975D01*
X209690374Y-65916395D01*
X209526280Y-65843336D01*
X209526276Y-65843334D01*
X209456657Y-65828536D01*
X209394184Y-65794808D01*
X209359863Y-65732658D01*
X209364591Y-65661819D01*
X209406867Y-65604782D01*
X209456656Y-65582043D01*
X209500880Y-65572644D01*
X209664974Y-65499585D01*
X209810292Y-65394005D01*
X209930483Y-65260519D01*
X210020295Y-65104961D01*
X210075801Y-64934129D01*
X210094577Y-64755490D01*
X210075801Y-64576851D01*
X210075801Y-64576850D01*
X210020297Y-64406023D01*
X210020294Y-64406017D01*
X209930484Y-64250463D01*
X209930483Y-64250461D01*
X209810292Y-64116975D01*
X209664974Y-64011395D01*
X209500880Y-63938336D01*
X209325182Y-63900990D01*
X209145558Y-63900990D01*
X208969859Y-63938336D01*
X208805762Y-64011397D01*
X208660445Y-64116976D01*
X208567006Y-64220752D01*
X208506560Y-64257992D01*
X208435577Y-64256640D01*
X208379734Y-64220752D01*
X208286294Y-64116976D01*
X208140974Y-64011395D01*
X207976880Y-63938336D01*
X207801182Y-63900990D01*
X207621558Y-63900990D01*
X207445859Y-63938336D01*
X207281762Y-64011397D01*
X207136445Y-64116976D01*
X207043006Y-64220752D01*
X206982560Y-64257992D01*
X206911577Y-64256640D01*
X206855734Y-64220752D01*
X206762294Y-64116976D01*
X206616974Y-64011395D01*
X206452880Y-63938336D01*
X206277182Y-63900990D01*
X206097558Y-63900990D01*
X205921859Y-63938336D01*
X205757762Y-64011397D01*
X205612448Y-64116974D01*
X205492258Y-64250459D01*
X205492255Y-64250463D01*
X205402445Y-64406017D01*
X205402442Y-64406023D01*
X205346938Y-64576850D01*
X205328163Y-64755490D01*
X167996000Y-64755490D01*
X167996000Y-63751000D01*
X168016002Y-63682879D01*
X168069658Y-63636386D01*
X168122000Y-63625000D01*
X223647500Y-63625000D01*
X223715621Y-63645002D01*
G37*
G04 #@! TD.AperFunction*
G04 #@! TA.AperFunction,Conductor*
G36*
X215661931Y-70378002D02*
G01*
X215682905Y-70394905D01*
X220689095Y-75401095D01*
X220723121Y-75463407D01*
X220726000Y-75490190D01*
X220726000Y-90371810D01*
X220705998Y-90439931D01*
X220689095Y-90460905D01*
X214666905Y-96483095D01*
X214604593Y-96517121D01*
X214577810Y-96520000D01*
X205978736Y-96520000D01*
X205910615Y-96499998D01*
X205864122Y-96446342D01*
X205854018Y-96376068D01*
X205883512Y-96311488D01*
X205885100Y-96309690D01*
X205927107Y-96263036D01*
X205927108Y-96263034D01*
X205927113Y-96263029D01*
X206016925Y-96107471D01*
X206017891Y-96104500D01*
X206072431Y-95936639D01*
X206077489Y-95888515D01*
X206091207Y-95758000D01*
X206072431Y-95579361D01*
X206058191Y-95535533D01*
X206016927Y-95408533D01*
X206016924Y-95408527D01*
X205927114Y-95252973D01*
X205927113Y-95252971D01*
X205806922Y-95119485D01*
X205661604Y-95013905D01*
X205497510Y-94940846D01*
X205321812Y-94903500D01*
X205142188Y-94903500D01*
X204966489Y-94940846D01*
X204802392Y-95013907D01*
X204657078Y-95119484D01*
X204536888Y-95252969D01*
X204536885Y-95252973D01*
X204447075Y-95408527D01*
X204447072Y-95408533D01*
X204391568Y-95579360D01*
X204372793Y-95758000D01*
X204391568Y-95936639D01*
X204447072Y-96107466D01*
X204447075Y-96107472D01*
X204536885Y-96263026D01*
X204536892Y-96263036D01*
X204578900Y-96309690D01*
X204609618Y-96373697D01*
X204600853Y-96444151D01*
X204555390Y-96498682D01*
X204487663Y-96519977D01*
X204485264Y-96520000D01*
X200503903Y-96520000D01*
X200435782Y-96499998D01*
X200389289Y-96446342D01*
X200379185Y-96376068D01*
X200394784Y-96331000D01*
X200434027Y-96263029D01*
X200450515Y-96234471D01*
X200506021Y-96063639D01*
X200524797Y-95885000D01*
X200506021Y-95706361D01*
X200505842Y-95705810D01*
X200450517Y-95535533D01*
X200450514Y-95535527D01*
X200360704Y-95379973D01*
X200360703Y-95379971D01*
X200243677Y-95250000D01*
X202340793Y-95250000D01*
X202359568Y-95428639D01*
X202415072Y-95599466D01*
X202415075Y-95599472D01*
X202476788Y-95706361D01*
X202504887Y-95755029D01*
X202625078Y-95888515D01*
X202770396Y-95994095D01*
X202934490Y-96067154D01*
X203110188Y-96104500D01*
X203289812Y-96104500D01*
X203465510Y-96067154D01*
X203629604Y-95994095D01*
X203774922Y-95888515D01*
X203895113Y-95755029D01*
X203984925Y-95599471D01*
X203991460Y-95579360D01*
X204040431Y-95428639D01*
X204045546Y-95379971D01*
X204059207Y-95250000D01*
X204040431Y-95071361D01*
X204027155Y-95030500D01*
X203984927Y-94900533D01*
X203984924Y-94900527D01*
X203895114Y-94744973D01*
X203895113Y-94744971D01*
X203774922Y-94611485D01*
X203629604Y-94505905D01*
X203465510Y-94432846D01*
X203289812Y-94395500D01*
X203110188Y-94395500D01*
X202934489Y-94432846D01*
X202770392Y-94505907D01*
X202625078Y-94611484D01*
X202504888Y-94744969D01*
X202504885Y-94744973D01*
X202415075Y-94900527D01*
X202415072Y-94900533D01*
X202359568Y-95071360D01*
X202340793Y-95250000D01*
X200243677Y-95250000D01*
X200240512Y-95246485D01*
X200095194Y-95140905D01*
X199931100Y-95067846D01*
X199755402Y-95030500D01*
X199575778Y-95030500D01*
X199400079Y-95067846D01*
X199235982Y-95140907D01*
X199090668Y-95246484D01*
X198970478Y-95379969D01*
X198970475Y-95379973D01*
X198880665Y-95535527D01*
X198880662Y-95535533D01*
X198825158Y-95706360D01*
X198806383Y-95885000D01*
X198825158Y-96063639D01*
X198880662Y-96234466D01*
X198880665Y-96234472D01*
X198936396Y-96331000D01*
X198953134Y-96399995D01*
X198929914Y-96467087D01*
X198874107Y-96510974D01*
X198827277Y-96520000D01*
X198276652Y-96520000D01*
X198208531Y-96499998D01*
X198171888Y-96464004D01*
X198159074Y-96444826D01*
X198159071Y-96444824D01*
X198159071Y-96444823D01*
X198074892Y-96388576D01*
X198000657Y-96373810D01*
X196250526Y-96373810D01*
X196250516Y-96373811D01*
X196176289Y-96388575D01*
X196092107Y-96444824D01*
X196092107Y-96444825D01*
X196079292Y-96464004D01*
X196024814Y-96509531D01*
X195974528Y-96520000D01*
X195211803Y-96520000D01*
X195145472Y-96501127D01*
X195120022Y-96485369D01*
X195120021Y-96485368D01*
X195120017Y-96485366D01*
X195072834Y-96467087D01*
X194929149Y-96411423D01*
X194929150Y-96411423D01*
X194929147Y-96411422D01*
X194929146Y-96411422D01*
X194727937Y-96373810D01*
X194523243Y-96373810D01*
X194322034Y-96411422D01*
X194322029Y-96411423D01*
X194131167Y-96485364D01*
X194131157Y-96485369D01*
X194105708Y-96501127D01*
X194039377Y-96520000D01*
X181662190Y-96520000D01*
X181594069Y-96499998D01*
X181573095Y-96483095D01*
X180884905Y-95794905D01*
X180850879Y-95732593D01*
X180848000Y-95705810D01*
X180848000Y-94731336D01*
X180868002Y-94663215D01*
X180899940Y-94629400D01*
X180914922Y-94618515D01*
X181035113Y-94485029D01*
X181124925Y-94329471D01*
X181125891Y-94326500D01*
X181180431Y-94158639D01*
X181185489Y-94110515D01*
X181199207Y-93980000D01*
X181180431Y-93801361D01*
X181180431Y-93801360D01*
X181124927Y-93630533D01*
X181124924Y-93630527D01*
X181035114Y-93474973D01*
X181035113Y-93474971D01*
X181032438Y-93472000D01*
X193704793Y-93472000D01*
X193723568Y-93650639D01*
X193779072Y-93821466D01*
X193779075Y-93821472D01*
X193868885Y-93977026D01*
X193868887Y-93977029D01*
X193989078Y-94110515D01*
X194134396Y-94216095D01*
X194298490Y-94289154D01*
X194474188Y-94326500D01*
X194653812Y-94326500D01*
X194829510Y-94289154D01*
X194993604Y-94216095D01*
X195138922Y-94110515D01*
X195259113Y-93977029D01*
X195348925Y-93821471D01*
X195355460Y-93801360D01*
X195404431Y-93650639D01*
X195406545Y-93630527D01*
X195423207Y-93472000D01*
X195404431Y-93293361D01*
X195404431Y-93293360D01*
X195348927Y-93122533D01*
X195348924Y-93122527D01*
X195259114Y-92966973D01*
X195259113Y-92966971D01*
X195138922Y-92833485D01*
X194993604Y-92727905D01*
X194829510Y-92654846D01*
X194653812Y-92617500D01*
X194474188Y-92617500D01*
X194298489Y-92654846D01*
X194134392Y-92727907D01*
X193989078Y-92833484D01*
X193868888Y-92966969D01*
X193868885Y-92966973D01*
X193779075Y-93122527D01*
X193779072Y-93122533D01*
X193723568Y-93293360D01*
X193704793Y-93472000D01*
X181032438Y-93472000D01*
X180914922Y-93341485D01*
X180914921Y-93341484D01*
X180899936Y-93330596D01*
X180856584Y-93274372D01*
X180848000Y-93228662D01*
X180848000Y-92202000D01*
X181258793Y-92202000D01*
X181277568Y-92380639D01*
X181333072Y-92551466D01*
X181333075Y-92551472D01*
X181371197Y-92617500D01*
X181422887Y-92707029D01*
X181543078Y-92840515D01*
X181688396Y-92946095D01*
X181852490Y-93019154D01*
X182028188Y-93056500D01*
X182207812Y-93056500D01*
X182383510Y-93019154D01*
X182547604Y-92946095D01*
X182692922Y-92840515D01*
X182813113Y-92707029D01*
X182902925Y-92551471D01*
X182958431Y-92380639D01*
X182977207Y-92202000D01*
X182958431Y-92023361D01*
X182958431Y-92023360D01*
X182902927Y-91852533D01*
X182902924Y-91852527D01*
X182813114Y-91696973D01*
X182813113Y-91696971D01*
X182692922Y-91563485D01*
X182547604Y-91457905D01*
X182383510Y-91384846D01*
X182207812Y-91347500D01*
X182028188Y-91347500D01*
X181852489Y-91384846D01*
X181688392Y-91457907D01*
X181543078Y-91563484D01*
X181422888Y-91696969D01*
X181422885Y-91696973D01*
X181333075Y-91852527D01*
X181333072Y-91852533D01*
X181277568Y-92023360D01*
X181258793Y-92202000D01*
X180848000Y-92202000D01*
X180848000Y-90170000D01*
X184052793Y-90170000D01*
X184071568Y-90348639D01*
X184127072Y-90519466D01*
X184127075Y-90519472D01*
X184216885Y-90675026D01*
X184216887Y-90675029D01*
X184337078Y-90808515D01*
X184482396Y-90914095D01*
X184646490Y-90987154D01*
X184822188Y-91024500D01*
X185001812Y-91024500D01*
X185177510Y-90987154D01*
X185341604Y-90914095D01*
X185486922Y-90808515D01*
X185607113Y-90675029D01*
X185696925Y-90519471D01*
X185752431Y-90348639D01*
X185771207Y-90170000D01*
X185752431Y-89991361D01*
X185726980Y-89913029D01*
X185696927Y-89820533D01*
X185696924Y-89820527D01*
X185607114Y-89664973D01*
X185607113Y-89664971D01*
X185486922Y-89531485D01*
X185341604Y-89425905D01*
X185177510Y-89352846D01*
X185001812Y-89315500D01*
X184822188Y-89315500D01*
X184646489Y-89352846D01*
X184482392Y-89425907D01*
X184337078Y-89531484D01*
X184216888Y-89664969D01*
X184216885Y-89664973D01*
X184127075Y-89820527D01*
X184127072Y-89820533D01*
X184071568Y-89991360D01*
X184052793Y-90170000D01*
X180848000Y-90170000D01*
X180848000Y-88138000D01*
X181258793Y-88138000D01*
X181277568Y-88316639D01*
X181333072Y-88487466D01*
X181333075Y-88487472D01*
X181371197Y-88553500D01*
X181422887Y-88643029D01*
X181543078Y-88776515D01*
X181688396Y-88882095D01*
X181852490Y-88955154D01*
X182028188Y-88992500D01*
X182207812Y-88992500D01*
X182383510Y-88955154D01*
X182547604Y-88882095D01*
X182692922Y-88776515D01*
X182813113Y-88643029D01*
X182902925Y-88487471D01*
X182958431Y-88316639D01*
X182977207Y-88138000D01*
X182958431Y-87959361D01*
X182958431Y-87959360D01*
X182902927Y-87788533D01*
X182902924Y-87788527D01*
X182813114Y-87632973D01*
X182813113Y-87632971D01*
X182692922Y-87499485D01*
X182654357Y-87471466D01*
X182547604Y-87393905D01*
X182383510Y-87320846D01*
X182207812Y-87283500D01*
X182028188Y-87283500D01*
X181852489Y-87320846D01*
X181688392Y-87393907D01*
X181543078Y-87499484D01*
X181422888Y-87632969D01*
X181422885Y-87632973D01*
X181333075Y-87788527D01*
X181333072Y-87788533D01*
X181277568Y-87959360D01*
X181258793Y-88138000D01*
X180848000Y-88138000D01*
X180848000Y-87111336D01*
X180868002Y-87043215D01*
X180899940Y-87009400D01*
X180914922Y-86998515D01*
X181035113Y-86865029D01*
X181124925Y-86709471D01*
X181154981Y-86616969D01*
X181180431Y-86538639D01*
X181186228Y-86483484D01*
X181199207Y-86360000D01*
X181180431Y-86181361D01*
X181180431Y-86181360D01*
X181124927Y-86010533D01*
X181124924Y-86010527D01*
X181035114Y-85854973D01*
X181035113Y-85854971D01*
X180914922Y-85721485D01*
X180914921Y-85721484D01*
X180899936Y-85710596D01*
X180856584Y-85654372D01*
X180848000Y-85608662D01*
X180848000Y-81168103D01*
X180868002Y-81099982D01*
X180921658Y-81053489D01*
X180922570Y-81053077D01*
X181023604Y-81008095D01*
X181168922Y-80902515D01*
X181289113Y-80769029D01*
X181378925Y-80613471D01*
X181385460Y-80593360D01*
X181434431Y-80442639D01*
X181453207Y-80264000D01*
X181434431Y-80085361D01*
X181434431Y-80085360D01*
X181378927Y-79914533D01*
X181378924Y-79914527D01*
X181289114Y-79758973D01*
X181289113Y-79758971D01*
X181168922Y-79625485D01*
X181168510Y-79625186D01*
X181023604Y-79519905D01*
X180922749Y-79475002D01*
X180868656Y-79429023D01*
X180848006Y-79361096D01*
X180848000Y-79359896D01*
X180848000Y-76850103D01*
X180868002Y-76781982D01*
X180921658Y-76735489D01*
X180922570Y-76735077D01*
X181023604Y-76690095D01*
X181168922Y-76584515D01*
X181289113Y-76451029D01*
X181378925Y-76295471D01*
X181379891Y-76292500D01*
X181434431Y-76124639D01*
X181439489Y-76076515D01*
X181453207Y-75946000D01*
X181434431Y-75767361D01*
X181431530Y-75758432D01*
X181378927Y-75596533D01*
X181378924Y-75596527D01*
X181317530Y-75490190D01*
X181289113Y-75440971D01*
X181168922Y-75307485D01*
X181149088Y-75293075D01*
X181023604Y-75201905D01*
X180922749Y-75157002D01*
X180868656Y-75111023D01*
X180848006Y-75043096D01*
X180848000Y-75041896D01*
X180848000Y-72770000D01*
X180868002Y-72701879D01*
X180921658Y-72655386D01*
X180974000Y-72644000D01*
X186564000Y-72644000D01*
X186632121Y-72664002D01*
X186678614Y-72717658D01*
X186690000Y-72770000D01*
X186690000Y-75018524D01*
X186669998Y-75086645D01*
X186616342Y-75133138D01*
X186546068Y-75143242D01*
X186481488Y-75113748D01*
X186454881Y-75081525D01*
X186369113Y-74932971D01*
X186248922Y-74799485D01*
X186103604Y-74693905D01*
X185939510Y-74620846D01*
X185763812Y-74583500D01*
X185584188Y-74583500D01*
X185408489Y-74620846D01*
X185244392Y-74693907D01*
X185099078Y-74799484D01*
X184978888Y-74932969D01*
X184978885Y-74932973D01*
X184889075Y-75088527D01*
X184889072Y-75088533D01*
X184833568Y-75259360D01*
X184814793Y-75438000D01*
X184833568Y-75616639D01*
X184889072Y-75787466D01*
X184889075Y-75787472D01*
X184905699Y-75816265D01*
X184978887Y-75943029D01*
X185099078Y-76076515D01*
X185244396Y-76182095D01*
X185408490Y-76255154D01*
X185584188Y-76292500D01*
X185763812Y-76292500D01*
X185939510Y-76255154D01*
X186103604Y-76182095D01*
X186248922Y-76076515D01*
X186369113Y-75943029D01*
X186454881Y-75794474D01*
X186506264Y-75745482D01*
X186575977Y-75732046D01*
X186641888Y-75758432D01*
X186683070Y-75816265D01*
X186690000Y-75857475D01*
X186690000Y-77355116D01*
X186669998Y-77423237D01*
X186616342Y-77469730D01*
X186546068Y-77479834D01*
X186489939Y-77457052D01*
X186357604Y-77360905D01*
X186193510Y-77287846D01*
X186017812Y-77250500D01*
X185838188Y-77250500D01*
X185662489Y-77287846D01*
X185498392Y-77360907D01*
X185353078Y-77466484D01*
X185232888Y-77599969D01*
X185232885Y-77599973D01*
X185143075Y-77755527D01*
X185143072Y-77755533D01*
X185087568Y-77926360D01*
X185068793Y-78105000D01*
X185087568Y-78283639D01*
X185143072Y-78454466D01*
X185143075Y-78454472D01*
X185190249Y-78536179D01*
X185232887Y-78610029D01*
X185353078Y-78743515D01*
X185498396Y-78849095D01*
X185662490Y-78922154D01*
X185838188Y-78959500D01*
X186017812Y-78959500D01*
X186193510Y-78922154D01*
X186357604Y-78849095D01*
X186489940Y-78752946D01*
X186556806Y-78729089D01*
X186625958Y-78745169D01*
X186675438Y-78796082D01*
X186690000Y-78854883D01*
X186690000Y-80352524D01*
X186669998Y-80420645D01*
X186616342Y-80467138D01*
X186546068Y-80477242D01*
X186481488Y-80447748D01*
X186454881Y-80415525D01*
X186369113Y-80266971D01*
X186248922Y-80133485D01*
X186103604Y-80027905D01*
X185939510Y-79954846D01*
X185763812Y-79917500D01*
X185584188Y-79917500D01*
X185408489Y-79954846D01*
X185244392Y-80027907D01*
X185099078Y-80133484D01*
X184978888Y-80266969D01*
X184978885Y-80266973D01*
X184889075Y-80422527D01*
X184889072Y-80422533D01*
X184833568Y-80593360D01*
X184814793Y-80772000D01*
X184833568Y-80950639D01*
X184889072Y-81121466D01*
X184889075Y-81121472D01*
X184905699Y-81150265D01*
X184978887Y-81277029D01*
X185099078Y-81410515D01*
X185244396Y-81516095D01*
X185408490Y-81589154D01*
X185584188Y-81626500D01*
X185763812Y-81626500D01*
X185939510Y-81589154D01*
X186103604Y-81516095D01*
X186248922Y-81410515D01*
X186369113Y-81277029D01*
X186454881Y-81128474D01*
X186506264Y-81079482D01*
X186575977Y-81066046D01*
X186641888Y-81092432D01*
X186683070Y-81150265D01*
X186690000Y-81191475D01*
X186690000Y-86146376D01*
X186669998Y-86214497D01*
X186616342Y-86260990D01*
X186590198Y-86269622D01*
X186424493Y-86304844D01*
X186260392Y-86377907D01*
X186115078Y-86483484D01*
X185994888Y-86616969D01*
X185994885Y-86616973D01*
X185905075Y-86772527D01*
X185905072Y-86772533D01*
X185849568Y-86943360D01*
X185830793Y-87122000D01*
X185849568Y-87300639D01*
X185905072Y-87471466D01*
X185905075Y-87471472D01*
X185986265Y-87612095D01*
X185994887Y-87627029D01*
X186115078Y-87760515D01*
X186260396Y-87866095D01*
X186424490Y-87939154D01*
X186590198Y-87974376D01*
X186652670Y-88008104D01*
X186686992Y-88070254D01*
X186690000Y-88097623D01*
X186690000Y-88392001D01*
X189483998Y-91185999D01*
X189484000Y-91186000D01*
X189846510Y-91186000D01*
X189914631Y-91206002D01*
X189961124Y-91259658D01*
X189966343Y-91273065D01*
X189969071Y-91281463D01*
X189969075Y-91281472D01*
X190007197Y-91347500D01*
X190058887Y-91437029D01*
X190179078Y-91570515D01*
X190324396Y-91676095D01*
X190488490Y-91749154D01*
X190664188Y-91786500D01*
X190843812Y-91786500D01*
X191019510Y-91749154D01*
X191183604Y-91676095D01*
X191328922Y-91570515D01*
X191449113Y-91437029D01*
X191538925Y-91281471D01*
X191538928Y-91281463D01*
X191541657Y-91273065D01*
X191581730Y-91214459D01*
X191647126Y-91186821D01*
X191661490Y-91186000D01*
X211582000Y-91186000D01*
X215646000Y-87122000D01*
X215646000Y-85766939D01*
X215662882Y-85703937D01*
X215668925Y-85693471D01*
X215694128Y-85615905D01*
X215724431Y-85522639D01*
X215726232Y-85505500D01*
X215743207Y-85344000D01*
X215724431Y-85165361D01*
X215724431Y-85165360D01*
X215668927Y-84994533D01*
X215668922Y-84994522D01*
X215662879Y-84984055D01*
X215646000Y-84921059D01*
X215646000Y-82972939D01*
X215662882Y-82909937D01*
X215668925Y-82899471D01*
X215700911Y-82801029D01*
X215724431Y-82728639D01*
X215725969Y-82714004D01*
X215743207Y-82550000D01*
X215724431Y-82371361D01*
X215724431Y-82371360D01*
X215668927Y-82200533D01*
X215668922Y-82200522D01*
X215662879Y-82190055D01*
X215646000Y-82127059D01*
X215646000Y-80432939D01*
X215662882Y-80369937D01*
X215668925Y-80359471D01*
X215671183Y-80352524D01*
X215724431Y-80188639D01*
X215735286Y-80085360D01*
X215743207Y-80010000D01*
X215724431Y-79831361D01*
X215724431Y-79831360D01*
X215668927Y-79660533D01*
X215668922Y-79660522D01*
X215662879Y-79650055D01*
X215646000Y-79587059D01*
X215646000Y-77892939D01*
X215662882Y-77829937D01*
X215668925Y-77819471D01*
X215689700Y-77755533D01*
X215724431Y-77648639D01*
X215729546Y-77599971D01*
X215743207Y-77470000D01*
X215724431Y-77291361D01*
X215724431Y-77291360D01*
X215668927Y-77120533D01*
X215668924Y-77120527D01*
X215579114Y-76964973D01*
X215579113Y-76964971D01*
X215458922Y-76831485D01*
X215313604Y-76725905D01*
X215149506Y-76652844D01*
X215101355Y-76642609D01*
X215038882Y-76608881D01*
X215038458Y-76608458D01*
X214064341Y-75634341D01*
X214053195Y-75620263D01*
X214052599Y-75620714D01*
X213925733Y-75452715D01*
X213774463Y-75314814D01*
X213709035Y-75274303D01*
X213686274Y-75256274D01*
X213106000Y-74676000D01*
X212347661Y-74676000D01*
X212279540Y-74655998D01*
X212258566Y-74639095D01*
X212210668Y-74591197D01*
X212193768Y-74570228D01*
X212191196Y-74566225D01*
X212191194Y-74566223D01*
X212153389Y-74533464D01*
X212146808Y-74527336D01*
X212137225Y-74517753D01*
X212136848Y-74517471D01*
X212126338Y-74509603D01*
X212119367Y-74503985D01*
X212081558Y-74471223D01*
X212081556Y-74471222D01*
X212081553Y-74471220D01*
X212077224Y-74469243D01*
X212054071Y-74455504D01*
X212050269Y-74452658D01*
X212050268Y-74452657D01*
X212003402Y-74435177D01*
X211995103Y-74431740D01*
X211949596Y-74410958D01*
X211949593Y-74410957D01*
X211944890Y-74410281D01*
X211918798Y-74403621D01*
X211914344Y-74401960D01*
X211864441Y-74398390D01*
X211855520Y-74397431D01*
X211842083Y-74395500D01*
X211842078Y-74395500D01*
X211828517Y-74395500D01*
X211819529Y-74395179D01*
X211799067Y-74393715D01*
X211769641Y-74391611D01*
X211769639Y-74391611D01*
X211764997Y-74392621D01*
X211738216Y-74395500D01*
X206374000Y-74395500D01*
X206305879Y-74375498D01*
X206259386Y-74321842D01*
X206248000Y-74269500D01*
X206248000Y-70484000D01*
X206268002Y-70415879D01*
X206321658Y-70369386D01*
X206374000Y-70358000D01*
X215593810Y-70358000D01*
X215661931Y-70378002D01*
G37*
G04 #@! TD.AperFunction*
M02*
